<svg width="58" height="23" viewBox="0 0 58 23" fill="none" xmlns="http://www.w3.org/2000/svg">
<path d="M3.80002 0.25H54.1C55.9539 0.25 57.553 1.831 57.65 3.80606V19.2C57.65 21.1619 56.0619 22.75 54.1 22.75H3.80002C1.83809 22.75 0.25 21.1619 0.25 19.2V3.8C0.25 1.83808 1.83809 0.25 3.80002 0.25Z" fill="white" stroke="#D7D7D7" stroke-width="0.5"/>
<path d="M32.2 6.7C32.1 6.8 32.1 6.8 31.9 6.8C31 8.8 29.6 10.6 28 11.8C27.8 11.6 27.5 11.3 27.3 11.2C28.9 10.1 30.3 8.29999 31.1 6.39999L32.2 6.7ZM36.6 10.9H36.8L37.3 11C37.3 11.1 37.3 11.2 37.3 11.3C37.1 15.3 36.9 16.8 36.5 17.3C36.1 17.7 35.8 17.7 35 17.7C34.6 17.7 34 17.7 33.5 17.7C33.5 17.4 33.4 17.1 33.2 16.9C34.1 17 34.9 17 35.2 17C35.5 17 35.6 17 35.7 16.8C36 16.5 36.2 15.2 36.4 11.8H33C32.7 14.2 32 16.6 28.6 17.8C28.5 17.6 28.3 17.3 28.1 17.1C31.1 16.1 31.8 14 32.1 11.8H29.4V11H36.6V10.9ZM35.5 6.3C36.3 8 38 9.99999 39.4 10.9C39.2 11.1 38.9 11.4 38.7 11.7C37.3 10.6 35.7 8.5 34.7 6.7L35.5 6.3Z" fill="white"/>
<path d="M32.2 6.7C32.1 6.8 32.1 6.8 31.9 6.8C31 8.8 29.6 10.6 28 11.8C27.8 11.6 27.5 11.3 27.3 11.2C28.9 10.1 30.3 8.29999 31.1 6.39999L32.2 6.7ZM36.6 10.9H36.8L37.3 11C37.3 11.1 37.3 11.2 37.3 11.3C37.1 15.3 36.9 16.8 36.5 17.3C36.1 17.7 35.8 17.7 35 17.7C34.6 17.7 34 17.7 33.5 17.7C33.5 17.4 33.4 17.1 33.2 16.9C34.1 17 34.9 17 35.2 17C35.5 17 35.6 17 35.7 16.8C36 16.5 36.2 15.2 36.4 11.8H33C32.7 14.2 32 16.6 28.6 17.8C28.5 17.6 28.3 17.3 28.1 17.1C31.1 16.1 31.8 14 32.1 11.8H29.4V11H36.6V10.9ZM35.5 6.3C36.3 8 38 9.99999 39.4 10.9C39.2 11.1 38.9 11.4 38.7 11.7C37.3 10.6 35.7 8.5 34.7 6.7L35.5 6.3Z" fill="black"/>
<path d="M51.6 14.5V15.2H46.3V16.8C46.3 17.3 46.2 17.5 45.7 17.6C45.2 17.7 44.6 17.7 43.4 17.7C43.4 17.5 43.2 17.2 43.1 17C43.6 17 44.1 17 44.5 17C45.3 17 45.4 17 45.4 16.7V15.2H40.2V14.5H45.4V13.6H46C46.8 13.4 47.6 13.1 48.3 12.8H41.4V12.1H49.6L49.8 12L50.5 12.5C50.5 12.6 50.4 12.6 50.3 12.6C49.3 13.2 47.8 13.7 46.4 14.1V14.4H51.6V14.5ZM51.5 7.2V7.89999H40.3V7.2H45.4V6L46.5 6.09999C46.5 6.19999 46.4 6.3 46.2 6.3V7.2H51.5ZM49.8 11.3H42V8.8H49.8V11.3ZM42.9 9.39999V10.6H49V9.39999H42.9Z" fill="white"/>
<path d="M51.6 14.5V15.2H46.3V16.8C46.3 17.3 46.2 17.5 45.7 17.6C45.2 17.7 44.6 17.7 43.4 17.7C43.4 17.5 43.2 17.2 43.1 17C43.6 17 44.1 17 44.5 17C45.3 17 45.4 17 45.4 16.7V15.2H40.2V14.5H45.4V13.6H46C46.8 13.4 47.6 13.1 48.3 12.8H41.4V12.1H49.6L49.8 12L50.5 12.5C50.5 12.6 50.4 12.6 50.3 12.6C49.3 13.2 47.8 13.7 46.4 14.1V14.4H51.6V14.5ZM51.5 7.2V7.89999H40.3V7.2H45.4V6L46.5 6.09999C46.5 6.19999 46.4 6.3 46.2 6.3V7.2H51.5ZM49.8 11.3H42V8.8H49.8V11.3ZM42.9 9.39999V10.6H49V9.39999H42.9Z" fill="black"/>
<path d="M10.7846 6.41936C8.19742 6.41936 6.09998 8.58575 6.09998 11.2581C6.09998 13.9304 8.19742 16.0968 10.7846 16.0968C12.47 16.0968 13.4468 15.5584 14.2945 14.6828C15.1422 13.8071 15.4509 12.4828 15.4509 11.1466C15.4509 10.9428 15.438 10.7401 15.4153 10.5395H13.5884H13.2402H10.8415V12.2503H13.528C13.4188 12.6768 13.2337 13.0655 12.9423 13.3665C12.4203 13.9056 11.8188 14.2374 10.7811 14.2374C9.18818 14.2374 7.89673 12.9034 7.89673 11.2581C7.89673 9.61272 9.18818 8.27891 10.7811 8.27891C11.5561 8.27891 12.2316 8.5075 12.7665 9.00577L14.0854 7.66703L14.0834 7.66491C13.2036 6.80788 12.0783 6.41971 10.7847 6.41971L10.7846 6.41936ZM18.383 9.20542V10.6003H17.0087V11.9631H18.383V13.3582H19.7258V11.9631H21.1V10.6003H19.7258V9.20542H18.383ZM13.2379 9.60117C13.2386 9.6022 13.2396 9.60398 13.2399 9.60524V9.60346L13.2379 9.60117Z" fill="white"/>
<path d="M10.7846 6.41936C8.19742 6.41936 6.09998 8.58575 6.09998 11.2581C6.09998 13.9304 8.19742 16.0968 10.7846 16.0968C12.47 16.0968 13.4468 15.5584 14.2945 14.6828C15.1422 13.8071 15.4509 12.4828 15.4509 11.1466C15.4509 10.9428 15.438 10.7401 15.4153 10.5395H13.5884H13.2402H10.8415V12.2503H13.528C13.4188 12.6768 13.2337 13.0655 12.9423 13.3665C12.4203 13.9056 11.8188 14.2374 10.7811 14.2374C9.18818 14.2374 7.89673 12.9034 7.89673 11.2581C7.89673 9.61272 9.18818 8.27891 10.7811 8.27891C11.5561 8.27891 12.2316 8.5075 12.7665 9.00577L14.0854 7.66703L14.0834 7.66491C13.2036 6.80788 12.0783 6.41971 10.7847 6.41971L10.7846 6.41936ZM18.383 9.20542V10.6003H17.0087V11.9631H18.383V13.3582H19.7258V11.9631H21.1V10.6003H19.7258V9.20542H18.383ZM13.2379 9.60117C13.2386 9.6022 13.2396 9.60398 13.2399 9.60524V9.60346L13.2379 9.60117Z" fill="#DD5044"/>
</svg>
