<svg width="67" height="23" viewBox="0 0 67 23" fill="none" xmlns="http://www.w3.org/2000/svg">
<path d="M3.80002 0.25H63.1C64.9539 0.25 66.553 1.831 66.65 3.80606V19.2C66.65 21.1619 65.0619 22.75 63.1 22.75H3.80002C1.83809 22.75 0.25 21.1619 0.25 19.2V3.8C0.25 1.83808 1.83809 0.25 3.80002 0.25Z" fill="white" stroke="#D7D7D7" stroke-width="0.5"/>
<path d="M28 7.10001H31.3C32 7.10001 32.6 7.2 33 7.3C33.5 7.5 34 7.70001 34.4 8.10001C34.8 8.50001 35.1 9.00001 35.3 9.60001C35.5 10.2 35.6 10.9 35.6 11.7C35.6 12.4 35.5 13.1 35.3 13.6C35.1 14.3 34.8 14.8 34.3 15.2C34 15.5 33.6 15.7 33 15.9C32.6 16 32.1 16.1 31.4 16.1H28V7.10001ZM29.8 8.60001V14.5H31.2C31.7 14.5 32.1 14.5 32.3 14.4C32.6 14.3 32.8 14.2 33 14C33.2 13.8 33.4 13.5 33.5 13.1C33.6 12.7 33.7 12.2 33.7 11.5C33.7 10.8 33.6 10.3 33.5 9.90001C33.4 9.50001 33.2 9.2 33 9C32.8 8.8 32.5 8.70001 32.2 8.60001C31.9 8.50001 31.5 8.5 30.7 8.5H29.8V8.60001Z" fill="white"/>
<path d="M28 7.10001H31.3C32 7.10001 32.6 7.2 33 7.3C33.5 7.5 34 7.70001 34.4 8.10001C34.8 8.50001 35.1 9.00001 35.3 9.60001C35.5 10.2 35.6 10.9 35.6 11.7C35.6 12.4 35.5 13.1 35.3 13.6C35.1 14.3 34.8 14.8 34.3 15.2C34 15.5 33.6 15.7 33 15.9C32.6 16 32.1 16.1 31.4 16.1H28V7.10001ZM29.8 8.60001V14.5H31.2C31.7 14.5 32.1 14.5 32.3 14.4C32.6 14.3 32.8 14.2 33 14C33.2 13.8 33.4 13.5 33.5 13.1C33.6 12.7 33.7 12.2 33.7 11.5C33.7 10.8 33.6 10.3 33.5 9.90001C33.4 9.50001 33.2 9.2 33 9C32.8 8.8 32.5 8.70001 32.2 8.60001C31.9 8.50001 31.5 8.5 30.7 8.5H29.8V8.60001Z" fill="black"/>
<path d="M40.8 14L42.5 14.3C42.3 14.9 41.9 15.4 41.5 15.7C41.1 16 40.4 16.2 39.7 16.2C38.6 16.2 37.7 15.8 37.2 15.1C36.8 14.5 36.6 13.8 36.6 12.9C36.6 11.8 36.9 11 37.4 10.4C38 9.80001 38.7 9.5 39.5 9.5C40.5 9.5 41.2 9.8 41.8 10.5C42.4 11.1 42.6 12.1 42.6 13.4H38.3C38.3 13.9 38.5 14.3 38.7 14.6C39 14.9 39.3 15 39.7 15C40 15 40.2 14.9 40.4 14.8C40.6 14.5 40.7 14.3 40.8 14ZM40.9 12.2C40.9 11.7 40.8 11.3 40.5 11.1C40.2 10.9 40 10.7 39.6 10.7C39.2 10.7 38.9 10.8 38.7 11.1C38.5 11.4 38.3 11.7 38.3 12.2H40.9Z" fill="white"/>
<path d="M40.8 14L42.5 14.3C42.3 14.9 41.9 15.4 41.5 15.7C41.1 16 40.4 16.2 39.7 16.2C38.6 16.2 37.7 15.8 37.2 15.1C36.8 14.5 36.6 13.8 36.6 12.9C36.6 11.8 36.9 11 37.4 10.4C38 9.80001 38.7 9.5 39.5 9.5C40.5 9.5 41.2 9.8 41.8 10.5C42.4 11.1 42.6 12.1 42.6 13.4H38.3C38.3 13.9 38.5 14.3 38.7 14.6C39 14.9 39.3 15 39.7 15C40 15 40.2 14.9 40.4 14.8C40.6 14.5 40.7 14.3 40.8 14ZM40.9 12.2C40.9 11.7 40.8 11.3 40.5 11.1C40.2 10.9 40 10.7 39.6 10.7C39.2 10.7 38.9 10.8 38.7 11.1C38.5 11.4 38.3 11.7 38.3 12.2H40.9Z" fill="black"/>
<path d="M44 16V7H45.7V16H44Z" fill="white"/>
<path d="M44 16V7H45.7V16H44Z" fill="black"/>
<path d="M51.2 14L52.9 14.3C52.7 14.9 52.3 15.4 51.9 15.7C51.5 16 50.8 16.2 50.1 16.2C49 16.2 48.1 15.8 47.6 15.1C47.2 14.5 47 13.8 47 12.9C47 11.8 47.3 11 47.8 10.4C48.4 9.80001 49.1 9.5 49.9 9.5C50.9 9.5 51.6 9.8 52.2 10.5C52.8 11.1 53 12.1 53 13.4H48.7C48.7 13.9 48.9 14.3 49.1 14.6C49.4 14.9 49.7 15 50.1 15C50.4 15 50.6 14.9 50.8 14.8C51 14.5 51.1 14.3 51.2 14ZM51.3 12.2C51.3 11.7 51.2 11.3 50.9 11.1C50.6 10.9 50.4 10.7 50 10.7C49.6 10.7 49.3 10.8 49.1 11.1C48.9 11.4 48.7 11.7 48.7 12.2H51.3Z" fill="white"/>
<path d="M51.2 14L52.9 14.3C52.7 14.9 52.3 15.4 51.9 15.7C51.5 16 50.8 16.2 50.1 16.2C49 16.2 48.1 15.8 47.6 15.1C47.2 14.5 47 13.8 47 12.9C47 11.8 47.3 11 47.8 10.4C48.4 9.80001 49.1 9.5 49.9 9.5C50.9 9.5 51.6 9.8 52.2 10.5C52.8 11.1 53 12.1 53 13.4H48.7C48.7 13.9 48.9 14.3 49.1 14.6C49.4 14.9 49.7 15 50.1 15C50.4 15 50.6 14.9 50.8 14.8C51 14.5 51.1 14.3 51.2 14ZM51.3 12.2C51.3 11.7 51.2 11.3 50.9 11.1C50.6 10.9 50.4 10.7 50 10.7C49.6 10.7 49.3 10.8 49.1 11.1C48.9 11.4 48.7 11.7 48.7 12.2H51.3Z" fill="black"/>
<path d="M60.3 16H58.6V12.7C58.6 12 58.6 11.5 58.5 11.3C58.4 11.1 58.3 10.9 58.1 10.8C57.9 10.7 57.7 10.6 57.5 10.6C57.2 10.6 56.9 10.7 56.7 10.8C56.5 10.9 56.3 11.2 56.2 11.4C56.1 11.7 56.1 12.2 56.1 12.9V15.8H54.4V9.3H56V10.3C56.6 9.6 57.3 9.20001 58.1 9.20001C58.5 9.20001 58.8 9.30001 59.1 9.40001C59.4 9.50001 59.7 9.70001 59.8 9.90001C59.9 10.1 60.1 10.4 60.1 10.6C60.2 10.9 60.2 11.3 60.2 11.8V16H60.3Z" fill="white"/>
<path d="M60.3 16H58.6V12.7C58.6 12 58.6 11.5 58.5 11.3C58.4 11.1 58.3 10.9 58.1 10.8C57.9 10.7 57.7 10.6 57.5 10.6C57.2 10.6 56.9 10.7 56.7 10.8C56.5 10.9 56.3 11.2 56.2 11.4C56.1 11.7 56.1 12.2 56.1 12.9V15.8H54.4V9.3H56V10.3C56.6 9.6 57.3 9.20001 58.1 9.20001C58.5 9.20001 58.8 9.30001 59.1 9.40001C59.4 9.50001 59.7 9.70001 59.8 9.90001C59.9 10.1 60.1 10.4 60.1 10.6C60.2 10.9 60.2 11.3 60.2 11.8V16H60.3Z" fill="black"/>
<path d="M10.7846 6.41936C8.19742 6.41936 6.09998 8.58575 6.09998 11.2581C6.09998 13.9304 8.19742 16.0968 10.7846 16.0968C12.47 16.0968 13.4468 15.5584 14.2945 14.6828C15.1422 13.8071 15.4509 12.4828 15.4509 11.1466C15.4509 10.9428 15.438 10.7401 15.4153 10.5395H13.5884H13.2402H10.8415V12.2503H13.528C13.4188 12.6768 13.2337 13.0655 12.9423 13.3665C12.4203 13.9056 11.8188 14.2374 10.7811 14.2374C9.18818 14.2374 7.89673 12.9034 7.89673 11.2581C7.89673 9.61272 9.18818 8.27891 10.7811 8.27891C11.5561 8.27891 12.2316 8.5075 12.7665 9.00577L14.0854 7.66703L14.0834 7.66491C13.2036 6.80788 12.0783 6.41971 10.7847 6.41971L10.7846 6.41936ZM18.383 9.20542V10.6003H17.0087V11.9631H18.383V13.3582H19.7258V11.9631H21.1V10.6003H19.7258V9.20542H18.383ZM13.2379 9.60117C13.2386 9.6022 13.2396 9.60398 13.2399 9.60524V9.60346L13.2379 9.60117Z" fill="white"/>
<path d="M10.7846 6.41936C8.19742 6.41936 6.09998 8.58575 6.09998 11.2581C6.09998 13.9304 8.19742 16.0968 10.7846 16.0968C12.47 16.0968 13.4468 15.5584 14.2945 14.6828C15.1422 13.8071 15.4509 12.4828 15.4509 11.1466C15.4509 10.9428 15.438 10.7401 15.4153 10.5395H13.5884H13.2402H10.8415V12.2503H13.528C13.4188 12.6768 13.2337 13.0655 12.9423 13.3665C12.4203 13.9056 11.8188 14.2374 10.7811 14.2374C9.18818 14.2374 7.89673 12.9034 7.89673 11.2581C7.89673 9.61272 9.18818 8.27891 10.7811 8.27891C11.5561 8.27891 12.2316 8.5075 12.7665 9.00577L14.0854 7.66703L14.0834 7.66491C13.2036 6.80788 12.0783 6.41971 10.7847 6.41971L10.7846 6.41936ZM18.383 9.20542V10.6003H17.0087V11.9631H18.383V13.3582H19.7258V11.9631H21.1V10.6003H19.7258V9.20542H18.383ZM13.2379 9.60117C13.2386 9.6022 13.2396 9.60398 13.2399 9.60524V9.60346L13.2379 9.60117Z" fill="#DD5044"/>
</svg>
