<svg width="68" height="23" viewBox="0 0 68 23" fill="none" xmlns="http://www.w3.org/2000/svg">
<path d="M3.80002 0.25H64.1C65.9539 0.25 67.553 1.83099 67.65 3.80605V19.2C67.65 21.1619 66.0619 22.75 64.1 22.75H3.80002C1.83809 22.75 0.25 21.1619 0.25 19.2V3.8C0.25 1.83807 1.83809 0.25 3.80002 0.25Z" fill="white" stroke="#D7D7D7" stroke-width="0.5"/>
<path d="M27.5 13.3L29.3 13.1C29.4 13.7 29.6 14.1 29.9 14.4C30.2 14.7 30.7 14.8 31.2 14.8C31.8 14.8 32.2 14.7 32.5 14.4C32.8 14.2 32.9 13.9 32.9 13.5C32.9 13.3 32.8 13.1 32.7 13C32.6 12.9 32.4 12.7 32 12.6C31.8 12.5 31.3 12.4 30.6 12.2C29.6 12 28.9 11.7 28.6 11.3C28 10.8 27.8 10.2 27.8 9.5C27.8 9 27.9 8.6 28.2 8.2C28.5 7.8 28.8 7.5 29.3 7.3C29.8 7.1 30.4 7 31.1 7C32.2 7 33.1 7.2 33.6 7.7C34.2 8.2 34.5 8.9 34.5 9.7L32.7 9.8C32.6 9.3 32.5 9 32.2 8.8C31.9 8.6 31.6 8.5 31.1 8.5C30.6 8.5 30.2 8.6 29.9 8.8C29.7 8.9 29.6 9.1 29.6 9.4C29.6 9.6 29.7 9.8 29.9 9.9C30.1 10.1 30.7 10.3 31.6 10.5C32.5 10.7 33.1 10.9 33.6 11.1C34.1 11.3 34.4 11.6 34.6 12C34.8 12.4 35 12.9 35 13.4C35 13.9 34.9 14.4 34.6 14.8C34.3 15.2 33.9 15.6 33.4 15.8C32.9 16 32.2 16.1 31.4 16.1C30.3 16.1 29.4 15.8 28.8 15.3C28 15.1 27.7 14.3 27.5 13.3Z" fill="black"/>
<path d="M38.1 7.30001V10.6C38.7 10 39.3 9.60001 40.1 9.60001C40.5 9.60001 40.9 9.70001 41.2 9.80001C41.5 9.90001 41.8 10.1 41.9 10.4C42.1 10.6 42.2 10.9 42.2 11.2C42.3 11.5 42.3 11.9 42.3 12.5V16.3H40.6V12.8C40.6 12.1 40.6 11.7 40.5 11.5C40.4 11.3 40.3 11.2 40.2 11.1C40.1 11 39.8 10.9 39.6 10.9C39.3 10.9 39.1 11 38.8 11.1C38.5 11.2 38.4 11.4 38.3 11.7C38.2 12 38.1 12.4 38.1 12.9V16.2H36.4V7.20001H38.1V7.30001Z" fill="black"/>
<path d="M45.3 11.7L43.7 11.4C43.9 10.8 44.2 10.3 44.6 10C45 9.7 45.7 9.5 46.5 9.5C47.3 9.5 47.8 9.6 48.2 9.8C48.6 10 48.8 10.2 49 10.5C49.2 10.8 49.2 11.3 49.2 12V14C49.2 14.6 49.2 15 49.3 15.3C49.4 15.6 49.5 15.9 49.6 16.2H47.9C47.9 16.1 47.8 15.9 47.7 15.7C47.7 15.6 47.7 15.5 47.6 15.5C47.3 15.8 47 16 46.7 16.1C46.4 16.2 46 16.3 45.6 16.3C44.9 16.3 44.4 16.1 44 15.8C43.6 15.5 43.4 15 43.4 14.4C43.4 14 43.5 13.7 43.7 13.4C43.9 13.1 44.1 12.9 44.4 12.7C44.7 12.5 45.2 12.4 45.8 12.3C46.6 12.1 47.2 12 47.5 11.9V11.8C47.5 11.5 47.4 11.2 47.3 11.1C47.2 11 46.8 10.9 46.4 10.9C46.1 10.9 45.9 11 45.7 11.1C45.5 11.2 45.4 11.4 45.3 11.7ZM47.6 13.1C47.4 13.2 47 13.3 46.6 13.4C46.1 13.5 45.8 13.6 45.7 13.7C45.5 13.9 45.4 14.1 45.4 14.3C45.4 14.5 45.5 14.7 45.7 14.9C45.9 15.1 46.1 15.2 46.4 15.2C46.7 15.2 47 15.1 47.3 14.9C47.5 14.7 47.6 14.6 47.7 14.3C47.7 14.2 47.8 13.9 47.8 13.5V13.1H47.6Z" fill="black"/>
<path d="M52.6 16.2H50.9V9.7H52.5V10.6C52.8 10.2 53 9.9 53.2 9.7C53.4 9.6 53.7 9.5 53.9 9.5C54.3 9.5 54.7 9.6 55 9.8L54.5 11.3C54.2 11.1 53.9 11 53.7 11C53.5 11 53.3 11.1 53.1 11.2C52.9 11.3 52.8 11.6 52.7 11.9C52.6 12.2 52.6 13 52.6 14.1V16.2Z" fill="black"/>
<path d="M59.6 14.2L61.3 14.5C61.1 15.1 60.7 15.6 60.3 15.9C59.9 16.2 59.2 16.4 58.5 16.4C57.4 16.4 56.5 16 56 15.3C55.6 14.7 55.4 14 55.4 13.1C55.4 12 55.7 11.2 56.2 10.6C56.8 10 57.5 9.70001 58.3 9.70001C59.3 9.70001 60 10 60.6 10.7C61.2 11.3 61.4 12.3 61.4 13.6H57.1C57.1 14.1 57.3 14.5 57.5 14.8C57.8 15.1 58.1 15.2 58.5 15.2C58.8 15.2 59 15.1 59.2 15C59.4 14.7 59.5 14.5 59.6 14.2ZM59.7 12.4C59.7 11.9 59.6 11.5 59.3 11.3C59 11.1 58.8 10.9 58.4 10.9C58 10.9 57.7 11 57.5 11.3C57.3 11.6 57.1 11.9 57.1 12.4H59.7Z" fill="black"/>
<path d="M10.7846 6.41934C8.19742 6.41934 6.09998 8.58574 6.09998 11.2581C6.09998 13.9304 8.19742 16.0968 10.7846 16.0968C12.47 16.0968 13.4468 15.5584 14.2945 14.6827C15.1422 13.8071 15.4509 12.4828 15.4509 11.1466C15.4509 10.9428 15.438 10.7401 15.4153 10.5395H13.5884H13.2402H10.8415V12.2503H13.528C13.4188 12.6768 13.2337 13.0655 12.9423 13.3665C12.4203 13.9056 11.8188 14.2374 10.7811 14.2374C9.18818 14.2374 7.89673 12.9034 7.89673 11.2581C7.89673 9.6127 9.18818 8.2789 10.7811 8.2789C11.5561 8.2789 12.2316 8.50749 12.7665 9.00575L14.0854 7.66702L14.0834 7.66489C13.2036 6.80787 12.0783 6.4197 10.7847 6.4197L10.7846 6.41934ZM18.383 9.2054V10.6003H17.0087V11.9631H18.383V13.3582H19.7258V11.9631H21.1V10.6003H19.7258V9.2054H18.383ZM13.2379 9.60116C13.2386 9.60218 13.2396 9.60397 13.2399 9.60523V9.60345L13.2379 9.60116Z" fill="white"/>
<path d="M10.7846 6.41934C8.19742 6.41934 6.09998 8.58574 6.09998 11.2581C6.09998 13.9304 8.19742 16.0968 10.7846 16.0968C12.47 16.0968 13.4468 15.5584 14.2945 14.6827C15.1422 13.8071 15.4509 12.4828 15.4509 11.1466C15.4509 10.9428 15.438 10.7401 15.4153 10.5395H13.5884H13.2402H10.8415V12.2503H13.528C13.4188 12.6768 13.2337 13.0655 12.9423 13.3665C12.4203 13.9056 11.8188 14.2374 10.7811 14.2374C9.18818 14.2374 7.89673 12.9034 7.89673 11.2581C7.89673 9.6127 9.18818 8.2789 10.7811 8.2789C11.5561 8.2789 12.2316 8.50749 12.7665 9.00575L14.0854 7.66702L14.0834 7.66489C13.2036 6.80787 12.0783 6.4197 10.7847 6.4197L10.7846 6.41934ZM18.383 9.2054V10.6003H17.0087V11.9631H18.383V13.3582H19.7258V11.9631H21.1V10.6003H19.7258V9.2054H18.383ZM13.2379 9.60116C13.2386 9.60218 13.2396 9.60397 13.2399 9.60523V9.60345L13.2379 9.60116Z" fill="#DD5044"/>
<path d="M3.80002 0.25H64.1C65.9539 0.25 67.553 1.83099 67.65 3.80605V19.2C67.65 21.1619 66.0619 22.75 64.1 22.75H3.80002C1.83809 22.75 0.25 21.1619 0.25 19.2V3.8C0.25 1.83807 1.83809 0.25 3.80002 0.25Z" stroke="#D7D7D7" stroke-width="0.5"/>
</svg>
