<svg width="85" height="23" viewBox="0 0 85 23" fill="none" xmlns="http://www.w3.org/2000/svg">
<path d="M3.80002 0.25H81.1C82.9539 0.25 84.553 1.83101 84.65 3.80607V19.2C84.65 21.1619 83.0619 22.75 81.1 22.75H3.80002C1.83809 22.75 0.25 21.1619 0.25 19.2V3.80002C0.25 1.83809 1.83809 0.25 3.80002 0.25Z" fill="white" stroke="#D7D7D7" stroke-width="0.5"/>
<path d="M28 15V6H30.9C32 6 32.7 6.00001 33.1 6.10001C33.6 6.20001 34 6.5 34.4 7C34.7 7.5 34.9 8.00001 34.9 8.70001C34.9 9.30001 34.8 9.70001 34.6 10.1C34.4 10.5 34.1 10.8 33.8 11C33.5 11.2 33.2 11.4 32.9 11.4C32.5 11.5 31.8 11.5 31 11.5H29.8V14.9H28V15ZM29.8 7.60001V10.1H30.8C31.5 10.1 32 10.1 32.2 10C32.4 9.9 32.6 9.80001 32.8 9.60001C32.9 9.40001 33 9.19999 33 8.89999C33 8.59999 32.9 8.30001 32.7 8.10001C32.5 7.90001 32.3 7.80001 32 7.70001C31.8 7.70001 31.3 7.60001 30.7 7.60001H29.8Z" fill="white"/>
<path d="M28 15V6H30.9C32 6 32.7 6.00001 33.1 6.10001C33.6 6.20001 34 6.5 34.4 7C34.7 7.5 34.9 8.00001 34.9 8.70001C34.9 9.30001 34.8 9.70001 34.6 10.1C34.4 10.5 34.1 10.8 33.8 11C33.5 11.2 33.2 11.4 32.9 11.4C32.5 11.5 31.8 11.5 31 11.5H29.8V14.9H28V15ZM29.8 7.60001V10.1H30.8C31.5 10.1 32 10.1 32.2 10C32.4 9.9 32.6 9.80001 32.8 9.60001C32.9 9.40001 33 9.19999 33 8.89999C33 8.59999 32.9 8.30001 32.7 8.10001C32.5 7.90001 32.3 7.80001 32 7.70001C31.8 7.70001 31.3 7.60001 30.7 7.60001H29.8Z" fill="black"/>
<path d="M37.6 10.5L36 10.2C36.2 9.60001 36.5 9.10002 36.9 8.80002C37.3 8.50002 38 8.30002 38.8 8.30002C39.6 8.30002 40.1 8.40001 40.5 8.60001C40.9 8.80001 41.1 9.00002 41.3 9.30002C41.5 9.60002 41.5 10.1 41.5 10.8V12.8C41.5 13.4 41.5 13.8 41.6 14.1C41.7 14.4 41.8 14.7 41.9 15H40.2C40.2 14.9 40.1 14.7 40 14.5C40 14.4 40 14.3 39.9 14.3C39.6 14.6 39.3 14.8 39 14.9C38.7 15 38.3 15.1 37.9 15.1C37.2 15.1 36.7 14.9 36.3 14.6C35.9 14.3 35.7 13.8 35.7 13.2C35.7 12.8 35.8 12.5 36 12.2C36.2 11.9 36.4 11.7 36.7 11.5C37 11.3 37.5 11.2 38.1 11.1C38.9 10.9 39.5 10.8 39.8 10.7V10.6C39.8 10.3 39.7 9.99999 39.6 9.89999C39.5 9.79999 39.1 9.70001 38.7 9.70001C38.4 9.70001 38.2 9.79999 38 9.89999C37.9 9.99999 37.7 10.2 37.6 10.5ZM39.9 11.9C39.7 12 39.3 12.1 38.9 12.2C38.4 12.3 38.1 12.4 38 12.5C37.8 12.7 37.7 12.9 37.7 13.1C37.7 13.3 37.8 13.5 38 13.7C38.2 13.9 38.4 14 38.7 14C39 14 39.3 13.9 39.6 13.7C39.8 13.5 39.9 13.4 40 13.1C40 13 40.1 12.7 40.1 12.3V11.9H39.9Z" fill="white"/>
<path d="M37.6 10.5L36 10.2C36.2 9.60001 36.5 9.10002 36.9 8.80002C37.3 8.50002 38 8.30002 38.8 8.30002C39.6 8.30002 40.1 8.40001 40.5 8.60001C40.9 8.80001 41.1 9.00002 41.3 9.30002C41.5 9.60002 41.5 10.1 41.5 10.8V12.8C41.5 13.4 41.5 13.8 41.6 14.1C41.7 14.4 41.8 14.7 41.9 15H40.2C40.2 14.9 40.1 14.7 40 14.5C40 14.4 40 14.3 39.9 14.3C39.6 14.6 39.3 14.8 39 14.9C38.7 15 38.3 15.1 37.9 15.1C37.2 15.1 36.7 14.9 36.3 14.6C35.9 14.3 35.7 13.8 35.7 13.2C35.7 12.8 35.8 12.5 36 12.2C36.2 11.9 36.4 11.7 36.7 11.5C37 11.3 37.5 11.2 38.1 11.1C38.9 10.9 39.5 10.8 39.8 10.7V10.6C39.8 10.3 39.7 9.99999 39.6 9.89999C39.5 9.79999 39.1 9.70001 38.7 9.70001C38.4 9.70001 38.2 9.79999 38 9.89999C37.9 9.99999 37.7 10.2 37.6 10.5ZM39.9 11.9C39.7 12 39.3 12.1 38.9 12.2C38.4 12.3 38.1 12.4 38 12.5C37.8 12.7 37.7 12.9 37.7 13.1C37.7 13.3 37.8 13.5 38 13.7C38.2 13.9 38.4 14 38.7 14C39 14 39.3 13.9 39.6 13.7C39.8 13.5 39.9 13.4 40 13.1C40 13 40.1 12.7 40.1 12.3V11.9H39.9Z" fill="black"/>
<path d="M44.9 15H43.2V8.5H44.8V9.39999C45.1 8.99999 45.3 8.7 45.5 8.5C45.7 8.4 46 8.30002 46.2 8.30002C46.6 8.30002 47 8.40001 47.3 8.60001L46.8 10.1C46.5 9.90001 46.2 9.80002 46 9.80002C45.8 9.80002 45.6 9.9 45.4 10C45.2 10.1 45.1 10.4 45 10.7C44.9 11 44.9 11.8 44.9 12.9V15Z" fill="white"/>
<path d="M44.9 15H43.2V8.5H44.8V9.39999C45.1 8.99999 45.3 8.7 45.5 8.5C45.7 8.4 46 8.30002 46.2 8.30002C46.6 8.30002 47 8.40001 47.3 8.60001L46.8 10.1C46.5 9.90001 46.2 9.80002 46 9.80002C45.8 9.80002 45.6 9.9 45.4 10C45.2 10.1 45.1 10.4 45 10.7C44.9 11 44.9 11.8 44.9 12.9V15Z" fill="black"/>
<path d="M51.2 8.5V9.89999H50V12.5C50 13 50 13.3 50 13.4C50 13.5 50.1 13.6 50.2 13.6C50.3 13.7 50.4 13.7 50.5 13.7C50.7 13.7 50.9 13.6 51.2 13.5L51.3 14.8C50.9 15 50.4 15.1 49.9 15.1C49.6 15.1 49.3 15 49.1 14.9C48.9 14.8 48.7 14.7 48.6 14.5C48.5 14.3 48.4 14.1 48.4 13.8C48.4 13.6 48.3 13.2 48.3 12.6V9.80002H47.5V8.39999H48.3V7.10001L50 6.10001V8.39999H51.2V8.5Z" fill="white"/>
<path d="M51.2 8.5V9.89999H50V12.5C50 13 50 13.3 50 13.4C50 13.5 50.1 13.6 50.2 13.6C50.3 13.7 50.4 13.7 50.5 13.7C50.7 13.7 50.9 13.6 51.2 13.5L51.3 14.8C50.9 15 50.4 15.1 49.9 15.1C49.6 15.1 49.3 15 49.1 14.9C48.9 14.8 48.7 14.7 48.6 14.5C48.5 14.3 48.4 14.1 48.4 13.8C48.4 13.6 48.3 13.2 48.3 12.6V9.80002H47.5V8.39999H48.3V7.10001L50 6.10001V8.39999H51.2V8.5Z" fill="black"/>
<path d="M53.6 10.5L52 10.2C52.2 9.60001 52.5 9.10002 52.9 8.80002C53.3 8.50002 54 8.30002 54.8 8.30002C55.6 8.30002 56.1 8.40001 56.5 8.60001C56.9 8.80001 57.1 9.00002 57.3 9.30002C57.5 9.60002 57.5 10.1 57.5 10.8V12.8C57.5 13.4 57.5 13.8 57.6 14.1C57.7 14.4 57.8 14.7 57.9 15H56.2C56.2 14.9 56.1 14.7 56 14.5C56 14.4 56 14.3 55.9 14.3C55.6 14.6 55.3 14.8 55 14.9C54.7 15 54.3 15.1 53.9 15.1C53.2 15.1 52.7 14.9 52.3 14.6C51.9 14.3 51.7 13.8 51.7 13.2C51.7 12.8 51.8 12.5 52 12.2C52.2 11.9 52.4 11.7 52.7 11.5C53 11.3 53.5 11.2 54.1 11.1C54.9 10.9 55.5 10.8 55.8 10.7V10.6C55.8 10.3 55.7 9.99999 55.6 9.89999C55.5 9.79999 55.1 9.70001 54.7 9.70001C54.4 9.70001 54.2 9.79999 54 9.89999C53.9 9.99999 53.7 10.2 53.6 10.5ZM55.9 11.9C55.7 12 55.3 12.1 54.9 12.2C54.4 12.3 54.1 12.4 54 12.5C53.8 12.7 53.7 12.9 53.7 13.1C53.7 13.3 53.8 13.5 54 13.7C54.2 13.9 54.4 14 54.7 14C55 14 55.3 13.9 55.6 13.7C55.8 13.5 55.9 13.4 56 13.1C56 13 56.1 12.7 56.1 12.3V11.9H55.9Z" fill="white"/>
<path d="M53.6 10.5L52 10.2C52.2 9.60001 52.5 9.10002 52.9 8.80002C53.3 8.50002 54 8.30002 54.8 8.30002C55.6 8.30002 56.1 8.40001 56.5 8.60001C56.9 8.80001 57.1 9.00002 57.3 9.30002C57.5 9.60002 57.5 10.1 57.5 10.8V12.8C57.5 13.4 57.5 13.8 57.6 14.1C57.7 14.4 57.8 14.7 57.9 15H56.2C56.2 14.9 56.1 14.7 56 14.5C56 14.4 56 14.3 55.9 14.3C55.6 14.6 55.3 14.8 55 14.9C54.7 15 54.3 15.1 53.9 15.1C53.2 15.1 52.7 14.9 52.3 14.6C51.9 14.3 51.7 13.8 51.7 13.2C51.7 12.8 51.8 12.5 52 12.2C52.2 11.9 52.4 11.7 52.7 11.5C53 11.3 53.5 11.2 54.1 11.1C54.9 10.9 55.5 10.8 55.8 10.7V10.6C55.8 10.3 55.7 9.99999 55.6 9.89999C55.5 9.79999 55.1 9.70001 54.7 9.70001C54.4 9.70001 54.2 9.79999 54 9.89999C53.9 9.99999 53.7 10.2 53.6 10.5ZM55.9 11.9C55.7 12 55.3 12.1 54.9 12.2C54.4 12.3 54.1 12.4 54 12.5C53.8 12.7 53.7 12.9 53.7 13.1C53.7 13.3 53.8 13.5 54 13.7C54.2 13.9 54.4 14 54.7 14C55 14 55.3 13.9 55.6 13.7C55.8 13.5 55.9 13.4 56 13.1C56 13 56.1 12.7 56.1 12.3V11.9H55.9Z" fill="black"/>
<path d="M59.1 15.5L61.1 15.7C61.1 15.9 61.2 16.1 61.3 16.2C61.5 16.3 61.7 16.4 62.1 16.4C62.5 16.4 62.9 16.3 63.1 16.2C63.3 16.1 63.4 16 63.4 15.8C63.5 15.7 63.5 15.4 63.5 15V14.1C63 14.8 62.3 15.2 61.6 15.2C60.7 15.2 60 14.8 59.5 14.1C59.1 13.5 58.9 12.8 58.9 11.9C58.9 10.8 59.2 9.99999 59.7 9.39999C60.2 8.79999 60.9 8.5 61.7 8.5C62.5 8.5 63.2 8.90001 63.7 9.60001V8.70001H65.3V14.5C65.3 15.3 65.2 15.8 65.1 16.2C65 16.6 64.8 16.9 64.6 17.1C64.4 17.3 64.1 17.5 63.7 17.6C63.3 17.7 62.8 17.8 62.3 17.8C61.2 17.8 60.4 17.6 60 17.2C59.6 16.8 59.3 16.3 59.3 15.8C59.1 15.6 59.1 15.5 59.1 15.5ZM60.7 11.6C60.7 12.3 60.8 12.8 61.1 13.1C61.4 13.4 61.7 13.6 62.1 13.6C62.5 13.6 62.9 13.4 63.2 13.1C63.5 12.8 63.6 12.3 63.6 11.6C63.6 10.9 63.5 10.4 63.2 10.1C62.9 9.80001 62.6 9.60001 62.1 9.60001C61.7 9.60001 61.3 9.80001 61.1 10.1C60.8 10.5 60.7 11 60.7 11.6Z" fill="white"/>
<path d="M59.1 15.5L61.1 15.7C61.1 15.9 61.2 16.1 61.3 16.2C61.5 16.3 61.7 16.4 62.1 16.4C62.5 16.4 62.9 16.3 63.1 16.2C63.3 16.1 63.4 16 63.4 15.8C63.5 15.7 63.5 15.4 63.5 15V14.1C63 14.8 62.3 15.2 61.6 15.2C60.7 15.2 60 14.8 59.5 14.1C59.1 13.5 58.9 12.8 58.9 11.9C58.9 10.8 59.2 9.99999 59.7 9.39999C60.2 8.79999 60.9 8.5 61.7 8.5C62.5 8.5 63.2 8.90001 63.7 9.60001V8.70001H65.3V14.5C65.3 15.3 65.2 15.8 65.1 16.2C65 16.6 64.8 16.9 64.6 17.1C64.4 17.3 64.1 17.5 63.7 17.6C63.3 17.7 62.8 17.8 62.3 17.8C61.2 17.8 60.4 17.6 60 17.2C59.6 16.8 59.3 16.3 59.3 15.8C59.1 15.6 59.1 15.5 59.1 15.5ZM60.7 11.6C60.7 12.3 60.8 12.8 61.1 13.1C61.4 13.4 61.7 13.6 62.1 13.6C62.5 13.6 62.9 13.4 63.2 13.1C63.5 12.8 63.6 12.3 63.6 11.6C63.6 10.9 63.5 10.4 63.2 10.1C62.9 9.80001 62.6 9.60001 62.1 9.60001C61.7 9.60001 61.3 9.80001 61.1 10.1C60.8 10.5 60.7 11 60.7 11.6Z" fill="black"/>
<path d="M70.7 13L72.4 13.3C72.2 13.9 71.8 14.4 71.4 14.7C71 15 70.3 15.2 69.6 15.2C68.5 15.2 67.6 14.8 67.1 14.1C66.7 13.5 66.5 12.8 66.5 11.9C66.5 10.8 66.8 9.99999 67.3 9.39999C67.9 8.79999 68.6 8.5 69.4 8.5C70.4 8.5 71.1 8.8 71.7 9.5C72.3 10.1 72.5 11.1 72.5 12.4H68.2C68.2 12.9 68.4 13.3 68.6 13.6C68.9 13.9 69.2 14 69.6 14C69.9 14 70.1 13.9 70.3 13.8C70.5 13.5 70.6 13.3 70.7 13ZM70.8 11.2C70.8 10.7 70.7 10.3 70.4 10.1C70.1 9.90001 69.9 9.70001 69.5 9.70001C69.1 9.70001 68.8 9.80001 68.6 10.1C68.4 10.4 68.2 10.7 68.2 11.2H70.8Z" fill="white"/>
<path d="M70.7 13L72.4 13.3C72.2 13.9 71.8 14.4 71.4 14.7C71 15 70.3 15.2 69.6 15.2C68.5 15.2 67.6 14.8 67.1 14.1C66.7 13.5 66.5 12.8 66.5 11.9C66.5 10.8 66.8 9.99999 67.3 9.39999C67.9 8.79999 68.6 8.5 69.4 8.5C70.4 8.5 71.1 8.8 71.7 9.5C72.3 10.1 72.5 11.1 72.5 12.4H68.2C68.2 12.9 68.4 13.3 68.6 13.6C68.9 13.9 69.2 14 69.6 14C69.9 14 70.1 13.9 70.3 13.8C70.5 13.5 70.6 13.3 70.7 13ZM70.8 11.2C70.8 10.7 70.7 10.3 70.4 10.1C70.1 9.90001 69.9 9.70001 69.5 9.70001C69.1 9.70001 68.8 9.80001 68.6 10.1C68.4 10.4 68.2 10.7 68.2 11.2H70.8Z" fill="black"/>
<path d="M75.6 15H73.9V8.5H75.5V9.39999C75.8 8.99999 76 8.7 76.2 8.5C76.4 8.4 76.7 8.30002 76.9 8.30002C77.3 8.30002 77.7 8.40001 78 8.60001L77.5 10.1C77.2 9.90001 76.9 9.80002 76.7 9.80002C76.5 9.80002 76.3 9.9 76.1 10C75.9 10.1 75.8 10.4 75.7 10.7C75.6 11 75.6 11.8 75.6 12.9V15Z" fill="white"/>
<path d="M75.6 15H73.9V8.5H75.5V9.39999C75.8 8.99999 76 8.7 76.2 8.5C76.4 8.4 76.7 8.30002 76.9 8.30002C77.3 8.30002 77.7 8.40001 78 8.60001L77.5 10.1C77.2 9.90001 76.9 9.80002 76.7 9.80002C76.5 9.80002 76.3 9.9 76.1 10C75.9 10.1 75.8 10.4 75.7 10.7C75.6 11 75.6 11.8 75.6 12.9V15Z" fill="black"/>
<path d="M10.7846 6.41936C8.19742 6.41936 6.09998 8.58575 6.09998 11.2581C6.09998 13.9304 8.19742 16.0968 10.7846 16.0968C12.47 16.0968 13.4468 15.5584 14.2945 14.6828C15.1422 13.8071 15.4509 12.4828 15.4509 11.1466C15.4509 10.9428 15.438 10.7401 15.4153 10.5395H13.5884H13.2402H10.8415V12.2503H13.528C13.4188 12.6768 13.2337 13.0655 12.9423 13.3665C12.4203 13.9056 11.8188 14.2374 10.7811 14.2374C9.18818 14.2374 7.89673 12.9034 7.89673 11.2581C7.89673 9.61272 9.18818 8.27891 10.7811 8.27891C11.5561 8.27891 12.2316 8.5075 12.7665 9.00577L14.0854 7.66703L14.0834 7.66491C13.2036 6.80788 12.0783 6.41971 10.7847 6.41971L10.7846 6.41936ZM18.383 9.20542V10.6003H17.0087V11.9631H18.383V13.3582H19.7258V11.9631H21.1V10.6003H19.7258V9.20542H18.383ZM13.2379 9.60117C13.2386 9.6022 13.2396 9.60398 13.2399 9.60524V9.60346L13.2379 9.60117Z" fill="white"/>
<path d="M10.7846 6.41936C8.19742 6.41936 6.09998 8.58575 6.09998 11.2581C6.09998 13.9304 8.19742 16.0968 10.7846 16.0968C12.47 16.0968 13.4468 15.5584 14.2945 14.6828C15.1422 13.8071 15.4509 12.4828 15.4509 11.1466C15.4509 10.9428 15.438 10.7401 15.4153 10.5395H13.5884H13.2402H10.8415V12.2503H13.528C13.4188 12.6768 13.2337 13.0655 12.9423 13.3665C12.4203 13.9056 11.8188 14.2374 10.7811 14.2374C9.18818 14.2374 7.89673 12.9034 7.89673 11.2581C7.89673 9.61272 9.18818 8.27891 10.7811 8.27891C11.5561 8.27891 12.2316 8.5075 12.7665 9.00577L14.0854 7.66703L14.0834 7.66491C13.2036 6.80788 12.0783 6.41971 10.7847 6.41971L10.7846 6.41936ZM18.383 9.20542V10.6003H17.0087V11.9631H18.383V13.3582H19.7258V11.9631H21.1V10.6003H19.7258V9.20542H18.383ZM13.2379 9.60117C13.2386 9.6022 13.2396 9.60398 13.2399 9.60524V9.60346L13.2379 9.60117Z" fill="#DD5044"/>
</svg>
