<svg width="68" height="23" viewBox="0 0 68 23" fill="none" xmlns="http://www.w3.org/2000/svg">
<path d="M3.80002 0.25H64.1C65.9539 0.25 67.553 1.83101 67.65 3.80607V19.2C67.65 21.1619 66.0619 22.75 64.1 22.75H3.80002C1.83809 22.75 0.25 21.1619 0.25 19.2V3.80002C0.25 1.83809 1.83809 0.25 3.80002 0.25Z" fill="white" stroke="#D7D7D7" stroke-width="0.5"/>
<path d="M30 16V8.60001H27.3V7.10001H34.4V8.60001H31.7V16H30Z" fill="white"/>
<path d="M30 16V8.60001H27.3V7.10001H34.4V8.60001H31.7V16H30Z" fill="black"/>
<path d="M38.5 14L40.2 14.3C40 14.9 39.6 15.4 39.2 15.7C38.8 16 38.1 16.2 37.4 16.2C36.3 16.2 35.4 15.8 34.9 15.1C34.5 14.5 34.3 13.8 34.3 12.9C34.3 11.8 34.6 11 35.1 10.4C35.7 9.79999 36.4 9.5 37.2 9.5C38.2 9.5 38.9 9.8 39.5 10.5C40.1 11.1 40.3 12.1 40.3 13.4H36C36 13.9 36.2 14.3 36.4 14.6C36.7 14.9 37 15 37.4 15C37.7 15 37.9 14.9 38.1 14.8C38.2 14.5 38.4 14.3 38.5 14ZM38.6 12.2C38.6 11.7 38.5 11.3 38.2 11.1C37.9 10.9 37.7 10.7 37.3 10.7C36.9 10.7 36.6 10.8 36.4 11.1C36.2 11.4 36 11.7 36 12.2H38.6Z" fill="white"/>
<path d="M38.5 14L40.2 14.3C40 14.9 39.6 15.4 39.2 15.7C38.8 16 38.1 16.2 37.4 16.2C36.3 16.2 35.4 15.8 34.9 15.1C34.5 14.5 34.3 13.8 34.3 12.9C34.3 11.8 34.6 11 35.1 10.4C35.7 9.79999 36.4 9.5 37.2 9.5C38.2 9.5 38.9 9.8 39.5 10.5C40.1 11.1 40.3 12.1 40.3 13.4H36C36 13.9 36.2 14.3 36.4 14.6C36.7 14.9 37 15 37.4 15C37.7 15 37.9 14.9 38.1 14.8C38.2 14.5 38.4 14.3 38.5 14ZM38.6 12.2C38.6 11.7 38.5 11.3 38.2 11.1C37.9 10.9 37.7 10.7 37.3 10.7C36.9 10.7 36.6 10.8 36.4 11.1C36.2 11.4 36 11.7 36 12.2H38.6Z" fill="black"/>
<path d="M41.7 8.70001V7.10001H43.4V8.70001H41.7ZM41.7 16V9.5H43.4V16H41.7Z" fill="white"/>
<path d="M41.7 8.70001V7.10001H43.4V8.70001H41.7ZM41.7 16V9.5H43.4V16H41.7Z" fill="black"/>
<path d="M45.2 16V7H46.9V16H45.2Z" fill="white"/>
<path d="M45.2 16V7H46.9V16H45.2Z" fill="black"/>
<path d="M52.4 14L54.1 14.3C53.9 14.9 53.5 15.4 53.1 15.7C52.7 16 52 16.2 51.3 16.2C50.2 16.2 49.3 15.8 48.8 15.1C48.4 14.5 48.2 13.8 48.2 12.9C48.2 11.8 48.5 11 49 10.4C49.6 9.79999 50.3 9.5 51.1 9.5C52.1 9.5 52.8 9.8 53.4 10.5C54 11.1 54.2 12.1 54.2 13.4H49.9C49.9 13.9 50.1 14.3 50.3 14.6C50.6 14.9 50.9 15 51.3 15C51.6 15 51.8 14.9 52 14.8C52.2 14.5 52.3 14.3 52.4 14ZM52.5 12.2C52.5 11.7 52.4 11.3 52.1 11.1C51.8 10.9 51.6 10.7 51.2 10.7C50.8 10.7 50.5 10.8 50.3 11.1C50.1 11.4 49.9 11.7 49.9 12.2H52.5Z" fill="white"/>
<path d="M52.4 14L54.1 14.3C53.9 14.9 53.5 15.4 53.1 15.7C52.7 16 52 16.2 51.3 16.2C50.2 16.2 49.3 15.8 48.8 15.1C48.4 14.5 48.2 13.8 48.2 12.9C48.2 11.8 48.5 11 49 10.4C49.6 9.79999 50.3 9.5 51.1 9.5C52.1 9.5 52.8 9.8 53.4 10.5C54 11.1 54.2 12.1 54.2 13.4H49.9C49.9 13.9 50.1 14.3 50.3 14.6C50.6 14.9 50.9 15 51.3 15C51.6 15 51.8 14.9 52 14.8C52.2 14.5 52.3 14.3 52.4 14ZM52.5 12.2C52.5 11.7 52.4 11.3 52.1 11.1C51.8 10.9 51.6 10.7 51.2 10.7C50.8 10.7 50.5 10.8 50.3 11.1C50.1 11.4 49.9 11.7 49.9 12.2H52.5Z" fill="black"/>
<path d="M61.5 16H59.8V12.7C59.8 12 59.8 11.5 59.7 11.3C59.6 11.1 59.5 10.9 59.3 10.8C59.1 10.7 58.9 10.6 58.7 10.6C58.4 10.6 58.1 10.7 57.9 10.8C57.7 10.9 57.5 11.2 57.4 11.4C57.3 11.7 57.3 12.2 57.3 12.9V15.8H55.6V9.30002H57.2V10.3C57.8 9.60002 58.5 9.20001 59.3 9.20001C59.7 9.20001 60 9.29999 60.3 9.39999C60.6 9.49999 60.9 9.69999 61 9.89999C61.1 10.1 61.3 10.4 61.3 10.6C61.4 10.9 61.4 11.3 61.4 11.8V16H61.5Z" fill="white"/>
<path d="M61.5 16H59.8V12.7C59.8 12 59.8 11.5 59.7 11.3C59.6 11.1 59.5 10.9 59.3 10.8C59.1 10.7 58.9 10.6 58.7 10.6C58.4 10.6 58.1 10.7 57.9 10.8C57.7 10.9 57.5 11.2 57.4 11.4C57.3 11.7 57.3 12.2 57.3 12.9V15.8H55.6V9.30002H57.2V10.3C57.8 9.60002 58.5 9.20001 59.3 9.20001C59.7 9.20001 60 9.29999 60.3 9.39999C60.6 9.49999 60.9 9.69999 61 9.89999C61.1 10.1 61.3 10.4 61.3 10.6C61.4 10.9 61.4 11.3 61.4 11.8V16H61.5Z" fill="black"/>
<path d="M10.7846 6.41936C8.19742 6.41936 6.09998 8.58575 6.09998 11.2581C6.09998 13.9304 8.19742 16.0968 10.7846 16.0968C12.47 16.0968 13.4468 15.5584 14.2945 14.6828C15.1422 13.8071 15.4509 12.4828 15.4509 11.1466C15.4509 10.9428 15.438 10.7401 15.4153 10.5395H13.5884H13.2402H10.8415V12.2503H13.528C13.4188 12.6768 13.2337 13.0655 12.9423 13.3665C12.4203 13.9056 11.8188 14.2374 10.7811 14.2374C9.18818 14.2374 7.89673 12.9034 7.89673 11.2581C7.89673 9.61272 9.18818 8.27891 10.7811 8.27891C11.5561 8.27891 12.2316 8.5075 12.7665 9.00577L14.0854 7.66703L14.0834 7.66491C13.2036 6.80788 12.0783 6.41971 10.7847 6.41971L10.7846 6.41936ZM18.383 9.20542V10.6003H17.0087V11.9631H18.383V13.3582H19.7258V11.9631H21.1V10.6003H19.7258V9.20542H18.383ZM13.2379 9.60117C13.2386 9.6022 13.2396 9.60398 13.2399 9.60524V9.60346L13.2379 9.60117Z" fill="white"/>
<path d="M10.7846 6.41936C8.19742 6.41936 6.09998 8.58575 6.09998 11.2581C6.09998 13.9304 8.19742 16.0968 10.7846 16.0968C12.47 16.0968 13.4468 15.5584 14.2945 14.6828C15.1422 13.8071 15.4509 12.4828 15.4509 11.1466C15.4509 10.9428 15.438 10.7401 15.4153 10.5395H13.5884H13.2402H10.8415V12.2503H13.528C13.4188 12.6768 13.2337 13.0655 12.9423 13.3665C12.4203 13.9056 11.8188 14.2374 10.7811 14.2374C9.18818 14.2374 7.89673 12.9034 7.89673 11.2581C7.89673 9.61272 9.18818 8.27891 10.7811 8.27891C11.5561 8.27891 12.2316 8.5075 12.7665 9.00577L14.0854 7.66703L14.0834 7.66491C13.2036 6.80788 12.0783 6.41971 10.7847 6.41971L10.7846 6.41936ZM18.383 9.20542V10.6003H17.0087V11.9631H18.383V13.3582H19.7258V11.9631H21.1V10.6003H19.7258V9.20542H18.383ZM13.2379 9.60117C13.2386 9.6022 13.2396 9.60398 13.2399 9.60524V9.60346L13.2379 9.60117Z" fill="#DD5044"/>
</svg>
