<svg width="58" height="23" viewBox="0 0 58 23" fill="none" xmlns="http://www.w3.org/2000/svg">
<path d="M3.80002 0.25H54.1C55.9539 0.25 57.553 1.83101 57.65 3.80607V19.2C57.65 21.1619 56.0619 22.75 54.1 22.75H3.80002C1.83809 22.75 0.25 21.1619 0.25 19.2V3.80002C0.25 1.83809 1.83809 0.25 3.80002 0.25Z" fill="white" stroke="#D7D7D7" stroke-width="0.5"/>
<path d="M29.3 8.5V9.70001C29.3 10.3 29.5 10.6 30 10.6C30.1 10.6 30.1 10.6 30.2 10.6L30.5 11.7C30.2 11.8 29.9 11.9 29.6 11.9C29.2 11.9 28.8 11.8 28.5 11.7C28.2 11.5 28 11.3 27.9 11C27.8 10.7 27.7 10.3 27.7 9.70001V7.5C28.5 7.3 29.3 7.30002 30 7.30002C31.1 7.30002 31.9 7.40001 32.3 7.70001C32.8 8.00001 33.1 8.30001 33.4 8.70001C33.6 9.10001 33.7 9.80001 33.7 10.7V16.3H32V10.6C32 9.80001 31.8 9.20002 31.5 8.90002C31.2 8.60002 30.7 8.5 30 8.5C29.8 8.4 29.6 8.4 29.3 8.5Z" fill="white"/>
<path d="M29.3 8.5V9.70001C29.3 10.3 29.5 10.6 30 10.6C30.1 10.6 30.1 10.6 30.2 10.6L30.5 11.7C30.2 11.8 29.9 11.9 29.6 11.9C29.2 11.9 28.8 11.8 28.5 11.7C28.2 11.5 28 11.3 27.9 11C27.8 10.7 27.7 10.3 27.7 9.70001V7.5C28.5 7.3 29.3 7.30002 30 7.30002C31.1 7.30002 31.9 7.40001 32.3 7.70001C32.8 8.00001 33.1 8.30001 33.4 8.70001C33.6 9.10001 33.7 9.80001 33.7 10.7V16.3H32V10.6C32 9.80001 31.8 9.20002 31.5 8.90002C31.2 8.60002 30.7 8.5 30 8.5C29.8 8.4 29.6 8.4 29.3 8.5Z" fill="black"/>
<path d="M35.1 12.3C35.3 12.4 35.6 12.4 35.8 12.4C36 12.4 36.2 12.3 36.3 12.2C36.4 12.1 36.4 11.9 36.4 11.5V8.40002C36.1 8.40002 35.7 8.4 35.1 8.5L35 7.20001C36.1 7.10001 37.1 7 38.3 7C39.3 7 40 7.10002 40.6 7.30002C41.2 7.50002 41.6 7.80001 41.9 8.20001C42.2 8.60001 42.3 9.30001 42.3 10.1V13.6H40.6V10.4C40.6 9.60002 40.5 9.00002 40.2 8.80002C39.9 8.60002 39.3 8.40002 38.2 8.40002V11.6C38.2 12.2 38.2 12.5 38.1 12.8C38 13 37.8 13.2 37.6 13.4C37.4 13.6 37 13.6 36.5 13.6C36 13.6 35.5 13.5 35 13.4L35.1 12.3Z" fill="white"/>
<path d="M35.1 12.3C35.3 12.4 35.6 12.4 35.8 12.4C36 12.4 36.2 12.3 36.3 12.2C36.4 12.1 36.4 11.9 36.4 11.5V8.40002C36.1 8.40002 35.7 8.4 35.1 8.5L35 7.20001C36.1 7.10001 37.1 7 38.3 7C39.3 7 40 7.10002 40.6 7.30002C41.2 7.50002 41.6 7.80001 41.9 8.20001C42.2 8.60001 42.3 9.30001 42.3 10.1V13.6H40.6V10.4C40.6 9.60002 40.5 9.00002 40.2 8.80002C39.9 8.60002 39.3 8.40002 38.2 8.40002V11.6C38.2 12.2 38.2 12.5 38.1 12.8C38 13 37.8 13.2 37.6 13.4C37.4 13.6 37 13.6 36.5 13.6C36 13.6 35.5 13.5 35 13.4L35.1 12.3Z" fill="black"/>
<path d="M45.5 11.3C45.6 11.6 45.8 11.9 46.1 12.1C46.4 12.3 46.8 12.4 47.2 12.4C47.9 12.4 48.4 12.2 48.8 11.8C49.2 11.4 49.4 10.6 49.5 9.40002L49.7 7H51.4L51.2 9.5C51.1 10.6 50.9 11.3 50.7 11.8C50.5 12.3 50.1 12.7 49.5 13.1C48.9 13.5 48.2 13.7 47.3 13.7C46.2 13.7 45.2 13.3 44.6 12.6C43.9 11.9 43.6 10.7 43.6 9.20001L43.5 7H45.2V8.70001C45.2 8.90001 45.2 9.30001 45.2 9.70001C45.2 9.90001 45.2 10 45.2 10.1C45.5 10.1 45.7 10 45.9 9.90002C46.1 9.80002 46.3 9.60002 46.3 9.40002C46.4 9.20002 46.4 8.80001 46.4 8.20001L46.5 7H48.2L48.1 8.60001C48.1 9.00001 48 9.30001 48 9.60001C47.9 9.80001 47.8 10.1 47.7 10.3C47.6 10.5 47.3 10.7 46.9 10.9C46.6 11.2 46.1 11.3 45.5 11.3Z" fill="white"/>
<path d="M45.5 11.3C45.6 11.6 45.8 11.9 46.1 12.1C46.4 12.3 46.8 12.4 47.2 12.4C47.9 12.4 48.4 12.2 48.8 11.8C49.2 11.4 49.4 10.6 49.5 9.40002L49.7 7H51.4L51.2 9.5C51.1 10.6 50.9 11.3 50.7 11.8C50.5 12.3 50.1 12.7 49.5 13.1C48.9 13.5 48.2 13.7 47.3 13.7C46.2 13.7 45.2 13.3 44.6 12.6C43.9 11.9 43.6 10.7 43.6 9.20001L43.5 7H45.2V8.70001C45.2 8.90001 45.2 9.30001 45.2 9.70001C45.2 9.90001 45.2 10 45.2 10.1C45.5 10.1 45.7 10 45.9 9.90002C46.1 9.80002 46.3 9.60002 46.3 9.40002C46.4 9.20002 46.4 8.80001 46.4 8.20001L46.5 7H48.2L48.1 8.60001C48.1 9.00001 48 9.30001 48 9.60001C47.9 9.80001 47.8 10.1 47.7 10.3C47.6 10.5 47.3 10.7 46.9 10.9C46.6 11.2 46.1 11.3 45.5 11.3Z" fill="black"/>
<path d="M10.7846 6.41935C8.19742 6.41935 6.09998 8.58575 6.09998 11.2581C6.09998 13.9304 8.19742 16.0968 10.7846 16.0968C12.47 16.0968 13.4468 15.5584 14.2945 14.6828C15.1422 13.8071 15.4509 12.4828 15.4509 11.1466C15.4509 10.9428 15.438 10.7401 15.4153 10.5395H13.5884H13.2402H10.8415V12.2503H13.528C13.4188 12.6768 13.2337 13.0655 12.9423 13.3665C12.4203 13.9056 11.8188 14.2374 10.7811 14.2374C9.18818 14.2374 7.89673 12.9034 7.89673 11.2581C7.89673 9.61271 9.18818 8.27891 10.7811 8.27891C11.5561 8.27891 12.2316 8.5075 12.7665 9.00576L14.0854 7.66703L14.0834 7.66491C13.2036 6.80788 12.0783 6.41971 10.7847 6.41971L10.7846 6.41935ZM18.383 9.20541V10.6003H17.0087V11.9631H18.383V13.3582H19.7258V11.9631H21.1V10.6003H19.7258V9.20541H18.383ZM13.2379 9.60117C13.2386 9.6022 13.2396 9.60398 13.2399 9.60524V9.60346L13.2379 9.60117Z" fill="white"/>
<path d="M10.7846 6.41935C8.19742 6.41935 6.09998 8.58575 6.09998 11.2581C6.09998 13.9304 8.19742 16.0968 10.7846 16.0968C12.47 16.0968 13.4468 15.5584 14.2945 14.6828C15.1422 13.8071 15.4509 12.4828 15.4509 11.1466C15.4509 10.9428 15.438 10.7401 15.4153 10.5395H13.5884H13.2402H10.8415V12.2503H13.528C13.4188 12.6768 13.2337 13.0655 12.9423 13.3665C12.4203 13.9056 11.8188 14.2374 10.7811 14.2374C9.18818 14.2374 7.89673 12.9034 7.89673 11.2581C7.89673 9.61271 9.18818 8.27891 10.7811 8.27891C11.5561 8.27891 12.2316 8.5075 12.7665 9.00576L14.0854 7.66703L14.0834 7.66491C13.2036 6.80788 12.0783 6.41971 10.7847 6.41971L10.7846 6.41935ZM18.383 9.20541V10.6003H17.0087V11.9631H18.383V13.3582H19.7258V11.9631H21.1V10.6003H19.7258V9.20541H18.383ZM13.2379 9.60117C13.2386 9.6022 13.2396 9.60398 13.2399 9.60524V9.60346L13.2379 9.60117Z" fill="#DD5044"/>
</svg>
