<svg width="51" height="23" viewBox="0 0 51 23" fill="none" xmlns="http://www.w3.org/2000/svg">
<path d="M3.80002 0.25H47.1C48.9539 0.25 50.553 1.83101 50.65 3.80607V19.2C50.65 21.1619 49.0619 22.75 47.1 22.75H3.80002C1.83809 22.75 0.25 21.1619 0.25 19.2V3.80002C0.25 1.83809 1.83809 0.25 3.80002 0.25Z" fill="white" stroke="#D7D7D7" stroke-width="0.5"/>
<path d="M26.8 9.90002L33.9 9.80002L34.2 10.4V10.5H33.1V16.1L33 16.2L32.3 16V10.5H30.7C31.1 10.9 31.3 11.4 31.3 11.8C31.3 12.6 30.6 13.3 29.6 13.9C30.2 14.6 30.8 15.1 31.5 15.5L31.2 16.3H31.1C30.2 15.7 29.6 15 29.1 14.1C28.8 14.2 28.5 14.3 28.3 14.3C28.1 14.3 27.9 14.2 27.7 13.8C27.6 13.6 27.5 13.5 27.5 13.4C27.5 13.2 27.7 13 28.1 13C28.5 13 28.8 13.1 29.2 13.3C29.4 13.2 29.6 13.1 29.8 13C28.8 12.4 28.1 11.8 28.1 11.1C28.1 11 28.1 10.8 28.2 10.6H27.1L26.8 9.90002ZM28.8 11.3C28.8 11.9 29.3 12.2 30.1 12.5C30.4 12.2 30.6 11.9 30.6 11.4C30.6 10.9 30.2 10.5 29.7 10.5C29.2 10.5 28.8 10.8 28.8 11.3Z" fill="white"/>
<path d="M26.8 9.90002L33.9 9.80002L34.2 10.4V10.5H33.1V16.1L33 16.2L32.3 16V10.5H30.7C31.1 10.9 31.3 11.4 31.3 11.8C31.3 12.6 30.6 13.3 29.6 13.9C30.2 14.6 30.8 15.1 31.5 15.5L31.2 16.3H31.1C30.2 15.7 29.6 15 29.1 14.1C28.8 14.2 28.5 14.3 28.3 14.3C28.1 14.3 27.9 14.2 27.7 13.8C27.6 13.6 27.5 13.5 27.5 13.4C27.5 13.2 27.7 13 28.1 13C28.5 13 28.8 13.1 29.2 13.3C29.4 13.2 29.6 13.1 29.8 13C28.8 12.4 28.1 11.8 28.1 11.1C28.1 11 28.1 10.8 28.2 10.6H27.1L26.8 9.90002ZM28.8 11.3C28.8 11.9 29.3 12.2 30.1 12.5C30.4 12.2 30.6 11.9 30.6 11.4C30.6 10.9 30.2 10.5 29.7 10.5C29.2 10.5 28.8 10.8 28.8 11.3Z" fill="black"/>
<path d="M32.5 10C32.3 9.6 32.1 9.20002 31.9 8.80002C31.6 8.10002 31.3 7.80002 30.6 7.80002C30.2 7.80002 29.9 7.9 29.5 8L29.2 7.20001C29.5 7.10001 29.9 7 30.4 7C31.6 7 31.8 7.8 33 10V10.1H32.5V10Z" fill="white"/>
<path d="M32.5 10C32.3 9.6 32.1 9.20002 31.9 8.80002C31.6 8.10002 31.3 7.80002 30.6 7.80002C30.2 7.80002 29.9 7.9 29.5 8L29.2 7.20001C29.5 7.10001 29.9 7 30.4 7C31.6 7 31.8 7.8 33 10V10.1H32.5V10Z" fill="black"/>
<path d="M33.6 9.90002L39.5 9.80002L39.8 10.4V10.5H38.7V16.1L38.6 16.2L37.9 16V14.2C37.5 14.5 37.1 14.6 36.6 14.6C35.4 14.6 34.6 13.6 34.2 12.4L34.3 12.3C35.1 12 35.8 11.8 35.8 11.3C35.8 11 35.7 10.8 35.4 10.5H33.8L33.6 9.90002ZM36.1 10.5C36.4 11 36.5 11.3 36.5 11.6C36.5 12.2 36.2 12.5 35.4 12.8C35.3 12.8 35.2 12.9 35.2 13C35.2 13.2 35.6 13.9 36.5 13.9C36.9 13.9 37.2 13.8 37.6 13.6C37.9 13.4 38 13.1 38 12.7V10.5H36.1Z" fill="white"/>
<path d="M33.6 9.90002L39.5 9.80002L39.8 10.4V10.5H38.7V16.1L38.6 16.2L37.9 16V14.2C37.5 14.5 37.1 14.6 36.6 14.6C35.4 14.6 34.6 13.6 34.2 12.4L34.3 12.3C35.1 12 35.8 11.8 35.8 11.3C35.8 11 35.7 10.8 35.4 10.5H33.8L33.6 9.90002ZM36.1 10.5C36.4 11 36.5 11.3 36.5 11.6C36.5 12.2 36.2 12.5 35.4 12.8C35.3 12.8 35.2 12.9 35.2 13C35.2 13.2 35.6 13.9 36.5 13.9C36.9 13.9 37.2 13.8 37.6 13.6C37.9 13.4 38 13.1 38 12.7V10.5H36.1Z" fill="black"/>
<path d="M39.3 9.90002L43.7 9.80002L44 10.4V10.5H42.5C42.6 10.8 42.6 11.2 42.6 11.5C42.6 12.6 42.1 13.2 41.3 13.6C41.8 14.2 42.7 14.8 43.7 15.3L43.3 16.1H43.2C42.1 15.3 41.3 14.5 40.7 13.6C40.4 13.2 40.2 12.8 40.2 12.6C40.2 12.5 40.2 12.4 40.3 12.3C40.4 12.2 40.6 12.1 40.9 12.1C41.2 12.1 41.4 12.1 41.7 12.1C41.8 11.9 41.9 11.5 41.9 11.2C41.9 11 41.9 10.7 41.8 10.5H39.6L39.3 9.90002Z" fill="white"/>
<path d="M39.3 9.90002L43.7 9.80002L44 10.4V10.5H42.5C42.6 10.8 42.6 11.2 42.6 11.5C42.6 12.6 42.1 13.2 41.3 13.6C41.8 14.2 42.7 14.8 43.7 15.3L43.3 16.1H43.2C42.1 15.3 41.3 14.5 40.7 13.6C40.4 13.2 40.2 12.8 40.2 12.6C40.2 12.5 40.2 12.4 40.3 12.3C40.4 12.2 40.6 12.1 40.9 12.1C41.2 12.1 41.4 12.1 41.7 12.1C41.8 11.9 41.9 11.5 41.9 11.2C41.9 11 41.9 10.7 41.8 10.5H39.6L39.3 9.90002Z" fill="black"/>
<path d="M10.7846 6.41936C8.19742 6.41936 6.09998 8.58575 6.09998 11.2581C6.09998 13.9304 8.19742 16.0968 10.7846 16.0968C12.47 16.0968 13.4468 15.5584 14.2945 14.6828C15.1422 13.8071 15.4509 12.4828 15.4509 11.1466C15.4509 10.9428 15.438 10.7401 15.4153 10.5395H13.5884H13.2402H10.8415V12.2503H13.528C13.4188 12.6768 13.2337 13.0655 12.9423 13.3665C12.4203 13.9056 11.8188 14.2374 10.7811 14.2374C9.18818 14.2374 7.89673 12.9034 7.89673 11.2581C7.89673 9.61272 9.18818 8.27891 10.7811 8.27891C11.5561 8.27891 12.2316 8.5075 12.7665 9.00576L14.0854 7.66703L14.0834 7.66491C13.2036 6.80788 12.0783 6.41971 10.7847 6.41971L10.7846 6.41936ZM18.383 9.20541V10.6003H17.0087V11.9631H18.383V13.3582H19.7258V11.9631H21.1V10.6003H19.7258V9.20541H18.383ZM13.2379 9.60117C13.2386 9.6022 13.2396 9.60398 13.2399 9.60524V9.60346L13.2379 9.60117Z" fill="white"/>
<path d="M10.7846 6.41936C8.19742 6.41936 6.09998 8.58575 6.09998 11.2581C6.09998 13.9304 8.19742 16.0968 10.7846 16.0968C12.47 16.0968 13.4468 15.5584 14.2945 14.6828C15.1422 13.8071 15.4509 12.4828 15.4509 11.1466C15.4509 10.9428 15.438 10.7401 15.4153 10.5395H13.5884H13.2402H10.8415V12.2503H13.528C13.4188 12.6768 13.2337 13.0655 12.9423 13.3665C12.4203 13.9056 11.8188 14.2374 10.7811 14.2374C9.18818 14.2374 7.89673 12.9034 7.89673 11.2581C7.89673 9.61272 9.18818 8.27891 10.7811 8.27891C11.5561 8.27891 12.2316 8.5075 12.7665 9.00576L14.0854 7.66703L14.0834 7.66491C13.2036 6.80788 12.0783 6.41971 10.7847 6.41971L10.7846 6.41936ZM18.383 9.20541V10.6003H17.0087V11.9631H18.383V13.3582H19.7258V11.9631H21.1V10.6003H19.7258V9.20541H18.383ZM13.2379 9.60117C13.2386 9.6022 13.2396 9.60398 13.2399 9.60524V9.60346L13.2379 9.60117Z" fill="#DD5044"/>
</svg>
