<svg width="75" height="23" viewBox="0 0 75 23" fill="none" xmlns="http://www.w3.org/2000/svg">
<path d="M3.80002 0.25H71.1C72.9539 0.25 74.553 1.83101 74.65 3.80607V19.2C74.65 21.1619 73.0619 22.75 71.1 22.75H3.80002C1.83809 22.75 0.25 21.1619 0.25 19.2V3.80002C0.25 1.83809 1.83809 0.25 3.80002 0.25Z" fill="white" stroke="#D7D7D7" stroke-width="0.5"/>
<path d="M28 15V6H29.8V10L33.5 6H35.9L32.5 9.5L36.1 15H33.8L31.3 10.8L29.8 12.3V15H28Z" fill="white"/>
<path d="M28 15V6H29.8V10L33.5 6H35.9L32.5 9.5L36.1 15H33.8L31.3 10.8L29.8 12.3V15H28Z" fill="black"/>
<path d="M36.6 11.7C36.6 11.1 36.7 10.6 37 10C37.3 9.5 37.7 9.10002 38.2 8.80002C38.7 8.50002 39.3 8.39999 39.9 8.39999C40.9 8.39999 41.7 8.69999 42.3 9.39999C42.9 9.99999 43.2 10.8 43.2 11.8C43.2 12.8 42.9 13.6 42.2 14.2C41.6 14.8 40.8 15.2 39.8 15.2C39.2 15.2 38.6 15.1 38.1 14.8C37.6 14.5 37.1 14.1 36.9 13.6C36.8 13.1 36.6 12.4 36.6 11.7ZM38.4 11.8C38.4 12.4 38.6 12.9 38.9 13.3C39.2 13.7 39.6 13.8 40 13.8C40.4 13.8 40.8 13.6 41.1 13.3C41.4 13 41.6 12.5 41.6 11.8C41.6 11.2 41.4 10.7 41.1 10.3C40.8 10 40.4 9.80002 40 9.80002C39.6 9.80002 39.2 10 38.9 10.3C38.6 10.6 38.4 11.1 38.4 11.8Z" fill="white"/>
<path d="M36.6 11.7C36.6 11.1 36.7 10.6 37 10C37.3 9.5 37.7 9.10002 38.2 8.80002C38.7 8.50002 39.3 8.39999 39.9 8.39999C40.9 8.39999 41.7 8.69999 42.3 9.39999C42.9 9.99999 43.2 10.8 43.2 11.8C43.2 12.8 42.9 13.6 42.2 14.2C41.6 14.8 40.8 15.2 39.8 15.2C39.2 15.2 38.6 15.1 38.1 14.8C37.6 14.5 37.1 14.1 36.9 13.6C36.8 13.1 36.6 12.4 36.6 11.7ZM38.4 11.8C38.4 12.4 38.6 12.9 38.9 13.3C39.2 13.7 39.6 13.8 40 13.8C40.4 13.8 40.8 13.6 41.1 13.3C41.4 13 41.6 12.5 41.6 11.8C41.6 11.2 41.4 10.7 41.1 10.3C40.8 10 40.4 9.80002 40 9.80002C39.6 9.80002 39.2 10 38.9 10.3C38.6 10.6 38.4 11.1 38.4 11.8Z" fill="black"/>
<path d="M50.6 15H48.9V11.7C48.9 11 48.9 10.5 48.8 10.3C48.7 10.1 48.6 9.90002 48.4 9.80002C48.2 9.70002 48 9.60001 47.8 9.60001C47.5 9.60001 47.2 9.70002 47 9.80002C46.8 9.90002 46.6 10.2 46.5 10.4C46.4 10.7 46.4 11.2 46.4 11.9V14.8H44.7V8.30002H46.3V9.30002C46.9 8.60002 47.6 8.20001 48.4 8.20001C48.8 8.20001 49.1 8.29999 49.4 8.39999C49.7 8.49999 50 8.69999 50.1 8.89999C50.3 9.09999 50.4 9.40001 50.4 9.60001C50.5 9.90001 50.5 10.3 50.5 10.8V15H50.6Z" fill="white"/>
<path d="M50.6 15H48.9V11.7C48.9 11 48.9 10.5 48.8 10.3C48.7 10.1 48.6 9.90002 48.4 9.80002C48.2 9.70002 48 9.60001 47.8 9.60001C47.5 9.60001 47.2 9.70002 47 9.80002C46.8 9.90002 46.6 10.2 46.5 10.4C46.4 10.7 46.4 11.2 46.4 11.9V14.8H44.7V8.30002H46.3V9.30002C46.9 8.60002 47.6 8.20001 48.4 8.20001C48.8 8.20001 49.1 8.29999 49.4 8.39999C49.7 8.49999 50 8.69999 50.1 8.89999C50.3 9.09999 50.4 9.40001 50.4 9.60001C50.5 9.90001 50.5 10.3 50.5 10.8V15H50.6Z" fill="black"/>
<path d="M52.2 15.5L54.2 15.7C54.2 15.9 54.3 16.1 54.4 16.2C54.6 16.3 54.8 16.4 55.2 16.4C55.6 16.4 56 16.3 56.2 16.2C56.4 16.1 56.5 16 56.5 15.8C56.6 15.7 56.6 15.4 56.6 15V14.1C56.1 14.8 55.4 15.2 54.7 15.2C53.8 15.2 53.1 14.8 52.6 14.1C52.2 13.5 52 12.8 52 11.9C52 10.8 52.3 9.99999 52.8 9.39999C53.3 8.79999 54 8.5 54.8 8.5C55.6 8.5 56.3 8.90001 56.8 9.60001V8.70001H58.4V14.5C58.4 15.3 58.3 15.8 58.2 16.2C58.1 16.6 57.9 16.9 57.7 17.1C57.5 17.3 57.2 17.5 56.8 17.6C56.4 17.7 55.9 17.8 55.4 17.8C54.3 17.8 53.5 17.6 53.1 17.2C52.7 16.8 52.4 16.3 52.4 15.8C52.2 15.6 52.2 15.5 52.2 15.5ZM53.7 11.6C53.7 12.3 53.8 12.8 54.1 13.1C54.4 13.4 54.7 13.6 55.1 13.6C55.5 13.6 55.9 13.4 56.2 13.1C56.5 12.8 56.6 12.3 56.6 11.6C56.6 10.9 56.5 10.4 56.2 10.1C55.9 9.80001 55.6 9.60001 55.1 9.60001C54.7 9.60001 54.3 9.80001 54.1 10.1C53.8 10.5 53.7 11 53.7 11.6Z" fill="white"/>
<path d="M52.2 15.5L54.2 15.7C54.2 15.9 54.3 16.1 54.4 16.2C54.6 16.3 54.8 16.4 55.2 16.4C55.6 16.4 56 16.3 56.2 16.2C56.4 16.1 56.5 16 56.5 15.8C56.6 15.7 56.6 15.4 56.6 15V14.1C56.1 14.8 55.4 15.2 54.7 15.2C53.8 15.2 53.1 14.8 52.6 14.1C52.2 13.5 52 12.8 52 11.9C52 10.8 52.3 9.99999 52.8 9.39999C53.3 8.79999 54 8.5 54.8 8.5C55.6 8.5 56.3 8.90001 56.8 9.60001V8.70001H58.4V14.5C58.4 15.3 58.3 15.8 58.2 16.2C58.1 16.6 57.9 16.9 57.7 17.1C57.5 17.3 57.2 17.5 56.8 17.6C56.4 17.7 55.9 17.8 55.4 17.8C54.3 17.8 53.5 17.6 53.1 17.2C52.7 16.8 52.4 16.3 52.4 15.8C52.2 15.6 52.2 15.5 52.2 15.5ZM53.7 11.6C53.7 12.3 53.8 12.8 54.1 13.1C54.4 13.4 54.7 13.6 55.1 13.6C55.5 13.6 55.9 13.4 56.2 13.1C56.5 12.8 56.6 12.3 56.6 11.6C56.6 10.9 56.5 10.4 56.2 10.1C55.9 9.80001 55.6 9.60001 55.1 9.60001C54.7 9.60001 54.3 9.80001 54.1 10.1C53.8 10.5 53.7 11 53.7 11.6Z" fill="black"/>
<path d="M59.4 13.2L61.1 12.9C61.2 13.2 61.3 13.5 61.5 13.7C61.7 13.9 62 14 62.4 14C62.8 14 63.2 13.9 63.4 13.8C63.6 13.7 63.6 13.5 63.6 13.3C63.6 13.2 63.6 13.1 63.5 13C63.4 12.9 63.2 12.8 62.9 12.8C61.5 12.5 60.6 12.2 60.3 12C59.8 11.7 59.5 11.2 59.5 10.5C59.5 9.9 59.7 9.50001 60.2 9.10001C60.7 8.70001 61.3 8.5 62.3 8.5C63.2 8.5 63.8 8.59999 64.3 8.89999C64.8 9.19999 65 9.60001 65.2 10.2L63.6 10.5C63.5 10.2 63.4 10.1 63.2 9.89999C63 9.79999 62.7 9.70001 62.4 9.70001C61.9 9.70001 61.6 9.79999 61.4 9.89999C61.3 9.99999 61.2 10.1 61.2 10.2C61.2 10.3 61.3 10.4 61.4 10.5C61.6 10.6 62.1 10.8 63 11C63.9 11.2 64.6 11.5 64.9 11.8C65.3 12.1 65.4 12.5 65.4 13.1C65.4 13.7 65.2 14.2 64.7 14.6C64.2 15 63.5 15.2 62.5 15.2C61.6 15.2 60.9 15 60.4 14.7C59.9 14.3 59.5 13.8 59.4 13.2Z" fill="white"/>
<path d="M59.4 13.2L61.1 12.9C61.2 13.2 61.3 13.5 61.5 13.7C61.7 13.9 62 14 62.4 14C62.8 14 63.2 13.9 63.4 13.8C63.6 13.7 63.6 13.5 63.6 13.3C63.6 13.2 63.6 13.1 63.5 13C63.4 12.9 63.2 12.8 62.9 12.8C61.5 12.5 60.6 12.2 60.3 12C59.8 11.7 59.5 11.2 59.5 10.5C59.5 9.9 59.7 9.50001 60.2 9.10001C60.7 8.70001 61.3 8.5 62.3 8.5C63.2 8.5 63.8 8.59999 64.3 8.89999C64.8 9.19999 65 9.60001 65.2 10.2L63.6 10.5C63.5 10.2 63.4 10.1 63.2 9.89999C63 9.79999 62.7 9.70001 62.4 9.70001C61.9 9.70001 61.6 9.79999 61.4 9.89999C61.3 9.99999 61.2 10.1 61.2 10.2C61.2 10.3 61.3 10.4 61.4 10.5C61.6 10.6 62.1 10.8 63 11C63.9 11.2 64.6 11.5 64.9 11.8C65.3 12.1 65.4 12.5 65.4 13.1C65.4 13.7 65.2 14.2 64.7 14.6C64.2 15 63.5 15.2 62.5 15.2C61.6 15.2 60.9 15 60.4 14.7C59.9 14.3 59.5 13.8 59.4 13.2Z" fill="black"/>
<path d="M66.9 7.70001V6.10001H68.6V7.70001H66.9ZM66.9 15V8.5H68.6V15H66.9Z" fill="white"/>
<path d="M66.9 7.70001V6.10001H68.6V7.70001H66.9ZM66.9 15V8.5H68.6V15H66.9Z" fill="black"/>
<path d="M10.7846 6.41935C8.19742 6.41935 6.09998 8.58575 6.09998 11.2581C6.09998 13.9304 8.19742 16.0968 10.7846 16.0968C12.47 16.0968 13.4468 15.5584 14.2945 14.6828C15.1422 13.8071 15.4509 12.4828 15.4509 11.1466C15.4509 10.9428 15.438 10.7401 15.4153 10.5395H13.5884H13.2402H10.8415V12.2503H13.528C13.4188 12.6768 13.2337 13.0655 12.9423 13.3665C12.4203 13.9056 11.8188 14.2374 10.7811 14.2374C9.18818 14.2374 7.89673 12.9034 7.89673 11.2581C7.89673 9.61271 9.18818 8.27891 10.7811 8.27891C11.5561 8.27891 12.2316 8.5075 12.7665 9.00576L14.0854 7.66703L14.0834 7.66491C13.2036 6.80788 12.0783 6.41971 10.7847 6.41971L10.7846 6.41935ZM18.383 9.20541V10.6003H17.0087V11.9631H18.383V13.3582H19.7258V11.9631H21.1V10.6003H19.7258V9.20541H18.383ZM13.2379 9.60117C13.2386 9.6022 13.2396 9.60398 13.2399 9.60524V9.60346L13.2379 9.60117Z" fill="white"/>
<path d="M10.7846 6.41935C8.19742 6.41935 6.09998 8.58575 6.09998 11.2581C6.09998 13.9304 8.19742 16.0968 10.7846 16.0968C12.47 16.0968 13.4468 15.5584 14.2945 14.6828C15.1422 13.8071 15.4509 12.4828 15.4509 11.1466C15.4509 10.9428 15.438 10.7401 15.4153 10.5395H13.5884H13.2402H10.8415V12.2503H13.528C13.4188 12.6768 13.2337 13.0655 12.9423 13.3665C12.4203 13.9056 11.8188 14.2374 10.7811 14.2374C9.18818 14.2374 7.89673 12.9034 7.89673 11.2581C7.89673 9.61271 9.18818 8.27891 10.7811 8.27891C11.5561 8.27891 12.2316 8.5075 12.7665 9.00576L14.0854 7.66703L14.0834 7.66491C13.2036 6.80788 12.0783 6.41971 10.7847 6.41971L10.7846 6.41935ZM18.383 9.20541V10.6003H17.0087V11.9631H18.383V13.3582H19.7258V11.9631H21.1V10.6003H19.7258V9.20541H18.383ZM13.2379 9.60117C13.2386 9.6022 13.2396 9.60398 13.2399 9.60524V9.60346L13.2379 9.60117Z" fill="#DD5044"/>
</svg>
