<svg width="90" height="23" viewBox="0 0 90 23" fill="none" xmlns="http://www.w3.org/2000/svg">
<path d="M3.80002 0.25H86.1C87.9539 0.25 89.553 1.83098 89.65 3.80604V19.2C89.65 21.1619 88.0619 22.75 86.1 22.75H3.80002C1.83809 22.75 0.25 21.1619 0.25 19.2V3.79999C0.25 1.83806 1.83809 0.25 3.80002 0.25Z" fill="white" stroke="#D7D7D7" stroke-width="0.5"/>
<path d="M33.7 12.7L35.5 13.3C35.2 14.3 34.8 15 34.2 15.5C33.6 16 32.8 16.2 31.8 16.2C30.6 16.2 29.6 15.8 28.9 15C28.1 14.2 27.8 13.1 27.8 11.7C27.8 10.2 28.2 8.99995 29 8.19995C29.8 7.39995 30.8 7 32 7C33.1 7 34 7.3 34.7 8C35.1 8.4 35.4 8.89995 35.6 9.69995L33.8 10.1C33.7 9.59998 33.5 9.3 33.1 9C32.8 8.7 32.4 8.59998 31.9 8.59998C31.2 8.59998 30.7 8.79999 30.3 9.29999C29.9 9.79999 29.7 10.5 29.7 11.6C29.7 12.7 29.9 13.5 30.3 14C30.7 14.5 31.2 14.7 31.9 14.7C32.4 14.7 32.8 14.5 33.1 14.2C33.3 13.9 33.6 13.4 33.7 12.7Z" fill="white"/>
<path d="M33.7 12.7L35.5 13.3C35.2 14.3 34.8 15 34.2 15.5C33.6 16 32.8 16.2 31.8 16.2C30.6 16.2 29.6 15.8 28.9 15C28.1 14.2 27.8 13.1 27.8 11.7C27.8 10.2 28.2 8.99995 29 8.19995C29.8 7.39995 30.8 7 32 7C33.1 7 34 7.3 34.7 8C35.1 8.4 35.4 8.89995 35.6 9.69995L33.8 10.1C33.7 9.59998 33.5 9.3 33.1 9C32.8 8.7 32.4 8.59998 31.9 8.59998C31.2 8.59998 30.7 8.79999 30.3 9.29999C29.9 9.79999 29.7 10.5 29.7 11.6C29.7 12.7 29.9 13.5 30.3 14C30.7 14.5 31.2 14.7 31.9 14.7C32.4 14.7 32.8 14.5 33.1 14.2C33.3 13.9 33.6 13.4 33.7 12.7Z" fill="black"/>
<path d="M36.6 12.7C36.6 12.1 36.7 11.6 37 11C37.3 10.5 37.7 10.1 38.2 9.79999C38.7 9.49999 39.3 9.39996 39.9 9.39996C40.9 9.39996 41.7 9.69996 42.3 10.4C42.9 11 43.2 11.8 43.2 12.8C43.2 13.8 42.9 14.6 42.2 15.2C41.6 15.8 40.8 16.2 39.8 16.2C39.2 16.2 38.6 16.1 38.1 15.8C37.6 15.5 37.1 15.1 36.9 14.6C36.8 14.1 36.6 13.4 36.6 12.7ZM38.4 12.8C38.4 13.4 38.6 13.9 38.9 14.3C39.2 14.6 39.6 14.8 40 14.8C40.4 14.8 40.8 14.6 41.1 14.3C41.4 14 41.6 13.5 41.6 12.8C41.6 12.2 41.4 11.7 41.1 11.3C40.8 11 40.4 10.8 40 10.8C39.6 10.8 39.2 11 38.9 11.3C38.6 11.6 38.4 12.1 38.4 12.8Z" fill="white"/>
<path d="M36.6 12.7C36.6 12.1 36.7 11.6 37 11C37.3 10.5 37.7 10.1 38.2 9.79999C38.7 9.49999 39.3 9.39996 39.9 9.39996C40.9 9.39996 41.7 9.69996 42.3 10.4C42.9 11 43.2 11.8 43.2 12.8C43.2 13.8 42.9 14.6 42.2 15.2C41.6 15.8 40.8 16.2 39.8 16.2C39.2 16.2 38.6 16.1 38.1 15.8C37.6 15.5 37.1 15.1 36.9 14.6C36.8 14.1 36.6 13.4 36.6 12.7ZM38.4 12.8C38.4 13.4 38.6 13.9 38.9 14.3C39.2 14.6 39.6 14.8 40 14.8C40.4 14.8 40.8 14.6 41.1 14.3C41.4 14 41.6 13.5 41.6 12.8C41.6 12.2 41.4 11.7 41.1 11.3C40.8 11 40.4 10.8 40 10.8C39.6 10.8 39.2 11 38.9 11.3C38.6 11.6 38.4 12.1 38.4 12.8Z" fill="black"/>
<path d="M50.6 16H48.9V12.7C48.9 12 48.9 11.5 48.8 11.3C48.7 11.1 48.6 10.9 48.4 10.8C48.2 10.7 48 10.6 47.8 10.6C47.5 10.6 47.2 10.7 47 10.8C46.8 10.9 46.6 11.2 46.5 11.4C46.4 11.7 46.4 12.2 46.4 12.9V15.8H44.7V9.29999H46.3V10.3C46.9 9.59999 47.6 9.19995 48.4 9.19995C48.8 9.19995 49.1 9.29996 49.4 9.39996C49.7 9.49996 50 9.69996 50.1 9.89996C50.2 10.1 50.4 10.4 50.4 10.6C50.5 10.9 50.5 11.3 50.5 11.8V16H50.6Z" fill="white"/>
<path d="M50.6 16H48.9V12.7C48.9 12 48.9 11.5 48.8 11.3C48.7 11.1 48.6 10.9 48.4 10.8C48.2 10.7 48 10.6 47.8 10.6C47.5 10.6 47.2 10.7 47 10.8C46.8 10.9 46.6 11.2 46.5 11.4C46.4 11.7 46.4 12.2 46.4 12.9V15.8H44.7V9.29999H46.3V10.3C46.9 9.59999 47.6 9.19995 48.4 9.19995C48.8 9.19995 49.1 9.29996 49.4 9.39996C49.7 9.49996 50 9.69996 50.1 9.89996C50.2 10.1 50.4 10.4 50.4 10.6C50.5 10.9 50.5 11.3 50.5 11.8V16H50.6Z" fill="black"/>
<path d="M58.3 16H56.7V15C56.4 15.4 56.1 15.6 55.8 15.8C55.4 16 55.1 16.1 54.7 16.1C54 16.1 53.3 15.8 52.8 15.2C52.3 14.6 52 13.8 52 12.7C52 11.6 52.3 10.8 52.8 10.2C53.3 9.59995 54 9.29999 54.8 9.29999C55.5 9.29999 56.2 9.59995 56.7 10.2V7H58.4V16H58.3ZM53.7 12.6C53.7 13.3 53.8 13.8 54 14.1C54.3 14.5 54.7 14.8 55.2 14.8C55.6 14.8 55.9 14.6 56.2 14.3C56.5 14 56.6 13.5 56.6 12.8C56.6 12.1 56.5 11.5 56.2 11.2C55.9 10.9 55.6 10.7 55.2 10.7C54.8 10.7 54.5 10.9 54.2 11.2C53.9 11.5 53.7 12 53.7 12.6Z" fill="white"/>
<path d="M58.3 16H56.7V15C56.4 15.4 56.1 15.6 55.8 15.8C55.4 16 55.1 16.1 54.7 16.1C54 16.1 53.3 15.8 52.8 15.2C52.3 14.6 52 13.8 52 12.7C52 11.6 52.3 10.8 52.8 10.2C53.3 9.59995 54 9.29999 54.8 9.29999C55.5 9.29999 56.2 9.59995 56.7 10.2V7H58.4V16H58.3ZM53.7 12.6C53.7 13.3 53.8 13.8 54 14.1C54.3 14.5 54.7 14.8 55.2 14.8C55.6 14.8 55.9 14.6 56.2 14.3C56.5 14 56.6 13.5 56.6 12.8C56.6 12.1 56.5 11.5 56.2 11.2C55.9 10.9 55.6 10.7 55.2 10.7C54.8 10.7 54.5 10.9 54.2 11.2C53.9 11.5 53.7 12 53.7 12.6Z" fill="black"/>
<path d="M60 8.69995V7.09998H61.7V8.69995H60ZM60 16V9.5H61.7V16H60Z" fill="white"/>
<path d="M60 8.69995V7.09998H61.7V8.69995H60ZM60 16V9.5H61.7V16H60Z" fill="black"/>
<path d="M65.2 16L62.6 9.5H64.4L65.6 12.8L66 13.9C66.1 13.6 66.2 13.4 66.2 13.3C66.3 13.1 66.3 12.9 66.4 12.8L67.6 9.5H69.4L66.8 16H65.2Z" fill="white"/>
<path d="M65.2 16L62.6 9.5H64.4L65.6 12.8L66 13.9C66.1 13.6 66.2 13.4 66.2 13.3C66.3 13.1 66.3 12.9 66.4 12.8L67.6 9.5H69.4L66.8 16H65.2Z" fill="black"/>
<path d="M70.4 8.69995V7.09998H72.1V8.69995H70.4ZM70.4 16V9.5H72.1V16H70.4Z" fill="white"/>
<path d="M70.4 8.69995V7.09998H72.1V8.69995H70.4ZM70.4 16V9.5H72.1V16H70.4Z" fill="black"/>
<path d="M79.8 16H78.2V15C77.9 15.4 77.6 15.6 77.3 15.8C76.9 16 76.6 16.1 76.2 16.1C75.5 16.1 74.8 15.8 74.3 15.2C73.8 14.6 73.5 13.8 73.5 12.7C73.5 11.6 73.8 10.8 74.3 10.2C74.8 9.59995 75.5 9.29999 76.3 9.29999C77 9.29999 77.7 9.59995 78.2 10.2V7H79.9V16H79.8ZM75.3 12.6C75.3 13.3 75.4 13.8 75.6 14.1C75.9 14.5 76.3 14.8 76.8 14.8C77.2 14.8 77.5 14.6 77.8 14.3C78.1 14 78.2 13.5 78.2 12.8C78.2 12.1 78.1 11.5 77.8 11.2C77.5 10.9 77.2 10.7 76.8 10.7C76.4 10.7 76.1 10.9 75.8 11.2C75.5 11.5 75.3 12 75.3 12.6Z" fill="white"/>
<path d="M79.8 16H78.2V15C77.9 15.4 77.6 15.6 77.3 15.8C76.9 16 76.6 16.1 76.2 16.1C75.5 16.1 74.8 15.8 74.3 15.2C73.8 14.6 73.5 13.8 73.5 12.7C73.5 11.6 73.8 10.8 74.3 10.2C74.8 9.59995 75.5 9.29999 76.3 9.29999C77 9.29999 77.7 9.59995 78.2 10.2V7H79.9V16H79.8ZM75.3 12.6C75.3 13.3 75.4 13.8 75.6 14.1C75.9 14.5 76.3 14.8 76.8 14.8C77.2 14.8 77.5 14.6 77.8 14.3C78.1 14 78.2 13.5 78.2 12.8C78.2 12.1 78.1 11.5 77.8 11.2C77.5 10.9 77.2 10.7 76.8 10.7C76.4 10.7 76.1 10.9 75.8 11.2C75.5 11.5 75.3 12 75.3 12.6Z" fill="black"/>
<path d="M81.5 8.69995V7.09998H83.2V8.69995H81.5ZM81.5 16V9.5H83.2V16H81.5Z" fill="white"/>
<path d="M81.5 8.69995V7.09998H83.2V8.69995H81.5ZM81.5 16V9.5H83.2V16H81.5Z" fill="black"/>
<path d="M10.7846 6.41936C8.19742 6.41936 6.09998 8.58575 6.09998 11.2581C6.09998 13.9304 8.19742 16.0968 10.7846 16.0968C12.47 16.0968 13.4468 15.5584 14.2945 14.6828C15.1422 13.8071 15.4509 12.4828 15.4509 11.1466C15.4509 10.9428 15.438 10.7401 15.4153 10.5395H13.5884H13.2402H10.8415V12.2503H13.528C13.4188 12.6768 13.2337 13.0655 12.9423 13.3665C12.4203 13.9056 11.8188 14.2374 10.7811 14.2374C9.18818 14.2374 7.89673 12.9034 7.89673 11.2581C7.89673 9.61272 9.18818 8.27891 10.7811 8.27891C11.5561 8.27891 12.2316 8.5075 12.7665 9.00577L14.0854 7.66703L14.0834 7.66491C13.2036 6.80788 12.0783 6.41971 10.7847 6.41971L10.7846 6.41936ZM18.383 9.20542V10.6003H17.0087V11.9631H18.383V13.3582H19.7258V11.9631H21.1V10.6003H19.7258V9.20542H18.383ZM13.2379 9.60117C13.2386 9.6022 13.2396 9.60398 13.2399 9.60524V9.60346L13.2379 9.60117Z" fill="white"/>
<path d="M10.7846 6.41936C8.19742 6.41936 6.09998 8.58575 6.09998 11.2581C6.09998 13.9304 8.19742 16.0968 10.7846 16.0968C12.47 16.0968 13.4468 15.5584 14.2945 14.6828C15.1422 13.8071 15.4509 12.4828 15.4509 11.1466C15.4509 10.9428 15.438 10.7401 15.4153 10.5395H13.5884H13.2402H10.8415V12.2503H13.528C13.4188 12.6768 13.2337 13.0655 12.9423 13.3665C12.4203 13.9056 11.8188 14.2374 10.7811 14.2374C9.18818 14.2374 7.89673 12.9034 7.89673 11.2581C7.89673 9.61272 9.18818 8.27891 10.7811 8.27891C11.5561 8.27891 12.2316 8.5075 12.7665 9.00577L14.0854 7.66703L14.0834 7.66491C13.2036 6.80788 12.0783 6.41971 10.7847 6.41971L10.7846 6.41936ZM18.383 9.20542V10.6003H17.0087V11.9631H18.383V13.3582H19.7258V11.9631H21.1V10.6003H19.7258V9.20542H18.383ZM13.2379 9.60117C13.2386 9.6022 13.2396 9.60398 13.2399 9.60524V9.60346L13.2379 9.60117Z" fill="#DD5044"/>
</svg>
