<svg width="67" height="23" viewBox="0 0 67 23" fill="none" xmlns="http://www.w3.org/2000/svg">
<path d="M3.80002 0.25H63.1C64.9539 0.25 66.553 1.83098 66.65 3.80604V19.2C66.65 21.1619 65.0619 22.75 63.1 22.75H3.80002C1.83809 22.75 0.25 21.1619 0.25 19.2V3.79999C0.25 1.83806 1.83809 0.25 3.80002 0.25Z" fill="white" stroke="#D7D7D7" stroke-width="0.5"/>
<path d="M28.6 9.09998C29.7 9.39998 31.1 9.80001 32 10.2L31.6 11C30.8 10.6 29.3 10.1 28.2 9.79999L28.6 9.09998ZM29.3 15.2C33.4 13.8 36.2 11.7 37.8 7.89996C38 8.09996 38.4 8.3 38.6 8.5C36.9 12.2 34 14.5 30.2 15.9C30.2 16 30.2 16.2 30 16.2L29.3 15.2ZM29.9 6C31 6.3 32.4 6.80001 33.3 7.20001L32.9 8C32 7.5 30.7 7.00001 29.6 6.70001L29.9 6Z" fill="white"/>
<path d="M28.6 9.09998C29.7 9.39998 31.1 9.80001 32 10.2L31.6 11C30.8 10.6 29.3 10.1 28.2 9.79999L28.6 9.09998ZM29.3 15.2C33.4 13.8 36.2 11.7 37.8 7.89996C38 8.09996 38.4 8.3 38.6 8.5C36.9 12.2 34 14.5 30.2 15.9C30.2 16 30.2 16.2 30 16.2L29.3 15.2ZM29.9 6C31 6.3 32.4 6.80001 33.3 7.20001L32.9 8C32 7.5 30.7 7.00001 29.6 6.70001L29.9 6Z" fill="black"/>
<path d="M47.2 9V9.70001H44.1V14.6H47.9V15.3H39.5V14.6H43.3V9.70001H40.2V9H47.2Z" fill="white"/>
<path d="M47.2 9V9.70001H44.1V14.6H47.9V15.3H39.5V14.6H43.3V9.70001H40.2V9H47.2Z" fill="black"/>
<path d="M60.1 6.59998C60.1 6.59998 60 6.70001 59.9 6.70001C59.2 8.30001 58.1 9.70001 56.9 10.7C56.7 10.5 56.4 10.3 56.1 10.2C57.3 9.40001 58.2 8.09998 58.6 7.09998H49.6V6.29999H59L59.1 6.20001L60.1 6.59998ZM55.2 8.89996C55.2 8.99996 55.1 9.09998 54.9 9.09998C54.5 12.1 53.5 14.9 50.9 16.4C50.7 16.2 50.4 16 50.2 15.8C52.8 14.4 53.7 11.8 54 8.79999L55.2 8.89996Z" fill="white"/>
<path d="M60.1 6.59998C60.1 6.59998 60 6.70001 59.9 6.70001C59.2 8.30001 58.1 9.70001 56.9 10.7C56.7 10.5 56.4 10.3 56.1 10.2C57.3 9.40001 58.2 8.09998 58.6 7.09998H49.6V6.29999H59L59.1 6.20001L60.1 6.59998ZM55.2 8.89996C55.2 8.99996 55.1 9.09998 54.9 9.09998C54.5 12.1 53.5 14.9 50.9 16.4C50.7 16.2 50.4 16 50.2 15.8C52.8 14.4 53.7 11.8 54 8.79999L55.2 8.89996Z" fill="black"/>
<path d="M10.7846 6.41936C8.19742 6.41936 6.09998 8.58575 6.09998 11.2581C6.09998 13.9304 8.19742 16.0968 10.7846 16.0968C12.47 16.0968 13.4468 15.5584 14.2945 14.6828C15.1422 13.8071 15.4509 12.4828 15.4509 11.1466C15.4509 10.9428 15.438 10.7401 15.4153 10.5395H13.5884H13.2402H10.8415V12.2503H13.528C13.4188 12.6768 13.2337 13.0655 12.9423 13.3665C12.4203 13.9056 11.8188 14.2374 10.7811 14.2374C9.18818 14.2374 7.89673 12.9034 7.89673 11.2581C7.89673 9.61272 9.18818 8.27891 10.7811 8.27891C11.5561 8.27891 12.2316 8.5075 12.7665 9.00577L14.0854 7.66703L14.0834 7.66491C13.2036 6.80788 12.0783 6.41971 10.7847 6.41971L10.7846 6.41936ZM18.383 9.20542V10.6003H17.0087V11.9631H18.383V13.3582H19.7258V11.9631H21.1V10.6003H19.7258V9.20542H18.383ZM13.2379 9.60117C13.2386 9.6022 13.2396 9.60398 13.2399 9.60524V9.60346L13.2379 9.60117Z" fill="white"/>
<path d="M10.7846 6.41936C8.19742 6.41936 6.09998 8.58575 6.09998 11.2581C6.09998 13.9304 8.19742 16.0968 10.7846 16.0968C12.47 16.0968 13.4468 15.5584 14.2945 14.6828C15.1422 13.8071 15.4509 12.4828 15.4509 11.1466C15.4509 10.9428 15.438 10.7401 15.4153 10.5395H13.5884H13.2402H10.8415V12.2503H13.528C13.4188 12.6768 13.2337 13.0655 12.9423 13.3665C12.4203 13.9056 11.8188 14.2374 10.7811 14.2374C9.18818 14.2374 7.89673 12.9034 7.89673 11.2581C7.89673 9.61272 9.18818 8.27891 10.7811 8.27891C11.5561 8.27891 12.2316 8.5075 12.7665 9.00577L14.0854 7.66703L14.0834 7.66491C13.2036 6.80788 12.0783 6.41971 10.7847 6.41971L10.7846 6.41936ZM18.383 9.20542V10.6003H17.0087V11.9631H18.383V13.3582H19.7258V11.9631H21.1V10.6003H19.7258V9.20542H18.383ZM13.2379 9.60117C13.2386 9.6022 13.2396 9.60398 13.2399 9.60524V9.60346L13.2379 9.60117Z" fill="#DD5044"/>
</svg>
