<svg width="63" height="23" viewBox="0 0 63 23" fill="none" xmlns="http://www.w3.org/2000/svg">
<path d="M3.80002 0.25H59.1C60.9539 0.25 62.553 1.83098 62.65 3.80604V19.2C62.65 21.1619 61.0619 22.75 59.1 22.75H3.80002C1.83809 22.75 0.25 21.1619 0.25 19.2V3.79999C0.25 1.83806 1.83809 0.25 3.80002 0.25Z" fill="white" stroke="#D7D7D7" stroke-width="0.5"/>
<path d="M31 7.09998H34.3C35 7.09998 35.6 7.19999 36 7.29999C36.5 7.49999 37 7.69998 37.4 8.09998C37.8 8.49998 38.1 8.99998 38.3 9.59998C38.5 10.2 38.6 10.9 38.6 11.7C38.6 12.4 38.5 13.1 38.3 13.6C38.1 14.3 37.8 14.8 37.3 15.2C37 15.5 36.6 15.7 36 15.9C35.6 16 35.1 16.1 34.4 16.1H31V7.09998ZM32.8 8.59998V14.5H34.2C34.7 14.5 35.1 14.5 35.3 14.4C35.6 14.3 35.8 14.2 36 14C36.2 13.8 36.4 13.5 36.5 13.1C36.6 12.7 36.7 12.2 36.7 11.5C36.7 10.8 36.6 10.3 36.5 9.89996C36.4 9.49996 36.2 9.2 36 9C35.8 8.8 35.5 8.69998 35.2 8.59998C34.9 8.49998 34.5 8.5 33.7 8.5H32.8V8.59998Z" fill="white"/>
<path d="M31 7.09998H34.3C35 7.09998 35.6 7.19999 36 7.29999C36.5 7.49999 37 7.69998 37.4 8.09998C37.8 8.49998 38.1 8.99998 38.3 9.59998C38.5 10.2 38.6 10.9 38.6 11.7C38.6 12.4 38.5 13.1 38.3 13.6C38.1 14.3 37.8 14.8 37.3 15.2C37 15.5 36.6 15.7 36 15.9C35.6 16 35.1 16.1 34.4 16.1H31V7.09998ZM32.8 8.59998V14.5H34.2C34.7 14.5 35.1 14.5 35.3 14.4C35.6 14.3 35.8 14.2 36 14C36.2 13.8 36.4 13.5 36.5 13.1C36.6 12.7 36.7 12.2 36.7 11.5C36.7 10.8 36.6 10.3 36.5 9.89996C36.4 9.49996 36.2 9.2 36 9C35.8 8.8 35.5 8.69998 35.2 8.59998C34.9 8.49998 34.5 8.5 33.7 8.5H32.8V8.59998Z" fill="black"/>
<path d="M43.8 14L45.5 14.3C45.3 14.9 44.9 15.4 44.5 15.7C44.1 16 43.4 16.2 42.7 16.2C41.6 16.2 40.7 15.8 40.2 15.1C39.8 14.5 39.6 13.8 39.6 12.9C39.6 11.8 39.9 11 40.4 10.4C41 9.79996 41.7 9.5 42.5 9.5C43.5 9.5 44.2 9.8 44.8 10.5C45.4 11.1 45.6 12.1 45.6 13.4H41.3C41.3 13.9 41.5 14.3 41.7 14.6C42 14.9 42.3 15 42.7 15C43 15 43.2 14.9 43.4 14.8C43.6 14.5 43.7 14.3 43.8 14ZM43.9 12.2C43.9 11.7 43.8 11.3 43.5 11.1C43.2 10.9 43 10.7 42.6 10.7C42.2 10.7 41.9 10.8 41.7 11.1C41.5 11.4 41.3 11.7 41.3 12.2H43.9Z" fill="white"/>
<path d="M43.8 14L45.5 14.3C45.3 14.9 44.9 15.4 44.5 15.7C44.1 16 43.4 16.2 42.7 16.2C41.6 16.2 40.7 15.8 40.2 15.1C39.8 14.5 39.6 13.8 39.6 12.9C39.6 11.8 39.9 11 40.4 10.4C41 9.79996 41.7 9.5 42.5 9.5C43.5 9.5 44.2 9.8 44.8 10.5C45.4 11.1 45.6 12.1 45.6 13.4H41.3C41.3 13.9 41.5 14.3 41.7 14.6C42 14.9 42.3 15 42.7 15C43 15 43.2 14.9 43.4 14.8C43.6 14.5 43.7 14.3 43.8 14ZM43.9 12.2C43.9 11.7 43.8 11.3 43.5 11.1C43.2 10.9 43 10.7 42.6 10.7C42.2 10.7 41.9 10.8 41.7 11.1C41.5 11.4 41.3 11.7 41.3 12.2H43.9Z" fill="black"/>
<path d="M47 16V7H48.7V16H47Z" fill="white"/>
<path d="M47 16V7H48.7V16H47Z" fill="black"/>
<path d="M51.8 11.5L50.2 11.2C50.4 10.6 50.7 10.1 51.1 9.79999C51.5 9.49999 52.2 9.29999 53 9.29999C53.8 9.29999 54.3 9.39998 54.7 9.59998C55.1 9.79998 55.3 9.99999 55.5 10.3C55.7 10.6 55.7 11.1 55.7 11.8V13.8C55.7 14.4 55.7 14.8 55.8 15.1C55.9 15.4 56 15.7 56.1 16H54.4C54.4 15.9 54.3 15.7 54.2 15.5C54.2 15.4 54.2 15.3 54.1 15.3C53.8 15.6 53.5 15.8 53.2 15.9C52.9 16 52.5 16.1 52.1 16.1C51.4 16.1 50.9 15.9 50.5 15.6C50.1 15.2 49.9 14.8 49.9 14.2C49.9 13.8 50 13.5 50.2 13.2C50.4 12.9 50.6 12.7 50.9 12.5C51.2 12.3 51.7 12.2 52.3 12.1C53.1 11.9 53.7 11.8 54 11.7V11.6C54 11.3 53.9 11 53.8 10.9C53.6 10.8 53.3 10.7 52.9 10.7C52.6 10.7 52.4 10.8 52.2 10.9C52 11 51.9 11.2 51.8 11.5ZM54.1 12.9C53.9 13 53.5 13.1 53.1 13.2C52.6 13.3 52.3 13.4 52.2 13.5C52 13.7 51.9 13.9 51.9 14.1C51.9 14.3 52 14.5 52.2 14.7C52.4 14.9 52.6 15 52.9 15C53.2 15 53.5 14.9 53.8 14.7C54 14.5 54.1 14.4 54.2 14.1C54.2 14 54.3 13.7 54.3 13.3V12.9H54.1Z" fill="white"/>
<path d="M51.8 11.5L50.2 11.2C50.4 10.6 50.7 10.1 51.1 9.79999C51.5 9.49999 52.2 9.29999 53 9.29999C53.8 9.29999 54.3 9.39998 54.7 9.59998C55.1 9.79998 55.3 9.99999 55.5 10.3C55.7 10.6 55.7 11.1 55.7 11.8V13.8C55.7 14.4 55.7 14.8 55.8 15.1C55.9 15.4 56 15.7 56.1 16H54.4C54.4 15.9 54.3 15.7 54.2 15.5C54.2 15.4 54.2 15.3 54.1 15.3C53.8 15.6 53.5 15.8 53.2 15.9C52.9 16 52.5 16.1 52.1 16.1C51.4 16.1 50.9 15.9 50.5 15.6C50.1 15.2 49.9 14.8 49.9 14.2C49.9 13.8 50 13.5 50.2 13.2C50.4 12.9 50.6 12.7 50.9 12.5C51.2 12.3 51.7 12.2 52.3 12.1C53.1 11.9 53.7 11.8 54 11.7V11.6C54 11.3 53.9 11 53.8 10.9C53.6 10.8 53.3 10.7 52.9 10.7C52.6 10.7 52.4 10.8 52.2 10.9C52 11 51.9 11.2 51.8 11.5ZM54.1 12.9C53.9 13 53.5 13.1 53.1 13.2C52.6 13.3 52.3 13.4 52.2 13.5C52 13.7 51.9 13.9 51.9 14.1C51.9 14.3 52 14.5 52.2 14.7C52.4 14.9 52.6 15 52.9 15C53.2 15 53.5 14.9 53.8 14.7C54 14.5 54.1 14.4 54.2 14.1C54.2 14 54.3 13.7 54.3 13.3V12.9H54.1Z" fill="black"/>
<path d="M10.7846 6.41934C8.19742 6.41934 6.09998 8.58574 6.09998 11.2581C6.09998 13.9304 8.19742 16.0968 10.7846 16.0968C12.47 16.0968 13.4468 15.5584 14.2945 14.6827C15.1422 13.8071 15.4509 12.4828 15.4509 11.1466C15.4509 10.9428 15.438 10.7401 15.4153 10.5395H13.5884H13.2402H10.8415V12.2503H13.528C13.4188 12.6768 13.2337 13.0655 12.9423 13.3665C12.4203 13.9056 11.8188 14.2374 10.7811 14.2374C9.18818 14.2374 7.89673 12.9034 7.89673 11.2581C7.89673 9.6127 9.18818 8.2789 10.7811 8.2789C11.5561 8.2789 12.2316 8.50749 12.7665 9.00575L14.0854 7.66702L14.0834 7.66489C13.2036 6.80787 12.0783 6.4197 10.7847 6.4197L10.7846 6.41934ZM18.383 9.2054V10.6003H17.0087V11.9631H18.383V13.3582H19.7258V11.9631H21.1V10.6003H19.7258V9.2054H18.383ZM13.2379 9.60116C13.2386 9.60218 13.2396 9.60397 13.2399 9.60523V9.60345L13.2379 9.60116Z" fill="white"/>
<path d="M10.7846 6.41934C8.19742 6.41934 6.09998 8.58574 6.09998 11.2581C6.09998 13.9304 8.19742 16.0968 10.7846 16.0968C12.47 16.0968 13.4468 15.5584 14.2945 14.6827C15.1422 13.8071 15.4509 12.4828 15.4509 11.1466C15.4509 10.9428 15.438 10.7401 15.4153 10.5395H13.5884H13.2402H10.8415V12.2503H13.528C13.4188 12.6768 13.2337 13.0655 12.9423 13.3665C12.4203 13.9056 11.8188 14.2374 10.7811 14.2374C9.18818 14.2374 7.89673 12.9034 7.89673 11.2581C7.89673 9.6127 9.18818 8.2789 10.7811 8.2789C11.5561 8.2789 12.2316 8.50749 12.7665 9.00575L14.0854 7.66702L14.0834 7.66489C13.2036 6.80787 12.0783 6.4197 10.7847 6.4197L10.7846 6.41934ZM18.383 9.2054V10.6003H17.0087V11.9631H18.383V13.3582H19.7258V11.9631H21.1V10.6003H19.7258V9.2054H18.383ZM13.2379 9.60116C13.2386 9.60218 13.2396 9.60397 13.2399 9.60523V9.60345L13.2379 9.60116Z" fill="#DD5044"/>
</svg>
