<svg width="100" height="23" viewBox="0 0 100 23" fill="none" xmlns="http://www.w3.org/2000/svg">
<path d="M3.80002 0.25H96.1C97.9539 0.25 99.553 1.83098 99.65 3.80604V19.2C99.65 21.1619 98.0619 22.75 96.1 22.75H3.80002C1.83809 22.75 0.25 21.1619 0.25 19.2V3.79999C0.25 1.83806 1.83809 0.25 3.80002 0.25Z" fill="white" stroke="#D7D7D7" stroke-width="0.5"/>
<path d="M31 6H38.1V15H36.3V7.5H32.8V15H31V6Z" fill="white"/>
<path d="M31 6H38.1V15H36.3V7.5H32.8V15H31V6Z" fill="black"/>
<path d="M39.6 11.6C39.6 11 39.7 10.5 40 9.90002C40.3 9.40002 40.7 9.00001 41.2 8.70001C41.7 8.40001 42.3 8.29999 42.9 8.29999C43.9 8.29999 44.7 8.59999 45.3 9.29999C45.9 9.89999 46.2 10.7 46.2 11.7C46.2 12.7 45.9 13.5 45.2 14.1C44.6 14.7 43.8 15.1 42.8 15.1C42.2 15.1 41.6 15 41.1 14.7C40.6 14.4 40.1 14 39.9 13.5C39.7 13 39.6 12.3 39.6 11.6ZM41.4 11.7C41.4 12.3 41.6 12.8 41.9 13.2C42.2 13.5 42.6 13.7 43 13.7C43.4 13.7 43.8 13.5 44.1 13.2C44.4 12.9 44.6 12.4 44.6 11.7C44.6 11.1 44.4 10.6 44.1 10.2C43.8 9.90001 43.4 9.70001 43 9.70001C42.6 9.70001 42.2 9.90001 41.9 10.2C41.6 10.5 41.4 11 41.4 11.7Z" fill="white"/>
<path d="M39.6 11.6C39.6 11 39.7 10.5 40 9.90002C40.3 9.40002 40.7 9.00001 41.2 8.70001C41.7 8.40001 42.3 8.29999 42.9 8.29999C43.9 8.29999 44.7 8.59999 45.3 9.29999C45.9 9.89999 46.2 10.7 46.2 11.7C46.2 12.7 45.9 13.5 45.2 14.1C44.6 14.7 43.8 15.1 42.8 15.1C42.2 15.1 41.6 15 41.1 14.7C40.6 14.4 40.1 14 39.9 13.5C39.7 13 39.6 12.3 39.6 11.6ZM41.4 11.7C41.4 12.3 41.6 12.8 41.9 13.2C42.2 13.5 42.6 13.7 43 13.7C43.4 13.7 43.8 13.5 44.1 13.2C44.4 12.9 44.6 12.4 44.6 11.7C44.6 11.1 44.4 10.6 44.1 10.2C43.8 9.90001 43.4 9.70001 43 9.70001C42.6 9.70001 42.2 9.90001 41.9 10.2C41.6 10.5 41.4 11 41.4 11.7Z" fill="black"/>
<path d="M47.6 8.40002H49.2V13.5H51.2V8.40002H52.8V13.5H54.8V8.40002H56.4V14.9H47.7V8.40002H47.6Z" fill="white"/>
<path d="M47.6 8.40002H49.2V13.5H51.2V8.40002H52.8V13.5H54.8V8.40002H56.4V14.9H47.7V8.40002H47.6Z" fill="black"/>
<path d="M58 8.40002H59.7V12.5L62.3 8.40002H64V14.9H62.3V10.7L59.6 14.9H57.9V8.40002H58Z" fill="white"/>
<path d="M58 8.40002H59.7V12.5L62.3 8.40002H64V14.9H62.3V10.7L59.6 14.9H57.9V8.40002H58Z" fill="black"/>
<path d="M65.7 8.40002H67.3V9.40002C67.5 9.10002 67.8 8.79998 68.1 8.59998C68.5 8.39998 68.8 8.29999 69.3 8.29999C70.1 8.29999 70.7 8.60001 71.2 9.20001C71.7 9.80001 72 10.6 72 11.7C72 12.8 71.7 13.6 71.2 14.2C70.7 14.8 70 15.1 69.3 15.1C68.9 15.1 68.6 15 68.3 14.9C68 14.8 67.7 14.5 67.4 14.2V17.5H65.7V8.40002ZM67.4 11.6C67.4 12.3 67.5 12.9 67.8 13.2C68.1 13.5 68.4 13.7 68.9 13.7C69.3 13.7 69.6 13.5 69.9 13.2C70.2 12.9 70.3 12.4 70.3 11.6C70.3 10.9 70.2 10.4 69.9 10.1C69.6 9.79998 69.3 9.59998 68.9 9.59998C68.5 9.59998 68.1 9.79998 67.9 10.1C67.7 10.4 67.4 10.9 67.4 11.6Z" fill="white"/>
<path d="M65.7 8.40002H67.3V9.40002C67.5 9.10002 67.8 8.79998 68.1 8.59998C68.5 8.39998 68.8 8.29999 69.3 8.29999C70.1 8.29999 70.7 8.60001 71.2 9.20001C71.7 9.80001 72 10.6 72 11.7C72 12.8 71.7 13.6 71.2 14.2C70.7 14.8 70 15.1 69.3 15.1C68.9 15.1 68.6 15 68.3 14.9C68 14.8 67.7 14.5 67.4 14.2V17.5H65.7V8.40002ZM67.4 11.6C67.4 12.3 67.5 12.9 67.8 13.2C68.1 13.5 68.4 13.7 68.9 13.7C69.3 13.7 69.6 13.5 69.9 13.2C70.2 12.9 70.3 12.4 70.3 11.6C70.3 10.9 70.2 10.4 69.9 10.1C69.6 9.79998 69.3 9.59998 68.9 9.59998C68.5 9.59998 68.1 9.79998 67.9 10.1C67.7 10.4 67.4 10.9 67.4 11.6Z" fill="black"/>
<path d="M73.4 8.40002H75.1V12.5L77.7 8.40002H79.4V14.9H77.7V10.7L75 14.9H73.3V8.40002H73.4Z" fill="white"/>
<path d="M73.4 8.40002H75.1V12.5L77.7 8.40002H79.4V14.9H77.7V10.7L75 14.9H73.3V8.40002H73.4Z" fill="black"/>
<path d="M80.3 8.40002H86.2V9.79999H84.1V14.9H82.4V9.79999H80.3V8.40002Z" fill="white"/>
<path d="M80.3 8.40002H86.2V9.79999H84.1V14.9H82.4V9.79999H80.3V8.40002Z" fill="black"/>
<path d="M87.2 8.40002H88.9V12.5L91.5 8.40002H93.2V14.9H91.5V10.7L88.8 14.9H87.1V8.40002H87.2Z" fill="white"/>
<path d="M87.2 8.40002H88.9V12.5L91.5 8.40002H93.2V14.9H91.5V10.7L88.8 14.9H87.1V8.40002H87.2Z" fill="black"/>
<path d="M10.7846 6.41934C8.19742 6.41934 6.09998 8.58574 6.09998 11.2581C6.09998 13.9304 8.19742 16.0968 10.7846 16.0968C12.47 16.0968 13.4468 15.5584 14.2945 14.6827C15.1422 13.8071 15.4509 12.4828 15.4509 11.1466C15.4509 10.9428 15.438 10.7401 15.4153 10.5395H13.5884H13.2402H10.8415V12.2503H13.528C13.4188 12.6768 13.2337 13.0655 12.9423 13.3665C12.4203 13.9056 11.8188 14.2374 10.7811 14.2374C9.18818 14.2374 7.89673 12.9034 7.89673 11.2581C7.89673 9.6127 9.18818 8.2789 10.7811 8.2789C11.5561 8.2789 12.2316 8.50749 12.7665 9.00575L14.0854 7.66702L14.0834 7.66489C13.2036 6.80787 12.0783 6.4197 10.7847 6.4197L10.7846 6.41934ZM18.383 9.2054V10.6003H17.0087V11.9631H18.383V13.3582H19.7258V11.9631H21.1V10.6003H19.7258V9.2054H18.383ZM13.2379 9.60116C13.2386 9.60218 13.2396 9.60397 13.2399 9.60523V9.60345L13.2379 9.60116Z" fill="white"/>
<path d="M10.7846 6.41934C8.19742 6.41934 6.09998 8.58574 6.09998 11.2581C6.09998 13.9304 8.19742 16.0968 10.7846 16.0968C12.47 16.0968 13.4468 15.5584 14.2945 14.6827C15.1422 13.8071 15.4509 12.4828 15.4509 11.1466C15.4509 10.9428 15.438 10.7401 15.4153 10.5395H13.5884H13.2402H10.8415V12.2503H13.528C13.4188 12.6768 13.2337 13.0655 12.9423 13.3665C12.4203 13.9056 11.8188 14.2374 10.7811 14.2374C9.18818 14.2374 7.89673 12.9034 7.89673 11.2581C7.89673 9.6127 9.18818 8.2789 10.7811 8.2789C11.5561 8.2789 12.2316 8.50749 12.7665 9.00575L14.0854 7.66702L14.0834 7.66489C13.2036 6.80787 12.0783 6.4197 10.7847 6.4197L10.7846 6.41934ZM18.383 9.2054V10.6003H17.0087V11.9631H18.383V13.3582H19.7258V11.9631H21.1V10.6003H19.7258V9.2054H18.383ZM13.2379 9.60116C13.2386 9.60218 13.2396 9.60397 13.2399 9.60523V9.60345L13.2379 9.60116Z" fill="#DD5044"/>
</svg>
