<svg width="60" height="23" viewBox="0 0 60 23" fill="none" xmlns="http://www.w3.org/2000/svg">
<path d="M3.8 0.25H56.1C57.9539 0.25 59.553 1.831 59.65 3.80606V19.2C59.65 21.1619 58.0619 22.75 56.1 22.75H3.8C1.83807 22.75 0.25 21.1619 0.25 19.2V3.8C0.25 1.83807 1.83807 0.25 3.8 0.25Z" fill="white" stroke="#D7D7D7" stroke-width="0.5"/>
<path d="M35.3 13.7H30.2C30 13.7 29.7 13.7 29.6 13.7C29.4 13.7 29.3 13.7 29.2 13.7C29 13.7 28.9 13.6 28.7 13.6C28.4 13.5 28.1 13.3 27.9 12.9C27.7 12.5 27.6 12.2 27.6 11.7C27.6 11.5 27.6 11.4 27.6 11.2C27.6 11 27.7 10.8 27.7 10.6C27.8 10.4 27.9 10.1 28 9.89998C28.1 9.69998 28.2 9.49998 28.3 9.29998L28.6 9.49998C28.5 9.69998 28.4 9.79998 28.4 9.89998C28.3 9.99998 28.3 10.1 28.3 10.2C28.2 10.4 28.2 10.6 28.2 10.8C28.2 11 28.3 11.2 28.4 11.4C28.6 11.6 28.8 11.7 29 11.8C29.1 11.8 29.3 11.9 29.6 11.9C29.8 11.9 30.1 11.9 30.3 11.9H34.7C34.6 11.6 34.5 11.4 34.4 11.2C34.3 11 34.2 10.8 34 10.6L34.6 9.19998C34.9 9.59998 35.1 9.99998 35.2 10.4C35.3 10.7 35.3 11.2 35.3 11.8V13.7ZM32.9 15L32.2 16.4L30.8 15.7L31.5 14.3L32.9 15Z" fill="white"/>
<path d="M35.3 13.7H30.2C30 13.7 29.7 13.7 29.6 13.7C29.4 13.7 29.3 13.7 29.2 13.7C29 13.7 28.9 13.6 28.7 13.6C28.4 13.5 28.1 13.3 27.9 12.9C27.7 12.5 27.6 12.2 27.6 11.7C27.6 11.5 27.6 11.4 27.6 11.2C27.6 11 27.7 10.8 27.7 10.6C27.8 10.4 27.9 10.1 28 9.89998C28.1 9.69998 28.2 9.49998 28.3 9.29998L28.6 9.49998C28.5 9.69998 28.4 9.79998 28.4 9.89998C28.3 9.99998 28.3 10.1 28.3 10.2C28.2 10.4 28.2 10.6 28.2 10.8C28.2 11 28.3 11.2 28.4 11.4C28.6 11.6 28.8 11.7 29 11.8C29.1 11.8 29.3 11.9 29.6 11.9C29.8 11.9 30.1 11.9 30.3 11.9H34.7C34.6 11.6 34.5 11.4 34.4 11.2C34.3 11 34.2 10.8 34 10.6L34.6 9.19998C34.9 9.59998 35.1 9.99998 35.2 10.4C35.3 10.7 35.3 11.2 35.3 11.8V13.7ZM32.9 15L32.2 16.4L30.8 15.7L31.5 14.3L32.9 15Z" fill="#1A1A1A"/>
<path d="M38.2 13.7H37.3C36.8 13.7 36.5 13.5 36.3 13.1C36.1 12.7 35.9 11.9 35.9 10.9V9.19999C35.9 8.79999 35.8 8.49999 35.7 8.29999C35.6 8.19999 35.5 7.99999 35.3 7.79999L36 6.29999C36.2 6.59999 36.4 6.89999 36.5 7.29999C36.6 7.69999 36.7 8.09999 36.7 8.69999V9.89999C36.7 10.8 36.8 11.3 36.9 11.7C37 12 37.1 12.1 37.3 12.1H38.2V13.7Z" fill="white"/>
<path d="M38.2 13.7H37.3C36.8 13.7 36.5 13.5 36.3 13.1C36.1 12.7 35.9 11.9 35.9 10.9V9.19999C35.9 8.79999 35.8 8.49999 35.7 8.29999C35.6 8.19999 35.5 7.99999 35.3 7.79999L36 6.29999C36.2 6.59999 36.4 6.89999 36.5 7.29999C36.6 7.69999 36.7 8.09999 36.7 8.69999V9.89999C36.7 10.8 36.8 11.3 36.9 11.7C37 12 37.1 12.1 37.3 12.1H38.2V13.7Z" fill="#1A1A1A"/>
<path d="M44.8 13.7H37.8V12H42.1C41.6 11.5 41.2 11.1 40.7 10.9C40.3 10.7 40 10.6 39.6 10.6C39.5 10.6 39.4 10.6 39.3 10.6C39.2 10.6 39.1 10.6 38.9 10.7C39.1 10.2 39.4 9.79998 39.6 9.59998C39.9 9.39998 40.2 9.19998 40.5 9.19998C40.8 9.19998 41 9.29998 41.3 9.39998C41.5 9.49998 41.8 9.69998 42.1 9.99998C42.3 10.2 42.7 10.6 43.1 11.1C43.4 11.4 43.6 11.7 43.8 11.8C44 11.9 44.2 12 44.5 12.1V13.7H44.8ZM42.5 15.1L41.8 16.5L40.4 15.8L41.1 14.4L42.5 15.1Z" fill="white"/>
<path d="M44.8 13.7H37.8V12H42.1C41.6 11.5 41.2 11.1 40.7 10.9C40.3 10.7 40 10.6 39.6 10.6C39.5 10.6 39.4 10.6 39.3 10.6C39.2 10.6 39.1 10.6 38.9 10.7C39.1 10.2 39.4 9.79998 39.6 9.59998C39.9 9.39998 40.2 9.19998 40.5 9.19998C40.8 9.19998 41 9.29998 41.3 9.39998C41.5 9.49998 41.8 9.69998 42.1 9.99998C42.3 10.2 42.7 10.6 43.1 11.1C43.4 11.4 43.6 11.7 43.8 11.8C44 11.9 44.2 12 44.5 12.1V13.7H44.8ZM42.5 15.1L41.8 16.5L40.4 15.8L41.1 14.4L42.5 15.1Z" fill="#1A1A1A"/>
<path d="M50.8 10.8L50.1 12.5C49 12.8 48.1 13.1 47.4 13.3C46.8 13.5 46.3 13.6 45.8 13.6C45.5 13.6 45.2 13.7 44.9 13.7H44.4V12H45.1C45.2 12 45.3 12 45.4 12C45.5 12 45.6 12 45.8 12C45.6 11.7 45.5 11.4 45.4 11.3C45.3 11.1 45.3 10.9 45.3 10.7C45.3 10.1 45.6 9.6 46.1 9.1C46.6 8.6 47.2 8.39999 47.9 8.39999C48.4 8.39999 48.8 8.5 49.2 8.8C49.6 9.1 49.9 9.4 50 9.8L49.7 9.99999C49.4 9.89999 49.1 9.8 48.9 9.8C48.7 9.8 48.5 9.7 48.2 9.7C47.7 9.7 47.3 9.7 46.9 9.8C46.4 9.9 46.2 10 46.2 10.2C46.2 10.5 46.8 10.9 47.9 11.6L50.8 10.8Z" fill="white"/>
<path d="M50.8 10.8L50.1 12.5C49 12.8 48.1 13.1 47.4 13.3C46.8 13.5 46.3 13.6 45.8 13.6C45.5 13.6 45.2 13.7 44.9 13.7H44.4V12H45.1C45.2 12 45.3 12 45.4 12C45.5 12 45.6 12 45.8 12C45.6 11.7 45.5 11.4 45.4 11.3C45.3 11.1 45.3 10.9 45.3 10.7C45.3 10.1 45.6 9.6 46.1 9.1C46.6 8.6 47.2 8.39999 47.9 8.39999C48.4 8.39999 48.8 8.5 49.2 8.8C49.6 9.1 49.9 9.4 50 9.8L49.7 9.99999C49.4 9.89999 49.1 9.8 48.9 9.8C48.7 9.8 48.5 9.7 48.2 9.7C47.7 9.7 47.3 9.7 46.9 9.8C46.4 9.9 46.2 10 46.2 10.2C46.2 10.5 46.8 10.9 47.9 11.6L50.8 10.8Z" fill="#1A1A1A"/>
<path d="M53.8 15.8C53.8 15.9 53.7 16 53.7 16.1C53.7 16.1 53.6 16.2 53.5 16.2L52.2 16.6C52.3 16.5 52.4 16.4 52.4 16.3C52.5 16.2 52.6 16.2 52.7 16.1C52.6 16 52.5 16 52.5 15.9C52.4 15.8 52.4 15.8 52.4 15.7C52.4 15.6 52.4 15.6 52.4 15.5C52.4 15.4 52.5 15.4 52.5 15.3C52.8 14.9 53 14.8 53.3 14.8C53.4 14.8 53.4 14.8 53.5 14.9C53.5 15 53.6 15 53.6 15.1C53.6 15.2 53.6 15.2 53.6 15.3C53.6 15.3 53.5 15.4 53.5 15.5C53.3 15.4 53.2 15.3 53.1 15.3C53 15.3 53 15.3 52.9 15.4L52.8 15.5C52.8 15.6 52.9 15.6 53.1 15.7C53.3 15.8 53.4 15.9 53.5 15.9C53.4 15.9 53.5 15.9 53.8 15.8ZM53.8 12C53.8 12.4 53.8 12.7 53.7 13C53.6 13.3 53.4 13.7 53.2 14.2L52.8 14.1C52.9 13.6 52.9 13.2 52.9 12.8C52.9 12.6 52.9 12.2 52.8 11.7C52.8 11.2 52.7 10.7 52.6 10.3C52.5 9.8 52.4 9.3 52.3 8.6C52.3 8.4 52.2 8.2 52.2 8.1C52.2 8 52.3 7.79999 52.4 7.49999C52.5 7.19999 52.7 6.79999 52.9 6.39999L53.3 8.6C53.4 9.4 53.5 10.1 53.6 10.7C53.8 11.1 53.8 11.5 53.8 12Z" fill="white"/>
<path d="M53.8 15.8C53.8 15.9 53.7 16 53.7 16.1C53.7 16.1 53.6 16.2 53.5 16.2L52.2 16.6C52.3 16.5 52.4 16.4 52.4 16.3C52.5 16.2 52.6 16.2 52.7 16.1C52.6 16 52.5 16 52.5 15.9C52.4 15.8 52.4 15.8 52.4 15.7C52.4 15.6 52.4 15.6 52.4 15.5C52.4 15.4 52.5 15.4 52.5 15.3C52.8 14.9 53 14.8 53.3 14.8C53.4 14.8 53.4 14.8 53.5 14.9C53.5 15 53.6 15 53.6 15.1C53.6 15.2 53.6 15.2 53.6 15.3C53.6 15.3 53.5 15.4 53.5 15.5C53.3 15.4 53.2 15.3 53.1 15.3C53 15.3 53 15.3 52.9 15.4L52.8 15.5C52.8 15.6 52.9 15.6 53.1 15.7C53.3 15.8 53.4 15.9 53.5 15.9C53.4 15.9 53.5 15.9 53.8 15.8ZM53.8 12C53.8 12.4 53.8 12.7 53.7 13C53.6 13.3 53.4 13.7 53.2 14.2L52.8 14.1C52.9 13.6 52.9 13.2 52.9 12.8C52.9 12.6 52.9 12.2 52.8 11.7C52.8 11.2 52.7 10.7 52.6 10.3C52.5 9.8 52.4 9.3 52.3 8.6C52.3 8.4 52.2 8.2 52.2 8.1C52.2 8 52.3 7.79999 52.4 7.49999C52.5 7.19999 52.7 6.79999 52.9 6.39999L53.3 8.6C53.4 9.4 53.5 10.1 53.6 10.7C53.8 11.1 53.8 11.5 53.8 12Z" fill="#1A1A1A"/>
<path d="M10.7846 6.41936C8.19742 6.41936 6.09998 8.58575 6.09998 11.2581C6.09998 13.9304 8.19742 16.0968 10.7846 16.0968C12.47 16.0968 13.4468 15.5584 14.2945 14.6828C15.1422 13.8071 15.4509 12.4828 15.4509 11.1466C15.4509 10.9428 15.438 10.7401 15.4153 10.5395H13.5884H13.2402H10.8415V12.2503H13.528C13.4188 12.6768 13.2337 13.0655 12.9423 13.3665C12.4203 13.9056 11.8188 14.2374 10.7811 14.2374C9.18818 14.2374 7.89673 12.9034 7.89673 11.2581C7.89673 9.61272 9.18818 8.27891 10.7811 8.27891C11.5561 8.27891 12.2316 8.5075 12.7665 9.00577L14.0854 7.66703L14.0834 7.66491C13.2036 6.80788 12.0783 6.41971 10.7847 6.41971L10.7846 6.41936ZM18.383 9.20542V10.6003H17.0087V11.9631H18.383V13.3582H19.7258V11.9631H21.1V10.6003H19.7258V9.20542H18.383ZM13.2379 9.60117C13.2386 9.6022 13.2396 9.60398 13.2399 9.60524V9.60346L13.2379 9.60117Z" fill="white"/>
<path d="M10.7846 6.41936C8.19742 6.41936 6.09998 8.58575 6.09998 11.2581C6.09998 13.9304 8.19742 16.0968 10.7846 16.0968C12.47 16.0968 13.4468 15.5584 14.2945 14.6828C15.1422 13.8071 15.4509 12.4828 15.4509 11.1466C15.4509 10.9428 15.438 10.7401 15.4153 10.5395H13.5884H13.2402H10.8415V12.2503H13.528C13.4188 12.6768 13.2337 13.0655 12.9423 13.3665C12.4203 13.9056 11.8188 14.2374 10.7811 14.2374C9.18818 14.2374 7.89673 12.9034 7.89673 11.2581C7.89673 9.61272 9.18818 8.27891 10.7811 8.27891C11.5561 8.27891 12.2316 8.5075 12.7665 9.00577L14.0854 7.66703L14.0834 7.66491C13.2036 6.80788 12.0783 6.41971 10.7847 6.41971L10.7846 6.41936ZM18.383 9.20542V10.6003H17.0087V11.9631H18.383V13.3582H19.7258V11.9631H21.1V10.6003H19.7258V9.20542H18.383ZM13.2379 9.60117C13.2386 9.6022 13.2396 9.60398 13.2399 9.60524V9.60346L13.2379 9.60117Z" fill="#DD5044"/>
</svg>
