<svg width="58" height="23" viewBox="0 0 58 23" fill="none" xmlns="http://www.w3.org/2000/svg">
<path d="M3.8 0.25H54.1C55.9539 0.25 57.553 1.831 57.65 3.80606V19.2C57.65 21.1619 56.0619 22.75 54.1 22.75H3.8C1.83807 22.75 0.25 21.1619 0.25 19.2V3.8C0.25 1.83807 1.83807 0.25 3.8 0.25Z" fill="white" stroke="#D7D7D7" stroke-width="0.5"/>
<path d="M36.3 12C36.3 12.1 36.2 12.1 36.1 12.1C36 12.3 35.8 12.6 35.6 12.8H39V13.5H27.5V12.8H30.8C30.7 12.5 30.5 12.2 30.4 11.9L30.8 11.8H29.5V9.50005H37.1V11.8H35.8L36.3 12ZM32.8 8.20004V7.30005H27.9V6.60004H32.8V5.70004L33.9 5.80005C33.9 5.90005 33.8 6.00005 33.6 6.00005V6.70004H38.6V7.40004H33.6V8.30005H37.7V9.00005H28.8V8.20004H32.8ZM29.2 17.3V14.2H37.2V17.2H36.3V16.8H30V17.2H29.2V17.3ZM36.4 14.9H30.1V16.3H36.4V14.9ZM30.3 10.2V11.3H36.2V10.2H30.3ZM34.7 12.8C34.9 12.5 35.1 12.1 35.2 11.8H31.2C31.4 12.1 31.6 12.5 31.7 12.8H34.7Z" fill="white"/>
<path d="M36.3 12C36.3 12.1 36.2 12.1 36.1 12.1C36 12.3 35.8 12.6 35.6 12.8H39V13.5H27.5V12.8H30.8C30.7 12.5 30.5 12.2 30.4 11.9L30.8 11.8H29.5V9.50005H37.1V11.8H35.8L36.3 12ZM32.8 8.20004V7.30005H27.9V6.60004H32.8V5.70004L33.9 5.80005C33.9 5.90005 33.8 6.00005 33.6 6.00005V6.70004H38.6V7.40004H33.6V8.30005H37.7V9.00005H28.8V8.20004H32.8ZM29.2 17.3V14.2H37.2V17.2H36.3V16.8H30V17.2H29.2V17.3ZM36.4 14.9H30.1V16.3H36.4V14.9ZM30.3 10.2V11.3H36.2V10.2H30.3ZM34.7 12.8C34.9 12.5 35.1 12.1 35.2 11.8H31.2C31.4 12.1 31.6 12.5 31.7 12.8H34.7Z" fill="#1A1A1A"/>
<path d="M49.1 8.80005V10.6C49.1 11.5 49.4 14.9 51.7 16.6C51.5 16.8 51.3 17.1 51.2 17.3C49.4 15.9 48.8 13.4 48.7 12.4C48.6 13.4 47.9 15.9 46 17.3C45.9 17.1 45.7 16.8 45.5 16.6H41.7V17.3H41V13.6C40.8 13.9 40.5 14.3 40.3 14.5C40.2 14.3 40 14 39.9 13.9C40.6 13.2 41.2 11.9 41.6 10.7L42.5 11C42.5 11.1 42.4 11.1 42.2 11.1C42.1 11.4 42 11.7 41.8 12H42.9C43.1 11.6 43.3 11.1 43.4 10.8L44.3 11.1C44.3 11.2 44.2 11.2 44 11.2C43.9 11.4 43.8 11.7 43.6 12H45.9V12.6H43.7V13.3H45.6V13.9H43.7V14.6H45.6V15.2H43.7V15.9H45.9V16.1C47.9 14.3 48.1 11.4 48.1 10.5V8.70004H47.3C47 9.70004 46.7 10.6 46.3 11.3C46.1 11.2 45.8 10.9 45.6 10.8C46.3 9.70005 46.8 7.60004 47.1 5.60004L48.2 5.80005C48.2 5.90005 48.1 5.90005 47.9 6.00005C47.8 6.60005 47.7 7.30004 47.5 7.90004H50.8H51.3C51.3 7.90004 51.3 8.00004 51.3 8.10004C51.2 9.10004 51 10.5 50.7 11.3C50.6 11.2 50.4 11.1 50.1 11C50.3 10.4 50.4 9.50004 50.5 8.70004H49.1V8.80005ZM41.5 8.10004V7.30005H39.9V6.60004H41.5V5.70004L42.5 5.80005C42.5 5.90005 42.4 5.90005 42.3 6.00005V6.70004H44V5.80005L45 5.90004C45 6.00004 44.9 6.00004 44.8 6.10004V6.80005H46.4V7.50005H44.7V8.30005H43.9V7.50005H42.2V8.30005H41.5V8.10004ZM42.8 8.30005V10.7H40.4V8.30005H42.8ZM42.2 10.1V8.90004H41V10.1H42.2ZM43.1 13.3V12.6H41.7V13.3H43.1ZM43.1 14.7V14H41.7V14.7H43.1ZM41.7 15.2V15.9H43.1V15.2H41.7ZM43.4 10.7V8.30005H45.9V10.7H43.4ZM44 8.90004V10.1H45.3V8.90004H44Z" fill="white"/>
<path d="M49.1 8.80005V10.6C49.1 11.5 49.4 14.9 51.7 16.6C51.5 16.8 51.3 17.1 51.2 17.3C49.4 15.9 48.8 13.4 48.7 12.4C48.6 13.4 47.9 15.9 46 17.3C45.9 17.1 45.7 16.8 45.5 16.6H41.7V17.3H41V13.6C40.8 13.9 40.5 14.3 40.3 14.5C40.2 14.3 40 14 39.9 13.9C40.6 13.2 41.2 11.9 41.6 10.7L42.5 11C42.5 11.1 42.4 11.1 42.2 11.1C42.1 11.4 42 11.7 41.8 12H42.9C43.1 11.6 43.3 11.1 43.4 10.8L44.3 11.1C44.3 11.2 44.2 11.2 44 11.2C43.9 11.4 43.8 11.7 43.6 12H45.9V12.6H43.7V13.3H45.6V13.9H43.7V14.6H45.6V15.2H43.7V15.9H45.9V16.1C47.9 14.3 48.1 11.4 48.1 10.5V8.70004H47.3C47 9.70004 46.7 10.6 46.3 11.3C46.1 11.2 45.8 10.9 45.6 10.8C46.3 9.70005 46.8 7.60004 47.1 5.60004L48.2 5.80005C48.2 5.90005 48.1 5.90005 47.9 6.00005C47.8 6.60005 47.7 7.30004 47.5 7.90004H50.8H51.3C51.3 7.90004 51.3 8.00004 51.3 8.10004C51.2 9.10004 51 10.5 50.7 11.3C50.6 11.2 50.4 11.1 50.1 11C50.3 10.4 50.4 9.50004 50.5 8.70004H49.1V8.80005ZM41.5 8.10004V7.30005H39.9V6.60004H41.5V5.70004L42.5 5.80005C42.5 5.90005 42.4 5.90005 42.3 6.00005V6.70004H44V5.80005L45 5.90004C45 6.00004 44.9 6.00004 44.8 6.10004V6.80005H46.4V7.50005H44.7V8.30005H43.9V7.50005H42.2V8.30005H41.5V8.10004ZM42.8 8.30005V10.7H40.4V8.30005H42.8ZM42.2 10.1V8.90004H41V10.1H42.2ZM43.1 13.3V12.6H41.7V13.3H43.1ZM43.1 14.7V14H41.7V14.7H43.1ZM41.7 15.2V15.9H43.1V15.2H41.7ZM43.4 10.7V8.30005H45.9V10.7H43.4ZM44 8.90004V10.1H45.3V8.90004H44Z" fill="#1A1A1A"/>
<path d="M10.7846 6.41936C8.19742 6.41936 6.09998 8.58575 6.09998 11.2581C6.09998 13.9304 8.19742 16.0968 10.7846 16.0968C12.47 16.0968 13.4468 15.5584 14.2945 14.6828C15.1422 13.8071 15.4509 12.4828 15.4509 11.1466C15.4509 10.9428 15.438 10.7401 15.4153 10.5395H13.5884H13.2402H10.8415V12.2503H13.528C13.4188 12.6768 13.2337 13.0655 12.9423 13.3665C12.4203 13.9056 11.8188 14.2374 10.7811 14.2374C9.18818 14.2374 7.89673 12.9034 7.89673 11.2581C7.89673 9.61272 9.18818 8.27891 10.7811 8.27891C11.5561 8.27891 12.2316 8.5075 12.7665 9.00577L14.0854 7.66703L14.0834 7.66491C13.2036 6.80788 12.0783 6.41971 10.7847 6.41971L10.7846 6.41936ZM18.383 9.20542V10.6003H17.0087V11.9631H18.383V13.3582H19.7258V11.9631H21.1V10.6003H19.7258V9.20542H18.383ZM13.2379 9.60117C13.2386 9.6022 13.2396 9.60398 13.2399 9.60524V9.60346L13.2379 9.60117Z" fill="white"/>
<path d="M10.7846 6.41936C8.19742 6.41936 6.09998 8.58575 6.09998 11.2581C6.09998 13.9304 8.19742 16.0968 10.7846 16.0968C12.47 16.0968 13.4468 15.5584 14.2945 14.6828C15.1422 13.8071 15.4509 12.4828 15.4509 11.1466C15.4509 10.9428 15.438 10.7401 15.4153 10.5395H13.5884H13.2402H10.8415V12.2503H13.528C13.4188 12.6768 13.2337 13.0655 12.9423 13.3665C12.4203 13.9056 11.8188 14.2374 10.7811 14.2374C9.18818 14.2374 7.89673 12.9034 7.89673 11.2581C7.89673 9.61272 9.18818 8.27891 10.7811 8.27891C11.5561 8.27891 12.2316 8.5075 12.7665 9.00577L14.0854 7.66703L14.0834 7.66491C13.2036 6.80788 12.0783 6.41971 10.7847 6.41971L10.7846 6.41936ZM18.383 9.20542V10.6003H17.0087V11.9631H18.383V13.3582H19.7258V11.9631H21.1V10.6003H19.7258V9.20542H18.383ZM13.2379 9.60117C13.2386 9.6022 13.2396 9.60398 13.2399 9.60524V9.60346L13.2379 9.60117Z" fill="#DD5044"/>
</svg>
