<svg width="58" height="23" viewBox="0 0 58 23" fill="none" xmlns="http://www.w3.org/2000/svg">
<path d="M3.8 0.25H54.1C55.9539 0.25 57.553 1.831 57.65 3.80606V19.2C57.65 21.1619 56.0619 22.75 54.1 22.75H3.8C1.83807 22.75 0.25 21.1619 0.25 19.2V3.8C0.25 1.83807 1.83807 0.25 3.8 0.25Z" fill="white" stroke="#D7D7D7" stroke-width="0.5"/>
<path d="M28.7 17.1L27.5 16.6C28.2 15.9 28.6 15.2 28.9 14.3L29.8 14.7C29.4 15.5 29.1 16.3 28.7 17.1ZM33.3 9.70001C35.9 9.70001 36.6 9.60001 37 9.60001C36.9 10.1 36.9 10.8 36.9 11.5C36.9 12.2 36.9 13.1 37 13.6C36.1 13.5 35.4 13.5 33.3 13.5C30.6 13.5 30 13.5 29.4 13.6C29.5 13 29.5 12.2 29.5 11.5C29.5 10.8 29.4 10.1 29.4 9.60001C30 9.70001 30.4 9.70001 32.2 9.70001V7.70001C32.2 6.80001 32.2 6.20001 32.1 5.70001C32.5 5.80001 33.3 5.90001 33.6 5.90001C33.8 5.90001 33.9 6.00001 33.7 6.10001C33.4 6.30001 33.4 6.40001 33.4 6.70001V7.30002H35.6C36.5 7.30002 37.2 7.30001 38 7.20001V8.30002C37.3 8.20002 36.5 8.20001 35.6 8.20001H33.4V9.70001H33.3ZM35.9 10.6H30.5V12.6H35.9V10.6ZM31.3 16.9C31.3 16.1 31.2 15.5 31 14.8L32 14.7C32.1 15.4 32.3 16.1 32.5 16.8L31.3 16.9ZM34.2 16.7C34 15.9 33.9 15.3 33.6 14.6L34.6 14.3C34.9 15.2 35.1 15.7 35.4 16.5L34.2 16.7ZM37.5 16.8C37.2 15.9 36.8 15.2 36.3 14.4L37.3 14C37.8 14.8 38.3 15.5 38.8 16.2L37.5 16.8Z" fill="white"/>
<path d="M28.7 17.1L27.5 16.6C28.2 15.9 28.6 15.2 28.9 14.3L29.8 14.7C29.4 15.5 29.1 16.3 28.7 17.1ZM33.3 9.70001C35.9 9.70001 36.6 9.60001 37 9.60001C36.9 10.1 36.9 10.8 36.9 11.5C36.9 12.2 36.9 13.1 37 13.6C36.1 13.5 35.4 13.5 33.3 13.5C30.6 13.5 30 13.5 29.4 13.6C29.5 13 29.5 12.2 29.5 11.5C29.5 10.8 29.4 10.1 29.4 9.60001C30 9.70001 30.4 9.70001 32.2 9.70001V7.70001C32.2 6.80001 32.2 6.20001 32.1 5.70001C32.5 5.80001 33.3 5.90001 33.6 5.90001C33.8 5.90001 33.9 6.00001 33.7 6.10001C33.4 6.30001 33.4 6.40001 33.4 6.70001V7.30002H35.6C36.5 7.30002 37.2 7.30001 38 7.20001V8.30002C37.3 8.20002 36.5 8.20001 35.6 8.20001H33.4V9.70001H33.3ZM35.9 10.6H30.5V12.6H35.9V10.6ZM31.3 16.9C31.3 16.1 31.2 15.5 31 14.8L32 14.7C32.1 15.4 32.3 16.1 32.5 16.8L31.3 16.9ZM34.2 16.7C34 15.9 33.9 15.3 33.6 14.6L34.6 14.3C34.9 15.2 35.1 15.7 35.4 16.5L34.2 16.7ZM37.5 16.8C37.2 15.9 36.8 15.2 36.3 14.4L37.3 14C37.8 14.8 38.3 15.5 38.8 16.2L37.5 16.8Z" fill="#1A1A1A"/>
<path d="M43 7.20001C43 6.70001 42.9 6.10002 42.9 5.80002C43.3 5.90002 43.8 5.90001 44 5.90001C44.2 5.90001 44.2 6.00001 44.1 6.10001C43.9 6.20001 43.9 6.50002 43.9 6.80002V7.20001C44.4 7.20001 44.8 7.20001 45.2 7.10001V8.00002C44.8 8.00002 44.4 7.90001 43.9 7.90001V9.00002C44.3 9.00002 44.8 9.00001 45.1 8.90001V9.80002C44.8 9.80002 44.5 9.70001 44.2 9.70001V10.7C44.6 10.5 45 10.2 45.3 10C45.2 10.4 45.3 10.6 45.4 10.9L44.3 11.5C44.1 11.6 43.9 11.7 43.6 12C43.5 11.8 43.3 11.5 43.2 11.4C43.4 11.2 43.4 11.1 43.4 10.5V9.70001H42.6C42.4 11.1 42.1 11.7 40.8 12.5C40.6 12.2 40.3 12 39.9 11.8C41.3 11.3 41.6 10.7 41.7 9.70001C41 9.70001 40.7 9.70002 40.4 9.80002V8.90001C40.8 9.00001 41.2 9.00002 41.6 9.00002H42.9V7.90001H41.7C41.6 8.20001 41.5 8.40001 41.3 8.70001C41.1 8.60001 40.7 8.50001 40.4 8.40001C40.7 8.00001 40.9 7.70001 41 7.20001C41.1 6.70001 41.2 6.50001 41.2 6.20001C41.5 6.30001 41.9 6.40001 42.1 6.40001C42.3 6.40001 42.3 6.40001 42.2 6.60001C42.1 6.70001 42 6.90001 41.9 7.20001H43ZM45.9 14.7C45.7 15.2 45.1 15.9 44.6 16.2C43.6 16.7 42.7 17 41.4 17.2C41.3 16.8 41.2 16.5 40.8 16.1C42.4 16.2 43.3 15.9 44.1 15.4C44.6 15.1 45.1 14.3 45.2 13.5C45.5 13.6 45.9 13.6 46.3 13.6C46.5 13.6 46.5 13.7 46.3 13.9C46.3 14 46.1 14.3 45.9 14.7ZM48.1 15V13H43.3V15.3H42.2C42.3 15 42.3 14.5 42.3 14.3V13.2C42.3 12.9 42.3 12.4 42.2 12.1C42.7 12.1 43.6 12.2 45.7 12.2C47.7 12.2 48.6 12.2 49.1 12.1C49.1 12.4 49 12.8 49 13.2V14.2C49 14.5 49 14.8 49.1 15.1H48.1V15ZM47.7 7.80002H46.6C46.5 8.10002 46.4 8.30001 46.3 8.60001C46 8.50001 45.8 8.40001 45.4 8.40001C45.7 8.00001 45.8 7.70001 46 7.20001C46.1 6.70001 46.2 6.50001 46.2 6.20001C46.5 6.30001 46.9 6.40001 47.1 6.40001C47.2 6.40001 47.3 6.40002 47.2 6.50002C47.1 6.60002 47 6.80001 46.9 7.10001H47.8C47.8 6.60001 47.7 6.20001 47.7 5.90001C48.1 6.00001 48.7 6.00002 48.9 6.00002C49.1 6.00002 49.1 6.10001 49 6.20001C48.9 6.30001 48.8 6.60001 48.8 6.90001V7.10001C49.5 7.10001 50.1 7.10002 50.6 7.00002V7.90001C50.1 7.90001 49.5 7.80002 48.8 7.80002V8.80002H49.7C50.2 8.80002 50.6 8.80001 51 8.70001V9.60001C50.6 9.50001 50.1 9.50002 49.7 9.50002H49.2V10.3C49.2 10.7 49.3 10.8 49.9 10.8C50.4 10.8 50.4 10.7 50.6 9.80002C50.9 10.1 51.1 10.3 51.5 10.4C51.2 11.5 51 11.6 49.8 11.6C48.4 11.6 48.4 11.6 48.4 11V9.60001H47.7C47.5 10.8 47.3 11.4 46.1 12C45.9 11.7 45.7 11.6 45.3 11.4C46.3 11 46.7 10.5 46.8 9.50002C46.4 9.50002 46.1 9.50001 45.7 9.60001V8.70001C46.1 8.80001 46.6 8.80002 47 8.80002H47.8V7.80002H47.7ZM49.7 17.3C48.5 16.6 47.3 16.1 46.1 15.6L46.6 14.9C47.9 15.4 49 15.8 50.3 16.4L49.7 17.3Z" fill="white"/>
<path d="M43 7.20001C43 6.70001 42.9 6.10002 42.9 5.80002C43.3 5.90002 43.8 5.90001 44 5.90001C44.2 5.90001 44.2 6.00001 44.1 6.10001C43.9 6.20001 43.9 6.50002 43.9 6.80002V7.20001C44.4 7.20001 44.8 7.20001 45.2 7.10001V8.00002C44.8 8.00002 44.4 7.90001 43.9 7.90001V9.00002C44.3 9.00002 44.8 9.00001 45.1 8.90001V9.80002C44.8 9.80002 44.5 9.70001 44.2 9.70001V10.7C44.6 10.5 45 10.2 45.3 10C45.2 10.4 45.3 10.6 45.4 10.9L44.3 11.5C44.1 11.6 43.9 11.7 43.6 12C43.5 11.8 43.3 11.5 43.2 11.4C43.4 11.2 43.4 11.1 43.4 10.5V9.70001H42.6C42.4 11.1 42.1 11.7 40.8 12.5C40.6 12.2 40.3 12 39.9 11.8C41.3 11.3 41.6 10.7 41.7 9.70001C41 9.70001 40.7 9.70002 40.4 9.80002V8.90001C40.8 9.00001 41.2 9.00002 41.6 9.00002H42.9V7.90001H41.7C41.6 8.20001 41.5 8.40001 41.3 8.70001C41.1 8.60001 40.7 8.50001 40.4 8.40001C40.7 8.00001 40.9 7.70001 41 7.20001C41.1 6.70001 41.2 6.50001 41.2 6.20001C41.5 6.30001 41.9 6.40001 42.1 6.40001C42.3 6.40001 42.3 6.40001 42.2 6.60001C42.1 6.70001 42 6.90001 41.9 7.20001H43ZM45.9 14.7C45.7 15.2 45.1 15.9 44.6 16.2C43.6 16.7 42.7 17 41.4 17.2C41.3 16.8 41.2 16.5 40.8 16.1C42.4 16.2 43.3 15.9 44.1 15.4C44.6 15.1 45.1 14.3 45.2 13.5C45.5 13.6 45.9 13.6 46.3 13.6C46.5 13.6 46.5 13.7 46.3 13.9C46.3 14 46.1 14.3 45.9 14.7ZM48.1 15V13H43.3V15.3H42.2C42.3 15 42.3 14.5 42.3 14.3V13.2C42.3 12.9 42.3 12.4 42.2 12.1C42.7 12.1 43.6 12.2 45.7 12.2C47.7 12.2 48.6 12.2 49.1 12.1C49.1 12.4 49 12.8 49 13.2V14.2C49 14.5 49 14.8 49.1 15.1H48.1V15ZM47.7 7.80002H46.6C46.5 8.10002 46.4 8.30001 46.3 8.60001C46 8.50001 45.8 8.40001 45.4 8.40001C45.7 8.00001 45.8 7.70001 46 7.20001C46.1 6.70001 46.2 6.50001 46.2 6.20001C46.5 6.30001 46.9 6.40001 47.1 6.40001C47.2 6.40001 47.3 6.40002 47.2 6.50002C47.1 6.60002 47 6.80001 46.9 7.10001H47.8C47.8 6.60001 47.7 6.20001 47.7 5.90001C48.1 6.00001 48.7 6.00002 48.9 6.00002C49.1 6.00002 49.1 6.10001 49 6.20001C48.9 6.30001 48.8 6.60001 48.8 6.90001V7.10001C49.5 7.10001 50.1 7.10002 50.6 7.00002V7.90001C50.1 7.90001 49.5 7.80002 48.8 7.80002V8.80002H49.7C50.2 8.80002 50.6 8.80001 51 8.70001V9.60001C50.6 9.50001 50.1 9.50002 49.7 9.50002H49.2V10.3C49.2 10.7 49.3 10.8 49.9 10.8C50.4 10.8 50.4 10.7 50.6 9.80002C50.9 10.1 51.1 10.3 51.5 10.4C51.2 11.5 51 11.6 49.8 11.6C48.4 11.6 48.4 11.6 48.4 11V9.60001H47.7C47.5 10.8 47.3 11.4 46.1 12C45.9 11.7 45.7 11.6 45.3 11.4C46.3 11 46.7 10.5 46.8 9.50002C46.4 9.50002 46.1 9.50001 45.7 9.60001V8.70001C46.1 8.80001 46.6 8.80002 47 8.80002H47.8V7.80002H47.7ZM49.7 17.3C48.5 16.6 47.3 16.1 46.1 15.6L46.6 14.9C47.9 15.4 49 15.8 50.3 16.4L49.7 17.3Z" fill="#1A1A1A"/>
<path d="M10.7846 6.41936C8.19742 6.41936 6.09998 8.58575 6.09998 11.2581C6.09998 13.9304 8.19742 16.0968 10.7846 16.0968C12.47 16.0968 13.4468 15.5584 14.2945 14.6828C15.1422 13.8071 15.4509 12.4828 15.4509 11.1466C15.4509 10.9428 15.438 10.7401 15.4153 10.5395H13.5884H13.2402H10.8415V12.2503H13.528C13.4188 12.6768 13.2337 13.0655 12.9423 13.3665C12.4203 13.9056 11.8188 14.2374 10.7811 14.2374C9.18818 14.2374 7.89673 12.9034 7.89673 11.2581C7.89673 9.61272 9.18818 8.27891 10.7811 8.27891C11.5561 8.27891 12.2316 8.5075 12.7665 9.00577L14.0854 7.66703L14.0834 7.66491C13.2036 6.80788 12.0783 6.41971 10.7847 6.41971L10.7846 6.41936ZM18.383 9.20542V10.6003H17.0087V11.9631H18.383V13.3582H19.7258V11.9631H21.1V10.6003H19.7258V9.20542H18.383ZM13.2379 9.60117C13.2386 9.6022 13.2396 9.60398 13.2399 9.60524V9.60346L13.2379 9.60117Z" fill="white"/>
<path d="M10.7846 6.41936C8.19742 6.41936 6.09998 8.58575 6.09998 11.2581C6.09998 13.9304 8.19742 16.0968 10.7846 16.0968C12.47 16.0968 13.4468 15.5584 14.2945 14.6828C15.1422 13.8071 15.4509 12.4828 15.4509 11.1466C15.4509 10.9428 15.438 10.7401 15.4153 10.5395H13.5884H13.2402H10.8415V12.2503H13.528C13.4188 12.6768 13.2337 13.0655 12.9423 13.3665C12.4203 13.9056 11.8188 14.2374 10.7811 14.2374C9.18818 14.2374 7.89673 12.9034 7.89673 11.2581C7.89673 9.61272 9.18818 8.27891 10.7811 8.27891C11.5561 8.27891 12.2316 8.5075 12.7665 9.00577L14.0854 7.66703L14.0834 7.66491C13.2036 6.80788 12.0783 6.41971 10.7847 6.41971L10.7846 6.41936ZM18.383 9.20542V10.6003H17.0087V11.9631H18.383V13.3582H19.7258V11.9631H21.1V10.6003H19.7258V9.20542H18.383ZM13.2379 9.60117C13.2386 9.6022 13.2396 9.60398 13.2399 9.60524V9.60346L13.2379 9.60117Z" fill="#DD5044"/>
</svg>
