<svg width="103" height="23" viewBox="0 0 103 23" fill="none" xmlns="http://www.w3.org/2000/svg">
<path d="M3.8 0.25H99.1C100.954 0.25 102.553 1.83098 102.65 3.80604V19.2C102.65 21.1619 101.062 22.75 99.1 22.75H3.8C1.83807 22.75 0.25 21.1619 0.25 19.2V3.79999C0.25 1.83806 1.83807 0.25 3.8 0.25Z" fill="white" stroke="#D7D7D7" stroke-width="0.5"/>
<path d="M30.7 15.9L27.5 6.90002H29.5L31.8 13.5L34 6.90002H35.9L32.7 15.9H30.7Z" fill="white"/>
<path d="M30.7 15.9L27.5 6.90002H29.5L31.8 13.5L34 6.90002H35.9L32.7 15.9H30.7Z" fill="#1A1A1A"/>
<path d="M36.5 8.50003V6.90002H38.2V8.50003H36.5ZM36.5 15.9V9.40002H38.2V15.9H36.5Z" fill="white"/>
<path d="M36.5 8.50003V6.90002H38.2V8.50003H36.5ZM36.5 15.9V9.40002H38.2V15.9H36.5Z" fill="#1A1A1A"/>
<path d="M45.9 15.9H44.2V12.6C44.2 11.9 44.2 11.4 44.1 11.2C44 11 43.9 10.8 43.7 10.7C43.5 10.6 43.3 10.5 43.1 10.5C42.8 10.5 42.5 10.6 42.3 10.7C42.1 10.8 41.9 11.1 41.8 11.3C41.7 11.6 41.7 12.1 41.7 12.8V15.7H40V9.20004H41.6V10.2C42.2 9.50004 42.9 9.10004 43.7 9.10004C44.1 9.10004 44.4 9.20002 44.7 9.30002C45 9.40002 45.3 9.60002 45.4 9.80002C45.5 10 45.7 10.3 45.7 10.5C45.8 10.8 45.8 11.2 45.8 11.7V15.9H45.9Z" fill="white"/>
<path d="M45.9 15.9H44.2V12.6C44.2 11.9 44.2 11.4 44.1 11.2C44 11 43.9 10.8 43.7 10.7C43.5 10.6 43.3 10.5 43.1 10.5C42.8 10.5 42.5 10.6 42.3 10.7C42.1 10.8 41.9 11.1 41.8 11.3C41.7 11.6 41.7 12.1 41.7 12.8V15.7H40V9.20004H41.6V10.2C42.2 9.50004 42.9 9.10004 43.7 9.10004C44.1 9.10004 44.4 9.20002 44.7 9.30002C45 9.40002 45.3 9.60002 45.4 9.80002C45.5 10 45.7 10.3 45.7 10.5C45.8 10.8 45.8 11.2 45.8 11.7V15.9H45.9Z" fill="#1A1A1A"/>
<path d="M53.6 15.9H52V14.9C51.7 15.3 51.4 15.5 51.1 15.7C50.7 15.9 50.4 16 50 16C49.3 16 48.6 15.7 48.1 15.1C47.6 14.5 47.3 13.7 47.3 12.6C47.3 11.5 47.6 10.7 48.1 10.1C48.6 9.50004 49.3 9.20004 50.1 9.20004C50.8 9.20004 51.5 9.50004 52 10.1V6.90002H53.7V15.9H53.6ZM49 12.5C49 13.2 49.1 13.7 49.3 14C49.6 14.4 50 14.7 50.5 14.7C50.9 14.7 51.2 14.5 51.5 14.2C51.8 13.9 51.9 13.4 51.9 12.7C51.9 12 51.8 11.4 51.5 11.1C51.2 10.8 50.9 10.6 50.5 10.6C50.1 10.6 49.8 10.8 49.5 11.1C49.2 11.4 49 11.9 49 12.5Z" fill="white"/>
<path d="M53.6 15.9H52V14.9C51.7 15.3 51.4 15.5 51.1 15.7C50.7 15.9 50.4 16 50 16C49.3 16 48.6 15.7 48.1 15.1C47.6 14.5 47.3 13.7 47.3 12.6C47.3 11.5 47.6 10.7 48.1 10.1C48.6 9.50004 49.3 9.20004 50.1 9.20004C50.8 9.20004 51.5 9.50004 52 10.1V6.90002H53.7V15.9H53.6ZM49 12.5C49 13.2 49.1 13.7 49.3 14C49.6 14.4 50 14.7 50.5 14.7C50.9 14.7 51.2 14.5 51.5 14.2C51.8 13.9 51.9 13.4 51.9 12.7C51.9 12 51.8 11.4 51.5 11.1C51.2 10.8 50.9 10.6 50.5 10.6C50.1 10.6 49.8 10.8 49.5 11.1C49.2 11.4 49 11.9 49 12.5Z" fill="#1A1A1A"/>
<path d="M58.8 8.50003V6.90002H60.5V8.50003H58.8ZM58.8 15.9V9.40002H60.5V15.9H58.8Z" fill="white"/>
<path d="M58.8 8.50003V6.90002H60.5V8.50003H58.8ZM58.8 15.9V9.40002H60.5V15.9H58.8Z" fill="#1A1A1A"/>
<path d="M62.2 15.9V6.90002H63.9V11.7L65.9 9.40002H68L65.8 11.8L68.2 15.9H66.3L64.7 13L63.9 13.8V15.9H62.2Z" fill="white"/>
<path d="M62.2 15.9V6.90002H63.9V11.7L65.9 9.40002H68L65.8 11.8L68.2 15.9H66.3L64.7 13L63.9 13.8V15.9H62.2Z" fill="#1A1A1A"/>
<path d="M72.7 15.9V6.90002H74.4V15.9H72.7Z" fill="white"/>
<path d="M72.7 15.9V6.90002H74.4V15.9H72.7Z" fill="#1A1A1A"/>
<path d="M79.9 13.8L81.6 14.1C81.4 14.7 81 15.2 80.6 15.5C80.2 15.8 79.5 16 78.8 16C77.7 16 76.8 15.6 76.3 14.9C75.9 14.3 75.7 13.6 75.7 12.7C75.7 11.6 76 10.8 76.5 10.2C77.1 9.60004 77.8 9.30002 78.6 9.30002C79.6 9.30002 80.3 9.60002 80.9 10.3C81.5 10.9 81.7 11.9 81.7 13.2H77.4C77.4 13.7 77.6 14.1 77.8 14.4C78.1 14.7 78.4 14.8 78.8 14.8C79.1 14.8 79.3 14.7 79.5 14.6C79.7 14.4 79.8 14.2 79.9 13.8ZM80 12.1C80 11.6 79.9 11.2 79.6 11C79.3 10.8 79.1 10.6 78.7 10.6C78.3 10.6 78 10.7 77.8 11C77.6 11.3 77.4 11.6 77.4 12.1H80Z" fill="white"/>
<path d="M79.9 13.8L81.6 14.1C81.4 14.7 81 15.2 80.6 15.5C80.2 15.8 79.5 16 78.8 16C77.7 16 76.8 15.6 76.3 14.9C75.9 14.3 75.7 13.6 75.7 12.7C75.7 11.6 76 10.8 76.5 10.2C77.1 9.60004 77.8 9.30002 78.6 9.30002C79.6 9.30002 80.3 9.60002 80.9 10.3C81.5 10.9 81.7 11.9 81.7 13.2H77.4C77.4 13.7 77.6 14.1 77.8 14.4C78.1 14.7 78.4 14.8 78.8 14.8C79.1 14.8 79.3 14.7 79.5 14.6C79.7 14.4 79.8 14.2 79.9 13.8ZM80 12.1C80 11.6 79.9 11.2 79.6 11C79.3 10.8 79.1 10.6 78.7 10.6C78.3 10.6 78 10.7 77.8 11C77.6 11.3 77.4 11.6 77.4 12.1H80Z" fill="#1A1A1A"/>
<path d="M87.4 15.9V14.9C87.2 15.2 86.9 15.5 86.5 15.7C86.1 15.9 85.7 16 85.3 16C84.9 16 84.5 15.9 84.1 15.7C83.7 15.5 83.5 15.2 83.3 14.9C83.1 14.6 83.1 14.1 83.1 13.5V9.40002H84.8V12.4C84.8 13.3 84.8 13.9 84.9 14.1C85 14.3 85.1 14.5 85.2 14.6C85.3 14.7 85.6 14.8 85.8 14.8C86.1 14.8 86.4 14.7 86.6 14.6C86.8 14.4 87 14.2 87.1 14C87.2 13.8 87.2 13.2 87.2 12.2V9.50003H88.9V16H87.4V15.9Z" fill="white"/>
<path d="M87.4 15.9V14.9C87.2 15.2 86.9 15.5 86.5 15.7C86.1 15.9 85.7 16 85.3 16C84.9 16 84.5 15.9 84.1 15.7C83.7 15.5 83.5 15.2 83.3 14.9C83.1 14.6 83.1 14.1 83.1 13.5V9.40002H84.8V12.4C84.8 13.3 84.8 13.9 84.9 14.1C85 14.3 85.1 14.5 85.2 14.6C85.3 14.7 85.6 14.8 85.8 14.8C86.1 14.8 86.4 14.7 86.6 14.6C86.8 14.4 87 14.2 87.1 14C87.2 13.8 87.2 13.2 87.2 12.2V9.50003H88.9V16H87.4V15.9Z" fill="#1A1A1A"/>
<path d="M90.7 15.9V6.90002H92.4V11.7L94.4 9.40002H96.5L94.3 11.8L96.7 15.9H94.8L93.2 13L92.4 13.8V15.9H90.7Z" fill="white"/>
<path d="M90.7 15.9V6.90002H92.4V11.7L94.4 9.40002H96.5L94.3 11.8L96.7 15.9H94.8L93.2 13L92.4 13.8V15.9H90.7Z" fill="#1A1A1A"/>
<path d="M10.7846 6.41936C8.19742 6.41936 6.09998 8.58575 6.09998 11.2581C6.09998 13.9304 8.19742 16.0968 10.7846 16.0968C12.47 16.0968 13.4468 15.5584 14.2945 14.6828C15.1422 13.8071 15.4509 12.4828 15.4509 11.1466C15.4509 10.9428 15.438 10.7401 15.4153 10.5395H13.5884H13.2402H10.8415V12.2503H13.528C13.4188 12.6768 13.2337 13.0655 12.9423 13.3665C12.4203 13.9056 11.8188 14.2374 10.7811 14.2374C9.18818 14.2374 7.89673 12.9034 7.89673 11.2581C7.89673 9.61272 9.18818 8.27891 10.7811 8.27891C11.5561 8.27891 12.2316 8.5075 12.7665 9.00577L14.0854 7.66703L14.0834 7.66491C13.2036 6.80788 12.0783 6.41971 10.7847 6.41971L10.7846 6.41936ZM18.383 9.20542V10.6003H17.0087V11.9631H18.383V13.3582H19.7258V11.9631H21.1V10.6003H19.7258V9.20542H18.383ZM13.2379 9.60117C13.2386 9.6022 13.2396 9.60398 13.2399 9.60524V9.60346L13.2379 9.60117Z" fill="white"/>
<path d="M10.7846 6.41936C8.19742 6.41936 6.09998 8.58575 6.09998 11.2581C6.09998 13.9304 8.19742 16.0968 10.7846 16.0968C12.47 16.0968 13.4468 15.5584 14.2945 14.6828C15.1422 13.8071 15.4509 12.4828 15.4509 11.1466C15.4509 10.9428 15.438 10.7401 15.4153 10.5395H13.5884H13.2402H10.8415V12.2503H13.528C13.4188 12.6768 13.2337 13.0655 12.9423 13.3665C12.4203 13.9056 11.8188 14.2374 10.7811 14.2374C9.18818 14.2374 7.89673 12.9034 7.89673 11.2581C7.89673 9.61272 9.18818 8.27891 10.7811 8.27891C11.5561 8.27891 12.2316 8.5075 12.7665 9.00577L14.0854 7.66703L14.0834 7.66491C13.2036 6.80788 12.0783 6.41971 10.7847 6.41971L10.7846 6.41936ZM18.383 9.20542V10.6003H17.0087V11.9631H18.383V13.3582H19.7258V11.9631H21.1V10.6003H19.7258V9.20542H18.383ZM13.2379 9.60117C13.2386 9.6022 13.2396 9.60398 13.2399 9.60524V9.60346L13.2379 9.60117Z" fill="#DD5044"/>
</svg>
