<svg width="57" height="23" viewBox="0 0 57 23" fill="none" xmlns="http://www.w3.org/2000/svg">
<path d="M3.8 0.25H53.1C54.9539 0.25 56.553 1.831 56.65 3.80606V19.2C56.65 21.1619 55.0619 22.75 53.1 22.75H3.8C1.83807 22.75 0.25 21.1619 0.25 19.2V3.8C0.25 1.83807 1.83807 0.25 3.8 0.25Z" fill="white" stroke="#D7D7D7" stroke-width="0.5"/>
<path d="M27.5 15.9V7.00003H29.3V14.4H33.8V15.9H27.5Z" fill="white"/>
<path d="M27.5 15.9V7.00003H29.3V14.4H33.8V15.9H27.5Z" fill="#1A1A1A"/>
<path d="M35.1 8.50002V6.90002H36.8V8.50002H35.1ZM35.1 15.9V9.40002H36.8V15.9H35.1Z" fill="white"/>
<path d="M35.1 8.50002V6.90002H36.8V8.50002H35.1ZM35.1 15.9V9.40002H36.8V15.9H35.1Z" fill="#1A1A1A"/>
<path d="M38.5 15.9V6.90002H40.2V11.7L42.2 9.40002H44.3L42.1 11.8L44.5 15.9H42.6L41 13L40.2 13.8V15.9H38.5Z" fill="white"/>
<path d="M38.5 15.9V6.90002H40.2V11.7L42.2 9.40002H44.3L42.1 11.8L44.5 15.9H42.6L41 13L40.2 13.8V15.9H38.5Z" fill="#1A1A1A"/>
<path d="M49.3 13.8L51 14.1C50.8 14.7 50.4 15.2 50 15.5C49.6 15.8 48.9 16 48.2 16C47.1 16 46.2 15.6 45.7 14.9C45.3 14.3 45.1 13.6 45.1 12.7C45.1 11.6 45.4 10.8 45.9 10.2C46.5 9.60001 47.2 9.30002 48 9.30002C49 9.30002 49.7 9.60002 50.3 10.3C50.9 10.9 51.1 11.9 51.1 13.2H46.8C46.8 13.7 47 14.1 47.2 14.4C47.5 14.7 47.8 14.8 48.2 14.8C48.5 14.8 48.7 14.7 48.9 14.6C49 14.4 49.2 14.2 49.3 13.8ZM49.4 12.1C49.4 11.6 49.3 11.2 49 11C48.7 10.8 48.5 10.6 48.1 10.6C47.7 10.6 47.4 10.7 47.2 11C47 11.3 46.8 11.6 46.8 12.1H49.4Z" fill="white"/>
<path d="M49.3 13.8L51 14.1C50.8 14.7 50.4 15.2 50 15.5C49.6 15.8 48.9 16 48.2 16C47.1 16 46.2 15.6 45.7 14.9C45.3 14.3 45.1 13.6 45.1 12.7C45.1 11.6 45.4 10.8 45.9 10.2C46.5 9.60001 47.2 9.30002 48 9.30002C49 9.30002 49.7 9.60002 50.3 10.3C50.9 10.9 51.1 11.9 51.1 13.2H46.8C46.8 13.7 47 14.1 47.2 14.4C47.5 14.7 47.8 14.8 48.2 14.8C48.5 14.8 48.7 14.7 48.9 14.6C49 14.4 49.2 14.2 49.3 13.8ZM49.4 12.1C49.4 11.6 49.3 11.2 49 11C48.7 10.8 48.5 10.6 48.1 10.6C47.7 10.6 47.4 10.7 47.2 11C47 11.3 46.8 11.6 46.8 12.1H49.4Z" fill="#1A1A1A"/>
<path d="M10.7846 6.41934C8.19742 6.41934 6.09998 8.58574 6.09998 11.2581C6.09998 13.9304 8.19742 16.0968 10.7846 16.0968C12.47 16.0968 13.4468 15.5584 14.2945 14.6827C15.1422 13.8071 15.4509 12.4828 15.4509 11.1466C15.4509 10.9428 15.438 10.7401 15.4153 10.5395H13.5884H13.2402H10.8415V12.2503H13.528C13.4188 12.6768 13.2337 13.0655 12.9423 13.3665C12.4203 13.9056 11.8188 14.2374 10.7811 14.2374C9.18818 14.2374 7.89673 12.9034 7.89673 11.2581C7.89673 9.6127 9.18818 8.2789 10.7811 8.2789C11.5561 8.2789 12.2316 8.50749 12.7665 9.00575L14.0854 7.66702L14.0834 7.66489C13.2036 6.80787 12.0783 6.4197 10.7847 6.4197L10.7846 6.41934ZM18.383 9.2054V10.6003H17.0087V11.9631H18.383V13.3582H19.7258V11.9631H21.1V10.6003H19.7258V9.2054H18.383ZM13.2379 9.60116C13.2386 9.60218 13.2396 9.60397 13.2399 9.60523V9.60345L13.2379 9.60116Z" fill="white"/>
<path d="M10.7846 6.41934C8.19742 6.41934 6.09998 8.58574 6.09998 11.2581C6.09998 13.9304 8.19742 16.0968 10.7846 16.0968C12.47 16.0968 13.4468 15.5584 14.2945 14.6827C15.1422 13.8071 15.4509 12.4828 15.4509 11.1466C15.4509 10.9428 15.438 10.7401 15.4153 10.5395H13.5884H13.2402H10.8415V12.2503H13.528C13.4188 12.6768 13.2337 13.0655 12.9423 13.3665C12.4203 13.9056 11.8188 14.2374 10.7811 14.2374C9.18818 14.2374 7.89673 12.9034 7.89673 11.2581C7.89673 9.6127 9.18818 8.2789 10.7811 8.2789C11.5561 8.2789 12.2316 8.50749 12.7665 9.00575L14.0854 7.66702L14.0834 7.66489C13.2036 6.80787 12.0783 6.4197 10.7847 6.4197L10.7846 6.41934ZM18.383 9.2054V10.6003H17.0087V11.9631H18.383V13.3582H19.7258V11.9631H21.1V10.6003H19.7258V9.2054H18.383ZM13.2379 9.60116C13.2386 9.60218 13.2396 9.60397 13.2399 9.60523V9.60345L13.2379 9.60116Z" fill="#DD5044"/>
</svg>
