<svg width="70" height="23" viewBox="0 0 70 23" fill="none" xmlns="http://www.w3.org/2000/svg">
<path d="M3.8 0.25H66.1C67.9539 0.25 69.553 1.83098 69.65 3.80604V19.2C69.65 21.1619 68.0619 22.75 66.1 22.75H3.8C1.83807 22.75 0.25 21.1619 0.25 19.2V3.79999C0.25 1.83806 1.83807 0.25 3.8 0.25Z" fill="white" stroke="#D7D7D7" stroke-width="0.5"/>
<path d="M36.5 15.9H34.5L33.7 13.9H30.1L29.4 15.9H27.5L31 6.90002H32.9L36.5 15.9ZM33.2 12.4L32 9.10004L30.8 12.4H33.2Z" fill="white"/>
<path d="M36.5 15.9H34.5L33.7 13.9H30.1L29.4 15.9H27.5L31 6.90002H32.9L36.5 15.9ZM33.2 12.4L32 9.10004L30.8 12.4H33.2Z" fill="#1A1A1A"/>
<path d="M37.4 8.50003V6.90002H39.1V8.50003H37.4ZM37.4 15.9V9.40002H39.1V15.9H37.4Z" fill="white"/>
<path d="M37.4 8.50003V6.90002H39.1V8.50003H37.4ZM37.4 15.9V9.40002H39.1V15.9H37.4Z" fill="#1A1A1A"/>
<path d="M40.8 9.40002H42.4V10.3C43 9.60002 43.6 9.30002 44.4 9.30002C44.8 9.30002 45.2 9.40004 45.5 9.60004C45.8 9.80004 46.1 10 46.3 10.4C46.6 10.1 46.9 9.80004 47.2 9.60004C47.5 9.40004 47.9 9.30002 48.3 9.30002C48.8 9.30002 49.2 9.40004 49.5 9.60004C49.8 9.80004 50.1 10.1 50.2 10.5C50.3 10.8 50.4 11.2 50.4 11.8V16H48.7V12.3C48.7 11.7 48.6 11.2 48.5 11.1C48.3 10.9 48.1 10.7 47.8 10.7C47.6 10.7 47.3 10.8 47.1 10.9C46.9 11 46.7 11.3 46.6 11.5C46.5 11.7 46.5 12.2 46.5 12.8V15.9H44.7V12.3C44.7 11.7 44.7 11.3 44.6 11.1C44.5 10.9 44.4 10.8 44.3 10.7C44.2 10.6 44 10.6 43.8 10.6C43.5 10.6 43.3 10.7 43.1 10.8C42.9 10.9 42.7 11.1 42.6 11.4C42.5 11.7 42.5 12.1 42.5 12.7V15.9H40.8V9.40002Z" fill="white"/>
<path d="M40.8 9.40002H42.4V10.3C43 9.60002 43.6 9.30002 44.4 9.30002C44.8 9.30002 45.2 9.40004 45.5 9.60004C45.8 9.80004 46.1 10 46.3 10.4C46.6 10.1 46.9 9.80004 47.2 9.60004C47.5 9.40004 47.9 9.30002 48.3 9.30002C48.8 9.30002 49.2 9.40004 49.5 9.60004C49.8 9.80004 50.1 10.1 50.2 10.5C50.3 10.8 50.4 11.2 50.4 11.8V16H48.7V12.3C48.7 11.7 48.6 11.2 48.5 11.1C48.3 10.9 48.1 10.7 47.8 10.7C47.6 10.7 47.3 10.8 47.1 10.9C46.9 11 46.7 11.3 46.6 11.5C46.5 11.7 46.5 12.2 46.5 12.8V15.9H44.7V12.3C44.7 11.7 44.7 11.3 44.6 11.1C44.5 10.9 44.4 10.8 44.3 10.7C44.2 10.6 44 10.6 43.8 10.6C43.5 10.6 43.3 10.7 43.1 10.8C42.9 10.9 42.7 11.1 42.6 11.4C42.5 11.7 42.5 12.1 42.5 12.7V15.9H40.8V9.40002Z" fill="#1A1A1A"/>
<path d="M55.8 13.8L57.5 14.1C57.3 14.7 56.9 15.2 56.5 15.5C56.1 15.8 55.4 16 54.7 16C53.6 16 52.7 15.6 52.2 14.9C51.8 14.3 51.6 13.6 51.6 12.7C51.6 11.6 51.9 10.8 52.4 10.2C53 9.60004 53.7 9.30002 54.5 9.30002C55.5 9.30002 56.2 9.60002 56.8 10.3C57.4 10.9 57.6 11.9 57.6 13.2H53.3C53.3 13.7 53.5 14.1 53.7 14.4C54 14.7 54.3 14.8 54.7 14.8C55 14.8 55.2 14.7 55.4 14.6C55.6 14.4 55.7 14.2 55.8 13.8ZM55.9 12.1C55.9 11.6 55.8 11.2 55.5 11C55.2 10.8 55 10.6 54.6 10.6C54.2 10.6 53.9 10.7 53.7 11C53.5 11.3 53.3 11.6 53.3 12.1H55.9Z" fill="white"/>
<path d="M55.8 13.8L57.5 14.1C57.3 14.7 56.9 15.2 56.5 15.5C56.1 15.8 55.4 16 54.7 16C53.6 16 52.7 15.6 52.2 14.9C51.8 14.3 51.6 13.6 51.6 12.7C51.6 11.6 51.9 10.8 52.4 10.2C53 9.60004 53.7 9.30002 54.5 9.30002C55.5 9.30002 56.2 9.60002 56.8 10.3C57.4 10.9 57.6 11.9 57.6 13.2H53.3C53.3 13.7 53.5 14.1 53.7 14.4C54 14.7 54.3 14.8 54.7 14.8C55 14.8 55.2 14.7 55.4 14.6C55.6 14.4 55.7 14.2 55.8 13.8ZM55.9 12.1C55.9 11.6 55.8 11.2 55.5 11C55.2 10.8 55 10.6 54.6 10.6C54.2 10.6 53.9 10.7 53.7 11C53.5 11.3 53.3 11.6 53.3 12.1H55.9Z" fill="#1A1A1A"/>
<path d="M60.7 15.9H59V9.40002H60.6V10.3C60.9 9.90002 61.1 9.60002 61.3 9.40002C61.5 9.30002 61.8 9.20004 62 9.20004C62.4 9.20004 62.8 9.30003 63.1 9.50003L62.6 11C62.3 10.8 62 10.7 61.8 10.7C61.6 10.7 61.4 10.8 61.2 10.9C61 11 60.9 11.3 60.8 11.6C60.7 11.9 60.7 12.7 60.7 13.8V15.9Z" fill="white"/>
<path d="M60.7 15.9H59V9.40002H60.6V10.3C60.9 9.90002 61.1 9.60002 61.3 9.40002C61.5 9.30002 61.8 9.20004 62 9.20004C62.4 9.20004 62.8 9.30003 63.1 9.50003L62.6 11C62.3 10.8 62 10.7 61.8 10.7C61.6 10.7 61.4 10.8 61.2 10.9C61 11 60.9 11.3 60.8 11.6C60.7 11.9 60.7 12.7 60.7 13.8V15.9Z" fill="#1A1A1A"/>
<path d="M10.7846 6.41936C8.19742 6.41936 6.09998 8.58575 6.09998 11.2581C6.09998 13.9304 8.19742 16.0968 10.7846 16.0968C12.47 16.0968 13.4468 15.5584 14.2945 14.6828C15.1422 13.8071 15.4509 12.4828 15.4509 11.1466C15.4509 10.9428 15.438 10.7401 15.4153 10.5395H13.5884H13.2402H10.8415V12.2503H13.528C13.4188 12.6768 13.2337 13.0655 12.9423 13.3665C12.4203 13.9056 11.8188 14.2374 10.7811 14.2374C9.18818 14.2374 7.89673 12.9034 7.89673 11.2581C7.89673 9.61272 9.18818 8.27891 10.7811 8.27891C11.5561 8.27891 12.2316 8.5075 12.7665 9.00577L14.0854 7.66703L14.0834 7.66491C13.2036 6.80788 12.0783 6.41971 10.7847 6.41971L10.7846 6.41936ZM18.383 9.20542V10.6003H17.0087V11.9631H18.383V13.3582H19.7258V11.9631H21.1V10.6003H19.7258V9.20542H18.383ZM13.2379 9.60117C13.2386 9.6022 13.2396 9.60398 13.2399 9.60524V9.60346L13.2379 9.60117Z" fill="white"/>
<path d="M10.7846 6.41936C8.19742 6.41936 6.09998 8.58575 6.09998 11.2581C6.09998 13.9304 8.19742 16.0968 10.7846 16.0968C12.47 16.0968 13.4468 15.5584 14.2945 14.6828C15.1422 13.8071 15.4509 12.4828 15.4509 11.1466C15.4509 10.9428 15.438 10.7401 15.4153 10.5395H13.5884H13.2402H10.8415V12.2503H13.528C13.4188 12.6768 13.2337 13.0655 12.9423 13.3665C12.4203 13.9056 11.8188 14.2374 10.7811 14.2374C9.18818 14.2374 7.89673 12.9034 7.89673 11.2581C7.89673 9.61272 9.18818 8.27891 10.7811 8.27891C11.5561 8.27891 12.2316 8.5075 12.7665 9.00577L14.0854 7.66703L14.0834 7.66491C13.2036 6.80788 12.0783 6.41971 10.7847 6.41971L10.7846 6.41936ZM18.383 9.20542V10.6003H17.0087V11.9631H18.383V13.3582H19.7258V11.9631H21.1V10.6003H19.7258V9.20542H18.383ZM13.2379 9.60117C13.2386 9.6022 13.2396 9.60398 13.2399 9.60524V9.60346L13.2379 9.60117Z" fill="#DD5044"/>
</svg>
