<svg width="95" height="23" viewBox="0 0 95 23" fill="none" xmlns="http://www.w3.org/2000/svg">
<path d="M3.8 0.25H91.1C92.9585 0.25 94.5532 1.73589 94.65 3.80572V19.2C94.65 21.1619 93.0619 22.75 91.1 22.75H3.8C1.83807 22.75 0.25 21.1619 0.25 19.2V3.79999C0.25 1.83806 1.83807 0.25 3.8 0.25Z" fill="white" stroke="#D7D7D7" stroke-width="0.5"/>
<path d="M32 12.6V11.1H35.9V14.7C35.5 15.1 35 15.4 34.3 15.7C33.6 16 32.9 16.1 32.1 16.1C31.2 16.1 30.3 15.9 29.6 15.5C28.9 15.1 28.4 14.5 28 13.8C27.6 13.1 27.5 12.3 27.5 11.4C27.5 10.5 27.7 9.59999 28.1 8.89999C28.5 8.19999 29.1 7.60001 29.8 7.20001C30.4 6.90001 31.1 6.79999 31.9 6.79999C33 6.79999 33.9 7 34.5 7.5C35.1 8 35.5 8.59999 35.7 9.39999L33.9 9.70001C33.8 9.30001 33.5 8.90001 33.2 8.70001C32.9 8.40001 32.4 8.29999 31.9 8.29999C31.1 8.29999 30.5 8.60001 30 9.10001C29.5 9.60001 29.3 10.3 29.3 11.3C29.3 12.4 29.5 13.2 30 13.7C30.5 14.2 31.1 14.5 31.9 14.5C32.3 14.5 32.7 14.4 33 14.3C33.4 14.2 33.7 14 34 13.8V12.7H32V12.6Z" fill="white"/>
<path d="M32 12.6V11.1H35.9V14.7C35.5 15.1 35 15.4 34.3 15.7C33.6 16 32.9 16.1 32.1 16.1C31.2 16.1 30.3 15.9 29.6 15.5C28.9 15.1 28.4 14.5 28 13.8C27.6 13.1 27.5 12.3 27.5 11.4C27.5 10.5 27.7 9.59999 28.1 8.89999C28.5 8.19999 29.1 7.60001 29.8 7.20001C30.4 6.90001 31.1 6.79999 31.9 6.79999C33 6.79999 33.9 7 34.5 7.5C35.1 8 35.5 8.59999 35.7 9.39999L33.9 9.70001C33.8 9.30001 33.5 8.90001 33.2 8.70001C32.9 8.40001 32.4 8.29999 31.9 8.29999C31.1 8.29999 30.5 8.60001 30 9.10001C29.5 9.60001 29.3 10.3 29.3 11.3C29.3 12.4 29.5 13.2 30 13.7C30.5 14.2 31.1 14.5 31.9 14.5C32.3 14.5 32.7 14.4 33 14.3C33.4 14.2 33.7 14 34 13.8V12.7H32V12.6Z" fill="#1A1A1A"/>
<path d="M41.3 13.9L43 14.2C42.8 14.8 42.4 15.3 42 15.6C41.6 15.9 40.9 16.1 40.2 16.1C39.1 16.1 38.2 15.7 37.7 15C37.3 14.4 37.1 13.7 37.1 12.8C37.1 11.7 37.4 10.9 37.9 10.3C38.5 9.69999 39.2 9.39999 40 9.39999C41 9.39999 41.7 9.69999 42.3 10.4C42.9 11 43.1 12 43.1 13.3H38.8C38.8 13.8 39 14.2 39.2 14.5C39.5 14.8 39.8 14.9 40.2 14.9C40.5 14.9 40.7 14.8 40.9 14.7C41.1 14.4 41.2 14.2 41.3 13.9ZM41.4 12.1C41.4 11.6 41.3 11.2 41 11C40.7 10.8 40.5 10.6 40.1 10.6C39.7 10.6 39.4 10.7 39.2 11C39 11.3 38.8 11.6 38.8 12.1H41.4Z" fill="white"/>
<path d="M41.3 13.9L43 14.2C42.8 14.8 42.4 15.3 42 15.6C41.6 15.9 40.9 16.1 40.2 16.1C39.1 16.1 38.2 15.7 37.7 15C37.3 14.4 37.1 13.7 37.1 12.8C37.1 11.7 37.4 10.9 37.9 10.3C38.5 9.69999 39.2 9.39999 40 9.39999C41 9.39999 41.7 9.69999 42.3 10.4C42.9 11 43.1 12 43.1 13.3H38.8C38.8 13.8 39 14.2 39.2 14.5C39.5 14.8 39.8 14.9 40.2 14.9C40.5 14.9 40.7 14.8 40.9 14.7C41.1 14.4 41.2 14.2 41.3 13.9ZM41.4 12.1C41.4 11.6 41.3 11.2 41 11C40.7 10.8 40.5 10.6 40.1 10.6C39.7 10.6 39.4 10.7 39.2 11C39 11.3 38.8 11.6 38.8 12.1H41.4Z" fill="#1A1A1A"/>
<path d="M43.7 9.39999H44.7V9C44.7 8.5 44.8 7.99999 44.9 7.79999C45 7.49999 45.2 7.30001 45.5 7.10001C45.8 6.90001 46.2 6.79999 46.7 6.79999C47.2 6.79999 47.7 6.9 48.1 7L47.9 8.20001C47.6 8.10001 47.4 8.10001 47.1 8.10001C46.9 8.10001 46.7 8.19999 46.6 8.29999C46.5 8.39999 46.4 8.6 46.4 9V9.5H47.7V10.9H46.4V16H44.7V10.9H43.7V9.39999Z" fill="white"/>
<path d="M43.7 9.39999H44.7V9C44.7 8.5 44.8 7.99999 44.9 7.79999C45 7.49999 45.2 7.30001 45.5 7.10001C45.8 6.90001 46.2 6.79999 46.7 6.79999C47.2 6.79999 47.7 6.9 48.1 7L47.9 8.20001C47.6 8.10001 47.4 8.10001 47.1 8.10001C46.9 8.10001 46.7 8.19999 46.6 8.29999C46.5 8.39999 46.4 8.6 46.4 9V9.5H47.7V10.9H46.4V16H44.7V10.9H43.7V9.39999Z" fill="#1A1A1A"/>
<path d="M49.9 11.4L48.3 11.1C48.5 10.5 48.8 10 49.2 9.70001C49.6 9.40001 50.3 9.20001 51.1 9.20001C51.9 9.20001 52.4 9.3 52.8 9.5C53.2 9.7 53.4 9.90001 53.6 10.2C53.8 10.5 53.8 11 53.8 11.7V13.7C53.8 14.3 53.8 14.7 53.9 15C54 15.3 54.1 15.6 54.2 15.9H52.5C52.5 15.8 52.4 15.6 52.3 15.4C52.3 15.3 52.3 15.2 52.2 15.2C51.9 15.5 51.6 15.7 51.3 15.8C51 15.9 50.6 16 50.2 16C49.5 16 49 15.8 48.6 15.5C48.2 15.1 48 14.7 48 14.1C48 13.7 48.1 13.4 48.3 13.1C48.5 12.8 48.7 12.6 49 12.4C49.3 12.2 49.8 12.1 50.4 12C51.2 11.8 51.8 11.7 52.1 11.6V11.4C52.1 11.1 52 10.8 51.9 10.7C51.7 10.6 51.4 10.5 51 10.5C50.7 10.5 50.5 10.6 50.3 10.7C50.1 10.8 50.1 11.1 49.9 11.4ZM49.2 8.29999V6.79999H50.7V8.29999H49.2ZM52.2 12.8C52 12.9 51.6 13 51.2 13.1C50.7 13.2 50.4 13.3 50.3 13.4C50.1 13.6 50 13.8 50 14C50 14.2 50.1 14.4 50.3 14.6C50.5 14.8 50.7 14.9 51 14.9C51.3 14.9 51.6 14.8 51.9 14.6C52.1 14.4 52.2 14.3 52.3 14C52.3 13.9 52.4 13.6 52.4 13.2V12.8H52.2ZM51.8 8.29999V6.79999H53.3V8.29999H51.8Z" fill="white"/>
<path d="M49.9 11.4L48.3 11.1C48.5 10.5 48.8 10 49.2 9.70001C49.6 9.40001 50.3 9.20001 51.1 9.20001C51.9 9.20001 52.4 9.3 52.8 9.5C53.2 9.7 53.4 9.90001 53.6 10.2C53.8 10.5 53.8 11 53.8 11.7V13.7C53.8 14.3 53.8 14.7 53.9 15C54 15.3 54.1 15.6 54.2 15.9H52.5C52.5 15.8 52.4 15.6 52.3 15.4C52.3 15.3 52.3 15.2 52.2 15.2C51.9 15.5 51.6 15.7 51.3 15.8C51 15.9 50.6 16 50.2 16C49.5 16 49 15.8 48.6 15.5C48.2 15.1 48 14.7 48 14.1C48 13.7 48.1 13.4 48.3 13.1C48.5 12.8 48.7 12.6 49 12.4C49.3 12.2 49.8 12.1 50.4 12C51.2 11.8 51.8 11.7 52.1 11.6V11.4C52.1 11.1 52 10.8 51.9 10.7C51.7 10.6 51.4 10.5 51 10.5C50.7 10.5 50.5 10.6 50.3 10.7C50.1 10.8 50.1 11.1 49.9 11.4ZM49.2 8.29999V6.79999H50.7V8.29999H49.2ZM52.2 12.8C52 12.9 51.6 13 51.2 13.1C50.7 13.2 50.4 13.3 50.3 13.4C50.1 13.6 50 13.8 50 14C50 14.2 50.1 14.4 50.3 14.6C50.5 14.8 50.7 14.9 51 14.9C51.3 14.9 51.6 14.8 51.9 14.6C52.1 14.4 52.2 14.3 52.3 14C52.3 13.9 52.4 13.6 52.4 13.2V12.8H52.2ZM51.8 8.29999V6.79999H53.3V8.29999H51.8Z" fill="#1A1A1A"/>
<path d="M55.6 15.9V6.89999H57.3V15.9H55.6Z" fill="white"/>
<path d="M55.6 15.9V6.89999H57.3V15.9H55.6Z" fill="#1A1A1A"/>
<path d="M59.1 15.9V6.89999H60.8V15.9H59.1Z" fill="white"/>
<path d="M59.1 15.9V6.89999H60.8V15.9H59.1Z" fill="#1A1A1A"/>
<path d="M65.6 9.39999V10.8H64.4V13.4C64.4 13.9 64.4 14.2 64.4 14.3C64.4 14.4 64.5 14.5 64.6 14.5C64.7 14.6 64.8 14.6 64.9 14.6C65.1 14.6 65.3 14.5 65.6 14.4L65.7 15.7C65.3 15.9 64.8 16 64.3 16C64 16 63.7 15.9 63.5 15.8C63.3 15.7 63.1 15.6 63 15.4C62.9 15.2 62.8 15 62.8 14.7C62.8 14.5 62.7 14.1 62.7 13.5V10.7H61.9V9.29999H62.7V8L64.4 7V9.29999H65.6V9.39999Z" fill="white"/>
<path d="M65.6 9.39999V10.8H64.4V13.4C64.4 13.9 64.4 14.2 64.4 14.3C64.4 14.4 64.5 14.5 64.6 14.5C64.7 14.6 64.8 14.6 64.9 14.6C65.1 14.6 65.3 14.5 65.6 14.4L65.7 15.7C65.3 15.9 64.8 16 64.3 16C64 16 63.7 15.9 63.5 15.8C63.3 15.7 63.1 15.6 63 15.4C62.9 15.2 62.8 15 62.8 14.7C62.8 14.5 62.7 14.1 62.7 13.5V10.7H61.9V9.29999H62.7V8L64.4 7V9.29999H65.6V9.39999Z" fill="#1A1A1A"/>
<path d="M70.1 9.39999H71.7V10.3C72.3 9.59999 72.9 9.29999 73.7 9.29999C74.1 9.29999 74.5 9.40001 74.8 9.60001C75.1 9.80001 75.4 9.99999 75.6 10.4C75.9 10.1 76.2 9.80001 76.5 9.60001C76.8 9.40001 77.2 9.29999 77.6 9.29999C78.1 9.29999 78.5 9.40001 78.8 9.60001C79.1 9.80001 79.4 10.1 79.5 10.5C79.6 10.8 79.7 11.2 79.7 11.8V16H78V12.3C78 11.7 77.9 11.2 77.8 11.1C77.6 10.9 77.4 10.7 77.1 10.7C76.9 10.7 76.6 10.8 76.4 10.9C76.2 11 76 11.3 75.9 11.5C75.8 11.7 75.8 12.2 75.8 12.8V15.9H74.1V12.3C74.1 11.7 74.1 11.3 74 11.1C73.9 10.9 73.8 10.8 73.7 10.7C73.6 10.6 73.4 10.6 73.2 10.6C72.9 10.6 72.7 10.7 72.5 10.8C72.3 10.9 72.1 11.1 72 11.4C71.9 11.7 71.9 12.1 71.9 12.7V15.9H70.2V9.39999H70.1Z" fill="white"/>
<path d="M70.1 9.39999H71.7V10.3C72.3 9.59999 72.9 9.29999 73.7 9.29999C74.1 9.29999 74.5 9.40001 74.8 9.60001C75.1 9.80001 75.4 9.99999 75.6 10.4C75.9 10.1 76.2 9.80001 76.5 9.60001C76.8 9.40001 77.2 9.29999 77.6 9.29999C78.1 9.29999 78.5 9.40001 78.8 9.60001C79.1 9.80001 79.4 10.1 79.5 10.5C79.6 10.8 79.7 11.2 79.7 11.8V16H78V12.3C78 11.7 77.9 11.2 77.8 11.1C77.6 10.9 77.4 10.7 77.1 10.7C76.9 10.7 76.6 10.8 76.4 10.9C76.2 11 76 11.3 75.9 11.5C75.8 11.7 75.8 12.2 75.8 12.8V15.9H74.1V12.3C74.1 11.7 74.1 11.3 74 11.1C73.9 10.9 73.8 10.8 73.7 10.7C73.6 10.6 73.4 10.6 73.2 10.6C72.9 10.6 72.7 10.7 72.5 10.8C72.3 10.9 72.1 11.1 72 11.4C71.9 11.7 71.9 12.1 71.9 12.7V15.9H70.2V9.39999H70.1Z" fill="#1A1A1A"/>
<path d="M81.4 8.60001V7H83.1V8.60001H81.4ZM81.4 15.9V9.39999H83.1V15.9H81.4Z" fill="white"/>
<path d="M81.4 8.60001V7H83.1V8.60001H81.4ZM81.4 15.9V9.39999H83.1V15.9H81.4Z" fill="#1A1A1A"/>
<path d="M86.5 15.9H84.8V9.39999H86.4V10.3C86.7 9.89999 86.9 9.59999 87.1 9.39999C87.3 9.29999 87.6 9.20001 87.8 9.20001C88.2 9.20001 88.6 9.3 88.9 9.5L88.4 11C88.1 10.8 87.8 10.7 87.6 10.7C87.4 10.7 87.2 10.8 87 10.9C86.8 11 86.7 11.3 86.6 11.6C86.5 11.9 86.5 12.7 86.5 13.8V15.9Z" fill="white"/>
<path d="M86.5 15.9H84.8V9.39999H86.4V10.3C86.7 9.89999 86.9 9.59999 87.1 9.39999C87.3 9.29999 87.6 9.20001 87.8 9.20001C88.2 9.20001 88.6 9.3 88.9 9.5L88.4 11C88.1 10.8 87.8 10.7 87.6 10.7C87.4 10.7 87.2 10.8 87 10.9C86.8 11 86.7 11.3 86.6 11.6C86.5 11.9 86.5 12.7 86.5 13.8V15.9Z" fill="#1A1A1A"/>
<path d="M10.7846 6.41936C8.19742 6.41936 6.09998 8.58575 6.09998 11.2581C6.09998 13.9304 8.19742 16.0968 10.7846 16.0968C12.47 16.0968 13.4468 15.5584 14.2945 14.6828C15.1422 13.8071 15.4509 12.4828 15.4509 11.1466C15.4509 10.9428 15.438 10.7401 15.4153 10.5395H13.5884H13.2402H10.8415V12.2503H13.528C13.4188 12.6768 13.2337 13.0655 12.9423 13.3665C12.4203 13.9056 11.8188 14.2374 10.7811 14.2374C9.18818 14.2374 7.89673 12.9034 7.89673 11.2581C7.89673 9.61272 9.18818 8.27891 10.7811 8.27891C11.5561 8.27891 12.2316 8.5075 12.7665 9.00577L14.0854 7.66703L14.0834 7.66491C13.2036 6.80788 12.0783 6.41971 10.7847 6.41971L10.7846 6.41936ZM18.383 9.20542V10.6003H17.0087V11.9631H18.383V13.3582H19.7258V11.9631H21.1V10.6003H19.7258V9.20542H18.383ZM13.2379 9.60117C13.2386 9.6022 13.2396 9.60398 13.2399 9.60524V9.60346L13.2379 9.60117Z" fill="white"/>
<path d="M10.7846 6.41936C8.19742 6.41936 6.09998 8.58575 6.09998 11.2581C6.09998 13.9304 8.19742 16.0968 10.7846 16.0968C12.47 16.0968 13.4468 15.5584 14.2945 14.6828C15.1422 13.8071 15.4509 12.4828 15.4509 11.1466C15.4509 10.9428 15.438 10.7401 15.4153 10.5395H13.5884H13.2402H10.8415V12.2503H13.528C13.4188 12.6768 13.2337 13.0655 12.9423 13.3665C12.4203 13.9056 11.8188 14.2374 10.7811 14.2374C9.18818 14.2374 7.89673 12.9034 7.89673 11.2581C7.89673 9.61272 9.18818 8.27891 10.7811 8.27891C11.5561 8.27891 12.2316 8.5075 12.7665 9.00577L14.0854 7.66703L14.0834 7.66491C13.2036 6.80788 12.0783 6.41971 10.7847 6.41971L10.7846 6.41936ZM18.383 9.20542V10.6003H17.0087V11.9631H18.383V13.3582H19.7258V11.9631H21.1V10.6003H19.7258V9.20542H18.383ZM13.2379 9.60117C13.2386 9.6022 13.2396 9.60398 13.2399 9.60524V9.60346L13.2379 9.60117Z" fill="#DD5044"/>
</svg>
