<svg width="104" height="23" viewBox="0 0 104 23" fill="none" xmlns="http://www.w3.org/2000/svg">
<path d="M3.8 0.25H100.1C101.954 0.25 103.553 1.83098 103.65 3.80604V19.2C103.65 21.1619 102.062 22.75 100.1 22.75H3.8C1.83807 22.75 0.25 21.1619 0.25 19.2V3.79999C0.25 1.83806 1.83807 0.25 3.8 0.25Z" fill="white" stroke="#D7D7D7" stroke-width="0.5"/>
<path d="M27.5 14.9V5.89999H30.2L31.8 12L33.4 5.89999H36.1V14.9H34.4V7.79999L32.6 14.9H30.9L29.1 7.79999V14.9H27.5Z" fill="white"/>
<path d="M27.5 14.9V5.89999H30.2L31.8 12L33.4 5.89999H36.1V14.9H34.4V7.79999L32.6 14.9H30.9L29.1 7.79999V14.9H27.5Z" fill="#1A1A1A"/>
<path d="M37.5 11.5C37.5 10.9 37.6 10.4 37.9 9.79999C38.2 9.29999 38.6 8.90001 39.1 8.60001C39.6 8.30001 40.2 8.20001 40.8 8.20001C41.8 8.20001 42.6 8.50001 43.2 9.20001C43.8 9.80001 44.1 10.6 44.1 11.6C44.1 12.6 43.8 13.4 43.1 14C42.5 14.6 41.7 15 40.7 15C40.1 15 39.5 14.9 39 14.6C38.5 14.3 38 13.9 37.8 13.4C37.7 12.9 37.5 12.3 37.5 11.5ZM39.3 11.6C39.3 12.2 39.5 12.7 39.8 13.1C40.1 13.4 40.5 13.6 40.9 13.6C41.3 13.6 41.7 13.4 42 13.1C42.3 12.8 42.5 12.3 42.5 11.6C42.5 11 42.3 10.5 42 10.1C41.7 9.80001 41.3 9.60001 40.9 9.60001C40.5 9.60001 40.1 9.80001 39.8 10.1C39.5 10.4 39.3 11 39.3 11.6Z" fill="white"/>
<path d="M37.5 11.5C37.5 10.9 37.6 10.4 37.9 9.79999C38.2 9.29999 38.6 8.90001 39.1 8.60001C39.6 8.30001 40.2 8.20001 40.8 8.20001C41.8 8.20001 42.6 8.50001 43.2 9.20001C43.8 9.80001 44.1 10.6 44.1 11.6C44.1 12.6 43.8 13.4 43.1 14C42.5 14.6 41.7 15 40.7 15C40.1 15 39.5 14.9 39 14.6C38.5 14.3 38 13.9 37.8 13.4C37.7 12.9 37.5 12.3 37.5 11.5ZM39.3 11.6C39.3 12.2 39.5 12.7 39.8 13.1C40.1 13.4 40.5 13.6 40.9 13.6C41.3 13.6 41.7 13.4 42 13.1C42.3 12.8 42.5 12.3 42.5 11.6C42.5 11 42.3 10.5 42 10.1C41.7 9.80001 41.3 9.60001 40.9 9.60001C40.5 9.60001 40.1 9.80001 39.8 10.1C39.5 10.4 39.3 11 39.3 11.6Z" fill="#1A1A1A"/>
<path d="M45.4 8.39999H47.1V11.7C47.1 12.5 47.2 13 47.4 13.3C47.6 13.5 47.9 13.7 48.3 13.7C48.7 13.7 49 13.6 49.2 13.3C49.4 13 49.5 12.5 49.5 11.8V8.5H51.2V11.6C51.2 12.5 51.1 13.1 50.9 13.6C50.7 14.1 50.4 14.5 49.9 14.7C49.4 15 48.9 15.1 48.3 15.1C47.6 15.1 47.1 15 46.6 14.7C46.1 14.4 45.8 14 45.6 13.5C45.4 13 45.3 12.4 45.3 11.5V8.39999H45.4Z" fill="white"/>
<path d="M45.4 8.39999H47.1V11.7C47.1 12.5 47.2 13 47.4 13.3C47.6 13.5 47.9 13.7 48.3 13.7C48.7 13.7 49 13.6 49.2 13.3C49.4 13 49.5 12.5 49.5 11.8V8.5H51.2V11.6C51.2 12.5 51.1 13.1 50.9 13.6C50.7 14.1 50.4 14.5 49.9 14.7C49.4 15 48.9 15.1 48.3 15.1C47.6 15.1 47.1 15 46.6 14.7C46.1 14.4 45.8 14 45.6 13.5C45.4 13 45.3 12.4 45.3 11.5V8.39999H45.4Z" fill="#1A1A1A"/>
<path d="M61.3 8.39999H62.8C62.6 8.89999 62.4 9.50001 62.2 10.2C62 10.9 62 11.5 62 11.7C62 12.1 62.1 12.6 62.2 13.2C62.3 13.8 62.5 14.4 62.7 14.9H61.3C61.3 14.8 61.2 14.7 61.2 14.6C61.1 14.4 61 14.1 61 13.9C60.5 14.7 59.8 15.1 58.9 15.1C58 15.1 57.3 14.7 56.8 14C56.3 13.3 56 12.5 56 11.5C56 10.6 56.3 9.80001 56.8 9.20001C57.3 8.60001 58 8.29999 58.9 8.29999C59.8 8.29999 60.5 8.70001 61 9.60001C61 9.20001 61.1 8.79999 61.3 8.39999ZM57.7 11.6C57.7 12.2 57.8 12.7 58.1 13.1C58.4 13.5 58.7 13.7 59.1 13.7C59.5 13.7 59.8 13.5 60.1 13.2C60.3 12.9 60.5 12.4 60.5 11.7C60.5 11 60.4 10.5 60.1 10.2C59.8 9.90001 59.5 9.70001 59.1 9.70001C58.7 9.70001 58.4 9.90001 58.1 10.2C57.8 10.5 57.7 11 57.7 11.6Z" fill="white"/>
<path d="M61.3 8.39999H62.8C62.6 8.89999 62.4 9.50001 62.2 10.2C62 10.9 62 11.5 62 11.7C62 12.1 62.1 12.6 62.2 13.2C62.3 13.8 62.5 14.4 62.7 14.9H61.3C61.3 14.8 61.2 14.7 61.2 14.6C61.1 14.4 61 14.1 61 13.9C60.5 14.7 59.8 15.1 58.9 15.1C58 15.1 57.3 14.7 56.8 14C56.3 13.3 56 12.5 56 11.5C56 10.6 56.3 9.80001 56.8 9.20001C57.3 8.60001 58 8.29999 58.9 8.29999C59.8 8.29999 60.5 8.70001 61 9.60001C61 9.20001 61.1 8.79999 61.3 8.39999ZM57.7 11.6C57.7 12.2 57.8 12.7 58.1 13.1C58.4 13.5 58.7 13.7 59.1 13.7C59.5 13.7 59.8 13.5 60.1 13.2C60.3 12.9 60.5 12.4 60.5 11.7C60.5 11 60.4 10.5 60.1 10.2C59.8 9.90001 59.5 9.70001 59.1 9.70001C58.7 9.70001 58.4 9.90001 58.1 10.2C57.8 10.5 57.7 11 57.7 11.6Z" fill="#1A1A1A"/>
<path d="M65.6 14.5V17.4H63.9V12.3C63.9 11.4 64 10.6 64.2 10.1C64.4 9.60001 64.7 9.09999 65.2 8.79999C65.7 8.49999 66.3 8.29999 67 8.29999C68 8.29999 68.9 8.59999 69.5 9.29999C70.1 9.99999 70.4 10.8 70.4 11.7C70.4 12.6 70.1 13.4 69.5 14.1C68.9 14.7 68.2 15.1 67.3 15.1C66.7 15 66.2 14.8 65.6 14.5ZM65.6 11.8C65.6 12.3 65.7 12.8 66 13.1C66.3 13.4 66.6 13.6 67.1 13.6C67.6 13.6 67.9 13.4 68.2 13C68.5 12.6 68.6 12.1 68.6 11.5C68.6 10.9 68.5 10.4 68.2 10.1C67.9 9.80001 67.6 9.60001 67.1 9.60001C66.7 9.60001 66.3 9.80001 66 10.1C65.7 10.4 65.6 11 65.6 11.8Z" fill="white"/>
<path d="M65.6 14.5V17.4H63.9V12.3C63.9 11.4 64 10.6 64.2 10.1C64.4 9.60001 64.7 9.09999 65.2 8.79999C65.7 8.49999 66.3 8.29999 67 8.29999C68 8.29999 68.9 8.59999 69.5 9.29999C70.1 9.99999 70.4 10.8 70.4 11.7C70.4 12.6 70.1 13.4 69.5 14.1C68.9 14.7 68.2 15.1 67.3 15.1C66.7 15 66.2 14.8 65.6 14.5ZM65.6 11.8C65.6 12.3 65.7 12.8 66 13.1C66.3 13.4 66.6 13.6 67.1 13.6C67.6 13.6 67.9 13.4 68.2 13C68.5 12.6 68.6 12.1 68.6 11.5C68.6 10.9 68.5 10.4 68.2 10.1C67.9 9.80001 67.6 9.60001 67.1 9.60001C66.7 9.60001 66.3 9.80001 66 10.1C65.7 10.4 65.6 11 65.6 11.8Z" fill="#1A1A1A"/>
<path d="M74.9 10.9V12.2C74.2 12.2 73.7 12.3 73.5 12.4C73.2 12.5 73.1 12.7 73.1 13C73.1 13.2 73.2 13.4 73.4 13.5C73.6 13.6 73.8 13.7 74 13.7C74.4 13.7 74.9 13.5 75.5 13.1L76.6 14.2C75.7 14.8 74.7 15 73.8 15C73.1 15 72.5 14.8 72 14.5C71.5 14.1 71.3 13.7 71.3 13.1C71.3 12.4 71.7 11.8 72.4 11.5C71.8 11.2 71.5 10.7 71.5 10.1C71.5 9.60001 71.7 9.19999 72.1 8.79999C72.5 8.39999 73.1 8.29999 74 8.29999C74.9 8.29999 75.7 8.5 76.4 9L75.4 10.1C75 9.90001 74.6 9.79999 74.2 9.79999C73.9 9.79999 73.7 9.9 73.6 10C73.5 10.1 73.4 10.2 73.4 10.4C73.3 10.6 73.8 10.9 74.9 10.9ZM72.9 7.60001L73.7 5.79999H75.6L73.9 7.60001H72.9Z" fill="white"/>
<path d="M74.9 10.9V12.2C74.2 12.2 73.7 12.3 73.5 12.4C73.2 12.5 73.1 12.7 73.1 13C73.1 13.2 73.2 13.4 73.4 13.5C73.6 13.6 73.8 13.7 74 13.7C74.4 13.7 74.9 13.5 75.5 13.1L76.6 14.2C75.7 14.8 74.7 15 73.8 15C73.1 15 72.5 14.8 72 14.5C71.5 14.1 71.3 13.7 71.3 13.1C71.3 12.4 71.7 11.8 72.4 11.5C71.8 11.2 71.5 10.7 71.5 10.1C71.5 9.60001 71.7 9.19999 72.1 8.79999C72.5 8.39999 73.1 8.29999 74 8.29999C74.9 8.29999 75.7 8.5 76.4 9L75.4 10.1C75 9.90001 74.6 9.79999 74.2 9.79999C73.9 9.79999 73.7 9.9 73.6 10C73.5 10.1 73.4 10.2 73.4 10.4C73.3 10.6 73.8 10.9 74.9 10.9ZM72.9 7.60001L73.7 5.79999H75.6L73.9 7.60001H72.9Z" fill="#1A1A1A"/>
<path d="M84.8 8.39999V9.79999H83.2C83.5 10.3 83.7 10.9 83.7 11.6C83.7 12.5 83.4 13.4 82.8 14C82.2 14.7 81.4 15 80.4 15C79.4 15 78.6 14.7 78 14.1C77.4 13.5 77.1 12.7 77.1 11.7C77.1 10.7 77.4 9.90001 78 9.20001C78.6 8.60001 79.4 8.20001 80.5 8.20001C80.8 8.20001 81.2 8.19999 81.6 8.29999H84.8V8.39999ZM78.8 11.6C78.8 12.2 78.9 12.7 79.2 13.1C79.5 13.5 79.9 13.6 80.3 13.6C80.7 13.6 81.1 13.4 81.4 13.1C81.7 12.8 81.9 12.3 81.9 11.6C81.9 11 81.8 10.5 81.5 10.2C81.2 9.80001 80.8 9.70001 80.4 9.70001C79.9 9.70001 79.5 9.90001 79.3 10.2C79.1 10.5 78.8 11 78.8 11.6Z" fill="white"/>
<path d="M84.8 8.39999V9.79999H83.2C83.5 10.3 83.7 10.9 83.7 11.6C83.7 12.5 83.4 13.4 82.8 14C82.2 14.7 81.4 15 80.4 15C79.4 15 78.6 14.7 78 14.1C77.4 13.5 77.1 12.7 77.1 11.7C77.1 10.7 77.4 9.90001 78 9.20001C78.6 8.60001 79.4 8.20001 80.5 8.20001C80.8 8.20001 81.2 8.19999 81.6 8.29999H84.8V8.39999ZM78.8 11.6C78.8 12.2 78.9 12.7 79.2 13.1C79.5 13.5 79.9 13.6 80.3 13.6C80.7 13.6 81.1 13.4 81.4 13.1C81.7 12.8 81.9 12.3 81.9 11.6C81.9 11 81.8 10.5 81.5 10.2C81.2 9.80001 80.8 9.70001 80.4 9.70001C79.9 9.70001 79.5 9.90001 79.3 10.2C79.1 10.5 78.8 11 78.8 11.6Z" fill="#1A1A1A"/>
<path d="M89.1 10.9V12.2C88.4 12.2 87.9 12.3 87.7 12.4C87.4 12.5 87.3 12.7 87.3 13C87.3 13.2 87.4 13.4 87.6 13.5C87.8 13.6 88 13.7 88.2 13.7C88.6 13.7 89.1 13.5 89.7 13.1L90.8 14.2C89.9 14.8 88.9 15 88 15C87.3 15 86.7 14.8 86.2 14.5C85.7 14.1 85.5 13.7 85.5 13.1C85.5 12.4 85.9 11.8 86.6 11.5C86 11.2 85.7 10.7 85.7 10.1C85.7 9.60001 85.9 9.19999 86.3 8.79999C86.7 8.39999 87.3 8.29999 88.2 8.29999C89.1 8.29999 89.9 8.5 90.6 9L89.6 10.1C89.2 9.90001 88.8 9.79999 88.4 9.79999C88.1 9.79999 87.9 9.9 87.8 10C87.7 10.1 87.6 10.2 87.6 10.4C87.5 10.6 88.1 10.9 89.1 10.9Z" fill="white"/>
<path d="M89.1 10.9V12.2C88.4 12.2 87.9 12.3 87.7 12.4C87.4 12.5 87.3 12.7 87.3 13C87.3 13.2 87.4 13.4 87.6 13.5C87.8 13.6 88 13.7 88.2 13.7C88.6 13.7 89.1 13.5 89.7 13.1L90.8 14.2C89.9 14.8 88.9 15 88 15C87.3 15 86.7 14.8 86.2 14.5C85.7 14.1 85.5 13.7 85.5 13.1C85.5 12.4 85.9 11.8 86.6 11.5C86 11.2 85.7 10.7 85.7 10.1C85.7 9.60001 85.9 9.19999 86.3 8.79999C86.7 8.39999 87.3 8.29999 88.2 8.29999C89.1 8.29999 89.9 8.5 90.6 9L89.6 10.1C89.2 9.90001 88.8 9.79999 88.4 9.79999C88.1 9.79999 87.9 9.9 87.8 10C87.7 10.1 87.6 10.2 87.6 10.4C87.5 10.6 88.1 10.9 89.1 10.9Z" fill="#1A1A1A"/>
<path d="M91.9 14.9V8.39999H93.6V14.9H91.9Z" fill="white"/>
<path d="M91.9 14.9V8.39999H93.6V14.9H91.9Z" fill="#1A1A1A"/>
<path d="M96.1 12.6L95.7 8.10001V6H97.6V8.10001L97.2 12.6H96.1ZM95.7 14.9V13.2H97.4V14.9H95.7Z" fill="white"/>
<path d="M96.1 12.6L95.7 8.10001V6H97.6V8.10001L97.2 12.6H96.1ZM95.7 14.9V13.2H97.4V14.9H95.7Z" fill="#1A1A1A"/>
<path d="M10.7846 6.41935C8.19742 6.41935 6.09998 8.58575 6.09998 11.2581C6.09998 13.9304 8.19742 16.0968 10.7846 16.0968C12.47 16.0968 13.4468 15.5584 14.2945 14.6828C15.1422 13.8071 15.4509 12.4828 15.4509 11.1466C15.4509 10.9428 15.438 10.7401 15.4153 10.5395H13.5884H13.2402H10.8415V12.2503H13.528C13.4188 12.6768 13.2337 13.0655 12.9423 13.3665C12.4203 13.9056 11.8188 14.2374 10.7811 14.2374C9.18818 14.2374 7.89673 12.9034 7.89673 11.2581C7.89673 9.61271 9.18818 8.27891 10.7811 8.27891C11.5561 8.27891 12.2316 8.5075 12.7665 9.00576L14.0854 7.66703L14.0834 7.66491C13.2036 6.80788 12.0783 6.41971 10.7847 6.41971L10.7846 6.41935ZM18.383 9.20541V10.6003H17.0087V11.9631H18.383V13.3582H19.7258V11.9631H21.1V10.6003H19.7258V9.20541H18.383ZM13.2379 9.60117C13.2386 9.6022 13.2396 9.60398 13.2399 9.60524V9.60346L13.2379 9.60117Z" fill="white"/>
<path d="M10.7846 6.41935C8.19742 6.41935 6.09998 8.58575 6.09998 11.2581C6.09998 13.9304 8.19742 16.0968 10.7846 16.0968C12.47 16.0968 13.4468 15.5584 14.2945 14.6828C15.1422 13.8071 15.4509 12.4828 15.4509 11.1466C15.4509 10.9428 15.438 10.7401 15.4153 10.5395H13.5884H13.2402H10.8415V12.2503H13.528C13.4188 12.6768 13.2337 13.0655 12.9423 13.3665C12.4203 13.9056 11.8188 14.2374 10.7811 14.2374C9.18818 14.2374 7.89673 12.9034 7.89673 11.2581C7.89673 9.61271 9.18818 8.27891 10.7811 8.27891C11.5561 8.27891 12.2316 8.5075 12.7665 9.00576L14.0854 7.66703L14.0834 7.66491C13.2036 6.80788 12.0783 6.41971 10.7847 6.41971L10.7846 6.41935ZM18.383 9.20541V10.6003H17.0087V11.9631H18.383V13.3582H19.7258V11.9631H21.1V10.6003H19.7258V9.20541H18.383ZM13.2379 9.60117C13.2386 9.6022 13.2396 9.60398 13.2399 9.60524V9.60346L13.2379 9.60117Z" fill="#DD5044"/>
</svg>
