<svg width="53" height="23" viewBox="0 0 53 23" fill="none" xmlns="http://www.w3.org/2000/svg">
<path d="M3.8 0.25H49.1C50.9539 0.25 52.553 1.83098 52.65 3.80604V19.2C52.65 21.1619 51.0619 22.75 49.1 22.75H3.8C1.83808 22.75 0.25 21.1619 0.25 19.2V3.79999C0.25 1.83806 1.83807 0.25 3.8 0.25Z" fill="white" stroke="#D7D7D7" stroke-width="0.5"/>
<path d="M27.5 9.70001V8.20001H33.2V9.90002C33.2 10.5 33.2 11 33.1 11.2C33 11.5 32.9 11.8 32.8 12L32.5 12.4C32.3 12.7 32.2 12.9 32.1 13.1C32.1 13.3 32 13.4 32 13.6V14.7H30.3V13.5C30.3 13.2 30.3 12.9 30.4 12.6C30.5 12.4 30.7 12.1 30.9 11.7L31.1 11.5C31.3 11.2 31.4 10.9 31.4 10.4V9.60004H27.5V9.70001ZM27.5 17.2V11.3H29.2V17.2H27.5Z" fill="white"/>
<path d="M27.5 9.70001V8.20001H33.2V9.90002C33.2 10.5 33.2 11 33.1 11.2C33 11.5 32.9 11.8 32.8 12L32.5 12.4C32.3 12.7 32.2 12.9 32.1 13.1C32.1 13.3 32 13.4 32 13.6V14.7H30.3V13.5C30.3 13.2 30.3 12.9 30.4 12.6C30.5 12.4 30.7 12.1 30.9 11.7L31.1 11.5C31.3 11.2 31.4 10.9 31.4 10.4V9.60004H27.5V9.70001ZM27.5 17.2V11.3H29.2V17.2H27.5Z" fill="#1A1A1A"/>
<path d="M36.5 8.20001V11.8H34.7V8.20001H36.5Z" fill="white"/>
<path d="M36.5 8.20001V11.8H34.7V8.20001H36.5Z" fill="#1A1A1A"/>
<path d="M39.9 8.20001V11.8H38.1V8.20001H39.9Z" fill="white"/>
<path d="M39.9 8.20001V11.8H38.1V8.20001H39.9Z" fill="#1A1A1A"/>
<path d="M46.3 8.20001V9.90002C46.3 10.5 46.3 11 46.2 11.2C46.1 11.5 46 11.8 45.9 12L45.6 12.4C45.4 12.7 45.3 12.9 45.3 13C45.2 13.2 45.2 13.4 45.2 13.6V14.7H43.5V13.5C43.5 13.2 43.5 12.9 43.6 12.6C43.7 12.4 43.9 12.1 44.1 11.7L44.3 11.5C44.5 11.2 44.6 10.9 44.6 10.4V9.60004H41.1V5.60004H42.8V8.10004H46.3V8.20001Z" fill="white"/>
<path d="M46.3 8.20001V9.90002C46.3 10.5 46.3 11 46.2 11.2C46.1 11.5 46 11.8 45.9 12L45.6 12.4C45.4 12.7 45.3 12.9 45.3 13C45.2 13.2 45.2 13.4 45.2 13.6V14.7H43.5V13.5C43.5 13.2 43.5 12.9 43.6 12.6C43.7 12.4 43.9 12.1 44.1 11.7L44.3 11.5C44.5 11.2 44.6 10.9 44.6 10.4V9.60004H41.1V5.60004H42.8V8.10004H46.3V8.20001Z" fill="#1A1A1A"/>
<path d="M10.7846 6.41935C8.19742 6.41935 6.09998 8.58575 6.09998 11.2581C6.09998 13.9304 8.19742 16.0968 10.7846 16.0968C12.47 16.0968 13.4468 15.5584 14.2945 14.6828C15.1422 13.8071 15.4509 12.4828 15.4509 11.1466C15.4509 10.9428 15.438 10.7401 15.4153 10.5395H13.5884H13.2402H10.8415V12.2503H13.528C13.4188 12.6768 13.2337 13.0655 12.9423 13.3665C12.4203 13.9056 11.8188 14.2374 10.7811 14.2374C9.18818 14.2374 7.89673 12.9034 7.89673 11.2581C7.89673 9.61271 9.18818 8.27891 10.7811 8.27891C11.5561 8.27891 12.2316 8.5075 12.7665 9.00576L14.0854 7.66703L14.0834 7.66491C13.2036 6.80788 12.0783 6.41971 10.7847 6.41971L10.7846 6.41935ZM18.383 9.20541V10.6003H17.0087V11.9631H18.383V13.3582H19.7258V11.9631H21.1V10.6003H19.7258V9.20541H18.383ZM13.2379 9.60117C13.2386 9.6022 13.2396 9.60398 13.2399 9.60524V9.60346L13.2379 9.60117Z" fill="white"/>
<path d="M10.7846 6.41935C8.19742 6.41935 6.09998 8.58575 6.09998 11.2581C6.09998 13.9304 8.19742 16.0968 10.7846 16.0968C12.47 16.0968 13.4468 15.5584 14.2945 14.6828C15.1422 13.8071 15.4509 12.4828 15.4509 11.1466C15.4509 10.9428 15.438 10.7401 15.4153 10.5395H13.5884H13.2402H10.8415V12.2503H13.528C13.4188 12.6768 13.2337 13.0655 12.9423 13.3665C12.4203 13.9056 11.8188 14.2374 10.7811 14.2374C9.18818 14.2374 7.89673 12.9034 7.89673 11.2581C7.89673 9.61271 9.18818 8.27891 10.7811 8.27891C11.5561 8.27891 12.2316 8.5075 12.7665 9.00576L14.0854 7.66703L14.0834 7.66491C13.2036 6.80788 12.0783 6.41971 10.7847 6.41971L10.7846 6.41935ZM18.383 9.20541V10.6003H17.0087V11.9631H18.383V13.3582H19.7258V11.9631H21.1V10.6003H19.7258V9.20541H18.383ZM13.2379 9.60117C13.2386 9.6022 13.2396 9.60398 13.2399 9.60524V9.60346L13.2379 9.60117Z" fill="#DD5044"/>
</svg>
