<svg width="67" height="23" viewBox="0 0 67 23" fill="none" xmlns="http://www.w3.org/2000/svg">
<path d="M3.8 0.25H63.1C64.9539 0.25 66.553 1.83098 66.65 3.80604V19.2C66.65 21.1619 65.0619 22.75 63.1 22.75H3.8C1.83807 22.75 0.25 21.1619 0.25 19.2V3.79999C0.25 1.83806 1.83807 0.25 3.8 0.25Z" fill="white" stroke="#D7D7D7" stroke-width="0.5"/>
<path d="M27.5 9.10004L33.2 9L33.5 9.60004V9.70001H32.4V15.3L32.3 15.4L31.6 15.2V13.2C31.3 13.5 30.9 13.6 30.5 13.6C30 13.6 29.5 13.4 29.1 13C28.8 12.7 28.6 12.2 28.6 11.3C28.6 10.8 28.6 10.3 28.6 9.79999H27.8L27.5 9.10004ZM29.3 9.70001C29.3 10.3 29.3 10.8 29.3 11.4C29.3 12.4 29.6 12.9 30.2 12.9C30.6 12.9 30.9 12.8 31.2 12.5C31.5 12.2 31.6 12 31.6 11.6V9.70001H29.3Z" fill="white"/>
<path d="M27.5 9.10004L33.2 9L33.5 9.60004V9.70001H32.4V15.3L32.3 15.4L31.6 15.2V13.2C31.3 13.5 30.9 13.6 30.5 13.6C30 13.6 29.5 13.4 29.1 13C28.8 12.7 28.6 12.2 28.6 11.3C28.6 10.8 28.6 10.3 28.6 9.79999H27.8L27.5 9.10004ZM29.3 9.70001C29.3 10.3 29.3 10.8 29.3 11.4C29.3 12.4 29.6 12.9 30.2 12.9C30.6 12.9 30.9 12.8 31.2 12.5C31.5 12.2 31.6 12 31.6 11.6V9.70001H29.3Z" fill="#1A1A1A"/>
<path d="M32.9 9.10004L39.4 9L39.7 9.60004V9.70001H38.6V15.3L38.5 15.4L37.8 15.2V12.8C37.5 12.9 37.3 12.9 37 12.9C36.5 12.9 35.9 12.8 35.2 12.4C35 12.8 34.8 13 34.5 13.2C35.1 13.8 35.8 14.3 36.7 14.8L36.3 15.6H36.2C35.1 14.7 34.3 13.9 33.8 13.2C33.6 12.8 33.4 12.4 33.4 12.2C33.4 12.1 33.5 11.7 33.9 11.7C34.1 11.7 34.3 11.7 34.5 11.8C34.6 11.5 34.6 11.3 34.6 10.9C34.6 10.5 34.6 10.1 34.5 9.79999H33L32.9 9.10004ZM35.4 9.70001C35.5 10.2 35.5 10.7 35.5 11.2C35.5 11.5 35.5 11.7 35.4 12C35.8 12.1 36.2 12.2 36.5 12.2C36.9 12.2 37.3 12.1 37.8 12V9.70001H35.4Z" fill="white"/>
<path d="M32.9 9.10004L39.4 9L39.7 9.60004V9.70001H38.6V15.3L38.5 15.4L37.8 15.2V12.8C37.5 12.9 37.3 12.9 37 12.9C36.5 12.9 35.9 12.8 35.2 12.4C35 12.8 34.8 13 34.5 13.2C35.1 13.8 35.8 14.3 36.7 14.8L36.3 15.6H36.2C35.1 14.7 34.3 13.9 33.8 13.2C33.6 12.8 33.4 12.4 33.4 12.2C33.4 12.1 33.5 11.7 33.9 11.7C34.1 11.7 34.3 11.7 34.5 11.8C34.6 11.5 34.6 11.3 34.6 10.9C34.6 10.5 34.6 10.1 34.5 9.79999H33L32.9 9.10004ZM35.4 9.70001C35.5 10.2 35.5 10.7 35.5 11.2C35.5 11.5 35.5 11.7 35.4 12C35.8 12.1 36.2 12.2 36.5 12.2C36.9 12.2 37.3 12.1 37.8 12V9.70001H35.4Z" fill="#1A1A1A"/>
<path d="M37.4 7.79999L36.7 8.5L36 7.79999L36.7 7.10004L37.4 7.79999Z" fill="white"/>
<path d="M37.4 7.79999L36.7 8.5L36 7.79999L36.7 7.10004L37.4 7.79999Z" fill="#1A1A1A"/>
<path d="M39.1 9.10004L44.8 9L45.1 9.60004V9.70001H43.7V11.5L43.6 11.6H42.7C41.3 11.6 40.6 12 40.6 12.8C40.6 13.5 41.1 14.1 42 14.1C42.3 14.1 42.6 14 42.9 13.9C42.7 13.7 42.7 13.5 42.7 13.3C42.7 12.9 43 12.6 43.4 12.6C43.6 12.6 43.8 12.7 44 12.9C44.2 13.1 44.3 13.3 44.3 13.6C44.3 13.9 44.1 14.2 43.8 14.4C44.4 15 44.7 15.5 44.7 15.8C44.7 16.3 44.4 16.7 44 17L43.3 16.4C43.7 16.1 44 15.8 44 15.4C44 15.1 43.9 14.9 43.6 14.6C43.2 14.8 42.9 14.8 42.5 14.8C41 14.8 40 13.7 40 12.5C40 11.4 40.9 10.9 42.1 10.9H43C43.1 10.9 43.2 10.8 43.2 10.7V9.70001H39.6L39.1 9.10004Z" fill="white"/>
<path d="M39.1 9.10004L44.8 9L45.1 9.60004V9.70001H43.7V11.5L43.6 11.6H42.7C41.3 11.6 40.6 12 40.6 12.8C40.6 13.5 41.1 14.1 42 14.1C42.3 14.1 42.6 14 42.9 13.9C42.7 13.7 42.7 13.5 42.7 13.3C42.7 12.9 43 12.6 43.4 12.6C43.6 12.6 43.8 12.7 44 12.9C44.2 13.1 44.3 13.3 44.3 13.6C44.3 13.9 44.1 14.2 43.8 14.4C44.4 15 44.7 15.5 44.7 15.8C44.7 16.3 44.4 16.7 44 17L43.3 16.4C43.7 16.1 44 15.8 44 15.4C44 15.1 43.9 14.9 43.6 14.6C43.2 14.8 42.9 14.8 42.5 14.8C41 14.8 40 13.7 40 12.5C40 11.4 40.9 10.9 42.1 10.9H43C43.1 10.9 43.2 10.8 43.2 10.7V9.70001H39.6L39.1 9.10004Z" fill="#1A1A1A"/>
<path d="M48 9.10004L55.6 9L55.9 9.60004V9.70001H52.7V11.6C53.1 11.2 53.5 11 54 11C54.8 11 55.4 11.7 55.4 12.5C55.4 13.2 55 13.8 54.5 14.4H54.4L53.8 13.9C54.4 13.2 54.8 12.6 54.8 12C54.8 11.7 54.6 11.5 54.3 11.5C53.8 11.5 53.2 11.9 52.7 12.5V15.1L52.6 15.2L51.9 15V13.2C51.5 13.5 51.1 13.7 50.7 13.7C49.6 13.7 48.8 12.8 48.8 11.9C48.8 11 49.6 10.4 50.6 10.4C51.1 10.4 51.5 10.5 52 10.6V9.5H48.4L48 9.10004ZM52 11.3C51.7 11.2 51.4 11.2 51.1 11.2C50.2 11.2 49.6 11.8 49.6 12.4C49.6 12.9 49.9 13.2 50.4 13.2C50.9 13.2 51.5 12.9 52 12.3V11.3Z" fill="white"/>
<path d="M48 9.10004L55.6 9L55.9 9.60004V9.70001H52.7V11.6C53.1 11.2 53.5 11 54 11C54.8 11 55.4 11.7 55.4 12.5C55.4 13.2 55 13.8 54.5 14.4H54.4L53.8 13.9C54.4 13.2 54.8 12.6 54.8 12C54.8 11.7 54.6 11.5 54.3 11.5C53.8 11.5 53.2 11.9 52.7 12.5V15.1L52.6 15.2L51.9 15V13.2C51.5 13.5 51.1 13.7 50.7 13.7C49.6 13.7 48.8 12.8 48.8 11.9C48.8 11 49.6 10.4 50.6 10.4C51.1 10.4 51.5 10.5 52 10.6V9.5H48.4L48 9.10004ZM52 11.3C51.7 11.2 51.4 11.2 51.1 11.2C50.2 11.2 49.6 11.8 49.6 12.4C49.6 12.9 49.9 13.2 50.4 13.2C50.9 13.2 51.5 12.9 52 12.3V11.3Z" fill="#1A1A1A"/>
<path d="M55.3 9.10004L59.7 9L60 9.60004V9.70001H58.5C58.6 10 58.6 10.4 58.6 10.7C58.6 11.8 58.1 12.4 57.3 12.8C57.8 13.4 58.7 14 59.7 14.6L59.3 15.4H59.2C58.1 14.6 57.3 13.8 56.7 12.9C56.4 12.5 56.2 12.1 56.2 11.9C56.2 11.8 56.2 11.7 56.3 11.6C56.4 11.5 56.6 11.4 56.9 11.4C57.2 11.4 57.4 11.4 57.7 11.4C57.8 11.2 57.9 10.8 57.9 10.5C57.9 10.3 57.9 9.99999 57.8 9.79999H55.6L55.3 9.10004Z" fill="white"/>
<path d="M55.3 9.10004L59.7 9L60 9.60004V9.70001H58.5C58.6 10 58.6 10.4 58.6 10.7C58.6 11.8 58.1 12.4 57.3 12.8C57.8 13.4 58.7 14 59.7 14.6L59.3 15.4H59.2C58.1 14.6 57.3 13.8 56.7 12.9C56.4 12.5 56.2 12.1 56.2 11.9C56.2 11.8 56.2 11.7 56.3 11.6C56.4 11.5 56.6 11.4 56.9 11.4C57.2 11.4 57.4 11.4 57.7 11.4C57.8 11.2 57.9 10.8 57.9 10.5C57.9 10.3 57.9 9.99999 57.8 9.79999H55.6L55.3 9.10004Z" fill="#1A1A1A"/>
<path d="M57.9 9.20001C57.7 8.80001 57.5 8.4 57.3 8C57 7.3 56.7 7 56 7C55.6 7 55.3 7.10001 54.9 7.20001L54.7 6.20001C55 6.10001 55.4 6 55.9 6C57.1 6 57.3 6.8 58.5 9V9.10004H57.9V9.20001ZM58.9 6.70001L59.5 7.29999L58.9 7.90002L58.3 7.29999L58.9 6.70001Z" fill="white"/>
<path d="M57.9 9.20001C57.7 8.80001 57.5 8.4 57.3 8C57 7.3 56.7 7 56 7C55.6 7 55.3 7.10001 54.9 7.20001L54.7 6.20001C55 6.10001 55.4 6 55.9 6C57.1 6 57.3 6.8 58.5 9V9.10004H57.9V9.20001ZM58.9 6.70001L59.5 7.29999L58.9 7.90002L58.3 7.29999L58.9 6.70001Z" fill="#1A1A1A"/>
<path d="M10.7846 6.41936C8.19742 6.41936 6.09998 8.58575 6.09998 11.2581C6.09998 13.9304 8.19742 16.0968 10.7846 16.0968C12.47 16.0968 13.4468 15.5584 14.2945 14.6828C15.1422 13.8071 15.4509 12.4828 15.4509 11.1466C15.4509 10.9428 15.438 10.7401 15.4153 10.5395H13.5884H13.2402H10.8415V12.2503H13.528C13.4188 12.6768 13.2337 13.0655 12.9423 13.3665C12.4203 13.9056 11.8188 14.2374 10.7811 14.2374C9.18818 14.2374 7.89673 12.9034 7.89673 11.2581C7.89673 9.61272 9.18818 8.27891 10.7811 8.27891C11.5561 8.27891 12.2316 8.5075 12.7665 9.00576L14.0854 7.66703L14.0834 7.66491C13.2036 6.80788 12.0783 6.41971 10.7847 6.41971L10.7846 6.41936ZM18.383 9.20541V10.6003H17.0087V11.9631H18.383V13.3582H19.7258V11.9631H21.1V10.6003H19.7258V9.20541H18.383ZM13.2379 9.60117C13.2386 9.6022 13.2396 9.60398 13.2399 9.60524V9.60346L13.2379 9.60117Z" fill="white"/>
<path d="M10.7846 6.41936C8.19742 6.41936 6.09998 8.58575 6.09998 11.2581C6.09998 13.9304 8.19742 16.0968 10.7846 16.0968C12.47 16.0968 13.4468 15.5584 14.2945 14.6828C15.1422 13.8071 15.4509 12.4828 15.4509 11.1466C15.4509 10.9428 15.438 10.7401 15.4153 10.5395H13.5884H13.2402H10.8415V12.2503H13.528C13.4188 12.6768 13.2337 13.0655 12.9423 13.3665C12.4203 13.9056 11.8188 14.2374 10.7811 14.2374C9.18818 14.2374 7.89673 12.9034 7.89673 11.2581C7.89673 9.61272 9.18818 8.27891 10.7811 8.27891C11.5561 8.27891 12.2316 8.5075 12.7665 9.00576L14.0854 7.66703L14.0834 7.66491C13.2036 6.80788 12.0783 6.41971 10.7847 6.41971L10.7846 6.41936ZM18.383 9.20541V10.6003H17.0087V11.9631H18.383V13.3582H19.7258V11.9631H21.1V10.6003H19.7258V9.20541H18.383ZM13.2379 9.60117C13.2386 9.6022 13.2396 9.60398 13.2399 9.60524V9.60346L13.2379 9.60117Z" fill="#DD5044"/>
</svg>
