<svg width="63" height="23" viewBox="0 0 63 23" fill="none" xmlns="http://www.w3.org/2000/svg">
<path d="M3.8 0.25H59.1C60.9539 0.25 62.553 1.83098 62.65 3.80604V19.2C62.65 21.1619 61.0619 22.75 59.1 22.75H3.8C1.83807 22.75 0.25 21.1619 0.25 19.2V3.79999C0.25 1.83806 1.83807 0.25 3.8 0.25Z" fill="white" stroke="#D7D7D7" stroke-width="0.5"/>
<path d="M27.5 12.9999L29.3 12.7999C29.4 13.3999 29.6 13.7999 29.9 14.0999C30.2 14.3999 30.7 14.4999 31.2 14.4999C31.8 14.4999 32.2 14.3999 32.5 14.0999C32.8 13.8999 32.9 13.6 32.9 13.2C32.9 13 32.8 12.8 32.7 12.7C32.6 12.6 32.4 12.3999 32 12.2999C31.8 12.1999 31.3 12.1 30.6 11.9C29.6 11.7 28.9 11.3999 28.6 10.9999C28 10.4999 27.8 9.89995 27.8 9.19995C27.8 8.69995 27.9 8.29996 28.2 7.89996C28.5 7.49996 28.8 7.19994 29.3 6.99994C29.8 6.79994 30.4 6.69995 31.1 6.69995C32.2 6.69995 33.1 6.89996 33.6 7.39996C34.2 7.89996 34.5 8.59996 34.5 9.39996L32.7 9.49994C32.6 8.99994 32.5 8.69994 32.2 8.49994C31.9 8.29994 31.6 8.19995 31.1 8.19995C30.6 8.19995 30.2 8.29994 29.9 8.49994C29.7 8.59994 29.6 8.79991 29.6 9.09991C29.6 9.29991 29.7 9.49991 29.9 9.59991C30.1 9.79991 30.7 9.99995 31.6 10.2C32.5 10.4 33.1 10.5999 33.6 10.7999C34 10.9999 34.4 11.3 34.6 11.7C34.8 12.1 35 12.5999 35 13.0999C35 13.5999 34.9 14.0999 34.6 14.4999C34.3 14.8999 33.9 15.2999 33.4 15.4999C32.9 15.6999 32.2 15.7999 31.4 15.7999C30.3 15.7999 29.4 15.4999 28.8 14.9999C28 14.7999 27.6 13.9999 27.5 12.9999Z" fill="white"/>
<path d="M27.5 12.9999L29.3 12.7999C29.4 13.3999 29.6 13.7999 29.9 14.0999C30.2 14.3999 30.7 14.4999 31.2 14.4999C31.8 14.4999 32.2 14.3999 32.5 14.0999C32.8 13.8999 32.9 13.6 32.9 13.2C32.9 13 32.8 12.8 32.7 12.7C32.6 12.6 32.4 12.3999 32 12.2999C31.8 12.1999 31.3 12.1 30.6 11.9C29.6 11.7 28.9 11.3999 28.6 10.9999C28 10.4999 27.8 9.89995 27.8 9.19995C27.8 8.69995 27.9 8.29996 28.2 7.89996C28.5 7.49996 28.8 7.19994 29.3 6.99994C29.8 6.79994 30.4 6.69995 31.1 6.69995C32.2 6.69995 33.1 6.89996 33.6 7.39996C34.2 7.89996 34.5 8.59996 34.5 9.39996L32.7 9.49994C32.6 8.99994 32.5 8.69994 32.2 8.49994C31.9 8.29994 31.6 8.19995 31.1 8.19995C30.6 8.19995 30.2 8.29994 29.9 8.49994C29.7 8.59994 29.6 8.79991 29.6 9.09991C29.6 9.29991 29.7 9.49991 29.9 9.59991C30.1 9.79991 30.7 9.99995 31.6 10.2C32.5 10.4 33.1 10.5999 33.6 10.7999C34 10.9999 34.4 11.3 34.6 11.7C34.8 12.1 35 12.5999 35 13.0999C35 13.5999 34.9 14.0999 34.6 14.4999C34.3 14.8999 33.9 15.2999 33.4 15.4999C32.9 15.6999 32.2 15.7999 31.4 15.7999C30.3 15.7999 29.4 15.4999 28.8 14.9999C28 14.7999 27.6 13.9999 27.5 12.9999Z" fill="#1A1A1A"/>
<path d="M40.6 15.9V14.9C40.4 15.2 40.1 15.5 39.7 15.7C39.3 15.9 38.9 15.9999 38.5 15.9999C38.1 15.9999 37.7 15.9 37.3 15.7C36.9 15.5 36.7 15.2 36.5 14.9C36.3 14.6 36.3 14.0999 36.3 13.4999V9.39996H38V12.4C38 13.3 38 13.8999 38.1 14.0999C38.2 14.2999 38.3 14.4999 38.4 14.5999C38.5 14.6999 38.8 14.7999 39 14.7999C39.3 14.7999 39.6 14.6999 39.8 14.5999C40 14.3999 40.2 14.1999 40.3 13.9999C40.4 13.7999 40.4 13.2 40.4 12.2V9.49994H42.1V15.9999H40.6V15.9Z" fill="white"/>
<path d="M40.6 15.9V14.9C40.4 15.2 40.1 15.5 39.7 15.7C39.3 15.9 38.9 15.9999 38.5 15.9999C38.1 15.9999 37.7 15.9 37.3 15.7C36.9 15.5 36.7 15.2 36.5 14.9C36.3 14.6 36.3 14.0999 36.3 13.4999V9.39996H38V12.4C38 13.3 38 13.8999 38.1 14.0999C38.2 14.2999 38.3 14.4999 38.4 14.5999C38.5 14.6999 38.8 14.7999 39 14.7999C39.3 14.7999 39.6 14.6999 39.8 14.5999C40 14.3999 40.2 14.1999 40.3 13.9999C40.4 13.7999 40.4 13.2 40.4 12.2V9.49994H42.1V15.9999H40.6V15.9Z" fill="#1A1A1A"/>
<path d="M43.9 15.9V6.89996H45.6V11.7L47.6 9.39996H49.7L47.5 11.7999L49.9 15.9H48L46.4 12.9999L45.6 13.7999V15.9H43.9Z" fill="white"/>
<path d="M43.9 15.9V6.89996H45.6V11.7L47.6 9.39996H49.7L47.5 11.7999L49.9 15.9H48L46.4 12.9999L45.6 13.7999V15.9H43.9Z" fill="#1A1A1A"/>
<path d="M52.2 11.4L50.6 11.0999C50.8 10.4999 51.1 9.99995 51.5 9.69995C51.9 9.39995 52.6 9.19995 53.4 9.19995C54.2 9.19995 54.7 9.29994 55.1 9.49994C55.5 9.69994 55.7 9.89995 55.9 10.2C56.1 10.5 56.1 11 56.1 11.7V13.7C56.1 14.3 56.1 14.6999 56.2 14.9999C56.3 15.2999 56.4 15.6 56.5 15.9H54.8C54.8 15.8 54.7 15.6 54.6 15.4C54.6 15.3 54.6 15.2 54.5 15.2C54.2 15.5 53.9 15.6999 53.6 15.7999C53.3 15.8999 52.9 15.9999 52.5 15.9999C51.8 15.9999 51.3 15.7999 50.9 15.4999C50.5 15.0999 50.3 14.6999 50.3 14.0999C50.3 13.6999 50.4 13.3999 50.6 13.0999C50.8 12.7999 51 12.6 51.3 12.4C51.6 12.2 52.1 12.0999 52.7 11.9999C53.5 11.7999 54.1 11.6999 54.4 11.5999V11.4C54.4 11.1 54.3 10.8 54.2 10.7C54 10.6 53.7 10.4999 53.3 10.4999C53 10.4999 52.8 10.6 52.6 10.7C52.4 10.8 52.3 11.1 52.2 11.4ZM54.5 12.7999C54.3 12.8999 53.9 12.9999 53.5 13.0999C53 13.1999 52.7 13.3 52.6 13.4C52.4 13.6 52.3 13.7999 52.3 13.9999C52.3 14.1999 52.4 14.3999 52.6 14.5999C52.8 14.7999 53 14.9 53.3 14.9C53.6 14.9 53.9 14.7999 54.2 14.5999C54.4 14.3999 54.5 14.2999 54.6 13.9999C54.6 13.8999 54.7 13.6 54.7 13.2V12.7999H54.5Z" fill="white"/>
<path d="M52.2 11.4L50.6 11.0999C50.8 10.4999 51.1 9.99995 51.5 9.69995C51.9 9.39995 52.6 9.19995 53.4 9.19995C54.2 9.19995 54.7 9.29994 55.1 9.49994C55.5 9.69994 55.7 9.89995 55.9 10.2C56.1 10.5 56.1 11 56.1 11.7V13.7C56.1 14.3 56.1 14.6999 56.2 14.9999C56.3 15.2999 56.4 15.6 56.5 15.9H54.8C54.8 15.8 54.7 15.6 54.6 15.4C54.6 15.3 54.6 15.2 54.5 15.2C54.2 15.5 53.9 15.6999 53.6 15.7999C53.3 15.8999 52.9 15.9999 52.5 15.9999C51.8 15.9999 51.3 15.7999 50.9 15.4999C50.5 15.0999 50.3 14.6999 50.3 14.0999C50.3 13.6999 50.4 13.3999 50.6 13.0999C50.8 12.7999 51 12.6 51.3 12.4C51.6 12.2 52.1 12.0999 52.7 11.9999C53.5 11.7999 54.1 11.6999 54.4 11.5999V11.4C54.4 11.1 54.3 10.8 54.2 10.7C54 10.6 53.7 10.4999 53.3 10.4999C53 10.4999 52.8 10.6 52.6 10.7C52.4 10.8 52.3 11.1 52.2 11.4ZM54.5 12.7999C54.3 12.8999 53.9 12.9999 53.5 13.0999C53 13.1999 52.7 13.3 52.6 13.4C52.4 13.6 52.3 13.7999 52.3 13.9999C52.3 14.1999 52.4 14.3999 52.6 14.5999C52.8 14.7999 53 14.9 53.3 14.9C53.6 14.9 53.9 14.7999 54.2 14.5999C54.4 14.3999 54.5 14.2999 54.6 13.9999C54.6 13.8999 54.7 13.6 54.7 13.2V12.7999H54.5Z" fill="#1A1A1A"/>
<path d="M10.7846 6.41935C8.19742 6.41935 6.09998 8.58575 6.09998 11.2581C6.09998 13.9304 8.19742 16.0968 10.7846 16.0968C12.47 16.0968 13.4468 15.5584 14.2945 14.6828C15.1422 13.8071 15.4509 12.4828 15.4509 11.1466C15.4509 10.9428 15.438 10.7401 15.4153 10.5395H13.5884H13.2402H10.8415V12.2503H13.528C13.4188 12.6768 13.2337 13.0655 12.9423 13.3665C12.4203 13.9056 11.8188 14.2374 10.7811 14.2374C9.18818 14.2374 7.89673 12.9034 7.89673 11.2581C7.89673 9.61271 9.18818 8.27891 10.7811 8.27891C11.5561 8.27891 12.2316 8.5075 12.7665 9.00576L14.0854 7.66703L14.0834 7.66491C13.2036 6.80788 12.0783 6.41971 10.7847 6.41971L10.7846 6.41935ZM18.383 9.20541V10.6003H17.0087V11.9631H18.383V13.3582H19.7258V11.9631H21.1V10.6003H19.7258V9.20541H18.383ZM13.2379 9.60117C13.2386 9.6022 13.2396 9.60398 13.2399 9.60524V9.60346L13.2379 9.60117Z" fill="white"/>
<path d="M10.7846 6.41935C8.19742 6.41935 6.09998 8.58575 6.09998 11.2581C6.09998 13.9304 8.19742 16.0968 10.7846 16.0968C12.47 16.0968 13.4468 15.5584 14.2945 14.6828C15.1422 13.8071 15.4509 12.4828 15.4509 11.1466C15.4509 10.9428 15.438 10.7401 15.4153 10.5395H13.5884H13.2402H10.8415V12.2503H13.528C13.4188 12.6768 13.2337 13.0655 12.9423 13.3665C12.4203 13.9056 11.8188 14.2374 10.7811 14.2374C9.18818 14.2374 7.89673 12.9034 7.89673 11.2581C7.89673 9.61271 9.18818 8.27891 10.7811 8.27891C11.5561 8.27891 12.2316 8.5075 12.7665 9.00576L14.0854 7.66703L14.0834 7.66491C13.2036 6.80788 12.0783 6.41971 10.7847 6.41971L10.7846 6.41935ZM18.383 9.20541V10.6003H17.0087V11.9631H18.383V13.3582H19.7258V11.9631H21.1V10.6003H19.7258V9.20541H18.383ZM13.2379 9.60117C13.2386 9.6022 13.2396 9.60398 13.2399 9.60524V9.60346L13.2379 9.60117Z" fill="#DD5044"/>
</svg>
