<svg width="83" height="23" viewBox="0 0 83 23" fill="none" xmlns="http://www.w3.org/2000/svg">
<path d="M3.8 0.25H79.1C80.9539 0.25 82.553 1.83098 82.65 3.80604V19.2C82.65 21.1619 81.0619 22.75 79.1 22.75H3.8C1.83807 22.75 0.25 21.1619 0.25 19.2V3.79999C0.25 1.83806 1.83807 0.25 3.8 0.25Z" fill="white" stroke="#D7D7D7" stroke-width="0.5"/>
<path d="M27.5 15.9V6.90002H30.2L31.8 13L33.4 6.90002H36.1V15.9H34.4V8.79999L32.6 15.9H30.9L29.1 8.79999V15.9H27.5Z" fill="white"/>
<path d="M27.5 15.9V6.90002H30.2L31.8 13L33.4 6.90002H36.1V15.9H34.4V8.79999L32.6 15.9H30.9L29.1 8.79999V15.9H27.5Z" fill="#1A1A1A"/>
<path d="M37.9 8.5V6.90002H39.6V8.5H37.9ZM37.9 15.9V9.40002H39.6V15.9H37.9Z" fill="white"/>
<path d="M37.9 8.5V6.90002H39.6V8.5H37.9ZM37.9 15.9V9.40002H39.6V15.9H37.9Z" fill="#1A1A1A"/>
<path d="M44.9 15.9V6.90002H47.8C48.9 6.90002 49.6 6.9 50 7C50.5 7.1 50.9 7.40002 51.3 7.90002C51.6 8.40002 51.8 8.89998 51.8 9.59998C51.8 10.2 51.7 10.6 51.5 11C51.3 11.4 51 11.7 50.7 11.9C50.4 12.1 50.1 12.3 49.8 12.3C49.4 12.4 48.7 12.4 47.9 12.4H46.7V15.8H44.9V15.9ZM46.7 8.5V11H47.7C48.4 11 48.9 11 49.1 10.9C49.3 10.8 49.5 10.7 49.7 10.5C49.8 10.3 49.9 10.1 49.9 9.79999C49.9 9.49999 49.8 9.2 49.6 9C49.4 8.8 49.2 8.69998 48.9 8.59998C48.7 8.59998 48.2 8.5 47.6 8.5H46.7Z" fill="white"/>
<path d="M44.9 15.9V6.90002H47.8C48.9 6.90002 49.6 6.9 50 7C50.5 7.1 50.9 7.40002 51.3 7.90002C51.6 8.40002 51.8 8.89998 51.8 9.59998C51.8 10.2 51.7 10.6 51.5 11C51.3 11.4 51 11.7 50.7 11.9C50.4 12.1 50.1 12.3 49.8 12.3C49.4 12.4 48.7 12.4 47.9 12.4H46.7V15.8H44.9V15.9ZM46.7 8.5V11H47.7C48.4 11 48.9 11 49.1 10.9C49.3 10.8 49.5 10.7 49.7 10.5C49.8 10.3 49.9 10.1 49.9 9.79999C49.9 9.49999 49.8 9.2 49.6 9C49.4 8.8 49.2 8.69998 48.9 8.59998C48.7 8.59998 48.2 8.5 47.6 8.5H46.7Z" fill="#1A1A1A"/>
<path d="M53.2 8.5V6.90002H54.9V8.5H53.2ZM53.2 15.9V9.40002H54.9V15.9H53.2Z" fill="white"/>
<path d="M53.2 8.5V6.90002H54.9V8.5H53.2ZM53.2 15.9V9.40002H54.9V15.9H53.2Z" fill="#1A1A1A"/>
<path d="M58 11.4L56.4 11.1C56.6 10.5 56.9 10 57.3 9.70001C57.7 9.40001 58.4 9.20001 59.2 9.20001C60 9.20001 60.5 9.3 60.9 9.5C61.3 9.7 61.5 9.90001 61.7 10.2C61.9 10.5 61.9 11 61.9 11.7V13.7C61.9 14.3 61.9 14.7 62 15C62.1 15.3 62.2 15.6 62.3 15.9H60.7C60.7 15.8 60.6 15.6 60.5 15.4C60.5 15.3 60.5 15.2 60.4 15.2C60.1 15.5 59.8 15.7 59.5 15.8C59.2 15.9 58.8 16 58.4 16C57.7 16 57.2 15.8 56.8 15.5C56.4 15.1 56.2 14.7 56.2 14.1C56.2 13.7 56.3 13.4 56.5 13.1C56.7 12.8 56.9 12.6 57.2 12.4C57.5 12.2 58 12.1 58.6 12C59.4 11.8 60 11.7 60.3 11.6V11.5C60.3 11.2 60.2 10.9 60.1 10.8C59.9 10.7 59.6 10.6 59.2 10.6C58.9 10.6 58.7 10.7 58.5 10.8C58.3 10.9 58.1 11.1 58 11.4ZM60.3 12.8C60.1 12.9 59.7 13 59.3 13.1C58.8 13.2 58.5 13.3 58.4 13.4C58.2 13.6 58.1 13.8 58.1 14C58.1 14.2 58.2 14.4 58.4 14.6C58.6 14.8 58.8 14.9 59.1 14.9C59.4 14.9 59.7 14.8 60 14.6C60.2 14.4 60.3 14.3 60.4 14C60.4 13.9 60.5 13.6 60.5 13.2V12.8H60.3Z" fill="white"/>
<path d="M58 11.4L56.4 11.1C56.6 10.5 56.9 10 57.3 9.70001C57.7 9.40001 58.4 9.20001 59.2 9.20001C60 9.20001 60.5 9.3 60.9 9.5C61.3 9.7 61.5 9.90001 61.7 10.2C61.9 10.5 61.9 11 61.9 11.7V13.7C61.9 14.3 61.9 14.7 62 15C62.1 15.3 62.2 15.6 62.3 15.9H60.7C60.7 15.8 60.6 15.6 60.5 15.4C60.5 15.3 60.5 15.2 60.4 15.2C60.1 15.5 59.8 15.7 59.5 15.8C59.2 15.9 58.8 16 58.4 16C57.7 16 57.2 15.8 56.8 15.5C56.4 15.1 56.2 14.7 56.2 14.1C56.2 13.7 56.3 13.4 56.5 13.1C56.7 12.8 56.9 12.6 57.2 12.4C57.5 12.2 58 12.1 58.6 12C59.4 11.8 60 11.7 60.3 11.6V11.5C60.3 11.2 60.2 10.9 60.1 10.8C59.9 10.7 59.6 10.6 59.2 10.6C58.9 10.6 58.7 10.7 58.5 10.8C58.3 10.9 58.1 11.1 58 11.4ZM60.3 12.8C60.1 12.9 59.7 13 59.3 13.1C58.8 13.2 58.5 13.3 58.4 13.4C58.2 13.6 58.1 13.8 58.1 14C58.1 14.2 58.2 14.4 58.4 14.6C58.6 14.8 58.8 14.9 59.1 14.9C59.4 14.9 59.7 14.8 60 14.6C60.2 14.4 60.3 14.3 60.4 14C60.4 13.9 60.5 13.6 60.5 13.2V12.8H60.3Z" fill="#1A1A1A"/>
<path d="M69.3 11.3L67.6 11.6C67.5 11.3 67.4 11 67.2 10.8C67 10.6 66.7 10.5 66.4 10.5C66 10.5 65.6 10.6 65.4 10.9C65.2 11.2 65 11.7 65 12.4C65 13.2 65.1 13.7 65.4 14C65.7 14.3 66 14.5 66.4 14.5C66.7 14.5 67 14.4 67.2 14.2C67.4 14 67.6 13.7 67.6 13.2L69.3 13.5C69.1 14.3 68.8 14.9 68.3 15.3C67.8 15.7 67.1 15.9 66.3 15.9C65.4 15.9 64.6 15.6 64 15C63.4 14.4 63.2 13.6 63.2 12.5C63.2 11.4 63.5 10.6 64 10C64.6 9.4 65.3 9.09998 66.3 9.09998C67.1 9.09998 67.7 9.29998 68.2 9.59998C68.8 10.1 69.1 10.6 69.3 11.3Z" fill="white"/>
<path d="M69.3 11.3L67.6 11.6C67.5 11.3 67.4 11 67.2 10.8C67 10.6 66.7 10.5 66.4 10.5C66 10.5 65.6 10.6 65.4 10.9C65.2 11.2 65 11.7 65 12.4C65 13.2 65.1 13.7 65.4 14C65.7 14.3 66 14.5 66.4 14.5C66.7 14.5 67 14.4 67.2 14.2C67.4 14 67.6 13.7 67.6 13.2L69.3 13.5C69.1 14.3 68.8 14.9 68.3 15.3C67.8 15.7 67.1 15.9 66.3 15.9C65.4 15.9 64.6 15.6 64 15C63.4 14.4 63.2 13.6 63.2 12.5C63.2 11.4 63.5 10.6 64 10C64.6 9.4 65.3 9.09998 66.3 9.09998C67.1 9.09998 67.7 9.29998 68.2 9.59998C68.8 10.1 69.1 10.6 69.3 11.3Z" fill="#1A1A1A"/>
<path d="M74.4 13.8L76.1 14.1C75.9 14.7 75.5 15.2 75.1 15.5C74.7 15.8 74 16 73.3 16C72.2 16 71.3 15.6 70.8 14.9C70.4 14.3 70.2 13.6 70.2 12.7C70.2 11.6 70.5 10.8 71 10.2C71.6 9.60001 72.3 9.29999 73.1 9.29999C74.1 9.29999 74.8 9.59999 75.4 10.3C76 10.9 76.2 11.9 76.2 13.2H71.9C71.9 13.7 72.1 14.1 72.3 14.4C72.6 14.7 72.9 14.8 73.3 14.8C73.6 14.8 73.8 14.7 74 14.6C74.2 14.4 74.3 14.2 74.4 13.8ZM74.5 12.1C74.5 11.6 74.4 11.2 74.1 11C73.8 10.8 73.6 10.6 73.2 10.6C72.8 10.6 72.5 10.7 72.3 11C72.1 11.3 71.9 11.6 71.9 12.1H74.5Z" fill="white"/>
<path d="M74.4 13.8L76.1 14.1C75.9 14.7 75.5 15.2 75.1 15.5C74.7 15.8 74 16 73.3 16C72.2 16 71.3 15.6 70.8 14.9C70.4 14.3 70.2 13.6 70.2 12.7C70.2 11.6 70.5 10.8 71 10.2C71.6 9.60001 72.3 9.29999 73.1 9.29999C74.1 9.29999 74.8 9.59999 75.4 10.3C76 10.9 76.2 11.9 76.2 13.2H71.9C71.9 13.7 72.1 14.1 72.3 14.4C72.6 14.7 72.9 14.8 73.3 14.8C73.6 14.8 73.8 14.7 74 14.6C74.2 14.4 74.3 14.2 74.4 13.8ZM74.5 12.1C74.5 11.6 74.4 11.2 74.1 11C73.8 10.8 73.6 10.6 73.2 10.6C72.8 10.6 72.5 10.7 72.3 11C72.1 11.3 71.9 11.6 71.9 12.1H74.5Z" fill="#1A1A1A"/>
<path d="M10.7846 6.41936C8.19742 6.41936 6.09998 8.58575 6.09998 11.2581C6.09998 13.9304 8.19742 16.0968 10.7846 16.0968C12.47 16.0968 13.4468 15.5584 14.2945 14.6828C15.1422 13.8071 15.4509 12.4828 15.4509 11.1466C15.4509 10.9428 15.438 10.7401 15.4153 10.5395H13.5884H13.2402H10.8415V12.2503H13.528C13.4188 12.6768 13.2337 13.0655 12.9423 13.3665C12.4203 13.9056 11.8188 14.2374 10.7811 14.2374C9.18818 14.2374 7.89673 12.9034 7.89673 11.2581C7.89673 9.61272 9.18818 8.27891 10.7811 8.27891C11.5561 8.27891 12.2316 8.5075 12.7665 9.00577L14.0854 7.66703L14.0834 7.66491C13.2036 6.80788 12.0783 6.41971 10.7847 6.41971L10.7846 6.41936ZM18.383 9.20542V10.6003H17.0087V11.9631H18.383V13.3582H19.7258V11.9631H21.1V10.6003H19.7258V9.20542H18.383ZM13.2379 9.60117C13.2386 9.6022 13.2396 9.60398 13.2399 9.60524V9.60346L13.2379 9.60117Z" fill="white"/>
<path d="M10.7846 6.41936C8.19742 6.41936 6.09998 8.58575 6.09998 11.2581C6.09998 13.9304 8.19742 16.0968 10.7846 16.0968C12.47 16.0968 13.4468 15.5584 14.2945 14.6828C15.1422 13.8071 15.4509 12.4828 15.4509 11.1466C15.4509 10.9428 15.438 10.7401 15.4153 10.5395H13.5884H13.2402H10.8415V12.2503H13.528C13.4188 12.6768 13.2337 13.0655 12.9423 13.3665C12.4203 13.9056 11.8188 14.2374 10.7811 14.2374C9.18818 14.2374 7.89673 12.9034 7.89673 11.2581C7.89673 9.61272 9.18818 8.27891 10.7811 8.27891C11.5561 8.27891 12.2316 8.5075 12.7665 9.00577L14.0854 7.66703L14.0834 7.66491C13.2036 6.80788 12.0783 6.41971 10.7847 6.41971L10.7846 6.41936ZM18.383 9.20542V10.6003H17.0087V11.9631H18.383V13.3582H19.7258V11.9631H21.1V10.6003H19.7258V9.20542H18.383ZM13.2379 9.60117C13.2386 9.6022 13.2396 9.60398 13.2399 9.60524V9.60346L13.2379 9.60117Z" fill="#DD5044"/>
</svg>
