<svg width="70" height="23" viewBox="0 0 70 23" fill="none" xmlns="http://www.w3.org/2000/svg">
<path d="M3.8 0.25H66.1C67.9539 0.25 69.553 1.83098 69.65 3.80604V19.2C69.65 21.1619 68.0619 22.75 66.1 22.75H3.8C1.83807 22.75 0.25 21.1619 0.25 19.2V3.79999C0.25 1.83806 1.83807 0.25 3.8 0.25Z" fill="white" stroke="#D7D7D7" stroke-width="0.5"/>
<path d="M29 7.3999C29 7.4999 28.8 7.59991 28.7 7.59991C28.6 8.49991 28.5 9.69989 28.5 10.6999C28.5 11.1999 28.4999 11.5999 28.5999 11.9999C28.7999 14.0999 29.5999 15.3999 30.5999 15.3999C31.0999 15.3999 31.8 14.0999 32.2 12.6999C32.4 12.8999 32.6999 13.0999 32.8999 13.1999C32.2999 14.8999 31.5999 16.2999 30.5999 16.2999C28.9999 16.2999 27.9 14.3999 27.7 11.9999C27.7 11.4999 27.7 10.9999 27.7 10.3999C27.7 9.2999 27.7999 8.09988 27.8999 6.99988L29 7.3999ZM37.3 13.1999C36.9 10.9999 35.7999 9.39988 34.0999 8.49988L34.7 7.79987C36.5 8.79987 37.9 10.5999 38.2 12.8999L37.3 13.1999Z" fill="white"/>
<path d="M29 7.3999C29 7.4999 28.8 7.59991 28.7 7.59991C28.6 8.49991 28.5 9.69989 28.5 10.6999C28.5 11.1999 28.4999 11.5999 28.5999 11.9999C28.7999 14.0999 29.5999 15.3999 30.5999 15.3999C31.0999 15.3999 31.8 14.0999 32.2 12.6999C32.4 12.8999 32.6999 13.0999 32.8999 13.1999C32.2999 14.8999 31.5999 16.2999 30.5999 16.2999C28.9999 16.2999 27.9 14.3999 27.7 11.9999C27.7 11.4999 27.7 10.9999 27.7 10.3999C27.7 9.2999 27.7999 8.09988 27.8999 6.99988L29 7.3999ZM37.3 13.1999C36.9 10.9999 35.7999 9.39988 34.0999 8.49988L34.7 7.79987C36.5 8.79987 37.9 10.5999 38.2 12.8999L37.3 13.1999Z" fill="#1A1A1A"/>
<path d="M41.4999 7.3999C41.4999 7.4999 41.3 7.59991 41.2 7.59991C41.1 8.49991 40.9999 9.69989 40.9999 10.6999C40.9999 11.1999 40.9999 11.5999 41.0999 11.9999C41.1999 14.0999 42.0999 15.3999 43.0999 15.3999C43.5999 15.3999 44.3 14.0999 44.7 12.6999C44.9 12.8999 45.2 13.0999 45.4 13.1999C44.8 14.8999 44.0999 16.2999 43.0999 16.2999C41.4999 16.2999 40.4 14.3999 40.2 11.9999C40.2 11.4999 40.2 10.9999 40.2 10.3999C40.2 9.2999 40.2999 8.09988 40.3999 6.99988L41.4999 7.3999ZM49.8 13.1999C49.4 10.9999 48.2999 9.39988 46.5999 8.49988L47.2 7.79987C49 8.79987 50.4 10.5999 50.7 12.8999L49.8 13.1999Z" fill="white"/>
<path d="M41.4999 7.3999C41.4999 7.4999 41.3 7.59991 41.2 7.59991C41.1 8.49991 40.9999 9.69989 40.9999 10.6999C40.9999 11.1999 40.9999 11.5999 41.0999 11.9999C41.1999 14.0999 42.0999 15.3999 43.0999 15.3999C43.5999 15.3999 44.3 14.0999 44.7 12.6999C44.9 12.8999 45.2 13.0999 45.4 13.1999C44.8 14.8999 44.0999 16.2999 43.0999 16.2999C41.4999 16.2999 40.4 14.3999 40.2 11.9999C40.2 11.4999 40.2 10.9999 40.2 10.3999C40.2 9.2999 40.2999 8.09988 40.3999 6.99988L41.4999 7.3999ZM49.8 13.1999C49.4 10.9999 48.2999 9.39988 46.5999 8.49988L47.2 7.79987C49 8.79987 50.4 10.5999 50.7 12.8999L49.8 13.1999Z" fill="#1A1A1A"/>
<path d="M52.3 8.3999C53.2 8.3999 54.1 8.39989 54.8 8.19989C54.8 7.89989 54.9 6.2999 54.9 5.8999L56.0999 5.99988C56.0999 6.09988 56 6.19989 55.8 6.19989C55.7 6.69989 55.7 7.39988 55.7 7.99988L56.2 8.19989C56 8.59989 55.7999 9.2999 55.5999 9.8999C55.5999 10.0999 55.5999 10.1999 55.5999 10.3999C56.8999 9.2999 58.5 8.59991 59.8 8.59991C61.7 8.59991 62.5999 9.89989 62.5999 12.1999C62.5999 12.9999 62.5 13.7999 62.3 14.3999C62.7 14.6999 63.1 15.0999 63.4 15.4999L62.8 16.1999C62.6 15.8999 62.2 15.4999 61.9 15.1999C61.4 16.0999 60.7 16.6999 59.4 16.6999C58.2 16.6999 57.4 15.9999 57.4 14.9999C57.4 13.9999 58.2999 13.1999 59.4999 13.1999C60.2999 13.1999 60.9999 13.4999 61.5999 13.8999C61.7999 13.3999 61.8 12.7999 61.8 12.1999C61.8 10.4999 61.1 9.3999 59.8 9.3999C58.6 9.3999 57 10.0999 55.7 11.2999C55.7 12.0999 55.7 16.0999 55.7 16.9999H54.8C54.8 15.8999 54.8 13.1999 54.8 11.6999C54.5 12.3999 53.7 13.6999 52.7 14.8999L52.2 14.0999C53.3 12.9999 54.2 11.4999 54.9 9.99988V8.99988C54.4 9.09988 53.4999 9.09991 52.4999 9.09991V8.3999H52.3ZM61.2 14.6999C60.6 14.1999 60 13.9999 59.3 13.9999C58.6 13.9999 57.9999 14.3999 57.9999 14.9999C57.9999 15.5999 58.6 15.9999 59.3 15.9999C60.4 15.9999 61 15.1999 61.2 14.6999Z" fill="white"/>
<path d="M52.3 8.3999C53.2 8.3999 54.1 8.39989 54.8 8.19989C54.8 7.89989 54.9 6.2999 54.9 5.8999L56.0999 5.99988C56.0999 6.09988 56 6.19989 55.8 6.19989C55.7 6.69989 55.7 7.39988 55.7 7.99988L56.2 8.19989C56 8.59989 55.7999 9.2999 55.5999 9.8999C55.5999 10.0999 55.5999 10.1999 55.5999 10.3999C56.8999 9.2999 58.5 8.59991 59.8 8.59991C61.7 8.59991 62.5999 9.89989 62.5999 12.1999C62.5999 12.9999 62.5 13.7999 62.3 14.3999C62.7 14.6999 63.1 15.0999 63.4 15.4999L62.8 16.1999C62.6 15.8999 62.2 15.4999 61.9 15.1999C61.4 16.0999 60.7 16.6999 59.4 16.6999C58.2 16.6999 57.4 15.9999 57.4 14.9999C57.4 13.9999 58.2999 13.1999 59.4999 13.1999C60.2999 13.1999 60.9999 13.4999 61.5999 13.8999C61.7999 13.3999 61.8 12.7999 61.8 12.1999C61.8 10.4999 61.1 9.3999 59.8 9.3999C58.6 9.3999 57 10.0999 55.7 11.2999C55.7 12.0999 55.7 16.0999 55.7 16.9999H54.8C54.8 15.8999 54.8 13.1999 54.8 11.6999C54.5 12.3999 53.7 13.6999 52.7 14.8999L52.2 14.0999C53.3 12.9999 54.2 11.4999 54.9 9.99988V8.99988C54.4 9.09988 53.4999 9.09991 52.4999 9.09991V8.3999H52.3ZM61.2 14.6999C60.6 14.1999 60 13.9999 59.3 13.9999C58.6 13.9999 57.9999 14.3999 57.9999 14.9999C57.9999 15.5999 58.6 15.9999 59.3 15.9999C60.4 15.9999 61 15.1999 61.2 14.6999Z" fill="#1A1A1A"/>
<path d="M10.7846 6.41936C8.19742 6.41936 6.09998 8.58575 6.09998 11.2581C6.09998 13.9304 8.19742 16.0968 10.7846 16.0968C12.47 16.0968 13.4468 15.5584 14.2945 14.6828C15.1422 13.8071 15.4509 12.4828 15.4509 11.1466C15.4509 10.9428 15.438 10.7401 15.4153 10.5395H13.5884H13.2402H10.8415V12.2503H13.528C13.4188 12.6768 13.2337 13.0655 12.9423 13.3665C12.4203 13.9056 11.8188 14.2374 10.7811 14.2374C9.18818 14.2374 7.89673 12.9034 7.89673 11.2581C7.89673 9.61272 9.18818 8.27891 10.7811 8.27891C11.5561 8.27891 12.2316 8.5075 12.7665 9.00577L14.0854 7.66703L14.0834 7.66491C13.2036 6.80788 12.0783 6.41971 10.7847 6.41971L10.7846 6.41936ZM18.383 9.20542V10.6003H17.0087V11.9631H18.383V13.3582H19.7258V11.9631H21.1V10.6003H19.7258V9.20542H18.383ZM13.2379 9.60117C13.2386 9.6022 13.2396 9.60398 13.2399 9.60524V9.60346L13.2379 9.60117Z" fill="white"/>
<path d="M10.7846 6.41936C8.19742 6.41936 6.09998 8.58575 6.09998 11.2581C6.09998 13.9304 8.19742 16.0968 10.7846 16.0968C12.47 16.0968 13.4468 15.5584 14.2945 14.6828C15.1422 13.8071 15.4509 12.4828 15.4509 11.1466C15.4509 10.9428 15.438 10.7401 15.4153 10.5395H13.5884H13.2402H10.8415V12.2503H13.528C13.4188 12.6768 13.2337 13.0655 12.9423 13.3665C12.4203 13.9056 11.8188 14.2374 10.7811 14.2374C9.18818 14.2374 7.89673 12.9034 7.89673 11.2581C7.89673 9.61272 9.18818 8.27891 10.7811 8.27891C11.5561 8.27891 12.2316 8.5075 12.7665 9.00577L14.0854 7.66703L14.0834 7.66491C13.2036 6.80788 12.0783 6.41971 10.7847 6.41971L10.7846 6.41936ZM18.383 9.20542V10.6003H17.0087V11.9631H18.383V13.3582H19.7258V11.9631H21.1V10.6003H19.7258V9.20542H18.383ZM13.2379 9.60117C13.2386 9.6022 13.2396 9.60398 13.2399 9.60524V9.60346L13.2379 9.60117Z" fill="#DD5044"/>
</svg>
