<svg width="70" height="23" viewBox="0 0 70 23" fill="none" xmlns="http://www.w3.org/2000/svg">
<path d="M3.8 0.25H66.1C67.9539 0.25 69.553 1.83098 69.65 3.80604V19.2C69.65 21.1619 68.0619 22.75 66.1 22.75H3.8C1.83807 22.75 0.25 21.1619 0.25 19.2V3.79999C0.25 1.83806 1.83807 0.25 3.8 0.25Z" fill="white" stroke="#D7D7D7" stroke-width="0.5"/>
<path d="M32.8 10.4C32.8 10.2 32.7 10.1 32.2 9.90002C32 9.90002 31.9 9.80001 31.9 9.70001C31.9 9.60001 32 9.6 32.3 9.5C33.5 9.6 33.7 9.70002 33.7 9.90002C33.7 10 33.7 10.1 33.6 10.2V11.4C34.1 11.4 35.8 11.3 36.5 11.3C37 11.2 36.9 11 37.5 11C37.7 11 38.8 11 38.8 11.5C38.8 11.7 38.7 11.8 38.4 11.8C38 11.8 36 11.8 35.6 11.8C33.9 11.8 30.8 11.9 29.8 12.1C29.5 12.2 29.4 12.3 29.2 12.3C28.9 12.3 27.6 11.7 27.6 11.5C27.6 11.5 27.6 11.4 27.8 11.4C27.9 11.4 28 11.4 28.1 11.4C28.6 11.5 29.3 11.5 30.2 11.5C31.1 11.5 32 11.5 33 11.5V10.4H32.8ZM34.1 6.40002C34.8 6.40002 34.4 6.20001 35.3 6.20001C35.8 6.20001 35.9 6.30002 35.9 6.40002C35.9 6.50002 35.6 6.60001 35.5 6.70001C34.9 7.30001 34 7.89999 33.4 8.29999C33.7 8.49999 34.5 8.60004 35.4 8.60004C35.7 8.60004 35.8 8.5 36.1 8.5C36.3 8.5 36.7 8.59999 37.5 8.79999C37.7 8.89999 37.8 9.00004 37.8 9.10004C37.8 9.20004 37.7 9.29999 37.4 9.29999C37.2 9.29999 34.1 8.70002 33 8.40002C31.9 8.90002 28.8 10 28.2 10C28.1 10 28 10 28 10C28 10 28.1 9.89999 28.4 9.79999C30.2 9.19999 33.2 8 34.5 6.5C33.6 6.5 31.9 6.60001 30.8 6.70001C30.5 6.80001 30.5 6.90002 30.3 6.90002C30.1 6.90002 29 6.49999 29 6.29999C29 6.29999 29.1 6.29999 29.2 6.29999C29.3 6.29999 29.3 6.29999 29.4 6.29999C29.8 6.39999 30.3 6.40002 31 6.40002C31.9 6.40002 33 6.29999 34.2 6.29999H34.1V6.40002ZM36.8 13.8C34.2 13.7 34 13.7 33.3 13.7C33.4 13.9 33.5 14 33.5 14L33.4 14.2C34.7 14.4 35.2 15 35.2 15.7C35.2 16.5 34.4 17.3 33.2 17.3C32 17.3 31.2 16.5 31.2 15.7C31.2 15.1 31.7 14.5 32.8 14.2C32.9 14.2 32.9 14.1 32.9 14C32.9 13.9 32.8 13.8 32.7 13.7C32.2 13.7 31.8 13.7 31 13.8C30.6 13.9 30.6 14 30.4 14C30.1 14 29 13.5 29 13.4C29 13.4 29.1 13.4 29.2 13.4C29.3 13.4 29.3 13.4 29.4 13.4C30.3 13.5 31 13.5 31.8 13.5C32.1 13.5 34.5 13.5 34.8 13.4C35.6 13.4 35.3 13.1 36.5 13.1C36.9 13.1 37.3 13.1 37.3 13.5C37.2 13.7 37.1 13.8 36.8 13.8ZM32.5 12.8C32.2 12.8 31.4 12.3 31.4 12.1C31.4 12.1 31.4 12.1 31.5 12.1C31.6 12.1 31.6 12.1 31.8 12.1C32.3 12.2 33.1 12.2 34.2 12.2C34.4 12.2 34.5 12.3 34.5 12.4C34.5 12.6 34.2 12.8 33.6 12.8H32.5ZM31.8 15.7C31.8 16.3 32.2 16.8 33.1 16.8C34 16.8 34.4 16.2 34.4 15.7C34.4 15.1 33.9 14.6 33.1 14.6C32.3 14.6 31.8 15.1 31.8 15.7Z" fill="white"/>
<path d="M32.8 10.4C32.8 10.2 32.7 10.1 32.2 9.90002C32 9.90002 31.9 9.80001 31.9 9.70001C31.9 9.60001 32 9.6 32.3 9.5C33.5 9.6 33.7 9.70002 33.7 9.90002C33.7 10 33.7 10.1 33.6 10.2V11.4C34.1 11.4 35.8 11.3 36.5 11.3C37 11.2 36.9 11 37.5 11C37.7 11 38.8 11 38.8 11.5C38.8 11.7 38.7 11.8 38.4 11.8C38 11.8 36 11.8 35.6 11.8C33.9 11.8 30.8 11.9 29.8 12.1C29.5 12.2 29.4 12.3 29.2 12.3C28.9 12.3 27.6 11.7 27.6 11.5C27.6 11.5 27.6 11.4 27.8 11.4C27.9 11.4 28 11.4 28.1 11.4C28.6 11.5 29.3 11.5 30.2 11.5C31.1 11.5 32 11.5 33 11.5V10.4H32.8ZM34.1 6.40002C34.8 6.40002 34.4 6.20001 35.3 6.20001C35.8 6.20001 35.9 6.30002 35.9 6.40002C35.9 6.50002 35.6 6.60001 35.5 6.70001C34.9 7.30001 34 7.89999 33.4 8.29999C33.7 8.49999 34.5 8.60004 35.4 8.60004C35.7 8.60004 35.8 8.5 36.1 8.5C36.3 8.5 36.7 8.59999 37.5 8.79999C37.7 8.89999 37.8 9.00004 37.8 9.10004C37.8 9.20004 37.7 9.29999 37.4 9.29999C37.2 9.29999 34.1 8.70002 33 8.40002C31.9 8.90002 28.8 10 28.2 10C28.1 10 28 10 28 10C28 10 28.1 9.89999 28.4 9.79999C30.2 9.19999 33.2 8 34.5 6.5C33.6 6.5 31.9 6.60001 30.8 6.70001C30.5 6.80001 30.5 6.90002 30.3 6.90002C30.1 6.90002 29 6.49999 29 6.29999C29 6.29999 29.1 6.29999 29.2 6.29999C29.3 6.29999 29.3 6.29999 29.4 6.29999C29.8 6.39999 30.3 6.40002 31 6.40002C31.9 6.40002 33 6.29999 34.2 6.29999H34.1V6.40002ZM36.8 13.8C34.2 13.7 34 13.7 33.3 13.7C33.4 13.9 33.5 14 33.5 14L33.4 14.2C34.7 14.4 35.2 15 35.2 15.7C35.2 16.5 34.4 17.3 33.2 17.3C32 17.3 31.2 16.5 31.2 15.7C31.2 15.1 31.7 14.5 32.8 14.2C32.9 14.2 32.9 14.1 32.9 14C32.9 13.9 32.8 13.8 32.7 13.7C32.2 13.7 31.8 13.7 31 13.8C30.6 13.9 30.6 14 30.4 14C30.1 14 29 13.5 29 13.4C29 13.4 29.1 13.4 29.2 13.4C29.3 13.4 29.3 13.4 29.4 13.4C30.3 13.5 31 13.5 31.8 13.5C32.1 13.5 34.5 13.5 34.8 13.4C35.6 13.4 35.3 13.1 36.5 13.1C36.9 13.1 37.3 13.1 37.3 13.5C37.2 13.7 37.1 13.8 36.8 13.8ZM32.5 12.8C32.2 12.8 31.4 12.3 31.4 12.1C31.4 12.1 31.4 12.1 31.5 12.1C31.6 12.1 31.6 12.1 31.8 12.1C32.3 12.2 33.1 12.2 34.2 12.2C34.4 12.2 34.5 12.3 34.5 12.4C34.5 12.6 34.2 12.8 33.6 12.8H32.5ZM31.8 15.7C31.8 16.3 32.2 16.8 33.1 16.8C34 16.8 34.4 16.2 34.4 15.7C34.4 15.1 33.9 14.6 33.1 14.6C32.3 14.6 31.8 15.1 31.8 15.7Z" fill="#1A1A1A"/>
<path d="M42.9 8.60004C43.1 8.60004 43.3 8.40001 43.3 8.20001C43.3 8.10001 43.3 8.00002 43.2 7.90002C43.1 7.80002 43.1 7.70001 43.1 7.70001C43.1 7.60001 43.1 7.60004 43.2 7.60004C43.5 7.60004 44 7.90004 44 8.10004C44 8.20004 43.8 8.40004 43.7 8.60004C45.2 8.90004 45.8 9.89999 45.8 10.8C45.8 12 44.8 13.1 43.1 13.1C41.5 13.1 40.5 12 40.5 10.8C40.5 9.89999 41.2 8.90004 42.9 8.60004ZM41.2 10.9C41.2 11.8 41.8 12.7 43.1 12.7C44.4 12.7 45 11.8 45 10.9C45 10 44.4 9.10004 43.1 9.10004C41.9 9.10004 41.2 10 41.2 10.9ZM48.2 6.70001C48.2 6.50001 47.5 6.20002 47 5.90002C46.9 5.80002 46.8 5.80001 46.8 5.70001C46.8 5.60001 47 5.6 47.3 5.5C47.8 5.6 48.3 5.69999 48.7 5.79999C49 5.89999 49 6.00004 49 6.10004C49 6.20004 49 6.3 49 6.5V11.1H49.6C50.2 11 50 10.8 50.8 10.8C51 10.8 51.6 10.8 51.6 11.2C51.6 11.4 51.4 11.5 51.2 11.5H49V15.1C49 15.9 48.9 16.4 48.7 17C48.6 17.2 48.5 17.2 48.4 17.2C48.3 17.2 48.2 17 48.2 16.6V6.70001Z" fill="white"/>
<path d="M42.9 8.60004C43.1 8.60004 43.3 8.40001 43.3 8.20001C43.3 8.10001 43.3 8.00002 43.2 7.90002C43.1 7.80002 43.1 7.70001 43.1 7.70001C43.1 7.60001 43.1 7.60004 43.2 7.60004C43.5 7.60004 44 7.90004 44 8.10004C44 8.20004 43.8 8.40004 43.7 8.60004C45.2 8.90004 45.8 9.89999 45.8 10.8C45.8 12 44.8 13.1 43.1 13.1C41.5 13.1 40.5 12 40.5 10.8C40.5 9.89999 41.2 8.90004 42.9 8.60004ZM41.2 10.9C41.2 11.8 41.8 12.7 43.1 12.7C44.4 12.7 45 11.8 45 10.9C45 10 44.4 9.10004 43.1 9.10004C41.9 9.10004 41.2 10 41.2 10.9ZM48.2 6.70001C48.2 6.50001 47.5 6.20002 47 5.90002C46.9 5.80002 46.8 5.80001 46.8 5.70001C46.8 5.60001 47 5.6 47.3 5.5C47.8 5.6 48.3 5.69999 48.7 5.79999C49 5.89999 49 6.00004 49 6.10004C49 6.20004 49 6.3 49 6.5V11.1H49.6C50.2 11 50 10.8 50.8 10.8C51 10.8 51.6 10.8 51.6 11.2C51.6 11.4 51.4 11.5 51.2 11.5H49V15.1C49 15.9 48.9 16.4 48.7 17C48.6 17.2 48.5 17.2 48.4 17.2C48.3 17.2 48.2 17 48.2 16.6V6.70001Z" fill="#1A1A1A"/>
<path d="M63.3 15.6C62.5 15.5 61.4 15.5 60.3 15.5C58.2 15.5 56 15.6 54.8 15.7C54.5 15.8 54.4 15.9 54.2 15.9C53.9 15.9 52.6 15.3 52.6 15.2C52.6 15.2 52.7 15.1 52.8 15.1C52.8 15.1 52.9 15.1 53 15.1C53.9 15.2 55.1 15.3 56.3 15.2C56.3 14.9 56.2 14.3 56.2 13.9C56.1 13.7 56 13.6 55.4 13.4C55.3 13.4 55.2 13.3 55.2 13.3C55.2 13.2 55.3 13.2 55.6 13.1C56.9 13.2 57.1 13.3 57.1 13.5C57.1 13.6 57.1 13.6 57.1 13.7C57.1 13.8 57.1 14.9 57.1 15.1C57.5 15.1 58.9 15.1 59.8 15C59.8 14.7 59.9 14.1 59.9 13.4C59.9 13.1 59.6 13 59.3 12.9C59.2 12.9 59.1 12.8 59.1 12.8C59.1 12.8 59.2 12.7 59.5 12.7C60.6 12.9 60.8 13 60.8 13.2C60.8 13.3 60.7 13.4 60.7 13.6C60.6 14 60.5 14.7 60.4 15.2C60.7 15.2 61.1 15.2 61.6 15.1C62 15.1 62 14.9 62.6 14.9C62.9 14.9 64 14.9 64 15.4C64 15.5 63.9 15.7 63.6 15.7H63.3V15.6ZM57.6 7.29999C57.8 7.29999 58 7.2 58 7C58 6.9 58 6.89999 57.9 6.79999C57.8 6.69999 57.7 6.60004 57.7 6.60004C57.7 6.60004 57.8 6.5 57.9 6.5C58.3 6.5 58.7 6.80002 58.7 6.90002C58.7 7.00002 58.5 7.19999 58.5 7.29999C60.3 7.59999 61.1 8.69999 61.1 9.79999C61.1 11.1 60 12.3 58.2 12.3C56.3 12.3 55.3 11 55.3 9.70001C55.2 8.60001 56 7.49999 57.6 7.29999ZM55.9 9.70001C55.9 10.7 56.6 11.7 58.1 11.7C59.6 11.7 60.3 10.7 60.3 9.70001C60.3 8.70001 59.6 7.70001 58.1 7.70001C56.7 7.80001 55.9 8.70001 55.9 9.70001Z" fill="white"/>
<path d="M63.3 15.6C62.5 15.5 61.4 15.5 60.3 15.5C58.2 15.5 56 15.6 54.8 15.7C54.5 15.8 54.4 15.9 54.2 15.9C53.9 15.9 52.6 15.3 52.6 15.2C52.6 15.2 52.7 15.1 52.8 15.1C52.8 15.1 52.9 15.1 53 15.1C53.9 15.2 55.1 15.3 56.3 15.2C56.3 14.9 56.2 14.3 56.2 13.9C56.1 13.7 56 13.6 55.4 13.4C55.3 13.4 55.2 13.3 55.2 13.3C55.2 13.2 55.3 13.2 55.6 13.1C56.9 13.2 57.1 13.3 57.1 13.5C57.1 13.6 57.1 13.6 57.1 13.7C57.1 13.8 57.1 14.9 57.1 15.1C57.5 15.1 58.9 15.1 59.8 15C59.8 14.7 59.9 14.1 59.9 13.4C59.9 13.1 59.6 13 59.3 12.9C59.2 12.9 59.1 12.8 59.1 12.8C59.1 12.8 59.2 12.7 59.5 12.7C60.6 12.9 60.8 13 60.8 13.2C60.8 13.3 60.7 13.4 60.7 13.6C60.6 14 60.5 14.7 60.4 15.2C60.7 15.2 61.1 15.2 61.6 15.1C62 15.1 62 14.9 62.6 14.9C62.9 14.9 64 14.9 64 15.4C64 15.5 63.9 15.7 63.6 15.7H63.3V15.6ZM57.6 7.29999C57.8 7.29999 58 7.2 58 7C58 6.9 58 6.89999 57.9 6.79999C57.8 6.69999 57.7 6.60004 57.7 6.60004C57.7 6.60004 57.8 6.5 57.9 6.5C58.3 6.5 58.7 6.80002 58.7 6.90002C58.7 7.00002 58.5 7.19999 58.5 7.29999C60.3 7.59999 61.1 8.69999 61.1 9.79999C61.1 11.1 60 12.3 58.2 12.3C56.3 12.3 55.3 11 55.3 9.70001C55.2 8.60001 56 7.49999 57.6 7.29999ZM55.9 9.70001C55.9 10.7 56.6 11.7 58.1 11.7C59.6 11.7 60.3 10.7 60.3 9.70001C60.3 8.70001 59.6 7.70001 58.1 7.70001C56.7 7.80001 55.9 8.70001 55.9 9.70001Z" fill="#1A1A1A"/>
<path d="M10.7846 6.41936C8.19742 6.41936 6.09998 8.58575 6.09998 11.2581C6.09998 13.9304 8.19742 16.0968 10.7846 16.0968C12.47 16.0968 13.4468 15.5584 14.2945 14.6828C15.1422 13.8071 15.4509 12.4828 15.4509 11.1466C15.4509 10.9428 15.438 10.7401 15.4153 10.5395H13.5884H13.2402H10.8415V12.2503H13.528C13.4188 12.6768 13.2337 13.0655 12.9423 13.3665C12.4203 13.9056 11.8188 14.2374 10.7811 14.2374C9.18818 14.2374 7.89673 12.9034 7.89673 11.2581C7.89673 9.61272 9.18818 8.27891 10.7811 8.27891C11.5561 8.27891 12.2316 8.5075 12.7665 9.00577L14.0854 7.66703L14.0834 7.66491C13.2036 6.80788 12.0783 6.41971 10.7847 6.41971L10.7846 6.41936ZM18.383 9.20542V10.6003H17.0087V11.9631H18.383V13.3582H19.7258V11.9631H21.1V10.6003H19.7258V9.20542H18.383ZM13.2379 9.60117C13.2386 9.6022 13.2396 9.60398 13.2399 9.60524V9.60346L13.2379 9.60117Z" fill="white"/>
<path d="M10.7846 6.41936C8.19742 6.41936 6.09998 8.58575 6.09998 11.2581C6.09998 13.9304 8.19742 16.0968 10.7846 16.0968C12.47 16.0968 13.4468 15.5584 14.2945 14.6828C15.1422 13.8071 15.4509 12.4828 15.4509 11.1466C15.4509 10.9428 15.438 10.7401 15.4153 10.5395H13.5884H13.2402H10.8415V12.2503H13.528C13.4188 12.6768 13.2337 13.0655 12.9423 13.3665C12.4203 13.9056 11.8188 14.2374 10.7811 14.2374C9.18818 14.2374 7.89673 12.9034 7.89673 11.2581C7.89673 9.61272 9.18818 8.27891 10.7811 8.27891C11.5561 8.27891 12.2316 8.5075 12.7665 9.00577L14.0854 7.66703L14.0834 7.66491C13.2036 6.80788 12.0783 6.41971 10.7847 6.41971L10.7846 6.41936ZM18.383 9.20542V10.6003H17.0087V11.9631H18.383V13.3582H19.7258V11.9631H21.1V10.6003H19.7258V9.20542H18.383ZM13.2379 9.60117C13.2386 9.6022 13.2396 9.60398 13.2399 9.60524V9.60346L13.2379 9.60117Z" fill="#DD5044"/>
</svg>
