<svg width="67" height="23" viewBox="0 0 67 23" fill="none" xmlns="http://www.w3.org/2000/svg">
<path d="M3.8 0.25H63.1C64.9539 0.25 66.553 1.83098 66.65 3.80604V19.2C66.65 21.1619 65.0619 22.75 63.1 22.75H3.8C1.83807 22.75 0.25 21.1619 0.25 19.2V3.79999C0.25 1.83806 1.83807 0.25 3.8 0.25Z" fill="white" stroke="#D7D7D7" stroke-width="0.5"/>
<path d="M33.9 12.7999C33.9 13.3999 33.8 13.8 33.7 14.2C33.6 14.5 33.4 14.7999 33.2 14.9999C32.9 15.1999 32.6 15.3999 32.1 15.4999C31.6 15.5999 31.1 15.7 30.6 15.7C29.6 15.7 28.8 15.5 28.3 15.2C27.8 14.8 27.5 14.3 27.5 13.7C27.5 13.1 27.6 12.5999 27.8 12.0999C28 11.5999 28.4 10.8999 28.9 10.0999L29.3 10.4C28.9 11.1 28.6 11.6 28.5 11.9C28.4 12.2 28.3 12.5 28.3 12.9C28.3 13.3 28.5 13.7 29 13.9C29.5 14.2 30.1 14.2999 30.8 14.2999C31.5 14.2999 32.2 14.2 32.7 13.9C33.2 13.6 33.5 13.3 33.5 12.9C33.5 12.6 33.5 12.3999 33.4 12.0999C33.3 11.8999 33.1 11.5 32.8 10.9L33.3 9.19995C33.6 9.69995 33.8 10.0999 33.8 10.2999C33.9 10.6999 34 11.1 34 11.7V12.7999H33.9ZM31.9 7.99994L31.2 9.39996L29.8 8.69995L30.5 7.29993L31.9 7.99994Z" fill="white"/>
<path d="M33.9 12.7999C33.9 13.3999 33.8 13.8 33.7 14.2C33.6 14.5 33.4 14.7999 33.2 14.9999C32.9 15.1999 32.6 15.3999 32.1 15.4999C31.6 15.5999 31.1 15.7 30.6 15.7C29.6 15.7 28.8 15.5 28.3 15.2C27.8 14.8 27.5 14.3 27.5 13.7C27.5 13.1 27.6 12.5999 27.8 12.0999C28 11.5999 28.4 10.8999 28.9 10.0999L29.3 10.4C28.9 11.1 28.6 11.6 28.5 11.9C28.4 12.2 28.3 12.5 28.3 12.9C28.3 13.3 28.5 13.7 29 13.9C29.5 14.2 30.1 14.2999 30.8 14.2999C31.5 14.2999 32.2 14.2 32.7 13.9C33.2 13.6 33.5 13.3 33.5 12.9C33.5 12.6 33.5 12.3999 33.4 12.0999C33.3 11.8999 33.1 11.5 32.8 10.9L33.3 9.19995C33.6 9.69995 33.8 10.0999 33.8 10.2999C33.9 10.6999 34 11.1 34 11.7V12.7999H33.9ZM31.9 7.99994L31.2 9.39996L29.8 8.69995L30.5 7.29993L31.9 7.99994Z" fill="#1A1A1A"/>
<path d="M38.2 13.0999H35.4C35.1 13.0999 34.9 13 34.8 12.9C34.6 12.8 34.5 12.5 34.5 12.2C34.5 12 34.5 11.7999 34.5 11.5999C34.5 11.3999 34.5 11.1999 34.6 10.9999H34.8C34.8 11.0999 34.9 11.1999 35 11.2999C35.1 11.3999 35.2 11.4 35.4 11.4H37.5C37.4 10.8 37.2 10.2999 37 9.99994C36.8 9.69994 36.5 9.39995 36.2 9.19995L36.6 7.29993C37.1 7.69993 37.5 8.19993 37.7 8.79993C37.9 9.39993 38 10.0999 38 11.0999V13.0999H38.2Z" fill="white"/>
<path d="M38.2 13.0999H35.4C35.1 13.0999 34.9 13 34.8 12.9C34.6 12.8 34.5 12.5 34.5 12.2C34.5 12 34.5 11.7999 34.5 11.5999C34.5 11.3999 34.5 11.1999 34.6 10.9999H34.8C34.8 11.0999 34.9 11.1999 35 11.2999C35.1 11.3999 35.2 11.4 35.4 11.4H37.5C37.4 10.8 37.2 10.2999 37 9.99994C36.8 9.69994 36.5 9.39995 36.2 9.19995L36.6 7.29993C37.1 7.69993 37.5 8.19993 37.7 8.79993C37.9 9.39993 38 10.0999 38 11.0999V13.0999H38.2Z" fill="#1A1A1A"/>
<path d="M41.6 13.0999H37.8V11.4H41C41 11.1 40.9 10.9 40.8 10.7C40.7 10.6 40.6 10.4 40.4 10.2L40.9 8.69995C41.2 8.99995 41.4 9.39993 41.5 9.79993C41.6 10.1999 41.7 10.6999 41.7 11.4999V13.0999H41.6ZM41.5 14.2L40.9 15.4L40 14.9L39.5 15.9L38.4 15.2999L39.1 14.0999L40 14.5999L40.5 13.5999L41.5 14.2Z" fill="white"/>
<path d="M41.6 13.0999H37.8V11.4H41C41 11.1 40.9 10.9 40.8 10.7C40.7 10.6 40.6 10.4 40.4 10.2L40.9 8.69995C41.2 8.99995 41.4 9.39993 41.5 9.79993C41.6 10.1999 41.7 10.6999 41.7 11.4999V13.0999H41.6ZM41.5 14.2L40.9 15.4L40 14.9L39.5 15.9L38.4 15.2999L39.1 14.0999L40 14.5999L40.5 13.5999L41.5 14.2Z" fill="#1A1A1A"/>
<path d="M45.9 13.0999H43.1C42.8 13.0999 42.6 13 42.5 12.9C42.3 12.8 42.2 12.5 42.2 12.2C42.2 12 42.2 11.7999 42.2 11.5999C42.2 11.3999 42.2 11.1999 42.3 10.9999H42.5C42.5 11.0999 42.6 11.1999 42.7 11.2999C42.8 11.3999 42.9 11.4 43.1 11.4H45.2C45.1 10.8 44.9 10.2999 44.7 9.99994C44.5 9.69994 44.2 9.39995 43.9 9.19995L44.3 7.29993C44.8 7.69993 45.2 8.19993 45.4 8.79993C45.6 9.39993 45.7 10.0999 45.7 11.0999V13.0999H45.9Z" fill="white"/>
<path d="M45.9 13.0999H43.1C42.8 13.0999 42.6 13 42.5 12.9C42.3 12.8 42.2 12.5 42.2 12.2C42.2 12 42.2 11.7999 42.2 11.5999C42.2 11.3999 42.2 11.1999 42.3 10.9999H42.5C42.5 11.0999 42.6 11.1999 42.7 11.2999C42.8 11.3999 42.9 11.4 43.1 11.4H45.2C45.1 10.8 44.9 10.2999 44.7 9.99994C44.5 9.69994 44.2 9.39995 43.9 9.19995L44.3 7.29993C44.8 7.69993 45.2 8.19993 45.4 8.79993C45.6 9.39993 45.7 10.0999 45.7 11.0999V13.0999H45.9Z" fill="#1A1A1A"/>
<path d="M49.3 13.0999H45.5V11.4H48.7C48.7 11.1 48.6 10.9 48.5 10.7C48.4 10.6 48.3 10.4 48.1 10.2L48.6 8.69995C48.9 8.99995 49.1 9.39993 49.2 9.79993C49.3 10.1999 49.4 10.6999 49.4 11.4999V13.0999H49.3ZM49.3 6.39996L48.6 7.79993L47.2 7.09991L47.9 5.69995L49.3 6.39996Z" fill="white"/>
<path d="M49.3 13.0999H45.5V11.4H48.7C48.7 11.1 48.6 10.9 48.5 10.7C48.4 10.6 48.3 10.4 48.1 10.2L48.6 8.69995C48.9 8.99995 49.1 9.39993 49.2 9.79993C49.3 10.1999 49.4 10.6999 49.4 11.4999V13.0999H49.3ZM49.3 6.39996L48.6 7.79993L47.2 7.09991L47.9 5.69995L49.3 6.39996Z" fill="#1A1A1A"/>
<path d="M56.9 13.0999C56.4 13.0999 56.1 13.0999 55.8 12.9999C55.5 12.8999 55.2 12.8 54.9 12.7C54.7 12.9 54.5 12.9999 54.3 12.9999C54.1 13.0999 53.8 13.0999 53.5 13.0999H52.5C52.2 13.0999 52 13 51.9 12.9C51.7 12.8 51.6 12.5 51.5 12.2C51.3 12.5 51 12.8 50.7 12.9C50.5 13 50.2 13.0999 49.9 13.0999H49V11.4H49.9C50.3 11.4 50.7 11.2999 51 10.9999C51.4 10.6999 51.6 10.1999 51.6 9.59991L52 9.69995C52 9.79995 52 9.99991 52 10.0999C52 10.2999 52 10.5 52 10.7C52 10.9 52.1 11.1 52.2 11.2C52.3 11.3 52.5 11.4 52.7 11.4H53.5C54 11.4 54.4 11.3 54.6 11.2C54.9 11 55 10.6999 55 10.2999C55 10.1999 55 10.0999 55.1 9.99994C55.1 9.99994 55.2 9.89993 55.3 9.79993L55.5 9.59991C55.5 9.69991 55.5 9.79996 55.5 9.89996C55.5 9.99996 55.5 10.1 55.5 10.2C55.5 10.4 55.5 10.6999 55.4 11.0999C55.6 11.1999 55.7 11.1999 55.9 11.2999C56.1 11.3999 56.3 11.4 56.5 11.4C56.5 11.3 56.4 11.1 56.3 10.9C56.2 10.7 56.1 10.4999 56.1 10.4999C56.1 10.3999 56.1 10.2999 56.1 10.2999C56.1 10.2999 56.2 10.1999 56.2 10.0999L56.7 9.39996C56.8 9.69996 56.9 9.89991 56.9 10.0999C56.9 10.2999 57 10.6 57 10.9V13.0999H56.9Z" fill="white"/>
<path d="M56.9 13.0999C56.4 13.0999 56.1 13.0999 55.8 12.9999C55.5 12.8999 55.2 12.8 54.9 12.7C54.7 12.9 54.5 12.9999 54.3 12.9999C54.1 13.0999 53.8 13.0999 53.5 13.0999H52.5C52.2 13.0999 52 13 51.9 12.9C51.7 12.8 51.6 12.5 51.5 12.2C51.3 12.5 51 12.8 50.7 12.9C50.5 13 50.2 13.0999 49.9 13.0999H49V11.4H49.9C50.3 11.4 50.7 11.2999 51 10.9999C51.4 10.6999 51.6 10.1999 51.6 9.59991L52 9.69995C52 9.79995 52 9.99991 52 10.0999C52 10.2999 52 10.5 52 10.7C52 10.9 52.1 11.1 52.2 11.2C52.3 11.3 52.5 11.4 52.7 11.4H53.5C54 11.4 54.4 11.3 54.6 11.2C54.9 11 55 10.6999 55 10.2999C55 10.1999 55 10.0999 55.1 9.99994C55.1 9.99994 55.2 9.89993 55.3 9.79993L55.5 9.59991C55.5 9.69991 55.5 9.79996 55.5 9.89996C55.5 9.99996 55.5 10.1 55.5 10.2C55.5 10.4 55.5 10.6999 55.4 11.0999C55.6 11.1999 55.7 11.1999 55.9 11.2999C56.1 11.3999 56.3 11.4 56.5 11.4C56.5 11.3 56.4 11.1 56.3 10.9C56.2 10.7 56.1 10.4999 56.1 10.4999C56.1 10.3999 56.1 10.2999 56.1 10.2999C56.1 10.2999 56.2 10.1999 56.2 10.0999L56.7 9.39996C56.8 9.69996 56.9 9.89991 56.9 10.0999C56.9 10.2999 57 10.6 57 10.9V13.0999H56.9Z" fill="#1A1A1A"/>
<path d="M60.3 13.0999H56.5V11.4H59.7C59.7 11.1 59.6 10.9 59.5 10.7C59.4 10.6 59.3 10.4 59.1 10.2L59.6 8.69995C59.9 8.99995 60.1 9.39993 60.2 9.79993C60.3 10.1999 60.4 10.6999 60.4 11.4999V13.0999H60.3ZM60.2 14.2L59.6 15.4L58.7 14.9L58.2 15.9L57.1 15.2999L57.8 14.0999L58.7 14.5999L59.2 13.5999L60.2 14.2ZM60 16.0999L59.4 17.2999L58.3 16.7L58.9 15.4L60 16.0999Z" fill="white"/>
<path d="M60.3 13.0999H56.5V11.4H59.7C59.7 11.1 59.6 10.9 59.5 10.7C59.4 10.6 59.3 10.4 59.1 10.2L59.6 8.69995C59.9 8.99995 60.1 9.39993 60.2 9.79993C60.3 10.1999 60.4 10.6999 60.4 11.4999V13.0999H60.3ZM60.2 14.2L59.6 15.4L58.7 14.9L58.2 15.9L57.1 15.2999L57.8 14.0999L58.7 14.5999L59.2 13.5999L60.2 14.2ZM60 16.0999L59.4 17.2999L58.3 16.7L58.9 15.4L60 16.0999Z" fill="#1A1A1A"/>
<path d="M10.7846 6.41936C8.19742 6.41936 6.09998 8.58575 6.09998 11.2581C6.09998 13.9304 8.19742 16.0968 10.7846 16.0968C12.47 16.0968 13.4468 15.5584 14.2945 14.6828C15.1422 13.8071 15.4509 12.4828 15.4509 11.1466C15.4509 10.9428 15.438 10.7401 15.4153 10.5395H13.5884H13.2402H10.8415V12.2503H13.528C13.4188 12.6768 13.2337 13.0655 12.9423 13.3665C12.4203 13.9056 11.8188 14.2374 10.7811 14.2374C9.18818 14.2374 7.89673 12.9034 7.89673 11.2581C7.89673 9.61272 9.18818 8.27891 10.7811 8.27891C11.5561 8.27891 12.2316 8.5075 12.7665 9.00577L14.0854 7.66703L14.0834 7.66491C13.2036 6.80788 12.0783 6.41971 10.7847 6.41971L10.7846 6.41936ZM18.383 9.20542V10.6003H17.0087V11.9631H18.383V13.3582H19.7258V11.9631H21.1V10.6003H19.7258V9.20542H18.383ZM13.2379 9.60117C13.2386 9.6022 13.2396 9.60398 13.2399 9.60524V9.60346L13.2379 9.60117Z" fill="white"/>
<path d="M10.7846 6.41936C8.19742 6.41936 6.09998 8.58575 6.09998 11.2581C6.09998 13.9304 8.19742 16.0968 10.7846 16.0968C12.47 16.0968 13.4468 15.5584 14.2945 14.6828C15.1422 13.8071 15.4509 12.4828 15.4509 11.1466C15.4509 10.9428 15.438 10.7401 15.4153 10.5395H13.5884H13.2402H10.8415V12.2503H13.528C13.4188 12.6768 13.2337 13.0655 12.9423 13.3665C12.4203 13.9056 11.8188 14.2374 10.7811 14.2374C9.18818 14.2374 7.89673 12.9034 7.89673 11.2581C7.89673 9.61272 9.18818 8.27891 10.7811 8.27891C11.5561 8.27891 12.2316 8.5075 12.7665 9.00577L14.0854 7.66703L14.0834 7.66491C13.2036 6.80788 12.0783 6.41971 10.7847 6.41971L10.7846 6.41936ZM18.383 9.20542V10.6003H17.0087V11.9631H18.383V13.3582H19.7258V11.9631H21.1V10.6003H19.7258V9.20542H18.383ZM13.2379 9.60117C13.2386 9.6022 13.2396 9.60398 13.2399 9.60524V9.60346L13.2379 9.60117Z" fill="#DD5044"/>
</svg>
