<svg width="67" height="23" viewBox="0 0 67 23" fill="none" xmlns="http://www.w3.org/2000/svg">
<path d="M3.8 0.25H63.1C64.9539 0.25 66.553 1.83098 66.65 3.80604V19.2C66.65 21.1619 65.0619 22.75 63.1 22.75H3.8C1.83807 22.75 0.25 21.1619 0.25 19.2V3.79999C0.25 1.83806 1.83807 0.25 3.8 0.25Z" fill="white" stroke="#D7D7D7" stroke-width="0.5"/>
<path d="M27.5 15.9V6.90002H30.4C31.5 6.90002 32.2 6.9 32.6 7C33.1 7.1 33.5 7.40002 33.9 7.90002C34.2 8.40002 34.4 8.89998 34.4 9.59998C34.4 10.2 34.3 10.6 34.1 11C33.9 11.4 33.6 11.7 33.3 11.9C33 12.1 32.7 12.3 32.4 12.3C32 12.4 31.3 12.4 30.5 12.4H29.3V15.8H27.5V15.9ZM29.3 8.5V11H30.3C31 11 31.5 11 31.7 10.9C31.9 10.8 32.1 10.7 32.3 10.5C32.4 10.3 32.5 10.1 32.5 9.79999C32.5 9.49999 32.4 9.2 32.2 9C32 8.8 31.8 8.69998 31.5 8.59998C31.3 8.59998 30.8 8.5 30.2 8.5H29.3Z" fill="white"/>
<path d="M27.5 15.9V6.90002H30.4C31.5 6.90002 32.2 6.9 32.6 7C33.1 7.1 33.5 7.40002 33.9 7.90002C34.2 8.40002 34.4 8.89998 34.4 9.59998C34.4 10.2 34.3 10.6 34.1 11C33.9 11.4 33.6 11.7 33.3 11.9C33 12.1 32.7 12.3 32.4 12.3C32 12.4 31.3 12.4 30.5 12.4H29.3V15.8H27.5V15.9ZM29.3 8.5V11H30.3C31 11 31.5 11 31.7 10.9C31.9 10.8 32.1 10.7 32.3 10.5C32.4 10.3 32.5 10.1 32.5 9.79999C32.5 9.49999 32.4 9.2 32.2 9C32 8.8 31.8 8.69998 31.5 8.59998C31.3 8.59998 30.8 8.5 30.2 8.5H29.3Z" fill="#1A1A1A"/>
<path d="M35.4 12.6C35.4 12 35.5 11.5 35.8 10.9C36.1 10.4 36.5 10 37 9.70001C37.5 9.40001 38.1 9.29999 38.7 9.29999C39.7 9.29999 40.5 9.59999 41.1 10.3C41.7 10.9 42 11.7 42 12.7C42 13.7 41.7 14.5 41 15.1C40.4 15.7 39.6 16.1 38.6 16.1C38 16.1 37.4 16 36.9 15.7C36.4 15.4 35.9 15 35.7 14.5C35.6 13.9 35.4 13.3 35.4 12.6ZM37.2 12.7C37.2 13.3 37.4 13.8 37.7 14.2C38 14.5 38.4 14.7 38.8 14.7C39.2 14.7 39.6 14.5 39.9 14.2C40.2 13.9 40.4 13.4 40.4 12.7C40.4 12.1 40.2 11.6 39.9 11.2C39.6 10.9 39.2 10.7 38.8 10.7C38.4 10.7 38 10.9 37.7 11.2C37.4 11.5 37.2 12 37.2 12.7Z" fill="white"/>
<path d="M35.4 12.6C35.4 12 35.5 11.5 35.8 10.9C36.1 10.4 36.5 10 37 9.70001C37.5 9.40001 38.1 9.29999 38.7 9.29999C39.7 9.29999 40.5 9.59999 41.1 10.3C41.7 10.9 42 11.7 42 12.7C42 13.7 41.7 14.5 41 15.1C40.4 15.7 39.6 16.1 38.6 16.1C38 16.1 37.4 16 36.9 15.7C36.4 15.4 35.9 15 35.7 14.5C35.6 13.9 35.4 13.3 35.4 12.6ZM37.2 12.7C37.2 13.3 37.4 13.8 37.7 14.2C38 14.5 38.4 14.7 38.8 14.7C39.2 14.7 39.6 14.5 39.9 14.2C40.2 13.9 40.4 13.4 40.4 12.7C40.4 12.1 40.2 11.6 39.9 11.2C39.6 10.9 39.2 10.7 38.8 10.7C38.4 10.7 38 10.9 37.7 11.2C37.4 11.5 37.2 12 37.2 12.7Z" fill="#1A1A1A"/>
<path d="M43.5 15.9V6.90002H45.2V15.9H43.5Z" fill="white"/>
<path d="M43.5 15.9V6.90002H45.2V15.9H43.5Z" fill="#1A1A1A"/>
<path d="M51.2 15.9V14.9C51 15.2 50.7 15.5 50.3 15.7C49.9 15.9 49.5 16 49.1 16C48.7 16 48.3 15.9 47.9 15.7C47.5 15.5 47.3 15.2 47.1 14.9C46.9 14.6 46.9 14.1 46.9 13.5V9.40002H48.6V12.4C48.6 13.3 48.6 13.9 48.7 14.1C48.8 14.3 48.9 14.5 49 14.6C49.1 14.7 49.4 14.8 49.6 14.8C49.9 14.8 50.2 14.7 50.4 14.6C50.6 14.4 50.8 14.2 50.9 14C51 13.8 51 13.2 51 12.2V9.5H52.7V16H51.2V15.9Z" fill="white"/>
<path d="M51.2 15.9V14.9C51 15.2 50.7 15.5 50.3 15.7C49.9 15.9 49.5 16 49.1 16C48.7 16 48.3 15.9 47.9 15.7C47.5 15.5 47.3 15.2 47.1 14.9C46.9 14.6 46.9 14.1 46.9 13.5V9.40002H48.6V12.4C48.6 13.3 48.6 13.9 48.7 14.1C48.8 14.3 48.9 14.5 49 14.6C49.1 14.7 49.4 14.8 49.6 14.8C49.9 14.8 50.2 14.7 50.4 14.6C50.6 14.4 50.8 14.2 50.9 14C51 13.8 51 13.2 51 12.2V9.5H52.7V16H51.2V15.9Z" fill="#1A1A1A"/>
<path d="M54.5 15.9V6.90002H56.2V10.1C56.7 9.49998 57.4 9.20001 58.1 9.20001C58.9 9.20001 59.5 9.49998 60.1 10.1C60.6 10.7 60.9 11.5 60.9 12.6C60.9 13.7 60.6 14.6 60.1 15.2C59.6 15.8 58.9 16.1 58.2 16.1C57.8 16.1 57.5 16 57.1 15.8C56.7 15.6 56.4 15.3 56.2 15V16H54.5V15.9ZM56.2 12.5C56.2 13.2 56.3 13.7 56.5 14C56.8 14.5 57.2 14.7 57.7 14.7C58.1 14.7 58.4 14.5 58.7 14.2C59 13.9 59.1 13.4 59.1 12.7C59.1 12 59 11.4 58.7 11.1C58.4 10.8 58.1 10.6 57.7 10.6C57.3 10.6 56.9 10.8 56.7 11.1C56.5 11.4 56.2 11.9 56.2 12.5Z" fill="white"/>
<path d="M54.5 15.9V6.90002H56.2V10.1C56.7 9.49998 57.4 9.20001 58.1 9.20001C58.9 9.20001 59.5 9.49998 60.1 10.1C60.6 10.7 60.9 11.5 60.9 12.6C60.9 13.7 60.6 14.6 60.1 15.2C59.6 15.8 58.9 16.1 58.2 16.1C57.8 16.1 57.5 16 57.1 15.8C56.7 15.6 56.4 15.3 56.2 15V16H54.5V15.9ZM56.2 12.5C56.2 13.2 56.3 13.7 56.5 14C56.8 14.5 57.2 14.7 57.7 14.7C58.1 14.7 58.4 14.5 58.7 14.2C59 13.9 59.1 13.4 59.1 12.7C59.1 12 59 11.4 58.7 11.1C58.4 10.8 58.1 10.6 57.7 10.6C57.3 10.6 56.9 10.8 56.7 11.1C56.5 11.4 56.2 11.9 56.2 12.5Z" fill="#1A1A1A"/>
<path d="M10.7846 6.41936C8.19742 6.41936 6.09998 8.58575 6.09998 11.2581C6.09998 13.9304 8.19742 16.0968 10.7846 16.0968C12.47 16.0968 13.4468 15.5584 14.2945 14.6828C15.1422 13.8071 15.4509 12.4828 15.4509 11.1466C15.4509 10.9428 15.438 10.7401 15.4153 10.5395H13.5884H13.2402H10.8415V12.2503H13.528C13.4188 12.6768 13.2337 13.0655 12.9423 13.3665C12.4203 13.9056 11.8188 14.2374 10.7811 14.2374C9.18818 14.2374 7.89673 12.9034 7.89673 11.2581C7.89673 9.61272 9.18818 8.27891 10.7811 8.27891C11.5561 8.27891 12.2316 8.5075 12.7665 9.00577L14.0854 7.66703L14.0834 7.66491C13.2036 6.80788 12.0783 6.41971 10.7847 6.41971L10.7846 6.41936ZM18.383 9.20542V10.6003H17.0087V11.9631H18.383V13.3582H19.7258V11.9631H21.1V10.6003H19.7258V9.20542H18.383ZM13.2379 9.60117C13.2386 9.6022 13.2396 9.60398 13.2399 9.60524V9.60346L13.2379 9.60117Z" fill="white"/>
<path d="M10.7846 6.41936C8.19742 6.41936 6.09998 8.58575 6.09998 11.2581C6.09998 13.9304 8.19742 16.0968 10.7846 16.0968C12.47 16.0968 13.4468 15.5584 14.2945 14.6828C15.1422 13.8071 15.4509 12.4828 15.4509 11.1466C15.4509 10.9428 15.438 10.7401 15.4153 10.5395H13.5884H13.2402H10.8415V12.2503H13.528C13.4188 12.6768 13.2337 13.0655 12.9423 13.3665C12.4203 13.9056 11.8188 14.2374 10.7811 14.2374C9.18818 14.2374 7.89673 12.9034 7.89673 11.2581C7.89673 9.61272 9.18818 8.27891 10.7811 8.27891C11.5561 8.27891 12.2316 8.5075 12.7665 9.00577L14.0854 7.66703L14.0834 7.66491C13.2036 6.80788 12.0783 6.41971 10.7847 6.41971L10.7846 6.41936ZM18.383 9.20542V10.6003H17.0087V11.9631H18.383V13.3582H19.7258V11.9631H21.1V10.6003H19.7258V9.20542H18.383ZM13.2379 9.60117C13.2386 9.6022 13.2396 9.60398 13.2399 9.60524V9.60346L13.2379 9.60117Z" fill="#DD5044"/>
</svg>
