<svg width="73" height="23" viewBox="0 0 73 23" fill="none" xmlns="http://www.w3.org/2000/svg">
<path d="M3.8 0.25H69.1C70.9585 0.25 72.5532 1.73589 72.65 3.80572V19.2C72.65 21.1619 71.0619 22.75 69.1 22.75H3.8C1.83807 22.75 0.25 21.1619 0.25 19.2V3.79999C0.25 1.83806 1.83807 0.25 3.8 0.25Z" fill="white" stroke="#D7D7D7" stroke-width="0.5"/>
<path d="M32 12.6V11.1H35.9V14.7001C35.5 15.1001 35 15.4001 34.3 15.7001C33.6 16.0001 32.9 16.1 32.1 16.1C31.2 16.1 30.3 15.9001 29.6 15.5001C28.9 15.1001 28.4 14.5 28 13.8C27.6 13.1 27.5 12.3001 27.5 11.4001C27.5 10.5001 27.7 9.60009 28.1 8.90009C28.5 8.20009 29.1 7.60007 29.8 7.20007C30.4 6.90007 31.1 6.80005 31.9 6.80005C33 6.80005 33.9 7.00006 34.5 7.50006C35.1 8.00006 35.5 8.60009 35.7 9.40009L33.9 9.70007C33.8 9.30007 33.5 8.90007 33.2 8.70007C32.9 8.40007 32.4 8.30005 31.9 8.30005C31.1 8.30005 30.5 8.60004 30 9.10004C29.5 9.60004 29.3 10.3 29.3 11.3C29.3 12.4 29.5 13.2001 30 13.7001C30.5 14.2001 31.1 14.5001 31.9 14.5001C32.3 14.5001 32.7 14.4 33 14.3C33.4 14.2 33.7 14 34 13.8V12.7001H32V12.6Z" fill="white"/>
<path d="M32 12.6V11.1H35.9V14.7001C35.5 15.1001 35 15.4001 34.3 15.7001C33.6 16.0001 32.9 16.1 32.1 16.1C31.2 16.1 30.3 15.9001 29.6 15.5001C28.9 15.1001 28.4 14.5 28 13.8C27.6 13.1 27.5 12.3001 27.5 11.4001C27.5 10.5001 27.7 9.60009 28.1 8.90009C28.5 8.20009 29.1 7.60007 29.8 7.20007C30.4 6.90007 31.1 6.80005 31.9 6.80005C33 6.80005 33.9 7.00006 34.5 7.50006C35.1 8.00006 35.5 8.60009 35.7 9.40009L33.9 9.70007C33.8 9.30007 33.5 8.90007 33.2 8.70007C32.9 8.40007 32.4 8.30005 31.9 8.30005C31.1 8.30005 30.5 8.60004 30 9.10004C29.5 9.60004 29.3 10.3 29.3 11.3C29.3 12.4 29.5 13.2001 30 13.7001C30.5 14.2001 31.1 14.5001 31.9 14.5001C32.3 14.5001 32.7 14.4 33 14.3C33.4 14.2 33.7 14 34 13.8V12.7001H32V12.6Z" fill="#1A1A1A"/>
<path d="M37.1 12.6C37.1 12 37.2 11.5001 37.5 10.9001C37.8 10.4001 38.2 10.0001 38.7 9.70007C39.2 9.40007 39.8 9.30005 40.4 9.30005C41.4 9.30005 42.2 9.60005 42.8 10.3C43.4 10.9 43.7 11.7001 43.7 12.7001C43.7 13.7001 43.4 14.5 42.7 15.1C42.1 15.7 41.3 16.1 40.3 16.1C39.7 16.1 39.1 16.0001 38.6 15.7001C38.1 15.4001 37.6 15.0001 37.4 14.5001C37.3 14.0001 37.1 13.3 37.1 12.6ZM38.9 12.7001C38.9 13.3001 39.1 13.8001 39.4 14.2001C39.7 14.5001 40.1 14.7001 40.5 14.7001C40.9 14.7001 41.3 14.5001 41.6 14.2001C41.9 13.9001 42.1 13.4001 42.1 12.7001C42.1 12.1001 41.9 11.6001 41.6 11.2001C41.3 10.9001 40.9 10.7001 40.5 10.7001C40.1 10.7001 39.7 10.9001 39.4 11.2001C39.1 11.5001 38.9 12.1001 38.9 12.7001Z" fill="white"/>
<path d="M37.1 12.6C37.1 12 37.2 11.5001 37.5 10.9001C37.8 10.4001 38.2 10.0001 38.7 9.70007C39.2 9.40007 39.8 9.30005 40.4 9.30005C41.4 9.30005 42.2 9.60005 42.8 10.3C43.4 10.9 43.7 11.7001 43.7 12.7001C43.7 13.7001 43.4 14.5 42.7 15.1C42.1 15.7 41.3 16.1 40.3 16.1C39.7 16.1 39.1 16.0001 38.6 15.7001C38.1 15.4001 37.6 15.0001 37.4 14.5001C37.3 14.0001 37.1 13.3 37.1 12.6ZM38.9 12.7001C38.9 13.3001 39.1 13.8001 39.4 14.2001C39.7 14.5001 40.1 14.7001 40.5 14.7001C40.9 14.7001 41.3 14.5001 41.6 14.2001C41.9 13.9001 42.1 13.4001 42.1 12.7001C42.1 12.1001 41.9 11.6001 41.6 11.2001C41.3 10.9001 40.9 10.7001 40.5 10.7001C40.1 10.7001 39.7 10.9001 39.4 11.2001C39.1 11.5001 38.9 12.1001 38.9 12.7001Z" fill="#1A1A1A"/>
<path d="M48.9 9.50006C48.9 9.40006 48.9 9.30007 48.8 9.20007C48.8 9.10007 48.8 8.90005 48.8 8.80005C48.8 8.50005 48.9 8.20006 49 8.00006C49.1 7.80006 49.3 7.60009 49.5 7.40009C49.7 7.20009 50 7.10006 50.2 7.00006C50.5 6.90006 50.8 6.90009 51.2 6.90009C51.5 6.90009 51.9 6.90006 52.2 7.00006C52.5 7.00006 52.7 7.10007 53 7.20007C53.3 7.30007 53.5 7.30009 53.7 7.40009V9.60004H54.9V11.0001H53.7V13.6C53.7 13.9 53.7 14.1001 53.7 14.2001C53.7 14.4001 53.7 14.5001 53.7 14.5001C53.7 14.6001 53.8 14.7001 53.9 14.7001C54 14.8001 54.1 14.8 54.2 14.8C54.4 14.8 54.6 14.7 54.9 14.6L55 15.9001C54.6 16.1001 54.1 16.2001 53.6 16.2001C53.3 16.2001 53 16.1001 52.8 16.0001C52.6 15.9001 52.4 15.8 52.3 15.6C52.2 15.4 52.1 15.2001 52.1 14.9001C52.1 14.7001 52 14.3001 52 13.7001V10.9001H51.2V9.50006H52V8.00006C51.9 8.00006 51.8 8.00006 51.8 8.00006C51.7 8.00006 51.7 8.00006 51.6 8.00006C51.5 8.00006 51.4 8.00006 51.4 8.00006C51.2 8.00006 51.1 8.00006 50.9 8.00006C50.7 8.00006 50.6 8.10007 50.5 8.20007C50.4 8.30007 50.3 8.40006 50.3 8.50006C50.3 8.60006 50.2 8.80006 50.2 9.00006C50.2 9.20006 50.2 9.40004 50.2 9.60004C50.2 9.80004 50.3 10.0001 50.3 10.2001C50.3 10.4001 50.4 10.6001 50.4 10.7001C50.4 10.8001 50.5 11 50.5 11.1L48.9 11.4001C48.8 11.1001 48.7 10.9 48.5 10.8C48.3 10.7 48 10.6 47.7 10.6C47.2 10.6 46.9 10.7 46.7 10.8C46.6 10.9 46.5 11 46.5 11.1C46.5 11.2 46.6 11.3001 46.7 11.4001C46.8 11.5001 47.4 11.7001 48.3 11.9001C49.2 12.1001 49.9 12.4001 50.2 12.7001C50.6 13.0001 50.7 13.4001 50.7 14.0001C50.7 14.6001 50.5 15.1001 50 15.5001C49.5 15.9001 48.8 16.1 47.8 16.1C47.4 16.1 47 16.1001 46.6 16.0001C46.2 15.9001 45.9 15.8 45.7 15.6C45.4 15.4 45.2 15.2001 45.1 15.0001C44.9 14.8001 44.8 14.5001 44.7 14.2001L46.4 13.9001C46.5 14.2001 46.6 14.5001 46.8 14.7001C47 14.9001 47.3 15.0001 47.7 15.0001C48.1 15.0001 48.5 14.9 48.7 14.8C48.9 14.7 48.9 14.5 48.9 14.3C48.9 14.2 48.9 14.1001 48.8 14.0001C48.7 13.9001 48.5 13.8 48.2 13.8C46.8 13.5 45.9 13.2001 45.6 13.0001C45.1 12.7001 44.8 12.2001 44.8 11.5001C44.8 10.9001 45 10.5 45.5 10.1C46 9.70004 46.6 9.50006 47.6 9.50006C47.9 9.50006 48.1 9.50006 48.3 9.50006C48.5 9.40006 48.7 9.40006 48.9 9.50006Z" fill="white"/>
<path d="M48.9 9.50006C48.9 9.40006 48.9 9.30007 48.8 9.20007C48.8 9.10007 48.8 8.90005 48.8 8.80005C48.8 8.50005 48.9 8.20006 49 8.00006C49.1 7.80006 49.3 7.60009 49.5 7.40009C49.7 7.20009 50 7.10006 50.2 7.00006C50.5 6.90006 50.8 6.90009 51.2 6.90009C51.5 6.90009 51.9 6.90006 52.2 7.00006C52.5 7.00006 52.7 7.10007 53 7.20007C53.3 7.30007 53.5 7.30009 53.7 7.40009V9.60004H54.9V11.0001H53.7V13.6C53.7 13.9 53.7 14.1001 53.7 14.2001C53.7 14.4001 53.7 14.5001 53.7 14.5001C53.7 14.6001 53.8 14.7001 53.9 14.7001C54 14.8001 54.1 14.8 54.2 14.8C54.4 14.8 54.6 14.7 54.9 14.6L55 15.9001C54.6 16.1001 54.1 16.2001 53.6 16.2001C53.3 16.2001 53 16.1001 52.8 16.0001C52.6 15.9001 52.4 15.8 52.3 15.6C52.2 15.4 52.1 15.2001 52.1 14.9001C52.1 14.7001 52 14.3001 52 13.7001V10.9001H51.2V9.50006H52V8.00006C51.9 8.00006 51.8 8.00006 51.8 8.00006C51.7 8.00006 51.7 8.00006 51.6 8.00006C51.5 8.00006 51.4 8.00006 51.4 8.00006C51.2 8.00006 51.1 8.00006 50.9 8.00006C50.7 8.00006 50.6 8.10007 50.5 8.20007C50.4 8.30007 50.3 8.40006 50.3 8.50006C50.3 8.60006 50.2 8.80006 50.2 9.00006C50.2 9.20006 50.2 9.40004 50.2 9.60004C50.2 9.80004 50.3 10.0001 50.3 10.2001C50.3 10.4001 50.4 10.6001 50.4 10.7001C50.4 10.8001 50.5 11 50.5 11.1L48.9 11.4001C48.8 11.1001 48.7 10.9 48.5 10.8C48.3 10.7 48 10.6 47.7 10.6C47.2 10.6 46.9 10.7 46.7 10.8C46.6 10.9 46.5 11 46.5 11.1C46.5 11.2 46.6 11.3001 46.7 11.4001C46.8 11.5001 47.4 11.7001 48.3 11.9001C49.2 12.1001 49.9 12.4001 50.2 12.7001C50.6 13.0001 50.7 13.4001 50.7 14.0001C50.7 14.6001 50.5 15.1001 50 15.5001C49.5 15.9001 48.8 16.1 47.8 16.1C47.4 16.1 47 16.1001 46.6 16.0001C46.2 15.9001 45.9 15.8 45.7 15.6C45.4 15.4 45.2 15.2001 45.1 15.0001C44.9 14.8001 44.8 14.5001 44.7 14.2001L46.4 13.9001C46.5 14.2001 46.6 14.5001 46.8 14.7001C47 14.9001 47.3 15.0001 47.7 15.0001C48.1 15.0001 48.5 14.9 48.7 14.8C48.9 14.7 48.9 14.5 48.9 14.3C48.9 14.2 48.9 14.1001 48.8 14.0001C48.7 13.9001 48.5 13.8 48.2 13.8C46.8 13.5 45.9 13.2001 45.6 13.0001C45.1 12.7001 44.8 12.2001 44.8 11.5001C44.8 10.9001 45 10.5 45.5 10.1C46 9.70004 46.6 9.50006 47.6 9.50006C47.9 9.50006 48.1 9.50006 48.3 9.50006C48.5 9.40006 48.7 9.40006 48.9 9.50006Z" fill="#1A1A1A"/>
<path d="M57.2 11.4001L55.6 11.1C55.8 10.5 56.1 10.0001 56.5 9.70007C56.9 9.40007 57.6 9.20007 58.4 9.20007C59.2 9.20007 59.7 9.30006 60.1 9.50006C60.5 9.70006 60.7 9.90007 60.9 10.2001C61.1 10.5001 61.1 11.0001 61.1 11.7001V13.7001C61.1 14.3001 61.1 14.7001 61.2 15.0001C61.3 15.3001 61.4 15.6001 61.5 15.9001H59.8C59.8 15.8001 59.7 15.6001 59.6 15.4001C59.6 15.3001 59.6 15.2001 59.5 15.2001C59.2 15.5001 58.9 15.7 58.6 15.8C58.3 15.9 57.9 16.0001 57.5 16.0001C56.8 16.0001 56.3 15.8001 55.9 15.5001C55.5 15.1001 55.3 14.7 55.3 14.1C55.3 13.7 55.4 13.4 55.6 13.1C55.8 12.8 56 12.6001 56.3 12.4001C56.6 12.2001 57.1 12.1001 57.7 12.0001C58.5 11.8001 59.1 11.7 59.4 11.6V11.4001C59.4 11.1001 59.3 10.8001 59.2 10.7001C59 10.6001 58.7 10.5001 58.3 10.5001C58 10.5001 57.8 10.6001 57.6 10.7001C57.4 10.8001 57.3 11.1001 57.2 11.4001ZM59.5 12.8C59.3 12.9 58.9 13 58.5 13.1C58 13.2 57.7 13.3001 57.6 13.4001C57.4 13.6001 57.3 13.8001 57.3 14.0001C57.3 14.2001 57.4 14.4 57.6 14.6C57.8 14.8 58 14.9001 58.3 14.9001C58.6 14.9001 58.9 14.8 59.2 14.6C59.4 14.4 59.5 14.3001 59.6 14.0001C59.6 13.9001 59.7 13.6001 59.7 13.2001V12.8H59.5Z" fill="white"/>
<path d="M57.2 11.4001L55.6 11.1C55.8 10.5 56.1 10.0001 56.5 9.70007C56.9 9.40007 57.6 9.20007 58.4 9.20007C59.2 9.20007 59.7 9.30006 60.1 9.50006C60.5 9.70006 60.7 9.90007 60.9 10.2001C61.1 10.5001 61.1 11.0001 61.1 11.7001V13.7001C61.1 14.3001 61.1 14.7001 61.2 15.0001C61.3 15.3001 61.4 15.6001 61.5 15.9001H59.8C59.8 15.8001 59.7 15.6001 59.6 15.4001C59.6 15.3001 59.6 15.2001 59.5 15.2001C59.2 15.5001 58.9 15.7 58.6 15.8C58.3 15.9 57.9 16.0001 57.5 16.0001C56.8 16.0001 56.3 15.8001 55.9 15.5001C55.5 15.1001 55.3 14.7 55.3 14.1C55.3 13.7 55.4 13.4 55.6 13.1C55.8 12.8 56 12.6001 56.3 12.4001C56.6 12.2001 57.1 12.1001 57.7 12.0001C58.5 11.8001 59.1 11.7 59.4 11.6V11.4001C59.4 11.1001 59.3 10.8001 59.2 10.7001C59 10.6001 58.7 10.5001 58.3 10.5001C58 10.5001 57.8 10.6001 57.6 10.7001C57.4 10.8001 57.3 11.1001 57.2 11.4001ZM59.5 12.8C59.3 12.9 58.9 13 58.5 13.1C58 13.2 57.7 13.3001 57.6 13.4001C57.4 13.6001 57.3 13.8001 57.3 14.0001C57.3 14.2001 57.4 14.4 57.6 14.6C57.8 14.8 58 14.9001 58.3 14.9001C58.6 14.9001 58.9 14.8 59.2 14.6C59.4 14.4 59.5 14.3001 59.6 14.0001C59.6 13.9001 59.7 13.6001 59.7 13.2001V12.8H59.5Z" fill="#1A1A1A"/>
<path d="M64.6 15.9001H62.9V9.40009H64.5V10.3C64.8 9.90005 65 9.60009 65.2 9.40009C65.4 9.30009 65.7 9.20007 65.9 9.20007C66.3 9.20007 66.7 9.30006 67 9.50006L66.5 11.0001C66.2 10.8001 65.9 10.7001 65.7 10.7001C65.5 10.7001 65.3 10.8001 65.1 10.9001C64.9 11.0001 64.8 11.3 64.7 11.6C64.6 11.9 64.6 12.7 64.6 13.8V15.9001Z" fill="white"/>
<path d="M64.6 15.9001H62.9V9.40009H64.5V10.3C64.8 9.90005 65 9.60009 65.2 9.40009C65.4 9.30009 65.7 9.20007 65.9 9.20007C66.3 9.20007 66.7 9.30006 67 9.50006L66.5 11.0001C66.2 10.8001 65.9 10.7001 65.7 10.7001C65.5 10.7001 65.3 10.8001 65.1 10.9001C64.9 11.0001 64.8 11.3 64.7 11.6C64.6 11.9 64.6 12.7 64.6 13.8V15.9001Z" fill="#1A1A1A"/>
<path d="M10.7846 6.41934C8.19742 6.41934 6.09998 8.58574 6.09998 11.2581C6.09998 13.9304 8.19742 16.0968 10.7846 16.0968C12.47 16.0968 13.4468 15.5584 14.2945 14.6827C15.1422 13.8071 15.4509 12.4828 15.4509 11.1466C15.4509 10.9428 15.438 10.7401 15.4153 10.5395H13.5884H13.2402H10.8415V12.2503H13.528C13.4188 12.6768 13.2337 13.0655 12.9423 13.3665C12.4203 13.9056 11.8188 14.2374 10.7811 14.2374C9.18818 14.2374 7.89673 12.9034 7.89673 11.2581C7.89673 9.6127 9.18818 8.2789 10.7811 8.2789C11.5561 8.2789 12.2316 8.50749 12.7665 9.00575L14.0854 7.66702L14.0834 7.66489C13.2036 6.80787 12.0783 6.4197 10.7847 6.4197L10.7846 6.41934ZM18.383 9.2054V10.6003H17.0087V11.9631H18.383V13.3582H19.7258V11.9631H21.1V10.6003H19.7258V9.2054H18.383ZM13.2379 9.60116C13.2386 9.60218 13.2396 9.60397 13.2399 9.60523V9.60345L13.2379 9.60116Z" fill="white"/>
<path d="M10.7846 6.41934C8.19742 6.41934 6.09998 8.58574 6.09998 11.2581C6.09998 13.9304 8.19742 16.0968 10.7846 16.0968C12.47 16.0968 13.4468 15.5584 14.2945 14.6827C15.1422 13.8071 15.4509 12.4828 15.4509 11.1466C15.4509 10.9428 15.438 10.7401 15.4153 10.5395H13.5884H13.2402H10.8415V12.2503H13.528C13.4188 12.6768 13.2337 13.0655 12.9423 13.3665C12.4203 13.9056 11.8188 14.2374 10.7811 14.2374C9.18818 14.2374 7.89673 12.9034 7.89673 11.2581C7.89673 9.6127 9.18818 8.2789 10.7811 8.2789C11.5561 8.2789 12.2316 8.50749 12.7665 9.00575L14.0854 7.66702L14.0834 7.66489C13.2036 6.80787 12.0783 6.4197 10.7847 6.4197L10.7846 6.41934ZM18.383 9.2054V10.6003H17.0087V11.9631H18.383V13.3582H19.7258V11.9631H21.1V10.6003H19.7258V9.2054H18.383ZM13.2379 9.60116C13.2386 9.60218 13.2396 9.60397 13.2399 9.60523V9.60345L13.2379 9.60116Z" fill="#DD5044"/>
</svg>
