<svg width="68" height="23" viewBox="0 0 68 23" fill="none" xmlns="http://www.w3.org/2000/svg">
<path d="M3.8 0.25H64.1C65.9585 0.25 67.5532 1.73589 67.65 3.80572V19.2C67.65 21.1619 66.0619 22.75 64.1 22.75H3.8C1.83807 22.75 0.25 21.1619 0.25 19.2V3.79999C0.25 1.83806 1.83807 0.25 3.8 0.25Z" fill="white" stroke="#D7D7D7" stroke-width="0.5"/>
<path d="M33.5 12.6L35.3 13.2C35 14.2 34.6 14.9 34 15.4C33.4 15.9 32.6 16.1 31.6 16.1C30.4 16.1 29.4 15.7 28.7 14.9C27.9 14.1 27.6 13 27.6 11.6C27.6 10.1 28 8.89998 28.8 8.09998C29.6 7.29998 30.6 6.90002 31.8 6.90002C32.9 6.90002 33.8 7.20002 34.5 7.90002C34.9 8.30002 35.2 8.79998 35.4 9.59998L33.6 10C33.5 9.5 33.3 9.20002 32.9 8.90002C32.6 8.60002 32.2 8.5 31.7 8.5C31 8.5 30.5 8.70001 30.1 9.20001C29.7 9.70001 29.5 10.4 29.5 11.5C29.5 12.6 29.7 13.4 30.1 13.9C30.5 14.4 31 14.6 31.7 14.6C32.2 14.6 32.6 14.4 32.9 14.1C33.1 13.8 33.4 13.3 33.5 12.6Z" fill="white"/>
<path d="M33.5 12.6L35.3 13.2C35 14.2 34.6 14.9 34 15.4C33.4 15.9 32.6 16.1 31.6 16.1C30.4 16.1 29.4 15.7 28.7 14.9C27.9 14.1 27.6 13 27.6 11.6C27.6 10.1 28 8.89998 28.8 8.09998C29.6 7.29998 30.6 6.90002 31.8 6.90002C32.9 6.90002 33.8 7.20002 34.5 7.90002C34.9 8.30002 35.2 8.79998 35.4 9.59998L33.6 10C33.5 9.5 33.3 9.20002 32.9 8.90002C32.6 8.60002 32.2 8.5 31.7 8.5C31 8.5 30.5 8.70001 30.1 9.20001C29.7 9.70001 29.5 10.4 29.5 11.5C29.5 12.6 29.7 13.4 30.1 13.9C30.5 14.4 31 14.6 31.7 14.6C32.2 14.6 32.6 14.4 32.9 14.1C33.1 13.8 33.4 13.3 33.5 12.6Z" fill="#1A1A1A"/>
<path d="M41.1 15.9V14.9C40.9 15.2 40.6 15.5 40.2 15.7C39.8 15.9 39.4 16 39 16C38.6 16 38.2 15.9 37.8 15.7C37.4 15.5 37.2 15.2 37 14.9C36.8 14.6 36.8 14.1 36.8 13.5V9.40002H38.5V12.4C38.5 13.3 38.5 13.9 38.6 14.1C38.7 14.3 38.8 14.5 38.9 14.6C39 14.7 39.3 14.8 39.5 14.8C39.8 14.8 40.1 14.7 40.3 14.6C40.5 14.4 40.7 14.2 40.8 14C40.9 13.8 40.9 13.2 40.9 12.2V9.5H42.6V16H41.1V15.9Z" fill="white"/>
<path d="M41.1 15.9V14.9C40.9 15.2 40.6 15.5 40.2 15.7C39.8 15.9 39.4 16 39 16C38.6 16 38.2 15.9 37.8 15.7C37.4 15.5 37.2 15.2 37 14.9C36.8 14.6 36.8 14.1 36.8 13.5V9.40002H38.5V12.4C38.5 13.3 38.5 13.9 38.6 14.1C38.7 14.3 38.8 14.5 38.9 14.6C39 14.7 39.3 14.8 39.5 14.8C39.8 14.8 40.1 14.7 40.3 14.6C40.5 14.4 40.7 14.2 40.8 14C40.9 13.8 40.9 13.2 40.9 12.2V9.5H42.6V16H41.1V15.9Z" fill="#1A1A1A"/>
<path d="M46.1 15.9H44.4V9.40002H46V10.3C46.3 9.89999 46.5 9.60002 46.7 9.40002C46.9 9.30002 47.2 9.20001 47.4 9.20001C47.8 9.20001 48.2 9.3 48.5 9.5L48 11C47.7 10.8 47.4 10.7 47.2 10.7C47 10.7 46.8 10.8 46.6 10.9C46.4 11 46.3 11.3 46.2 11.6C46.1 11.9 46.1 12.7 46.1 13.8V15.9Z" fill="white"/>
<path d="M46.1 15.9H44.4V9.40002H46V10.3C46.3 9.89999 46.5 9.60002 46.7 9.40002C46.9 9.30002 47.2 9.20001 47.4 9.20001C47.8 9.20001 48.2 9.3 48.5 9.5L48 11C47.7 10.8 47.4 10.7 47.2 10.7C47 10.7 46.8 10.8 46.6 10.9C46.4 11 46.3 11.3 46.2 11.6C46.1 11.9 46.1 12.7 46.1 13.8V15.9Z" fill="#1A1A1A"/>
<path d="M52.3 9.40002V10.8H51.1V13.4C51.1 13.9 51.1 14.2 51.1 14.3C51.1 14.4 51.2 14.5 51.3 14.5C51.4 14.6 51.5 14.6 51.6 14.6C51.8 14.6 52 14.5 52.3 14.4L52.4 15.7C52 15.9 51.5 16 51 16C50.7 16 50.4 15.9 50.2 15.8C50 15.7 49.8 15.6 49.7 15.4C49.6 15.2 49.5 15 49.5 14.7C49.5 14.5 49.4 14.1 49.4 13.5V10.7H48.7V9.29999H49.5V8L51.2 7V9.29999H52.3V9.40002Z" fill="white"/>
<path d="M52.3 9.40002V10.8H51.1V13.4C51.1 13.9 51.1 14.2 51.1 14.3C51.1 14.4 51.2 14.5 51.3 14.5C51.4 14.6 51.5 14.6 51.6 14.6C51.8 14.6 52 14.5 52.3 14.4L52.4 15.7C52 15.9 51.5 16 51 16C50.7 16 50.4 15.9 50.2 15.8C50 15.7 49.8 15.6 49.7 15.4C49.6 15.2 49.5 15 49.5 14.7C49.5 14.5 49.4 14.1 49.4 13.5V10.7H48.7V9.29999H49.5V8L51.2 7V9.29999H52.3V9.40002Z" fill="#1A1A1A"/>
<path d="M53.5 8.59998V7H55.2V8.59998H53.5ZM53.5 15.9V9.40002H55.2V15.9H53.5Z" fill="white"/>
<path d="M53.5 8.59998V7H55.2V8.59998H53.5ZM53.5 15.9V9.40002H55.2V15.9H53.5Z" fill="#1A1A1A"/>
<path d="M58.7 15.9H57V9.40002H58.6V10.3C58.9 9.89999 59.1 9.60002 59.3 9.40002C59.5 9.30002 59.8 9.20001 60 9.20001C60.4 9.20001 60.8 9.3 61.1 9.5L60.6 11C60.3 10.8 60 10.7 59.8 10.7C59.6 10.7 59.4 10.8 59.2 10.9C59 11 58.9 11.3 58.8 11.6C58.7 11.9 58.7 12.7 58.7 13.8V15.9Z" fill="white"/>
<path d="M58.7 15.9H57V9.40002H58.6V10.3C58.9 9.89999 59.1 9.60002 59.3 9.40002C59.5 9.30002 59.8 9.20001 60 9.20001C60.4 9.20001 60.8 9.3 61.1 9.5L60.6 11C60.3 10.8 60 10.7 59.8 10.7C59.6 10.7 59.4 10.8 59.2 10.9C59 11 58.9 11.3 58.8 11.6C58.7 11.9 58.7 12.7 58.7 13.8V15.9Z" fill="#1A1A1A"/>
<path d="M10.7846 6.41934C8.19742 6.41934 6.09998 8.58574 6.09998 11.2581C6.09998 13.9304 8.19742 16.0968 10.7846 16.0968C12.47 16.0968 13.4468 15.5584 14.2945 14.6827C15.1422 13.8071 15.4509 12.4828 15.4509 11.1466C15.4509 10.9428 15.438 10.7401 15.4153 10.5395H13.5884H13.2402H10.8415V12.2503H13.528C13.4188 12.6768 13.2337 13.0655 12.9423 13.3665C12.4203 13.9056 11.8188 14.2374 10.7811 14.2374C9.18818 14.2374 7.89673 12.9034 7.89673 11.2581C7.89673 9.6127 9.18818 8.2789 10.7811 8.2789C11.5561 8.2789 12.2316 8.50749 12.7665 9.00575L14.0854 7.66702L14.0834 7.66489C13.2036 6.80787 12.0783 6.4197 10.7847 6.4197L10.7846 6.41934ZM18.383 9.2054V10.6003H17.0087V11.9631H18.383V13.3582H19.7258V11.9631H21.1V10.6003H19.7258V9.2054H18.383ZM13.2379 9.60116C13.2386 9.60218 13.2396 9.60397 13.2399 9.60523V9.60345L13.2379 9.60116Z" fill="white"/>
<path d="M10.7846 6.41934C8.19742 6.41934 6.09998 8.58574 6.09998 11.2581C6.09998 13.9304 8.19742 16.0968 10.7846 16.0968C12.47 16.0968 13.4468 15.5584 14.2945 14.6827C15.1422 13.8071 15.4509 12.4828 15.4509 11.1466C15.4509 10.9428 15.438 10.7401 15.4153 10.5395H13.5884H13.2402H10.8415V12.2503H13.528C13.4188 12.6768 13.2337 13.0655 12.9423 13.3665C12.4203 13.9056 11.8188 14.2374 10.7811 14.2374C9.18818 14.2374 7.89673 12.9034 7.89673 11.2581C7.89673 9.6127 9.18818 8.2789 10.7811 8.2789C11.5561 8.2789 12.2316 8.50749 12.7665 9.00575L14.0854 7.66702L14.0834 7.66489C13.2036 6.80787 12.0783 6.4197 10.7847 6.4197L10.7846 6.41934ZM18.383 9.2054V10.6003H17.0087V11.9631H18.383V13.3582H19.7258V11.9631H21.1V10.6003H19.7258V9.2054H18.383ZM13.2379 9.60116C13.2386 9.60218 13.2396 9.60397 13.2399 9.60523V9.60345L13.2379 9.60116Z" fill="#DD5044"/>
</svg>
