<svg width="92" height="23" viewBox="0 0 92 23" fill="none" xmlns="http://www.w3.org/2000/svg">
<path d="M3.8 0.25H88.1C89.9539 0.25 91.553 1.83104 91.65 3.8061V19.2C91.65 21.1619 90.0619 22.75 88.1 22.75H3.8C1.83807 22.75 0.25 21.1619 0.25 19.2V3.80005C0.25 1.83812 1.83808 0.25 3.8 0.25Z" fill="white" stroke="#D7D7D7" stroke-width="0.5"/>
<path d="M27.5 14.7001V5.70007H29.3V9.20007H32.8V5.70007H34.6V14.7001H32.8V10.8001H29.3V14.7001H27.5Z" fill="white"/>
<path d="M27.5 14.7001V5.70007H29.3V9.20007H32.8V5.70007H34.6V14.7001H32.8V10.8001H29.3V14.7001H27.5Z" fill="#1A1A1A"/>
<path d="M36.5 8.20007H38.1V9.20007C38.3 8.90007 38.6 8.60009 38.9 8.40009C39.3 8.20009 39.6 8.1001 40.1 8.1001C40.9 8.1001 41.5 8.40006 42 9.00006C42.5 9.60006 42.8 10.4001 42.8 11.5001C42.8 12.6001 42.5 13.4001 42 14.0001C41.5 14.6001 40.8 14.9001 40.1 14.9001C39.7 14.9001 39.4 14.8001 39.1 14.7001C38.8 14.6001 38.5 14.3001 38.2 14.0001V17.3001H36.5V8.20007ZM38.2 11.4001C38.2 12.1001 38.3 12.7001 38.6 13.0001C38.9 13.3001 39.2 13.5001 39.7 13.5001C40.1 13.5001 40.4 13.3001 40.7 13.0001C41 12.7001 41.1 12.2001 41.1 11.4001C41.1 10.7001 41 10.2001 40.7 9.90009C40.4 9.60009 40.1 9.40009 39.7 9.40009C39.3 9.40009 38.9 9.60009 38.7 9.90009C38.5 10.2001 38.2 10.7001 38.2 11.4001Z" fill="white"/>
<path d="M36.5 8.20007H38.1V9.20007C38.3 8.90007 38.6 8.60009 38.9 8.40009C39.3 8.20009 39.6 8.1001 40.1 8.1001C40.9 8.1001 41.5 8.40006 42 9.00006C42.5 9.60006 42.8 10.4001 42.8 11.5001C42.8 12.6001 42.5 13.4001 42 14.0001C41.5 14.6001 40.8 14.9001 40.1 14.9001C39.7 14.9001 39.4 14.8001 39.1 14.7001C38.8 14.6001 38.5 14.3001 38.2 14.0001V17.3001H36.5V8.20007ZM38.2 11.4001C38.2 12.1001 38.3 12.7001 38.6 13.0001C38.9 13.3001 39.2 13.5001 39.7 13.5001C40.1 13.5001 40.4 13.3001 40.7 13.0001C41 12.7001 41.1 12.2001 41.1 11.4001C41.1 10.7001 41 10.2001 40.7 9.90009C40.4 9.60009 40.1 9.40009 39.7 9.40009C39.3 9.40009 38.9 9.60009 38.7 9.90009C38.5 10.2001 38.2 10.7001 38.2 11.4001Z" fill="#1A1A1A"/>
<path d="M45.4 10.2001L43.8 9.90009C44 9.30009 44.3 8.80006 44.7 8.50006C45.1 8.20006 45.8 8.00006 46.6 8.00006C47.4 8.00006 47.9 8.10011 48.3 8.30011C48.7 8.50011 48.9 8.70006 49.1 9.00006C49.3 9.30006 49.3 9.80006 49.3 10.5001V12.5001C49.3 13.1001 49.3 13.5001 49.4 13.8001C49.5 14.1001 49.6 14.4001 49.7 14.7001H48C48 14.6001 47.9 14.4001 47.8 14.2001C47.8 14.1001 47.8 14.0001 47.7 14.0001C47.4 14.3001 47.1 14.5001 46.8 14.6001C46.5 14.7001 46.1 14.8001 45.7 14.8001C45 14.8001 44.5 14.6001 44.1 14.3001C43.7 13.9001 43.5 13.5001 43.5 12.9001C43.5 12.5001 43.6 12.2001 43.8 11.9001C44 11.6001 44.2 11.4001 44.5 11.2001C44.8 11.0001 45.3 10.9001 45.9 10.8001C46.7 10.6001 47.3 10.5001 47.6 10.4001V10.2001C47.6 9.90007 47.5 9.60006 47.4 9.50006C47.2 9.40006 46.9 9.30011 46.5 9.30011C46.2 9.30011 46 9.40006 45.8 9.50006C45.6 9.60006 45.6 9.90007 45.4 10.2001ZM47.7 11.6001C47.5 11.7001 47.1 11.8001 46.7 11.9001C46.2 12.0001 45.9 12.1001 45.8 12.2001C45.6 12.4001 45.5 12.6001 45.5 12.8001C45.5 13.0001 45.6 13.2001 45.8 13.4001C46 13.6001 46.2 13.7001 46.5 13.7001C46.8 13.7001 47.1 13.6001 47.4 13.4001C47.6 13.2001 47.7 13.1001 47.8 12.8001C47.8 12.7001 47.9 12.4001 47.9 12.0001V11.6001H47.7Z" fill="white"/>
<path d="M45.4 10.2001L43.8 9.90009C44 9.30009 44.3 8.80006 44.7 8.50006C45.1 8.20006 45.8 8.00006 46.6 8.00006C47.4 8.00006 47.9 8.10011 48.3 8.30011C48.7 8.50011 48.9 8.70006 49.1 9.00006C49.3 9.30006 49.3 9.80006 49.3 10.5001V12.5001C49.3 13.1001 49.3 13.5001 49.4 13.8001C49.5 14.1001 49.6 14.4001 49.7 14.7001H48C48 14.6001 47.9 14.4001 47.8 14.2001C47.8 14.1001 47.8 14.0001 47.7 14.0001C47.4 14.3001 47.1 14.5001 46.8 14.6001C46.5 14.7001 46.1 14.8001 45.7 14.8001C45 14.8001 44.5 14.6001 44.1 14.3001C43.7 13.9001 43.5 13.5001 43.5 12.9001C43.5 12.5001 43.6 12.2001 43.8 11.9001C44 11.6001 44.2 11.4001 44.5 11.2001C44.8 11.0001 45.3 10.9001 45.9 10.8001C46.7 10.6001 47.3 10.5001 47.6 10.4001V10.2001C47.6 9.90007 47.5 9.60006 47.4 9.50006C47.2 9.40006 46.9 9.30011 46.5 9.30011C46.2 9.30011 46 9.40006 45.8 9.50006C45.6 9.60006 45.6 9.90007 45.4 10.2001ZM47.7 11.6001C47.5 11.7001 47.1 11.8001 46.7 11.9001C46.2 12.0001 45.9 12.1001 45.8 12.2001C45.6 12.4001 45.5 12.6001 45.5 12.8001C45.5 13.0001 45.6 13.2001 45.8 13.4001C46 13.6001 46.2 13.7001 46.5 13.7001C46.8 13.7001 47.1 13.6001 47.4 13.4001C47.6 13.2001 47.7 13.1001 47.8 12.8001C47.8 12.7001 47.9 12.4001 47.9 12.0001V11.6001H47.7Z" fill="#1A1A1A"/>
<path d="M51.1 8.20007H54.9C55.7 8.20007 56.2 8.3001 56.6 8.6001C57 8.9001 57.2 9.30009 57.2 9.90009C57.2 10.3001 57.1 10.6001 56.9 10.8001C56.7 11.1001 56.4 11.2001 56.1 11.3001C56.5 11.4001 56.9 11.6001 57.1 11.9001C57.3 12.2001 57.4 12.5001 57.4 12.9001C57.4 13.4001 57.2 13.8001 56.8 14.1001C56.4 14.4001 55.9 14.6001 55.2 14.6001H51.1V8.20007ZM52.9 10.9001H54C54.5 10.9001 54.9 10.8001 55.2 10.7001C55.5 10.6001 55.6 10.4001 55.6 10.1001C55.6 9.8001 55.5 9.60006 55.3 9.50006C55.1 9.40006 54.7 9.30011 54.1 9.30011H53V10.9001H52.9ZM52.9 13.6001H54.3C54.8 13.6001 55.1 13.5001 55.4 13.4001C55.6 13.3001 55.7 13.1001 55.7 12.8001C55.7 12.5001 55.6 12.3001 55.3 12.1001C55 12.0001 54.5 11.9001 53.8 11.9001H52.9V13.6001Z" fill="white"/>
<path d="M51.1 8.20007H54.9C55.7 8.20007 56.2 8.3001 56.6 8.6001C57 8.9001 57.2 9.30009 57.2 9.90009C57.2 10.3001 57.1 10.6001 56.9 10.8001C56.7 11.1001 56.4 11.2001 56.1 11.3001C56.5 11.4001 56.9 11.6001 57.1 11.9001C57.3 12.2001 57.4 12.5001 57.4 12.9001C57.4 13.4001 57.2 13.8001 56.8 14.1001C56.4 14.4001 55.9 14.6001 55.2 14.6001H51.1V8.20007ZM52.9 10.9001H54C54.5 10.9001 54.9 10.8001 55.2 10.7001C55.5 10.6001 55.6 10.4001 55.6 10.1001C55.6 9.8001 55.5 9.60006 55.3 9.50006C55.1 9.40006 54.7 9.30011 54.1 9.30011H53V10.9001H52.9ZM52.9 13.6001H54.3C54.8 13.6001 55.1 13.5001 55.4 13.4001C55.6 13.3001 55.7 13.1001 55.7 12.8001C55.7 12.5001 55.6 12.3001 55.3 12.1001C55 12.0001 54.5 11.9001 53.8 11.9001H52.9V13.6001Z" fill="#1A1A1A"/>
<path d="M58.8 8.20007H60.5V12.3001L63.1 8.20007H64.8V14.7001H63.1V10.5001L60.4 14.7001H58.7V8.20007H58.8Z" fill="white"/>
<path d="M58.8 8.20007H60.5V12.3001L63.1 8.20007H64.8V14.7001H63.1V10.5001L60.4 14.7001H58.7V8.20007H58.8Z" fill="#1A1A1A"/>
<path d="M65.7 8.20007H71.6V9.6001H69.5V14.7001H67.8V9.6001H65.7V8.20007Z" fill="white"/>
<path d="M65.7 8.20007H71.6V9.6001H69.5V14.7001H67.8V9.6001H65.7V8.20007Z" fill="#1A1A1A"/>
<path d="M78.1 10.2001L76.4 10.5001C76.3 10.2001 76.2 9.90007 76 9.70007C75.8 9.50007 75.5 9.40009 75.2 9.40009C74.8 9.40009 74.4 9.50011 74.2 9.80011C74 10.1001 73.8 10.6001 73.8 11.3001C73.8 12.1001 73.9 12.6001 74.2 12.9001C74.5 13.2001 74.8 13.4001 75.2 13.4001C75.5 13.4001 75.8 13.3001 76 13.1001C76.2 12.9001 76.4 12.6001 76.4 12.1001L78.1 12.4001C77.9 13.2001 77.6 13.8001 77.1 14.2001C76.6 14.6001 75.9 14.8001 75.1 14.8001C74.2 14.8001 73.4 14.5001 72.8 13.9001C72.2 13.3001 72 12.5001 72 11.4001C72 10.3001 72.3 9.50009 72.8 8.90009C73.4 8.30009 74.1 8.00006 75.1 8.00006C75.9 8.00006 76.5 8.20006 77 8.50006C77.6 8.90006 77.9 9.50007 78.1 10.2001Z" fill="white"/>
<path d="M78.1 10.2001L76.4 10.5001C76.3 10.2001 76.2 9.90007 76 9.70007C75.8 9.50007 75.5 9.40009 75.2 9.40009C74.8 9.40009 74.4 9.50011 74.2 9.80011C74 10.1001 73.8 10.6001 73.8 11.3001C73.8 12.1001 73.9 12.6001 74.2 12.9001C74.5 13.2001 74.8 13.4001 75.2 13.4001C75.5 13.4001 75.8 13.3001 76 13.1001C76.2 12.9001 76.4 12.6001 76.4 12.1001L78.1 12.4001C77.9 13.2001 77.6 13.8001 77.1 14.2001C76.6 14.6001 75.9 14.8001 75.1 14.8001C74.2 14.8001 73.4 14.5001 72.8 13.9001C72.2 13.3001 72 12.5001 72 11.4001C72 10.3001 72.3 9.50009 72.8 8.90009C73.4 8.30009 74.1 8.00006 75.1 8.00006C75.9 8.00006 76.5 8.20006 77 8.50006C77.6 8.90006 77.9 9.50007 78.1 10.2001Z" fill="#1A1A1A"/>
<path d="M85 8.20007V14.7001H83.3V12.0001H83.1C82.7 12.0001 82.5 12.0001 82.3 12.1001C82.1 12.2001 81.9 12.4001 81.7 12.7001L81.6 12.8001L80.5 14.6001H78.5L79.7 12.7001C80.1 12.2001 80.4 11.9001 80.7 11.8001C80.2 11.8001 79.8 11.6001 79.5 11.3001C79.2 11.0001 79.1 10.5001 79.1 10.0001C79.1 9.60006 79.2 9.20009 79.4 8.90009C79.6 8.60009 79.9 8.40011 80.2 8.30011C80.5 8.20011 81 8.1001 81.7 8.1001H85V8.20007ZM83.3 9.30011H82.1C81.6 9.30011 81.3 9.40006 81.1 9.50006C80.9 9.60006 80.8 9.8001 80.8 10.1001C80.8 10.4001 80.9 10.6001 81.1 10.7001C81.3 10.8001 81.6 10.9001 82.1 10.9001H83.2V9.30011H83.3Z" fill="white"/>
<path d="M85 8.20007V14.7001H83.3V12.0001H83.1C82.7 12.0001 82.5 12.0001 82.3 12.1001C82.1 12.2001 81.9 12.4001 81.7 12.7001L81.6 12.8001L80.5 14.6001H78.5L79.7 12.7001C80.1 12.2001 80.4 11.9001 80.7 11.8001C80.2 11.8001 79.8 11.6001 79.5 11.3001C79.2 11.0001 79.1 10.5001 79.1 10.0001C79.1 9.60006 79.2 9.20009 79.4 8.90009C79.6 8.60009 79.9 8.40011 80.2 8.30011C80.5 8.20011 81 8.1001 81.7 8.1001H85V8.20007ZM83.3 9.30011H82.1C81.6 9.30011 81.3 9.40006 81.1 9.50006C80.9 9.60006 80.8 9.8001 80.8 10.1001C80.8 10.4001 80.9 10.6001 81.1 10.7001C81.3 10.8001 81.6 10.9001 82.1 10.9001H83.2V9.30011H83.3Z" fill="#1A1A1A"/>
<path d="M10.7846 6.41934C8.19742 6.41934 6.09998 8.58574 6.09998 11.2581C6.09998 13.9304 8.19742 16.0968 10.7846 16.0968C12.47 16.0968 13.4468 15.5584 14.2945 14.6827C15.1422 13.8071 15.4509 12.4828 15.4509 11.1466C15.4509 10.9428 15.438 10.7401 15.4153 10.5395H13.5884H13.2402H10.8415V12.2503H13.528C13.4188 12.6768 13.2337 13.0655 12.9423 13.3665C12.4203 13.9056 11.8188 14.2374 10.7811 14.2374C9.18818 14.2374 7.89673 12.9034 7.89673 11.2581C7.89673 9.6127 9.18818 8.2789 10.7811 8.2789C11.5561 8.2789 12.2316 8.50749 12.7665 9.00575L14.0854 7.66702L14.0834 7.66489C13.2036 6.80787 12.0783 6.4197 10.7847 6.4197L10.7846 6.41934ZM18.383 9.2054V10.6003H17.0087V11.9631H18.383V13.3582H19.7258V11.9631H21.1V10.6003H19.7258V9.2054H18.383ZM13.2379 9.60116C13.2386 9.60218 13.2396 9.60397 13.2399 9.60523V9.60345L13.2379 9.60116Z" fill="white"/>
<path d="M10.7846 6.41934C8.19742 6.41934 6.09998 8.58574 6.09998 11.2581C6.09998 13.9304 8.19742 16.0968 10.7846 16.0968C12.47 16.0968 13.4468 15.5584 14.2945 14.6827C15.1422 13.8071 15.4509 12.4828 15.4509 11.1466C15.4509 10.9428 15.438 10.7401 15.4153 10.5395H13.5884H13.2402H10.8415V12.2503H13.528C13.4188 12.6768 13.2337 13.0655 12.9423 13.3665C12.4203 13.9056 11.8188 14.2374 10.7811 14.2374C9.18818 14.2374 7.89673 12.9034 7.89673 11.2581C7.89673 9.6127 9.18818 8.2789 10.7811 8.2789C11.5561 8.2789 12.2316 8.50749 12.7665 9.00575L14.0854 7.66702L14.0834 7.66489C13.2036 6.80787 12.0783 6.4197 10.7847 6.4197L10.7846 6.41934ZM18.383 9.2054V10.6003H17.0087V11.9631H18.383V13.3582H19.7258V11.9631H21.1V10.6003H19.7258V9.2054H18.383ZM13.2379 9.60116C13.2386 9.60218 13.2396 9.60397 13.2399 9.60523V9.60345L13.2379 9.60116Z" fill="#DD5044"/>
</svg>
