<svg width="74" height="23" viewBox="0 0 74 23" fill="none" xmlns="http://www.w3.org/2000/svg">
<path d="M3.8 0.25H70.1C71.9539 0.25 73.553 1.83098 73.65 3.80604V19.2C73.65 21.1619 72.0619 22.75 70.1 22.75H3.8C1.83808 22.75 0.25 21.1619 0.25 19.2V3.79999C0.25 1.83806 1.83807 0.25 3.8 0.25Z" fill="white" stroke="#D7D7D7" stroke-width="0.5"/>
<path d="M32 12.7999V11.2999H35.9V14.9C35.5 15.3 35 15.6 34.3 15.9C33.6 16.2 32.9 16.2999 32.1 16.2999C31.2 16.2999 30.3 16.1 29.6 15.7C28.9 15.3 28.4 14.7 28 14C27.6 13.3 27.5 12.5 27.5 11.6C27.5 10.7 27.7 9.79998 28.1 9.09998C28.5 8.39998 29.1 7.80002 29.8 7.40002C30.4 7.10002 31.1 7 31.9 7C33 7 33.9 7.19995 34.5 7.69995C35.1 8.19995 35.5 8.79998 35.7 9.59998L33.9 9.90002C33.8 9.50002 33.5 9.10002 33.2 8.90002C32.9 8.60002 32.4 8.5 31.9 8.5C31.1 8.5 30.5 8.79993 30 9.29993C29.5 9.79993 29.3 10.5 29.3 11.5C29.3 12.6 29.5 13.4 30 13.9C30.5 14.4 31.1 14.7 31.9 14.7C32.3 14.7 32.7 14.6 33 14.5C33.4 14.4 33.7 14.2 34 14V12.9H32V12.7999Z" fill="white"/>
<path d="M32 12.7999V11.2999H35.9V14.9C35.5 15.3 35 15.6 34.3 15.9C33.6 16.2 32.9 16.2999 32.1 16.2999C31.2 16.2999 30.3 16.1 29.6 15.7C28.9 15.3 28.4 14.7 28 14C27.6 13.3 27.5 12.5 27.5 11.6C27.5 10.7 27.7 9.79998 28.1 9.09998C28.5 8.39998 29.1 7.80002 29.8 7.40002C30.4 7.10002 31.1 7 31.9 7C33 7 33.9 7.19995 34.5 7.69995C35.1 8.19995 35.5 8.79998 35.7 9.59998L33.9 9.90002C33.8 9.50002 33.5 9.10002 33.2 8.90002C32.9 8.60002 32.4 8.5 31.9 8.5C31.1 8.5 30.5 8.79993 30 9.29993C29.5 9.79993 29.3 10.5 29.3 11.5C29.3 12.6 29.5 13.4 30 13.9C30.5 14.4 31.1 14.7 31.9 14.7C32.3 14.7 32.7 14.6 33 14.5C33.4 14.4 33.7 14.2 34 14V12.9H32V12.7999Z" fill="#1A1A1A"/>
<path d="M41.8 16.1V15.1C41.6 15.4 41.3 15.7 40.9 15.9C40.5 16.1 40.1 16.2 39.7 16.2C39.3 16.2 38.9 16.1 38.5 15.9C38.1 15.7 37.9 15.4 37.7 15.1C37.5 14.8 37.5 14.3 37.5 13.7V9.59998H39.2V12.6C39.2 13.5 39.2 14.0999 39.3 14.2999C39.4 14.4999 39.5 14.6999 39.6 14.7999C39.7 14.8999 40 15 40.2 15C40.5 15 40.8 14.8999 41 14.7999C41.2 14.5999 41.4 14.4 41.5 14.2C41.6 14 41.6 13.4 41.6 12.4V9.69995H43.3V16.2H41.8V16.1Z" fill="white"/>
<path d="M41.8 16.1V15.1C41.6 15.4 41.3 15.7 40.9 15.9C40.5 16.1 40.1 16.2 39.7 16.2C39.3 16.2 38.9 16.1 38.5 15.9C38.1 15.7 37.9 15.4 37.7 15.1C37.5 14.8 37.5 14.3 37.5 13.7V9.59998H39.2V12.6C39.2 13.5 39.2 14.0999 39.3 14.2999C39.4 14.4999 39.5 14.6999 39.6 14.7999C39.7 14.8999 40 15 40.2 15C40.5 15 40.8 14.8999 41 14.7999C41.2 14.5999 41.4 14.4 41.5 14.2C41.6 14 41.6 13.4 41.6 12.4V9.69995H43.3V16.2H41.8V16.1Z" fill="#1A1A1A"/>
<path d="M48.9 9.59998C48.9 9.49998 48.9 9.39993 48.8 9.29993C48.8 9.19993 48.8 9.00002 48.8 8.90002C48.8 8.60002 48.9 8.29998 49 8.09998C49.1 7.89998 49.3 7.7 49.5 7.5C49.7 7.3 50 7.19998 50.2 7.09998C50.5 6.99998 50.8 7 51.2 7C51.5 7 51.9 6.99998 52.2 7.09998C52.5 7.09998 52.7 7.19993 53 7.29993C53.3 7.39993 53.5 7.4 53.7 7.5V9.69995H54.9V11.1H53.7V13.7C53.7 14 53.7 14.1999 53.7 14.2999C53.7 14.4999 53.7 14.6 53.7 14.6C53.7 14.7 53.8 14.7999 53.9 14.7999C54 14.8999 54.1 14.9 54.2 14.9C54.4 14.9 54.6 14.8 54.9 14.7L55 16C54.6 16.2 54.1 16.2999 53.6 16.2999C53.3 16.2999 53 16.2 52.8 16.1C52.6 16 52.4 15.9 52.3 15.7C52.2 15.5 52.1 15.3 52.1 15C52.1 14.8 52 14.3999 52 13.7999V11H51.2V9.59998H52V8.09998C51.9 8.09998 51.8 8.09998 51.8 8.09998C51.7 8.09998 51.7 8.09998 51.6 8.09998C51.5 8.09998 51.4 8.09998 51.4 8.09998C51.2 8.09998 51.1 8.09998 50.9 8.09998C50.7 8.09998 50.6 8.19993 50.5 8.29993C50.4 8.39993 50.3 8.49998 50.3 8.59998C50.3 8.69998 50.2 8.89998 50.2 9.09998C50.2 9.29998 50.2 9.49995 50.2 9.69995C50.2 9.89995 50.3 10.0999 50.3 10.2999C50.3 10.4999 50.4 10.6999 50.4 10.7999C50.4 10.8999 50.5 11.1 50.5 11.2L48.9 11.5C48.8 11.2 48.7 11 48.5 10.9C48.3 10.8 48 10.7 47.7 10.7C47.2 10.7 46.9 10.8 46.7 10.9C46.6 11 46.5 11.1 46.5 11.2C46.5 11.3 46.6 11.4 46.7 11.5C46.8 11.6 47.4 11.8 48.3 12C49.2 12.2 49.9 12.4999 50.2 12.7999C50.6 13.0999 50.7 13.5 50.7 14.1C50.7 14.7 50.5 15.2 50 15.6C49.5 16 48.8 16.2 47.8 16.2C47.4 16.2 47 16.2 46.6 16.1C46.2 16 45.9 15.9 45.7 15.7C45.4 15.5 45.2 15.3 45.1 15.1C44.9 14.9 44.8 14.5999 44.7 14.2999L46.4 14C46.5 14.3 46.6 14.5999 46.8 14.7999C47 14.9999 47.3 15.1 47.7 15.1C48.1 15.1 48.5 15 48.7 14.9C48.9 14.8 48.9 14.6 48.9 14.4C48.9 14.3 48.9 14.2 48.8 14.1C48.7 14 48.5 13.9 48.2 13.9C46.8 13.6 45.9 13.3 45.6 13.1C45.1 12.8 44.8 12.3 44.8 11.6C44.8 11 45 10.6 45.5 10.2C46 9.79995 46.6 9.59998 47.6 9.59998C47.9 9.59998 48.1 9.59998 48.3 9.59998C48.5 9.49998 48.7 9.59998 48.9 9.59998Z" fill="white"/>
<path d="M48.9 9.59998C48.9 9.49998 48.9 9.39993 48.8 9.29993C48.8 9.19993 48.8 9.00002 48.8 8.90002C48.8 8.60002 48.9 8.29998 49 8.09998C49.1 7.89998 49.3 7.7 49.5 7.5C49.7 7.3 50 7.19998 50.2 7.09998C50.5 6.99998 50.8 7 51.2 7C51.5 7 51.9 6.99998 52.2 7.09998C52.5 7.09998 52.7 7.19993 53 7.29993C53.3 7.39993 53.5 7.4 53.7 7.5V9.69995H54.9V11.1H53.7V13.7C53.7 14 53.7 14.1999 53.7 14.2999C53.7 14.4999 53.7 14.6 53.7 14.6C53.7 14.7 53.8 14.7999 53.9 14.7999C54 14.8999 54.1 14.9 54.2 14.9C54.4 14.9 54.6 14.8 54.9 14.7L55 16C54.6 16.2 54.1 16.2999 53.6 16.2999C53.3 16.2999 53 16.2 52.8 16.1C52.6 16 52.4 15.9 52.3 15.7C52.2 15.5 52.1 15.3 52.1 15C52.1 14.8 52 14.3999 52 13.7999V11H51.2V9.59998H52V8.09998C51.9 8.09998 51.8 8.09998 51.8 8.09998C51.7 8.09998 51.7 8.09998 51.6 8.09998C51.5 8.09998 51.4 8.09998 51.4 8.09998C51.2 8.09998 51.1 8.09998 50.9 8.09998C50.7 8.09998 50.6 8.19993 50.5 8.29993C50.4 8.39993 50.3 8.49998 50.3 8.59998C50.3 8.69998 50.2 8.89998 50.2 9.09998C50.2 9.29998 50.2 9.49995 50.2 9.69995C50.2 9.89995 50.3 10.0999 50.3 10.2999C50.3 10.4999 50.4 10.6999 50.4 10.7999C50.4 10.8999 50.5 11.1 50.5 11.2L48.9 11.5C48.8 11.2 48.7 11 48.5 10.9C48.3 10.8 48 10.7 47.7 10.7C47.2 10.7 46.9 10.8 46.7 10.9C46.6 11 46.5 11.1 46.5 11.2C46.5 11.3 46.6 11.4 46.7 11.5C46.8 11.6 47.4 11.8 48.3 12C49.2 12.2 49.9 12.4999 50.2 12.7999C50.6 13.0999 50.7 13.5 50.7 14.1C50.7 14.7 50.5 15.2 50 15.6C49.5 16 48.8 16.2 47.8 16.2C47.4 16.2 47 16.2 46.6 16.1C46.2 16 45.9 15.9 45.7 15.7C45.4 15.5 45.2 15.3 45.1 15.1C44.9 14.9 44.8 14.5999 44.7 14.2999L46.4 14C46.5 14.3 46.6 14.5999 46.8 14.7999C47 14.9999 47.3 15.1 47.7 15.1C48.1 15.1 48.5 15 48.7 14.9C48.9 14.8 48.9 14.6 48.9 14.4C48.9 14.3 48.9 14.2 48.8 14.1C48.7 14 48.5 13.9 48.2 13.9C46.8 13.6 45.9 13.3 45.6 13.1C45.1 12.8 44.8 12.3 44.8 11.6C44.8 11 45 10.6 45.5 10.2C46 9.79995 46.6 9.59998 47.6 9.59998C47.9 9.59998 48.1 9.59998 48.3 9.59998C48.5 9.49998 48.7 9.59998 48.9 9.59998Z" fill="#1A1A1A"/>
<path d="M57.2 11.6L55.6 11.2999C55.8 10.6999 56.1 10.2 56.5 9.90002C56.9 9.60002 57.6 9.40002 58.4 9.40002C59.2 9.40002 59.7 9.49995 60.1 9.69995C60.5 9.89995 60.7 10.1 60.9 10.4C61.1 10.7 61.1 11.2 61.1 11.9V13.9C61.1 14.5 61.1 14.9 61.2 15.2C61.3 15.5 61.4 15.8 61.5 16.1H59.8C59.8 16 59.7 15.8 59.6 15.6C59.6 15.5 59.6 15.4 59.5 15.4C59.2 15.7 58.9 15.9 58.6 16C58.3 16.1 57.9 16.2 57.5 16.2C56.8 16.2 56.3 16 55.9 15.7C55.5 15.3 55.3 14.8999 55.3 14.2999C55.3 13.8999 55.4 13.5999 55.6 13.2999C55.8 12.9999 56 12.8 56.3 12.6C56.6 12.4 57.1 12.3 57.7 12.2C58.5 12 59.1 11.8999 59.4 11.7999V11.6C59.4 11.3 59.3 11 59.2 10.9C59 10.8 58.7 10.7 58.3 10.7C58 10.7 57.8 10.8 57.6 10.9C57.4 11 57.3 11.3 57.2 11.6ZM59.5 13C59.3 13.1 58.9 13.1999 58.5 13.2999C58 13.3999 57.7 13.5 57.6 13.6C57.4 13.8 57.3 14 57.3 14.2C57.3 14.4 57.4 14.5999 57.6 14.7999C57.8 14.9999 58 15.1 58.3 15.1C58.6 15.1 58.9 14.9999 59.2 14.7999C59.4 14.5999 59.5 14.5 59.6 14.2C59.6 14.1 59.7 13.8 59.7 13.4V13H59.5Z" fill="white"/>
<path d="M57.2 11.6L55.6 11.2999C55.8 10.6999 56.1 10.2 56.5 9.90002C56.9 9.60002 57.6 9.40002 58.4 9.40002C59.2 9.40002 59.7 9.49995 60.1 9.69995C60.5 9.89995 60.7 10.1 60.9 10.4C61.1 10.7 61.1 11.2 61.1 11.9V13.9C61.1 14.5 61.1 14.9 61.2 15.2C61.3 15.5 61.4 15.8 61.5 16.1H59.8C59.8 16 59.7 15.8 59.6 15.6C59.6 15.5 59.6 15.4 59.5 15.4C59.2 15.7 58.9 15.9 58.6 16C58.3 16.1 57.9 16.2 57.5 16.2C56.8 16.2 56.3 16 55.9 15.7C55.5 15.3 55.3 14.8999 55.3 14.2999C55.3 13.8999 55.4 13.5999 55.6 13.2999C55.8 12.9999 56 12.8 56.3 12.6C56.6 12.4 57.1 12.3 57.7 12.2C58.5 12 59.1 11.8999 59.4 11.7999V11.6C59.4 11.3 59.3 11 59.2 10.9C59 10.8 58.7 10.7 58.3 10.7C58 10.7 57.8 10.8 57.6 10.9C57.4 11 57.3 11.3 57.2 11.6ZM59.5 13C59.3 13.1 58.9 13.1999 58.5 13.2999C58 13.3999 57.7 13.5 57.6 13.6C57.4 13.8 57.3 14 57.3 14.2C57.3 14.4 57.4 14.5999 57.6 14.7999C57.8 14.9999 58 15.1 58.3 15.1C58.6 15.1 58.9 14.9999 59.2 14.7999C59.4 14.5999 59.5 14.5 59.6 14.2C59.6 14.1 59.7 13.8 59.7 13.4V13H59.5Z" fill="#1A1A1A"/>
<path d="M64.6 16.1H62.9V9.59998H64.5V10.5C64.8 10.1 65 9.79998 65.2 9.59998C65.4 9.49998 65.7 9.40002 65.9 9.40002C66.3 9.40002 66.7 9.49995 67 9.69995L66.5 11.2C66.2 11 65.9 10.9 65.7 10.9C65.5 10.9 65.3 11 65.1 11.1C64.9 11.2 64.8 11.4999 64.7 11.7999C64.6 12.0999 64.6 12.9 64.6 14V16.1Z" fill="white"/>
<path d="M64.6 16.1H62.9V9.59998H64.5V10.5C64.8 10.1 65 9.79998 65.2 9.59998C65.4 9.49998 65.7 9.40002 65.9 9.40002C66.3 9.40002 66.7 9.49995 67 9.69995L66.5 11.2C66.2 11 65.9 10.9 65.7 10.9C65.5 10.9 65.3 11 65.1 11.1C64.9 11.2 64.8 11.4999 64.7 11.7999C64.6 12.0999 64.6 12.9 64.6 14V16.1Z" fill="#1A1A1A"/>
<path d="M10.7846 6.41934C8.19742 6.41934 6.09998 8.58574 6.09998 11.2581C6.09998 13.9304 8.19742 16.0968 10.7846 16.0968C12.47 16.0968 13.4468 15.5584 14.2945 14.6827C15.1422 13.8071 15.4509 12.4828 15.4509 11.1466C15.4509 10.9428 15.438 10.7401 15.4153 10.5395H13.5884H13.2402H10.8415V12.2503H13.528C13.4188 12.6768 13.2337 13.0655 12.9423 13.3665C12.4203 13.9056 11.8188 14.2374 10.7811 14.2374C9.18818 14.2374 7.89673 12.9034 7.89673 11.2581C7.89673 9.6127 9.18818 8.2789 10.7811 8.2789C11.5561 8.2789 12.2316 8.50749 12.7665 9.00575L14.0854 7.66702L14.0834 7.66489C13.2036 6.80787 12.0783 6.4197 10.7847 6.4197L10.7846 6.41934ZM18.383 9.2054V10.6003H17.0087V11.9631H18.383V13.3582H19.7258V11.9631H21.1V10.6003H19.7258V9.2054H18.383ZM13.2379 9.60116C13.2386 9.60218 13.2396 9.60397 13.2399 9.60523V9.60345L13.2379 9.60116Z" fill="white"/>
<path d="M10.7846 6.41934C8.19742 6.41934 6.09998 8.58574 6.09998 11.2581C6.09998 13.9304 8.19742 16.0968 10.7846 16.0968C12.47 16.0968 13.4468 15.5584 14.2945 14.6827C15.1422 13.8071 15.4509 12.4828 15.4509 11.1466C15.4509 10.9428 15.438 10.7401 15.4153 10.5395H13.5884H13.2402H10.8415V12.2503H13.528C13.4188 12.6768 13.2337 13.0655 12.9423 13.3665C12.4203 13.9056 11.8188 14.2374 10.7811 14.2374C9.18818 14.2374 7.89673 12.9034 7.89673 11.2581C7.89673 9.6127 9.18818 8.2789 10.7811 8.2789C11.5561 8.2789 12.2316 8.50749 12.7665 9.00575L14.0854 7.66702L14.0834 7.66489C13.2036 6.80787 12.0783 6.4197 10.7847 6.4197L10.7846 6.41934ZM18.383 9.2054V10.6003H17.0087V11.9631H18.383V13.3582H19.7258V11.9631H21.1V10.6003H19.7258V9.2054H18.383ZM13.2379 9.60116C13.2386 9.60218 13.2396 9.60397 13.2399 9.60523V9.60345L13.2379 9.60116Z" fill="#DD5044"/>
</svg>
