<svg width="61" height="23" viewBox="0 0 61 23" fill="none" xmlns="http://www.w3.org/2000/svg">
<path d="M3.8 0.25H57.1C58.9585 0.25 60.5532 1.73595 60.65 3.80578V19.2C60.65 21.1619 59.0619 22.75 57.1 22.75H3.8C1.83808 22.75 0.25 21.1619 0.25 19.2V3.80005C0.25 1.83812 1.83808 0.25 3.8 0.25Z" fill="white" stroke="#D7D7D7" stroke-width="0.5"/>
<path d="M32 12.6V11.1H35.9V14.7C35.5 15.1 35 15.4 34.3 15.7C33.6 16 32.9 16.1 32.1 16.1C31.2 16.1 30.3 15.9 29.6 15.5C28.9 15.1 28.4 14.5 28 13.8C27.6 13.1 27.5 12.3 27.5 11.4C27.5 10.5 27.7 9.60002 28.1 8.90002C28.5 8.20002 29.1 7.59995 29.8 7.19995C30.4 6.89995 31.1 6.80005 31.9 6.80005C33 6.80005 33.9 7 34.5 7.5C35.1 8 35.5 8.60002 35.7 9.40002L33.9 9.69995C33.8 9.29995 33.5 8.89995 33.2 8.69995C32.9 8.39995 32.4 8.30005 31.9 8.30005C31.1 8.30005 30.5 8.59998 30 9.09998C29.5 9.59998 29.3 10.3 29.3 11.3C29.3 12.4 29.5 13.2 30 13.7C30.5 14.2 31.1 14.5 31.9 14.5C32.3 14.5 32.7 14.4 33 14.3C33.4 14.2 33.7 14 34 13.8V12.7H32V12.6Z" fill="white"/>
<path d="M32 12.6V11.1H35.9V14.7C35.5 15.1 35 15.4 34.3 15.7C33.6 16 32.9 16.1 32.1 16.1C31.2 16.1 30.3 15.9 29.6 15.5C28.9 15.1 28.4 14.5 28 13.8C27.6 13.1 27.5 12.3 27.5 11.4C27.5 10.5 27.7 9.60002 28.1 8.90002C28.5 8.20002 29.1 7.59995 29.8 7.19995C30.4 6.89995 31.1 6.80005 31.9 6.80005C33 6.80005 33.9 7 34.5 7.5C35.1 8 35.5 8.60002 35.7 9.40002L33.9 9.69995C33.8 9.29995 33.5 8.89995 33.2 8.69995C32.9 8.39995 32.4 8.30005 31.9 8.30005C31.1 8.30005 30.5 8.59998 30 9.09998C29.5 9.59998 29.3 10.3 29.3 11.3C29.3 12.4 29.5 13.2 30 13.7C30.5 14.2 31.1 14.5 31.9 14.5C32.3 14.5 32.7 14.4 33 14.3C33.4 14.2 33.7 14 34 13.8V12.7H32V12.6Z" fill="#1A1A1A"/>
<path d="M37.5 8.59998V7H39.2V8.59998H37.5ZM37.5 15.9V9.40002H39.2V15.9H37.5Z" fill="white"/>
<path d="M37.5 8.59998V7H39.2V8.59998H37.5ZM37.5 15.9V9.40002H39.2V15.9H37.5Z" fill="#1A1A1A"/>
<path d="M41 15.9V6.90002H42.7V15.9H41Z" fill="white"/>
<path d="M41 15.9V6.90002H42.7V15.9H41Z" fill="#1A1A1A"/>
<path d="M44.5 15.9V6.90002H46.2V15.9H44.5Z" fill="white"/>
<path d="M44.5 15.9V6.90002H46.2V15.9H44.5Z" fill="#1A1A1A"/>
<path d="M49.2 11.4L47.6 11.1C47.8 10.5 48.1 9.99995 48.5 9.69995C48.9 9.39995 49.6 9.19995 50.4 9.19995C51.2 9.19995 51.7 9.3 52.1 9.5C52.5 9.7 52.7 9.89995 52.9 10.2C53.1 10.5 53.1 11 53.1 11.7V13.7C53.1 14.3 53.1 14.7 53.2 15C53.3 15.3 53.4 15.6 53.5 15.9H51.8C51.8 15.8 51.7 15.6 51.6 15.4C51.6 15.3 51.6 15.2 51.5 15.2C51.2 15.5 50.9 15.7 50.6 15.8C50.3 15.9 49.9 16 49.5 16C48.8 16 48.3 15.8 47.9 15.5C47.5 15.1 47.3 14.7 47.3 14.1C47.3 13.7 47.4 13.4 47.6 13.1C47.8 12.8 48 12.6 48.3 12.4C48.6 12.2 49.1 12.1 49.7 12C50.5 11.8 51.1 11.7 51.4 11.6V11.4C51.4 11.1 51.3 10.8 51.2 10.7C51 10.6 50.7 10.5 50.3 10.5C50 10.5 49.8 10.6 49.6 10.7C49.4 10.8 49.4 11.1 49.2 11.4ZM51.5 12.8C51.3 12.9 50.9 13 50.5 13.1C50 13.2 49.7 13.3 49.6 13.4C49.4 13.6 49.3 13.8 49.3 14C49.3 14.2 49.4 14.4 49.6 14.6C49.8 14.8 50 14.9 50.3 14.9C50.6 14.9 50.9 14.8 51.2 14.6C51.4 14.4 51.5 14.3 51.6 14C51.6 13.9 51.7 13.6 51.7 13.2V12.8H51.5Z" fill="white"/>
<path d="M49.2 11.4L47.6 11.1C47.8 10.5 48.1 9.99995 48.5 9.69995C48.9 9.39995 49.6 9.19995 50.4 9.19995C51.2 9.19995 51.7 9.3 52.1 9.5C52.5 9.7 52.7 9.89995 52.9 10.2C53.1 10.5 53.1 11 53.1 11.7V13.7C53.1 14.3 53.1 14.7 53.2 15C53.3 15.3 53.4 15.6 53.5 15.9H51.8C51.8 15.8 51.7 15.6 51.6 15.4C51.6 15.3 51.6 15.2 51.5 15.2C51.2 15.5 50.9 15.7 50.6 15.8C50.3 15.9 49.9 16 49.5 16C48.8 16 48.3 15.8 47.9 15.5C47.5 15.1 47.3 14.7 47.3 14.1C47.3 13.7 47.4 13.4 47.6 13.1C47.8 12.8 48 12.6 48.3 12.4C48.6 12.2 49.1 12.1 49.7 12C50.5 11.8 51.1 11.7 51.4 11.6V11.4C51.4 11.1 51.3 10.8 51.2 10.7C51 10.6 50.7 10.5 50.3 10.5C50 10.5 49.8 10.6 49.6 10.7C49.4 10.8 49.4 11.1 49.2 11.4ZM51.5 12.8C51.3 12.9 50.9 13 50.5 13.1C50 13.2 49.7 13.3 49.6 13.4C49.4 13.6 49.3 13.8 49.3 14C49.3 14.2 49.4 14.4 49.6 14.6C49.8 14.8 50 14.9 50.3 14.9C50.6 14.9 50.9 14.8 51.2 14.6C51.4 14.4 51.5 14.3 51.6 14C51.6 13.9 51.7 13.6 51.7 13.2V12.8H51.5Z" fill="#1A1A1A"/>
<path d="M10.7846 6.41934C8.19742 6.41934 6.09998 8.58574 6.09998 11.2581C6.09998 13.9304 8.19742 16.0968 10.7846 16.0968C12.47 16.0968 13.4468 15.5584 14.2945 14.6827C15.1422 13.8071 15.4509 12.4828 15.4509 11.1466C15.4509 10.9428 15.438 10.7401 15.4153 10.5395H13.5884H13.2402H10.8415V12.2503H13.528C13.4188 12.6768 13.2337 13.0655 12.9423 13.3665C12.4203 13.9056 11.8188 14.2374 10.7811 14.2374C9.18818 14.2374 7.89673 12.9034 7.89673 11.2581C7.89673 9.6127 9.18818 8.2789 10.7811 8.2789C11.5561 8.2789 12.2316 8.50749 12.7665 9.00575L14.0854 7.66702L14.0834 7.66489C13.2036 6.80787 12.0783 6.4197 10.7847 6.4197L10.7846 6.41934ZM18.383 9.2054V10.6003H17.0087V11.9631H18.383V13.3582H19.7258V11.9631H21.1V10.6003H19.7258V9.2054H18.383ZM13.2379 9.60116C13.2386 9.60218 13.2396 9.60397 13.2399 9.60523V9.60345L13.2379 9.60116Z" fill="white"/>
<path d="M10.7846 6.41934C8.19742 6.41934 6.09998 8.58574 6.09998 11.2581C6.09998 13.9304 8.19742 16.0968 10.7846 16.0968C12.47 16.0968 13.4468 15.5584 14.2945 14.6827C15.1422 13.8071 15.4509 12.4828 15.4509 11.1466C15.4509 10.9428 15.438 10.7401 15.4153 10.5395H13.5884H13.2402H10.8415V12.2503H13.528C13.4188 12.6768 13.2337 13.0655 12.9423 13.3665C12.4203 13.9056 11.8188 14.2374 10.7811 14.2374C9.18818 14.2374 7.89673 12.9034 7.89673 11.2581C7.89673 9.6127 9.18818 8.2789 10.7811 8.2789C11.5561 8.2789 12.2316 8.50749 12.7665 9.00575L14.0854 7.66702L14.0834 7.66489C13.2036 6.80787 12.0783 6.4197 10.7847 6.4197L10.7846 6.41934ZM18.383 9.2054V10.6003H17.0087V11.9631H18.383V13.3582H19.7258V11.9631H21.1V10.6003H19.7258V9.2054H18.383ZM13.2379 9.60116C13.2386 9.60218 13.2396 9.60397 13.2399 9.60523V9.60345L13.2379 9.60116Z" fill="#DD5044"/>
</svg>
