<svg width="71" height="23" viewBox="0 0 71 23" fill="none" xmlns="http://www.w3.org/2000/svg">
<path d="M3.8 0.25H67.1C68.9539 0.25 70.553 1.83104 70.65 3.8061V19.2001C70.65 21.162 69.0619 22.75 67.1 22.75H3.8C1.83807 22.75 0.25 21.162 0.25 19.2001V3.80005C0.25 1.83812 1.83808 0.25 3.8 0.25Z" fill="white" stroke="#D7D7D7" stroke-width="0.5"/>
<path d="M27.5 5.80005H31.1C31.8 5.80005 32.3 5.80002 32.7 5.90002C33 6.00002 33.4 6.10005 33.6 6.30005C33.9 6.50005 34.1 6.7 34.3 7C34.5 7.3 34.6 7.7 34.6 8C34.6 8.4 34.5 8.80007 34.3 9.20007C34.1 9.60007 33.8 9.8 33.4 10C33.9 10.2 34.4 10.4 34.7 10.8C35 11.2 35.1 11.6001 35.1 12.2001C35.1 12.6001 35 13 34.8 13.4C34.6 13.8 34.4 14.1 34 14.3C33.7 14.5 33.3 14.7001 32.8 14.7001C32.5 14.7001 31.8 14.8 30.6 14.8H27.5V5.80005ZM29.3 7.20007V9.30005H30.5C31.2 9.30005 31.6 9.30005 31.8 9.30005C32.1 9.30005 32.4 9.2 32.5 9C32.7 8.8 32.8 8.60005 32.8 8.30005C32.8 8.00005 32.7 7.79998 32.6 7.59998C32.5 7.39998 32.2 7.30005 31.9 7.30005C31.7 7.30005 31.2 7.30005 30.4 7.30005H29.3V7.20007ZM29.3 10.8V13.2001H31C31.7 13.2001 32.1 13.2 32.2 13.1C32.5 13.1 32.7 12.9001 32.9 12.7001C33.1 12.5001 33.2 12.3 33.2 11.9C33.2 11.6 33.1 11.4001 33 11.2001C32.9 11.0001 32.7 10.9 32.4 10.8C32.2 10.7 31.6 10.7001 30.8 10.7001H29.3V10.8Z" fill="white"/>
<path d="M27.5 5.80005H31.1C31.8 5.80005 32.3 5.80002 32.7 5.90002C33 6.00002 33.4 6.10005 33.6 6.30005C33.9 6.50005 34.1 6.7 34.3 7C34.5 7.3 34.6 7.7 34.6 8C34.6 8.4 34.5 8.80007 34.3 9.20007C34.1 9.60007 33.8 9.8 33.4 10C33.9 10.2 34.4 10.4 34.7 10.8C35 11.2 35.1 11.6001 35.1 12.2001C35.1 12.6001 35 13 34.8 13.4C34.6 13.8 34.4 14.1 34 14.3C33.7 14.5 33.3 14.7001 32.8 14.7001C32.5 14.7001 31.8 14.8 30.6 14.8H27.5V5.80005ZM29.3 7.20007V9.30005H30.5C31.2 9.30005 31.6 9.30005 31.8 9.30005C32.1 9.30005 32.4 9.2 32.5 9C32.7 8.8 32.8 8.60005 32.8 8.30005C32.8 8.00005 32.7 7.79998 32.6 7.59998C32.5 7.39998 32.2 7.30005 31.9 7.30005C31.7 7.30005 31.2 7.30005 30.4 7.30005H29.3V7.20007ZM29.3 10.8V13.2001H31C31.7 13.2001 32.1 13.2 32.2 13.1C32.5 13.1 32.7 12.9001 32.9 12.7001C33.1 12.5001 33.2 12.3 33.2 11.9C33.2 11.6 33.1 11.4001 33 11.2001C32.9 11.0001 32.7 10.9 32.4 10.8C32.2 10.7 31.6 10.7001 30.8 10.7001H29.3V10.8Z" fill="#1A1A1A"/>
<path d="M40.3 12.7001L42 13C41.8 13.6 41.4 14.1 41 14.4C40.6 14.7 39.9 14.9 39.2 14.9C38.1 14.9 37.2 14.5 36.7 13.8C36.3 13.2 36.1 12.5 36.1 11.6C36.1 10.5 36.4 9.69998 36.9 9.09998C37.5 8.49998 38.2 8.20007 39 8.20007C40 8.20007 40.7 8.50007 41.3 9.20007C41.9 9.80007 42.1 10.8 42.1 12.1H37.8C37.8 12.6 38 13 38.2 13.3C38.5 13.6 38.8 13.7001 39.2 13.7001C39.5 13.7001 39.7 13.6 39.9 13.5C40 13.2 40.2 13.0001 40.3 12.7001ZM40.4 10.9C40.4 10.4 40.3 10 40 9.80005C39.7 9.60005 39.5 9.40002 39.1 9.40002C38.7 9.40002 38.4 9.50005 38.2 9.80005C38 10.1 37.8 10.4 37.8 10.9H40.4Z" fill="white"/>
<path d="M40.3 12.7001L42 13C41.8 13.6 41.4 14.1 41 14.4C40.6 14.7 39.9 14.9 39.2 14.9C38.1 14.9 37.2 14.5 36.7 13.8C36.3 13.2 36.1 12.5 36.1 11.6C36.1 10.5 36.4 9.69998 36.9 9.09998C37.5 8.49998 38.2 8.20007 39 8.20007C40 8.20007 40.7 8.50007 41.3 9.20007C41.9 9.80007 42.1 10.8 42.1 12.1H37.8C37.8 12.6 38 13 38.2 13.3C38.5 13.6 38.8 13.7001 39.2 13.7001C39.5 13.7001 39.7 13.6 39.9 13.5C40 13.2 40.2 13.0001 40.3 12.7001ZM40.4 10.9C40.4 10.4 40.3 10 40 9.80005C39.7 9.60005 39.5 9.40002 39.1 9.40002C38.7 9.40002 38.4 9.50005 38.2 9.80005C38 10.1 37.8 10.4 37.8 10.9H40.4Z" fill="#1A1A1A"/>
<path d="M43.3 15.1L45.3 15.3C45.3 15.5 45.4 15.7 45.5 15.8C45.7 15.9 45.9 16 46.3 16C46.7 16 47.1 15.9 47.3 15.8C47.5 15.7 47.6 15.6 47.6 15.4C47.7 15.3 47.7 15 47.7 14.6V13.7001C47.2 14.4001 46.5 14.8 45.8 14.8C44.9 14.8 44.2 14.4001 43.7 13.7001C43.3 13.1001 43.1 12.4 43.1 11.5C43.1 10.4 43.4 9.6 43.9 9C44.4 8.4 45.1 8.09998 45.9 8.09998C46.7 8.09998 47.4 8.50007 47.9 9.20007V8.30005H49.5V14.1C49.5 14.9 49.4 15.4 49.3 15.8C49.2 16.2 49 16.5001 48.8 16.7001C48.6 16.9001 48.3 17.1001 47.9 17.2001C47.5 17.3001 47 17.4 46.5 17.4C45.4 17.4 44.6 17.2 44.2 16.8C43.8 16.4 43.5 15.9 43.5 15.4C43.3 15.3 43.3 15.2 43.3 15.1ZM47.3 5.59998H48.1C48.1 6.19998 47.9 6.60002 47.5 6.90002C47.2 7.20002 46.7 7.40002 46.2 7.40002C45.7 7.40002 45.2 7.20002 44.9 6.90002C44.6 6.60002 44.4 6.09998 44.3 5.59998H45.1C45.1 5.89998 45.2 6.10005 45.4 6.30005C45.6 6.40005 45.8 6.5 46.2 6.5C46.5 6.5 46.8 6.40005 47 6.30005C47.2 6.10005 47.3 5.89998 47.3 5.59998ZM44.9 11.3C44.9 12 45 12.5 45.3 12.8C45.6 13.1 45.9 13.3 46.3 13.3C46.7 13.3 47.1 13.1 47.4 12.8C47.7 12.5 47.8 12 47.8 11.3C47.8 10.6 47.7 10.1 47.4 9.80005C47.1 9.50005 46.8 9.30005 46.3 9.30005C45.9 9.30005 45.5 9.50005 45.3 9.80005C45 10.2 44.9 10.7 44.9 11.3Z" fill="white"/>
<path d="M43.3 15.1L45.3 15.3C45.3 15.5 45.4 15.7 45.5 15.8C45.7 15.9 45.9 16 46.3 16C46.7 16 47.1 15.9 47.3 15.8C47.5 15.7 47.6 15.6 47.6 15.4C47.7 15.3 47.7 15 47.7 14.6V13.7001C47.2 14.4001 46.5 14.8 45.8 14.8C44.9 14.8 44.2 14.4001 43.7 13.7001C43.3 13.1001 43.1 12.4 43.1 11.5C43.1 10.4 43.4 9.6 43.9 9C44.4 8.4 45.1 8.09998 45.9 8.09998C46.7 8.09998 47.4 8.50007 47.9 9.20007V8.30005H49.5V14.1C49.5 14.9 49.4 15.4 49.3 15.8C49.2 16.2 49 16.5001 48.8 16.7001C48.6 16.9001 48.3 17.1001 47.9 17.2001C47.5 17.3001 47 17.4 46.5 17.4C45.4 17.4 44.6 17.2 44.2 16.8C43.8 16.4 43.5 15.9 43.5 15.4C43.3 15.3 43.3 15.2 43.3 15.1ZM47.3 5.59998H48.1C48.1 6.19998 47.9 6.60002 47.5 6.90002C47.2 7.20002 46.7 7.40002 46.2 7.40002C45.7 7.40002 45.2 7.20002 44.9 6.90002C44.6 6.60002 44.4 6.09998 44.3 5.59998H45.1C45.1 5.89998 45.2 6.10005 45.4 6.30005C45.6 6.40005 45.8 6.5 46.2 6.5C46.5 6.5 46.8 6.40005 47 6.30005C47.2 6.10005 47.3 5.89998 47.3 5.59998ZM44.9 11.3C44.9 12 45 12.5 45.3 12.8C45.6 13.1 45.9 13.3 46.3 13.3C46.7 13.3 47.1 13.1 47.4 12.8C47.7 12.5 47.8 12 47.8 11.3C47.8 10.6 47.7 10.1 47.4 9.80005C47.1 9.50005 46.8 9.30005 46.3 9.30005C45.9 9.30005 45.5 9.50005 45.3 9.80005C45 10.2 44.9 10.7 44.9 11.3Z" fill="#1A1A1A"/>
<path d="M54.9 12.7001L56.6 13C56.4 13.6 56 14.1 55.6 14.4C55.2 14.7 54.5 14.9 53.8 14.9C52.7 14.9 51.8 14.5 51.3 13.8C50.9 13.2 50.7 12.5 50.7 11.6C50.7 10.5 51 9.69998 51.5 9.09998C52.1 8.49998 52.8 8.20007 53.6 8.20007C54.6 8.20007 55.3 8.50007 55.9 9.20007C56.5 9.80007 56.7 10.8 56.7 12.1H52.4C52.4 12.6 52.6 13 52.8 13.3C53.1 13.6 53.4 13.7001 53.8 13.7001C54.1 13.7001 54.3 13.6 54.5 13.5C54.7 13.2 54.8 13.0001 54.9 12.7001ZM55 10.9C55 10.4 54.9 10 54.6 9.80005C54.3 9.60005 54.1 9.40002 53.7 9.40002C53.3 9.40002 53 9.50005 52.8 9.80005C52.6 10.1 52.4 10.4 52.4 10.9H55Z" fill="white"/>
<path d="M54.9 12.7001L56.6 13C56.4 13.6 56 14.1 55.6 14.4C55.2 14.7 54.5 14.9 53.8 14.9C52.7 14.9 51.8 14.5 51.3 13.8C50.9 13.2 50.7 12.5 50.7 11.6C50.7 10.5 51 9.69998 51.5 9.09998C52.1 8.49998 52.8 8.20007 53.6 8.20007C54.6 8.20007 55.3 8.50007 55.9 9.20007C56.5 9.80007 56.7 10.8 56.7 12.1H52.4C52.4 12.6 52.6 13 52.8 13.3C53.1 13.6 53.4 13.7001 53.8 13.7001C54.1 13.7001 54.3 13.6 54.5 13.5C54.7 13.2 54.8 13.0001 54.9 12.7001ZM55 10.9C55 10.4 54.9 10 54.6 9.80005C54.3 9.60005 54.1 9.40002 53.7 9.40002C53.3 9.40002 53 9.50005 52.8 9.80005C52.6 10.1 52.4 10.4 52.4 10.9H55Z" fill="#1A1A1A"/>
<path d="M64 14.7001H62.3V11.4C62.3 10.7 62.3 10.2 62.2 10C62.1 9.8 62 9.6 61.8 9.5C61.6 9.4 61.4 9.30005 61.2 9.30005C60.9 9.30005 60.6 9.4 60.4 9.5C60.2 9.6 60 9.89998 59.9 10.1C59.8 10.4 59.8 10.9 59.8 11.6V14.5H58.1V8H59.7V9C60.3 8.3 61 7.90002 61.8 7.90002C62.2 7.90002 62.5 7.99998 62.8 8.09998C63.1 8.19998 63.4 8.39998 63.5 8.59998C63.6 8.79998 63.8 9.10005 63.8 9.30005C63.9 9.60005 63.9 10 63.9 10.5V14.7001H64Z" fill="white"/>
<path d="M64 14.7001H62.3V11.4C62.3 10.7 62.3 10.2 62.2 10C62.1 9.8 62 9.6 61.8 9.5C61.6 9.4 61.4 9.30005 61.2 9.30005C60.9 9.30005 60.6 9.4 60.4 9.5C60.2 9.6 60 9.89998 59.9 10.1C59.8 10.4 59.8 10.9 59.8 11.6V14.5H58.1V8H59.7V9C60.3 8.3 61 7.90002 61.8 7.90002C62.2 7.90002 62.5 7.99998 62.8 8.09998C63.1 8.19998 63.4 8.39998 63.5 8.59998C63.6 8.79998 63.8 9.10005 63.8 9.30005C63.9 9.60005 63.9 10 63.9 10.5V14.7001H64Z" fill="#1A1A1A"/>
<path d="M10.7846 6.41934C8.19742 6.41934 6.09998 8.58574 6.09998 11.2581C6.09998 13.9304 8.19742 16.0968 10.7846 16.0968C12.47 16.0968 13.4468 15.5584 14.2945 14.6827C15.1422 13.8071 15.4509 12.4828 15.4509 11.1466C15.4509 10.9428 15.438 10.7401 15.4153 10.5395H13.5884H13.2402H10.8415V12.2503H13.528C13.4188 12.6768 13.2337 13.0655 12.9423 13.3665C12.4203 13.9056 11.8188 14.2374 10.7811 14.2374C9.18818 14.2374 7.89673 12.9034 7.89673 11.2581C7.89673 9.6127 9.18818 8.2789 10.7811 8.2789C11.5561 8.2789 12.2316 8.50749 12.7665 9.00575L14.0854 7.66702L14.0834 7.66489C13.2036 6.80787 12.0783 6.4197 10.7847 6.4197L10.7846 6.41934ZM18.383 9.2054V10.6003H17.0087V11.9631H18.383V13.3582H19.7258V11.9631H21.1V10.6003H19.7258V9.2054H18.383ZM13.2379 9.60116C13.2386 9.60218 13.2396 9.60397 13.2399 9.60523V9.60345L13.2379 9.60116Z" fill="white"/>
<path d="M10.7846 6.41934C8.19742 6.41934 6.09998 8.58574 6.09998 11.2581C6.09998 13.9304 8.19742 16.0968 10.7846 16.0968C12.47 16.0968 13.4468 15.5584 14.2945 14.6827C15.1422 13.8071 15.4509 12.4828 15.4509 11.1466C15.4509 10.9428 15.438 10.7401 15.4153 10.5395H13.5884H13.2402H10.8415V12.2503H13.528C13.4188 12.6768 13.2337 13.0655 12.9423 13.3665C12.4203 13.9056 11.8188 14.2374 10.7811 14.2374C9.18818 14.2374 7.89673 12.9034 7.89673 11.2581C7.89673 9.6127 9.18818 8.2789 10.7811 8.2789C11.5561 8.2789 12.2316 8.50749 12.7665 9.00575L14.0854 7.66702L14.0834 7.66489C13.2036 6.80787 12.0783 6.4197 10.7847 6.4197L10.7846 6.41934ZM18.383 9.2054V10.6003H17.0087V11.9631H18.383V13.3582H19.7258V11.9631H21.1V10.6003H19.7258V9.2054H18.383ZM13.2379 9.60116C13.2386 9.60218 13.2396 9.60397 13.2399 9.60523V9.60345L13.2379 9.60116Z" fill="#DD5044"/>
</svg>
