<svg width="114" height="23" viewBox="0 0 114 23" fill="none" xmlns="http://www.w3.org/2000/svg">
<path d="M3.8 0.25H110.1C111.954 0.25 113.553 1.83093 113.65 3.80598V19.2C113.65 21.1619 112.062 22.75 110.1 22.75H3.8C1.83808 22.75 0.25 21.1619 0.25 19.2V3.79993C0.25 1.838 1.83807 0.25 3.8 0.25Z" fill="white" stroke="#D7D7D7" stroke-width="0.5"/>
<path d="M27.5 6.29993H34.6V15.2999H32.8V7.79993H29.3V15.2999H27.5V6.29993Z" fill="white"/>
<path d="M27.5 6.29993H34.6V15.2999H32.8V7.79993H29.3V15.2999H27.5V6.29993Z" fill="#1A1A1A"/>
<path d="M36.1 11.8999C36.1 11.2999 36.2 10.8 36.5 10.2C36.8 9.69995 37.2 9.3 37.7 9C38.2 8.7 38.8 8.59998 39.4 8.59998C40.4 8.59998 41.2 8.89998 41.8 9.59998C42.4 10.2 42.7 11 42.7 12C42.7 13 42.4 13.7999 41.7 14.3999C41.1 14.9999 40.3 15.3999 39.3 15.3999C38.7 15.3999 38.1 15.3 37.6 15C37.1 14.7 36.6 14.2999 36.4 13.7999C36.2 13.2999 36.1 12.6999 36.1 11.8999ZM37.8 12C37.8 12.6 38 13.1 38.3 13.5C38.6 13.8 39 14 39.4 14C39.8 14 40.2 13.8 40.5 13.5C40.8 13.2 41 12.7 41 12C41 11.4 40.8 10.9 40.5 10.5C40.2 10.2 39.8 10 39.4 10C39 10 38.6 10.2 38.3 10.5C38 10.8 37.8 11.4 37.8 12Z" fill="white"/>
<path d="M36.1 11.8999C36.1 11.2999 36.2 10.8 36.5 10.2C36.8 9.69995 37.2 9.3 37.7 9C38.2 8.7 38.8 8.59998 39.4 8.59998C40.4 8.59998 41.2 8.89998 41.8 9.59998C42.4 10.2 42.7 11 42.7 12C42.7 13 42.4 13.7999 41.7 14.3999C41.1 14.9999 40.3 15.3999 39.3 15.3999C38.7 15.3999 38.1 15.3 37.6 15C37.1 14.7 36.6 14.2999 36.4 13.7999C36.2 13.2999 36.1 12.6999 36.1 11.8999ZM37.8 12C37.8 12.6 38 13.1 38.3 13.5C38.6 13.8 39 14 39.4 14C39.8 14 40.2 13.8 40.5 13.5C40.8 13.2 41 12.7 41 12C41 11.4 40.8 10.9 40.5 10.5C40.2 10.2 39.8 10 39.4 10C39 10 38.6 10.2 38.3 10.5C38 10.8 37.8 11.4 37.8 12Z" fill="#1A1A1A"/>
<path d="M49.3 15.2999H44.4V17H43V13.8999H43.7C44 13.5999 44.2 13.0999 44.4 12.3999C44.6 11.6999 44.7 10.4999 44.7 8.79993H49.9V13.8999H50.6V17H49.2V15.2999H49.3ZM48.3 13.8999V10.2H46.2C46.1 12 45.8 13.1999 45.3 13.8999H48.3Z" fill="white"/>
<path d="M49.3 15.2999H44.4V17H43V13.8999H43.7C44 13.5999 44.2 13.0999 44.4 12.3999C44.6 11.6999 44.7 10.4999 44.7 8.79993H49.9V13.8999H50.6V17H49.2V15.2999H49.3ZM48.3 13.8999V10.2H46.2C46.1 12 45.8 13.1999 45.3 13.8999H48.3Z" fill="#1A1A1A"/>
<path d="M51.5 11.8999C51.5 11.2999 51.6 10.8 51.9 10.2C52.2 9.69995 52.6 9.3 53.1 9C53.6 8.7 54.2 8.59998 54.8 8.59998C55.8 8.59998 56.6 8.89998 57.2 9.59998C57.8 10.2 58.1 11 58.1 12C58.1 13 57.8 13.7999 57.1 14.3999C56.5 14.9999 55.7 15.3999 54.7 15.3999C54.1 15.3999 53.5 15.3 53 15C52.5 14.7 52 14.2999 51.8 13.7999C51.6 13.2999 51.5 12.6999 51.5 11.8999ZM53.2 12C53.2 12.6 53.4 13.1 53.7 13.5C54 13.8 54.4 14 54.8 14C55.2 14 55.6 13.8 55.9 13.5C56.2 13.2 56.4 12.7 56.4 12C56.4 11.4 56.2 10.9 55.9 10.5C55.6 10.2 55.2 10 54.8 10C54.4 10 54 10.2 53.7 10.5C53.4 10.8 53.2 11.4 53.2 12Z" fill="white"/>
<path d="M51.5 11.8999C51.5 11.2999 51.6 10.8 51.9 10.2C52.2 9.69995 52.6 9.3 53.1 9C53.6 8.7 54.2 8.59998 54.8 8.59998C55.8 8.59998 56.6 8.89998 57.2 9.59998C57.8 10.2 58.1 11 58.1 12C58.1 13 57.8 13.7999 57.1 14.3999C56.5 14.9999 55.7 15.3999 54.7 15.3999C54.1 15.3999 53.5 15.3 53 15C52.5 14.7 52 14.2999 51.8 13.7999C51.6 13.2999 51.5 12.6999 51.5 11.8999ZM53.2 12C53.2 12.6 53.4 13.1 53.7 13.5C54 13.8 54.4 14 54.8 14C55.2 14 55.6 13.8 55.9 13.5C56.2 13.2 56.4 12.7 56.4 12C56.4 11.4 56.2 10.9 55.9 10.5C55.6 10.2 55.2 10 54.8 10C54.4 10 54 10.2 53.7 10.5C53.4 10.8 53.2 11.4 53.2 12Z" fill="#1A1A1A"/>
<path d="M64.4 6.09998H65.6C65.6 6.59998 65.4 6.99993 65.2 7.29993C65 7.59993 64.4 7.69995 63.5 7.69995C63.4 7.69995 63.3 7.69995 63.2 7.69995H63C62.5 7.69995 62 7.7999 61.7 7.8999C61.4 7.9999 61.1 8.29998 60.9 8.59998C60.7 8.89998 60.6 9.49993 60.6 10.2999C60.9 9.79993 61.2 9.49995 61.6 9.19995C62 8.89995 62.5 8.79993 63 8.79993C63.9 8.79993 64.6 9.09993 65.2 9.79993C65.8 10.4999 66.1 11.2 66.1 12.1C66.1 13 65.8 13.7999 65.2 14.3999C64.6 15.0999 63.8 15.3999 62.8 15.3999C62.1 15.3999 61.5 15.1999 61 14.8999C60.5 14.5999 60.1 14.1 59.9 13.5C59.7 12.9 59.6 12 59.6 10.7C59.6 9.09995 59.9 7.99993 60.5 7.29993C61.1 6.59993 62.1 6.29993 63.5 6.29993H64.4C64.2 6.29993 64.3 6.29998 64.4 6.09998ZM60.9 12.1C60.9 12.7 61 13.2 61.3 13.5C61.6 13.8 62 14 62.4 14C62.9 14 63.2 13.8 63.5 13.5C63.8 13.2 63.9 12.7 63.9 12.1C63.9 11.5 63.8 11.1 63.5 10.7C63.2 10.3 62.8 10.2 62.4 10.2C62 10.2 61.6 10.4 61.3 10.7C61 11 60.9 11.5 60.9 12.1Z" fill="white"/>
<path d="M64.4 6.09998H65.6C65.6 6.59998 65.4 6.99993 65.2 7.29993C65 7.59993 64.4 7.69995 63.5 7.69995C63.4 7.69995 63.3 7.69995 63.2 7.69995H63C62.5 7.69995 62 7.7999 61.7 7.8999C61.4 7.9999 61.1 8.29998 60.9 8.59998C60.7 8.89998 60.6 9.49993 60.6 10.2999C60.9 9.79993 61.2 9.49995 61.6 9.19995C62 8.89995 62.5 8.79993 63 8.79993C63.9 8.79993 64.6 9.09993 65.2 9.79993C65.8 10.4999 66.1 11.2 66.1 12.1C66.1 13 65.8 13.7999 65.2 14.3999C64.6 15.0999 63.8 15.3999 62.8 15.3999C62.1 15.3999 61.5 15.1999 61 14.8999C60.5 14.5999 60.1 14.1 59.9 13.5C59.7 12.9 59.6 12 59.6 10.7C59.6 9.09995 59.9 7.99993 60.5 7.29993C61.1 6.59993 62.1 6.29993 63.5 6.29993H64.4C64.2 6.29993 64.3 6.29998 64.4 6.09998ZM60.9 12.1C60.9 12.7 61 13.2 61.3 13.5C61.6 13.8 62 14 62.4 14C62.9 14 63.2 13.8 63.5 13.5C63.8 13.2 63.9 12.7 63.9 12.1C63.9 11.5 63.8 11.1 63.5 10.7C63.2 10.3 62.8 10.2 62.4 10.2C62 10.2 61.6 10.4 61.3 10.7C61 11 60.9 11.5 60.9 12.1Z" fill="#1A1A1A"/>
<path d="M68.5 10.7999L66.9 10.5C67.1 9.9 67.4 9.39998 67.8 9.09998C68.2 8.79998 68.9 8.59998 69.7 8.59998C70.5 8.59998 71 8.6999 71.4 8.8999C71.8 9.0999 72 9.29998 72.2 9.59998C72.4 9.89998 72.4 10.4 72.4 11.1V13.1C72.4 13.7 72.4 14.0999 72.5 14.3999C72.6 14.6999 72.7 14.9999 72.8 15.2999H71.1C71.1 15.1999 71 14.9999 70.9 14.7999C70.9 14.6999 70.9 14.6 70.8 14.6C70.5 14.9 70.2 15.1 69.9 15.2C69.6 15.3 69.2 15.3999 68.8 15.3999C68.1 15.3999 67.6 15.1999 67.2 14.8999C66.8 14.4999 66.6 14.1 66.6 13.5C66.6 13.1 66.7 12.8 66.9 12.5C67.1 12.2 67.3 11.9999 67.6 11.7999C67.9 11.5999 68.4 11.4999 69 11.3999C69.8 11.1999 70.4 11.1 70.7 11V10.7999C70.7 10.4999 70.6 10.2 70.5 10.1C70.3 9.99998 70 9.8999 69.6 9.8999C69.3 9.8999 69.1 9.99998 68.9 10.1C68.7 10.2 68.7 10.4999 68.5 10.7999ZM70.8 12.1C70.6 12.2 70.2 12.2999 69.8 12.3999C69.3 12.4999 69 12.6 68.9 12.7C68.7 12.9 68.6 13.0999 68.6 13.2999C68.6 13.4999 68.7 13.6999 68.9 13.8999C69.1 14.0999 69.3 14.2 69.6 14.2C69.9 14.2 70.2 14.0999 70.5 13.8999C70.7 13.6999 70.8 13.5999 70.9 13.2999C70.9 13.1999 71 12.9 71 12.5V12.1H70.8Z" fill="white"/>
<path d="M68.5 10.7999L66.9 10.5C67.1 9.9 67.4 9.39998 67.8 9.09998C68.2 8.79998 68.9 8.59998 69.7 8.59998C70.5 8.59998 71 8.6999 71.4 8.8999C71.8 9.0999 72 9.29998 72.2 9.59998C72.4 9.89998 72.4 10.4 72.4 11.1V13.1C72.4 13.7 72.4 14.0999 72.5 14.3999C72.6 14.6999 72.7 14.9999 72.8 15.2999H71.1C71.1 15.1999 71 14.9999 70.9 14.7999C70.9 14.6999 70.9 14.6 70.8 14.6C70.5 14.9 70.2 15.1 69.9 15.2C69.6 15.3 69.2 15.3999 68.8 15.3999C68.1 15.3999 67.6 15.1999 67.2 14.8999C66.8 14.4999 66.6 14.1 66.6 13.5C66.6 13.1 66.7 12.8 66.9 12.5C67.1 12.2 67.3 11.9999 67.6 11.7999C67.9 11.5999 68.4 11.4999 69 11.3999C69.8 11.1999 70.4 11.1 70.7 11V10.7999C70.7 10.4999 70.6 10.2 70.5 10.1C70.3 9.99998 70 9.8999 69.6 9.8999C69.3 9.8999 69.1 9.99998 68.9 10.1C68.7 10.2 68.7 10.4999 68.5 10.7999ZM70.8 12.1C70.6 12.2 70.2 12.2999 69.8 12.3999C69.3 12.4999 69 12.6 68.9 12.7C68.7 12.9 68.6 13.0999 68.6 13.2999C68.6 13.4999 68.7 13.6999 68.9 13.8999C69.1 14.0999 69.3 14.2 69.6 14.2C69.9 14.2 70.2 14.0999 70.5 13.8999C70.7 13.6999 70.8 13.5999 70.9 13.2999C70.9 13.1999 71 12.9 71 12.5V12.1H70.8Z" fill="#1A1A1A"/>
<path d="M77.4 12.5H75.6C75.7 13 75.8 13.4 76 13.7C76.2 14 76.5 14.1 76.9 14.1C77.5 14.1 77.9 13.8 78.1 13.1L79.8 13.3999C79.4 14.7999 78.4 15.5 76.9 15.5C75.9 15.5 75.1 15.2 74.6 14.6C74.1 14 73.8 13.2 73.8 12.1C73.8 11.1 74.1 10.2 74.6 9.59998C75.1 8.99998 75.9 8.69995 76.9 8.69995C78.3 8.69995 79.3 9.3 79.7 10.5L78 10.7999C77.9 10.4999 77.8 10.3 77.6 10.2C77.4 10.1 77.1 10 76.9 10C76.5 10 76.2 10.0999 76 10.3999C75.8 10.6999 75.7 11 75.6 11.5H77.4V12.5Z" fill="white"/>
<path d="M77.4 12.5H75.6C75.7 13 75.8 13.4 76 13.7C76.2 14 76.5 14.1 76.9 14.1C77.5 14.1 77.9 13.8 78.1 13.1L79.8 13.3999C79.4 14.7999 78.4 15.5 76.9 15.5C75.9 15.5 75.1 15.2 74.6 14.6C74.1 14 73.8 13.2 73.8 12.1C73.8 11.1 74.1 10.2 74.6 9.59998C75.1 8.99998 75.9 8.69995 76.9 8.69995C78.3 8.69995 79.3 9.3 79.7 10.5L78 10.7999C77.9 10.4999 77.8 10.3 77.6 10.2C77.4 10.1 77.1 10 76.9 10C76.5 10 76.2 10.0999 76 10.3999C75.8 10.6999 75.7 11 75.6 11.5H77.4V12.5Z" fill="#1A1A1A"/>
<path d="M80.4 8.79993H86.3V10.2H84.2V15.2999H82.5V10.2H80.4V8.79993Z" fill="white"/>
<path d="M80.4 8.79993H86.3V10.2H84.2V15.2999H82.5V10.2H80.4V8.79993Z" fill="#1A1A1A"/>
<path d="M87.3 8.79993H89V11.5H90.7C91.4 11.5 91.9 11.5 92.3 11.6C92.7 11.7 93 11.9 93.2 12.2C93.4 12.5 93.6 12.8999 93.6 13.2999C93.6 13.8999 93.4 14.4 93 14.7C92.6 15 91.9 15.2 91.1 15.2H87.4V8.79993H87.3ZM89 14.2H90.6C91.1 14.2 91.4 14.1 91.6 14C91.8 13.9 91.8 13.5999 91.8 13.3999C91.8 13.0999 91.7 12.8999 91.4 12.7999C91.2 12.6999 90.7 12.6 90.1 12.6H89V14.2Z" fill="white"/>
<path d="M87.3 8.79993H89V11.5H90.7C91.4 11.5 91.9 11.5 92.3 11.6C92.7 11.7 93 11.9 93.2 12.2C93.4 12.5 93.6 12.8999 93.6 13.2999C93.6 13.8999 93.4 14.4 93 14.7C92.6 15 91.9 15.2 91.1 15.2H87.4V8.79993H87.3ZM89 14.2H90.6C91.1 14.2 91.4 14.1 91.6 14C91.8 13.9 91.8 13.5999 91.8 13.3999C91.8 13.0999 91.7 12.8999 91.4 12.7999C91.2 12.6999 90.7 12.6 90.1 12.6H89V14.2Z" fill="#1A1A1A"/>
<path d="M100.6 10.7L98.9 11C98.8 10.7 98.7 10.4 98.5 10.2C98.3 9.99995 98 9.8999 97.7 9.8999C97.3 9.8999 96.9 9.99993 96.7 10.2999C96.5 10.5999 96.3 11.0999 96.3 11.7999C96.3 12.5999 96.4 13.0999 96.7 13.3999C97 13.6999 97.3 13.8999 97.7 13.8999C98 13.8999 98.3 13.8 98.5 13.6C98.7 13.4 98.9 13.1 98.9 12.6L100.6 12.8999C100.4 13.6999 100.1 14.3 99.6 14.7C99.1 15.1 98.4 15.2999 97.6 15.2999C96.7 15.2999 95.9 14.9999 95.3 14.3999C94.7 13.7999 94.5 12.9999 94.5 11.8999C94.5 10.7999 94.8 9.9999 95.3 9.3999C95.9 8.7999 96.6 8.5 97.6 8.5C98.4 8.5 99 8.7 99.5 9C100.1 9.5 100.4 9.99995 100.6 10.7Z" fill="white"/>
<path d="M100.6 10.7L98.9 11C98.8 10.7 98.7 10.4 98.5 10.2C98.3 9.99995 98 9.8999 97.7 9.8999C97.3 9.8999 96.9 9.99993 96.7 10.2999C96.5 10.5999 96.3 11.0999 96.3 11.7999C96.3 12.5999 96.4 13.0999 96.7 13.3999C97 13.6999 97.3 13.8999 97.7 13.8999C98 13.8999 98.3 13.8 98.5 13.6C98.7 13.4 98.9 13.1 98.9 12.6L100.6 12.8999C100.4 13.6999 100.1 14.3 99.6 14.7C99.1 15.1 98.4 15.2999 97.6 15.2999C96.7 15.2999 95.9 14.9999 95.3 14.3999C94.7 13.7999 94.5 12.9999 94.5 11.8999C94.5 10.7999 94.8 9.9999 95.3 9.3999C95.9 8.7999 96.6 8.5 97.6 8.5C98.4 8.5 99 8.7 99.5 9C100.1 9.5 100.4 9.99995 100.6 10.7Z" fill="#1A1A1A"/>
<path d="M107.5 8.79993V15.2999H105.8V12.6H105.6C105.2 12.6 105 12.6 104.8 12.7C104.6 12.8 104.4 12.9999 104.2 13.2999L104.1 13.3999L103 15.2H101L102.2 13.2999C102.6 12.7999 102.9 12.4999 103.2 12.3999C102.7 12.3999 102.3 12.1999 102 11.8999C101.7 11.5999 101.6 11.1 101.6 10.6C101.6 10.2 101.7 9.8 101.9 9.5C102.1 9.2 102.4 8.9999 102.7 8.8999C103 8.7999 103.5 8.69995 104.2 8.69995H107.5V8.79993ZM105.8 9.8999H104.6C104.1 9.8999 103.8 9.99998 103.6 10.1C103.4 10.2 103.3 10.4 103.3 10.7C103.3 11 103.4 11.1999 103.6 11.2999C103.8 11.3999 104.1 11.5 104.6 11.5H105.7V9.8999H105.8Z" fill="white"/>
<path d="M107.5 8.79993V15.2999H105.8V12.6H105.6C105.2 12.6 105 12.6 104.8 12.7C104.6 12.8 104.4 12.9999 104.2 13.2999L104.1 13.3999L103 15.2H101L102.2 13.2999C102.6 12.7999 102.9 12.4999 103.2 12.3999C102.7 12.3999 102.3 12.1999 102 11.8999C101.7 11.5999 101.6 11.1 101.6 10.6C101.6 10.2 101.7 9.8 101.9 9.5C102.1 9.2 102.4 8.9999 102.7 8.8999C103 8.7999 103.5 8.69995 104.2 8.69995H107.5V8.79993ZM105.8 9.8999H104.6C104.1 9.8999 103.8 9.99998 103.6 10.1C103.4 10.2 103.3 10.4 103.3 10.7C103.3 11 103.4 11.1999 103.6 11.2999C103.8 11.3999 104.1 11.5 104.6 11.5H105.7V9.8999H105.8Z" fill="#1A1A1A"/>
<path d="M10.7846 6.41934C8.19742 6.41934 6.09998 8.58574 6.09998 11.2581C6.09998 13.9304 8.19742 16.0968 10.7846 16.0968C12.47 16.0968 13.4468 15.5584 14.2945 14.6827C15.1422 13.8071 15.4509 12.4828 15.4509 11.1466C15.4509 10.9428 15.438 10.7401 15.4153 10.5395H13.5884H13.2402H10.8415V12.2503H13.528C13.4188 12.6768 13.2337 13.0655 12.9423 13.3665C12.4203 13.9056 11.8188 14.2374 10.7811 14.2374C9.18818 14.2374 7.89673 12.9034 7.89673 11.2581C7.89673 9.6127 9.18818 8.2789 10.7811 8.2789C11.5561 8.2789 12.2316 8.50749 12.7665 9.00575L14.0854 7.66702L14.0834 7.66489C13.2036 6.80787 12.0783 6.4197 10.7847 6.4197L10.7846 6.41934ZM18.383 9.2054V10.6003H17.0087V11.9631H18.383V13.3582H19.7258V11.9631H21.1V10.6003H19.7258V9.2054H18.383ZM13.2379 9.60116C13.2386 9.60218 13.2396 9.60397 13.2399 9.60523V9.60345L13.2379 9.60116Z" fill="white"/>
<path d="M10.7846 6.41934C8.19742 6.41934 6.09998 8.58574 6.09998 11.2581C6.09998 13.9304 8.19742 16.0968 10.7846 16.0968C12.47 16.0968 13.4468 15.5584 14.2945 14.6827C15.1422 13.8071 15.4509 12.4828 15.4509 11.1466C15.4509 10.9428 15.438 10.7401 15.4153 10.5395H13.5884H13.2402H10.8415V12.2503H13.528C13.4188 12.6768 13.2337 13.0655 12.9423 13.3665C12.4203 13.9056 11.8188 14.2374 10.7811 14.2374C9.18818 14.2374 7.89673 12.9034 7.89673 11.2581C7.89673 9.6127 9.18818 8.2789 10.7811 8.2789C11.5561 8.2789 12.2316 8.50749 12.7665 9.00575L14.0854 7.66702L14.0834 7.66489C13.2036 6.80787 12.0783 6.4197 10.7847 6.4197L10.7846 6.41934ZM18.383 9.2054V10.6003H17.0087V11.9631H18.383V13.3582H19.7258V11.9631H21.1V10.6003H19.7258V9.2054H18.383ZM13.2379 9.60116C13.2386 9.60218 13.2396 9.60397 13.2399 9.60523V9.60345L13.2379 9.60116Z" fill="#DD5044"/>
</svg>
