<svg width="66" height="23" viewBox="0 0 66 23" fill="none" xmlns="http://www.w3.org/2000/svg">
<path d="M3.8 0.25H62.1C63.9585 0.25 65.5532 1.73595 65.65 3.80578V19.2C65.65 21.1619 64.0619 22.75 62.1 22.75H3.8C1.83808 22.75 0.25 21.1619 0.25 19.2V3.80005C0.25 1.83812 1.83808 0.25 3.8 0.25Z" fill="white" stroke="#D7D7D7" stroke-width="0.5"/>
<path d="M30.2 15.9V8.5H27.5V7H34.6V8.5H31.9V15.9H30.2Z" fill="white"/>
<path d="M30.2 15.9V8.5H27.5V7H34.6V8.5H31.9V15.9H30.2Z" fill="#1A1A1A"/>
<path d="M37.5 7V10.3C38.1 9.70005 38.7 9.30005 39.5 9.30005C39.9 9.30005 40.3 9.4 40.6 9.5C40.9 9.6 41.2 9.79998 41.3 10.1C41.4 10.4 41.6 10.6 41.6 10.9C41.6 11.2 41.7 11.6 41.7 12.2V16H40V12.6C40 11.9 40 11.5 39.9 11.3C39.8 11.1 39.7 11 39.6 10.9C39.4 10.8 39.2 10.7 39 10.7C38.7 10.7 38.5 10.8 38.2 10.9C38 11 37.8 11.2 37.7 11.5C37.6 11.8 37.5 12.2 37.5 12.7V16H35.8V7H37.5Z" fill="white"/>
<path d="M37.5 7V10.3C38.1 9.70005 38.7 9.30005 39.5 9.30005C39.9 9.30005 40.3 9.4 40.6 9.5C40.9 9.6 41.2 9.79998 41.3 10.1C41.4 10.4 41.6 10.6 41.6 10.9C41.6 11.2 41.7 11.6 41.7 12.2V16H40V12.6C40 11.9 40 11.5 39.9 11.3C39.8 11.1 39.7 11 39.6 10.9C39.4 10.8 39.2 10.7 39 10.7C38.7 10.7 38.5 10.8 38.2 10.9C38 11 37.8 11.2 37.7 11.5C37.6 11.8 37.5 12.2 37.5 12.7V16H35.8V7H37.5Z" fill="#1A1A1A"/>
<path d="M43.3 8.69995L44.1 6.90002H46L44.3 8.69995H43.3ZM43.4 15.9V9.40002H45.1V15.9H43.4Z" fill="white"/>
<path d="M43.3 8.69995L44.1 6.90002H46L44.3 8.69995H43.3ZM43.4 15.9V9.40002H45.1V15.9H43.4Z" fill="#1A1A1A"/>
<path d="M52.6 11.4L50.9 11.7C50.8 11.4 50.7 11.1 50.5 10.9C50.3 10.7 50 10.6 49.7 10.6C49.3 10.6 48.9 10.7 48.7 11C48.5 11.3 48.3 11.8 48.3 12.5C48.3 13.3 48.4 13.8 48.7 14.1C49 14.4 49.3 14.6 49.7 14.6C50 14.6 50.3 14.5 50.5 14.3C50.7 14.1 50.9 13.8 50.9 13.3L52.6 13.6C52.4 14.4 52.1 15 51.6 15.4C51.1 15.8 50.4 16 49.6 16C48.7 16 47.9 15.7 47.3 15.1C46.7 14.5 46.5 13.7 46.5 12.6C46.5 11.5 46.8 10.7 47.3 10.1C47.9 9.49998 48.6 9.19995 49.6 9.19995C50.4 9.19995 51 9.39995 51.5 9.69995C52 10.2 52.4 10.7 52.6 11.4Z" fill="white"/>
<path d="M52.6 11.4L50.9 11.7C50.8 11.4 50.7 11.1 50.5 10.9C50.3 10.7 50 10.6 49.7 10.6C49.3 10.6 48.9 10.7 48.7 11C48.5 11.3 48.3 11.8 48.3 12.5C48.3 13.3 48.4 13.8 48.7 14.1C49 14.4 49.3 14.6 49.7 14.6C50 14.6 50.3 14.5 50.5 14.3C50.7 14.1 50.9 13.8 50.9 13.3L52.6 13.6C52.4 14.4 52.1 15 51.6 15.4C51.1 15.8 50.4 16 49.6 16C48.7 16 47.9 15.7 47.3 15.1C46.7 14.5 46.5 13.7 46.5 12.6C46.5 11.5 46.8 10.7 47.3 10.1C47.9 9.49998 48.6 9.19995 49.6 9.19995C50.4 9.19995 51 9.39995 51.5 9.69995C52 10.2 52.4 10.7 52.6 11.4Z" fill="#1A1A1A"/>
<path d="M55.6 7V10.3C56.2 9.70005 56.8 9.30005 57.6 9.30005C58 9.30005 58.4 9.4 58.7 9.5C59 9.6 59.3 9.79998 59.4 10.1C59.5 10.4 59.7 10.6 59.7 10.9C59.7 11.2 59.8 11.6 59.8 12.2V16H58.1V12.6C58.1 11.9 58.1 11.5 58 11.3C57.9 11.1 57.8 11 57.7 10.9C57.5 10.8 57.3 10.7 57.1 10.7C56.8 10.7 56.6 10.8 56.3 10.9C56.1 11 55.9 11.2 55.8 11.5C55.7 11.8 55.6 12.2 55.6 12.7V16H53.9V7H55.6Z" fill="white"/>
<path d="M55.6 7V10.3C56.2 9.70005 56.8 9.30005 57.6 9.30005C58 9.30005 58.4 9.4 58.7 9.5C59 9.6 59.3 9.79998 59.4 10.1C59.5 10.4 59.7 10.6 59.7 10.9C59.7 11.2 59.8 11.6 59.8 12.2V16H58.1V12.6C58.1 11.9 58.1 11.5 58 11.3C57.9 11.1 57.8 11 57.7 10.9C57.5 10.8 57.3 10.7 57.1 10.7C56.8 10.7 56.6 10.8 56.3 10.9C56.1 11 55.9 11.2 55.8 11.5C55.7 11.8 55.6 12.2 55.6 12.7V16H53.9V7H55.6Z" fill="#1A1A1A"/>
<path d="M10.7846 6.41934C8.19742 6.41934 6.09998 8.58574 6.09998 11.2581C6.09998 13.9304 8.19742 16.0968 10.7846 16.0968C12.47 16.0968 13.4468 15.5584 14.2945 14.6827C15.1422 13.8071 15.4509 12.4828 15.4509 11.1466C15.4509 10.9428 15.438 10.7401 15.4153 10.5395H13.5884H13.2402H10.8415V12.2503H13.528C13.4188 12.6768 13.2337 13.0655 12.9423 13.3665C12.4203 13.9056 11.8188 14.2374 10.7811 14.2374C9.18818 14.2374 7.89673 12.9034 7.89673 11.2581C7.89673 9.6127 9.18818 8.2789 10.7811 8.2789C11.5561 8.2789 12.2316 8.50749 12.7665 9.00575L14.0854 7.66702L14.0834 7.66489C13.2036 6.80787 12.0783 6.4197 10.7847 6.4197L10.7846 6.41934ZM18.383 9.2054V10.6003H17.0087V11.9631H18.383V13.3582H19.7258V11.9631H21.1V10.6003H19.7258V9.2054H18.383ZM13.2379 9.60116C13.2386 9.60218 13.2396 9.60397 13.2399 9.60523V9.60345L13.2379 9.60116Z" fill="white"/>
<path d="M10.7846 6.41934C8.19742 6.41934 6.09998 8.58574 6.09998 11.2581C6.09998 13.9304 8.19742 16.0968 10.7846 16.0968C12.47 16.0968 13.4468 15.5584 14.2945 14.6827C15.1422 13.8071 15.4509 12.4828 15.4509 11.1466C15.4509 10.9428 15.438 10.7401 15.4153 10.5395H13.5884H13.2402H10.8415V12.2503H13.528C13.4188 12.6768 13.2337 13.0655 12.9423 13.3665C12.4203 13.9056 11.8188 14.2374 10.7811 14.2374C9.18818 14.2374 7.89673 12.9034 7.89673 11.2581C7.89673 9.6127 9.18818 8.2789 10.7811 8.2789C11.5561 8.2789 12.2316 8.50749 12.7665 9.00575L14.0854 7.66702L14.0834 7.66489C13.2036 6.80787 12.0783 6.4197 10.7847 6.4197L10.7846 6.41934ZM18.383 9.2054V10.6003H17.0087V11.9631H18.383V13.3582H19.7258V11.9631H21.1V10.6003H19.7258V9.2054H18.383ZM13.2379 9.60116C13.2386 9.60218 13.2396 9.60397 13.2399 9.60523V9.60345L13.2379 9.60116Z" fill="#DD5044"/>
</svg>
