<svg width="16px" height="16px" viewBox="0 0 24 24" version="1.1" xmlns="http://www.w3.org/2000/svg" xmlns:xlink="http://www.w3.org/1999/xlink"><g stroke="none" stroke-width="1" fill="none" fill-rule="evenodd"><g fill="#000000"><path d="M12,0 C14.048,0 15.803,1.236 16.572,3 L16.572,3 L22.001,3 C23.101,3 24,3.899 24,4.999 L24,4.999 L24,22.001 C24,23.101 23.101,24 22.001,24 L22.001,24 L1.999,24 C0.899,24 0,23.101 0,22.001 L0,22.001 L0,4.999 C0,3.899 0.899,3 1.999,3 L1.999,3 L7.428,3 C8.197,1.236 9.952,0 12,0 Z M12,2 C10.813,2 9.738,2.706 9.262,3.799 L9.262,3.799 L8.738,5 L1.999,5 L2,22.001 L22.001,22 L22,4.999 L16.572,5 L15.262,5 L14.738,3.799 C14.262,2.706 13.187,2 12,2 Z M17.4044,9.0809 C17.7944,9.4719 17.7944,10.1049 17.4044,10.4949 L10.9804,16.9189 C10.7854,17.1139 10.5294,17.2119 10.2734,17.2119 C10.0174,17.2119 9.7614,17.1139 9.5664,16.9189 L6.5954,13.9489 C6.2054,13.5589 6.2054,12.9249 6.5954,12.5349 C6.9864,12.1439 7.6194,12.1439 8.0094,12.5349 L10.2734,14.7979 L15.9904,9.0809 C16.3804,8.6909 17.0134,8.6909 17.4044,9.0809 Z M12,3.4056 C12.634,3.4056 13.149,3.9216 13.149,4.5546 C13.149,5.1876 12.634,5.7036 12,5.7036 C11.366,5.7036 10.851,5.1876 10.851,4.5546 C10.851,3.9216 11.366,3.4056 12,3.4056 Z"></path></g></g></svg>