<svg width="16px" height="16px" viewBox="0 0 24 24" version="1.1" xmlns="http://www.w3.org/2000/svg" xmlns:xlink="http://www.w3.org/1999/xlink"><g stroke="none" stroke-width="1" fill="none" fill-rule="evenodd"><g fill="#000000"><g><path d="M12,0 C18.627,0 24,4.373 24,11 C24,19.406 18.646,24 18.646,24 L18.646,24 L5.354,24 C5.354,24 0,19.406 0,11 C0,4.373 5.373,0 12,0 Z M12,2 C6.206,2 2,5.785 2,11 C2,16.956 4.962,20.716 6.168,22 L6.168,22 L17.832,22 C19.032,20.724 22,16.962 22,11 C22,5.785 17.794,2 12,2 Z M15.4175,17.7983 C15.9697847,17.7983 16.4175,18.2460153 16.4175,18.7983 C16.4175,19.3111358 16.0314598,19.7338072 15.5341211,19.7915723 L15.4175,19.7983 L8.5825,19.7983 C8.03021525,19.7983 7.5825,19.3505847 7.5825,18.7983 C7.5825,18.2854642 7.96854019,17.8627928 8.46587887,17.8050277 L8.5825,17.7983 L15.4175,17.7983 Z M12,4.2544 C15.173,4.2544 17.746,6.8264 17.746,10.0004 C17.746,13.1734 15.173,15.7454 12,15.7454 C8.827,15.7454 6.254,13.1734 6.254,10.0004 C6.254,6.8264 8.827,4.2544 12,4.2544 Z M10.9999773,6.38993761 C9.41864646,6.82850486 8.254,8.28073633 8.254,10.0004 C8.254,12.0654 9.935,13.7454 12,13.7454 C14.065,13.7454 15.746,12.0654 15.746,10.0004 C15.746,8.28110051 14.5818468,6.82911997 13.0010273,6.39021638 L13,9.2962 C13,9.84848475 12.5522847,10.2962 12,10.2962 C11.4871642,10.2962 11.0644928,9.91015981 11.0067277,9.41282113 L11,9.2962 Z"></path></g></g></g></svg>