<svg width="16px" height="16px" viewBox="0 0 24 24" version="1.1" xmlns="http://www.w3.org/2000/svg" xmlns:xlink="http://www.w3.org/1999/xlink"><g stroke="none" stroke-width="1" fill="none" fill-rule="evenodd"><g fill="#000000"><path d="M23.0003,3.36572875e-15 C23.0316387,0.000317919689 23.0536425,0.00151109438 23.0755909,0.0036138599 L23.0003,3.36572875e-15 C23.0419819,3.36572875e-15 23.0830681,0.00322127478 23.1234112,0.00947749182 C23.1407517,0.0123470995 23.1589186,0.0158140355 23.1770055,0.0199094972 C23.1927102,0.0232043388 23.2078903,0.0270981267 23.2229413,0.0314207845 C23.2373137,0.0358562825 23.2513595,0.040309618 23.2653331,0.0451495221 C23.2866031,0.0522017473 23.3077746,0.0605080776 23.3286321,0.0696621675 C23.3382508,0.0741632281 23.3476385,0.0784787431 23.3569809,0.0829754814 C23.3781618,0.0929340076 23.3990319,0.104054222 23.4195268,0.116025011 C23.4335023,0.124343766 23.4473662,0.132918622 23.4610918,0.141916689 C23.4796908,0.154029591 23.4976803,0.166771745 23.5153154,0.180181753 C23.5215871,0.184990661 23.5280204,0.19000071 23.5344156,0.195109815 C23.586634,0.236855816 23.6353658,0.284328743 23.6802654,0.336947065 C23.6902854,0.348910836 23.7001798,0.361023076 23.7099116,0.373439419 C23.7250854,0.392462885 23.7395122,0.412025738 23.7534415,0.432151928 C23.7562299,0.43664277 23.7593476,0.44121751 23.7624447,0.4458273 L23.769238,0.455541135 C23.7909293,0.488457379 23.811321,0.522788367 23.8303136,0.558408405 L23.7624447,0.4458273 C23.7930109,0.491322665 23.8205847,0.538758404 23.8451908,0.587752207 C23.8589849,0.614619568 23.8717651,0.64234537 23.8837139,0.670714903 C23.8916909,0.69034202 23.8993981,0.709868171 23.9066758,0.729569234 C23.9667944,0.891355027 24.0003,1.07231394 24.0003,1.26315789 C24.0003,1.37052085 23.989696,1.47475535 23.9697388,1.57428146 C23.967148,1.58490156 23.9648139,1.59593416 23.9623606,1.60693038 C23.9555487,1.63944278 23.9473725,1.67108415 23.9382567,1.70214932 C23.9328014,1.7194493 23.9272838,1.73710073 23.9214435,1.75461133 C23.9130937,1.78057383 23.9038746,1.80572912 23.8940331,1.83042064 C23.8871468,1.84713902 23.8798952,1.86440489 23.8723095,1.8814851 C23.8602176,1.90903343 23.8474942,1.93526551 23.8340529,1.96084342 C23.8267188,1.97460628 23.8189413,1.9887999 23.8109117,2.00282261 C23.789491,2.04037757 23.7665296,2.07615951 23.742116,2.11025074 C23.7361292,2.11837436 23.730366,2.12620343 23.7245111,2.13395705 C23.7018558,2.16426076 23.6779391,2.193016 23.6529446,2.22023557 C23.6511671,2.22181835 23.6491147,2.22403628 23.6470534,2.22624593 C22.2271772,3.74833439 21.6647271,4.65602375 21.4043432,6.25622236 L21.313921,6.9057026 C21.0634824,8.84220504 20.486405,13.8251595 19.5858719,21.8291803 C19.4531115,23.0090189 18.6885169,23.9016995 17.7616677,23.9923977 L17.605771,24 L7.04340288,24 C6.03281327,24 5.18975734,23.05054 5.06049935,21.8040728 L5.04653242,21.6149567 L4.1993,2.526 L4.09147292,2.52631579 C2.6590264,2.52631579 2.05156336,3.19209822 2.00342832,4.83304006 L2.0003,5.05263158 L2.0003,10.2119816 C2.0003,10.9096044 1.55258475,11.4751395 1.0003,11.4751395 C0.487464161,11.4751395 0.0647928393,10.9875098 0.00702773133,10.3592925 L0.0003,10.2119816 L0.0003,5.05263158 C0.0003,1.9313089 1.41899303,0.112409326 3.85967681,0.00503921635 L4.09147292,3.36572875e-15 L23.0003,3.36572875e-15 Z M20.5851703,2.52607109 L6.2023,2.526 L7.04340288,21.4736842 L17.605771,21.4736842 L18.9326769,9.85721503 C19.1364011,8.12389009 19.2843546,6.91171982 19.3767646,6.21889335 L19.3924957,6.1020206 C19.5921836,4.63305189 19.951032,3.55981979 20.5851703,2.52607109 Z M14,15.1578947 C14.5522847,15.1578947 15,15.7234298 15,16.4210526 C15,17.0688453 14.6139598,17.6027459 14.1166211,17.6757123 L14,17.6842105 L10,17.6842105 C9.44771525,17.6842105 9,17.1186755 9,16.4210526 C9,15.77326 9.38604019,15.2393594 9.88337887,15.1663929 L10,15.1578947 L14,15.1578947 Z M14,10.1052632 C14.5522847,10.1052632 15,10.6707982 15,11.3684211 C15,12.0162137 14.6139598,12.5501143 14.1166211,12.6230808 L14,12.6315789 L10,12.6315789 C9.44771525,12.6315789 9,12.0660439 9,11.3684211 C9,10.7206284 9.38604019,10.1867278 9.88337887,10.1137613 L10,10.1052632 L14,10.1052632 Z M14,5.05263158 C14.5522847,5.05263158 15,5.61816663 15,6.31578947 C15,6.96358211 14.6139598,7.49748273 14.1166211,7.57044918 L14,7.57894737 L10,7.57894737 C9.44771525,7.57894737 9,7.01341232 9,6.31578947 C9,5.66799683 9.38604019,5.13409622 9.88337887,5.06112977 L10,5.05263158 L14,5.05263158 Z"></path></g></g></svg>