<svg width="16px" height="16px" viewBox="0 0 24 24" version="1.1" xmlns="http://www.w3.org/2000/svg" xmlns:xlink="http://www.w3.org/1999/xlink"><g stroke="none" stroke-width="1" fill="none" fill-rule="evenodd"><g fill="#000000"><path d="M19.20012,0 C19.815523,0 20.3227286,0.38604019 20.3920467,0.883378875 L20.40012,1 L20.4,2 C22.3223368,2 23.888574,3.25052872 23.9943103,4.82599844 L24,4.996 L24,21.004 C24,22.6585527 22.3908203,24 20.4048,24 L20.4048,24 L3.5952,24 C1.6100583,24 0,22.6582847 0,21.004 L0,21.004 L0,4.996 C0,3.34171525 1.6100583,2 3.5952,2 L3.5952,2 L3.6,2 L3.60012,1 C3.60012,0.44771525 4.1373783,0 4.80012,0 C5.41552301,0 5.92272859,0.38604019 5.99204672,0.883378875 L6.00012,1 L6,2 L8.4,2 L8.40012,1 C8.40012,0.44771525 8.9373783,0 9.60012,0 C10.215523,0 10.7227286,0.38604019 10.7920467,0.883378875 L10.80012,1 L10.8,2 L13.2,2 L13.20012,1 C13.20012,0.44771525 13.7373783,0 14.40012,0 C15.015523,0 15.5227286,0.38604019 15.5920467,0.883378875 L15.60012,1 L15.6,2 L18,2 L18.00012,1 C18.00012,0.44771525 18.5373783,0 19.20012,0 Z M3.6,4 L2.4,4 L2.4,22 L21.6,22 L21.6,4 L20.4,4 L20.40012,5 C20.40012,5.55228475 19.8628617,6 19.20012,6 C18.584717,6 18.0775114,5.61395981 18.0081933,5.11662113 L18.00012,5 L18,4 L15.6,4 L15.60012,5 C15.60012,5.55228475 15.0628617,6 14.40012,6 C13.784717,6 13.2775114,5.61395981 13.2081933,5.11662113 L13.20012,5 L13.2,4 L10.8,4 L10.80012,5 C10.80012,5.55228475 10.2628617,6 9.60012,6 C8.98471699,6 8.47751141,5.61395981 8.40819328,5.11662113 L8.40012,5 L8.4,4 L6,4 L6.00012,5 C6.00012,5.55228475 5.4628617,6 4.80012,6 C4.18471699,6 3.67751141,5.61395981 3.60819328,5.11662113 L3.60012,5 L3.6,4 Z M18.00012,17 C18.6628617,17 19.20012,17.4477153 19.20012,18 C19.20012,18.5128358 18.7368718,18.9355072 18.1400654,18.9932723 L18.00012,19 L6.00012,19 C5.3373783,19 4.80012,18.5522847 4.80012,18 C4.80012,17.4871642 5.26336823,17.0644928 5.86017465,17.0067277 L6.00012,17 L18.00012,17 Z M18.00012,13 C18.6628617,13 19.20012,13.4477153 19.20012,14 C19.20012,14.5128358 18.7368718,14.9355072 18.1400654,14.9932723 L18.00012,15 L6.00012,15 C5.3373783,15 4.80012,14.5522847 4.80012,14 C4.80012,13.4871642 5.26336823,13.0644928 5.86017465,13.0067277 L6.00012,13 L18.00012,13 Z M18.00012,9 C18.6628617,9 19.20012,9.44771525 19.20012,10 C19.20012,10.5128358 18.7368718,10.9355072 18.1400654,10.9932723 L18.00012,11 L6.00012,11 C5.3373783,11 4.80012,10.5522847 4.80012,10 C4.80012,9.48716416 5.26336823,9.06449284 5.86017465,9.00672773 L6.00012,9 L18.00012,9 Z"></path></g></g></svg>