<svg width="16px" height="16px" viewBox="0 0 24 24" version="1.1" xmlns="http://www.w3.org/2000/svg" xmlns:xlink="http://www.w3.org/1999/xlink"><g stroke="none" stroke-width="1" fill="none" fill-rule="evenodd"><g fill="#000000"><path d="M10.3751486,0.076857365 C14.4800787,0.363902043 17.5948888,3.86011769 17.4395617,7.94264453 L17.4324114,8.06363503 L18.5276667,7.03351806 C19.5730051,6.04970474 21.1389301,5.88973514 22.3561798,6.62061018 L22.5199255,6.72580302 C23.6998469,7.53517206 24.2101624,9.01192996 23.7996825,10.3671978 L23.737977,10.55118 L20.9781832,18.0392757 C21.8266399,18.4532395 22.3935161,19.3196488 22.3886178,20.2997609 L22.3824562,20.4641071 C22.2899952,21.7863617 21.1853173,22.7963187 19.8785011,22.7897876 L19.7141549,22.7836261 L5.88738768,21.8170691 C5.53161214,23.0768227 4.37361588,24 3,24 C1.34314575,24 0,22.6568542 0,21 C0,19.9002922 0.591710358,18.9387857 1.47412246,18.4164892 L2.26372725,7.12800838 C2.55651282,2.94097963 6.18811986,-0.215928207 10.3751486,0.076857365 Z M3,20 C2.44771525,20 2,20.4477153 2,21 C2,21.5522847 2.44771525,22 3,22 C3.55228475,22 4,21.5522847 4,21 C4,20.4477153 3.55228475,20 3,20 Z M4.27842123,7.0484684 L4.25885535,7.26752133 L3.50564887,18.0424325 C4.51546976,18.2138378 5.35350889,18.8898651 5.75124272,19.8019907 L19.8536679,20.788498 C20.1291376,20.8077607 20.3680654,20.6000639 20.3873281,20.3245942 C20.4044506,20.0797322 20.2422469,19.8637428 20.0125191,19.8052394 L19.9234243,19.7909339 L19.5744727,19.7665328 C18.948774,19.7227797 18.527364,19.1253865 18.6720504,18.5339163 L18.7059014,18.4232216 L21.8613215,9.85968566 C22.0620418,9.31494838 21.867338,8.70346752 21.3886025,8.37507808 C20.9621797,8.08257267 20.4008102,8.10081316 19.9961123,8.40732222 L19.8983706,8.48994208 L16.944649,11.2698176 C16.309533,11.8675529 15.2878242,11.4205546 15.2596589,10.5832258 L15.261733,10.4718492 L15.4311715,8.04876578 C15.6469062,4.96361586 13.3207856,2.28772016 10.2356357,2.07198547 C7.22394169,1.86138731 4.60224565,4.07304472 4.27842123,7.0484684 Z"></path></g></g></svg>