<svg width="17px" height="20px" viewBox="0 0 17 20" version="1.1" xmlns="http://www.w3.org/2000/svg" xmlns:xlink="http://www.w3.org/1999/xlink"><g stroke="none" stroke-width="1" fill="none" fill-rule="evenodd"><g transform="translate(-4.000000, -2.000000)" fill="#000000"><path d="M10.7636728,15.2276266 C10.2077317,17.980299 9.52955405,20.6201377 7.52087891,22 C6.90029349,17.8380815 8.43177606,14.7128228 9.14286352,11.3948064 C7.93107647,9.46487979 9.28860706,5.58269488 11.8449959,6.53943073 C14.9902356,7.71595725 9.12053185,13.7114236 13.0614843,14.4612976 C17.1752134,15.2429061 18.8547902,7.71125585 16.3042782,5.26182401 C12.6183769,1.72519235 5.57332202,5.18072478 6.43955583,10.2441376 C6.65111904,11.4829577 8.00277289,11.8578948 6.98021737,13.5668554 C4.62128758,13.0720325 3.91607687,11.3125318 4.00775427,8.9665309 C4.15349781,5.12783398 7.65604429,2.43980586 11.1691689,2.06721954 C15.6119964,1.59707907 19.7821423,3.61045562 20.3580644,7.56198625 C21.0056829,12.0224439 18.3529153,16.8531372 13.6009705,16.5052333 C12.313961,16.4100298 11.7732994,15.8070747 10.7636728,15.2276266"></path></g></g></svg>