<svg width="16px" height="16px" viewBox="0 0 24 24" version="1.1" xmlns="http://www.w3.org/2000/svg" xmlns:xlink="http://www.w3.org/1999/xlink"><g stroke="none" stroke-width="1" fill="none" fill-rule="evenodd"><g fill="#000000"><path d="M12.0002,0 C18.6272,0 24.0002,5.373 24.0002,12 C24.0002,18.627 18.6272,24 12.0002,24 C5.3722,24 0.0002,18.627 0.0002,12 C0.0002,5.373 5.3722,0 12.0002,0 Z M12.0002,2 C6.4852,2 2.0002,6.486 2.0002,12 C2.0002,17.514 6.4852,22 12.0002,22 C17.5142,22 22.0002,17.514 22.0002,12 C22.0002,6.486 17.5142,2 12.0002,2 Z M12.0002,5.772 C12.5130358,5.772 12.9357072,6.15804019 12.9934723,6.65537887 L13.0002,6.772 L12.9997,11 L17.2277,11 C17.7799847,11 18.2277,11.4477153 18.2277,12 C18.2277,12.5128358 17.8416598,12.9355072 17.3443211,12.9932723 L17.2277,13 L12.9997,13 L13.0002,17.228 C13.0002,17.7802847 12.5524847,18.228 12.0002,18.228 C11.4873642,18.228 11.0646928,17.8419598 11.0069277,17.3446211 L11.0002,17.228 L10.9997,13 L6.7717,13 C6.21941525,13 5.7717,12.5522847 5.7717,12 C5.7717,11.4871642 6.15774019,11.0644928 6.65507887,11.0067277 L6.7717,11 L10.9997,11 L11.0002,6.772 C11.0002,6.21971525 11.4479153,5.772 12.0002,5.772 Z"></path></g></g></svg>