<svg width="16px" height="16px" viewBox="0 0 24 24" version="1.1" xmlns="http://www.w3.org/2000/svg" xmlns:xlink="http://www.w3.org/1999/xlink"><g stroke="none" stroke-width="1" fill="none" fill-rule="evenodd"><g fill="#000000"><path d="M12,0 C13.6568542,0 15,1.34314575 15,3 L15,3 L23.0003,3 C23.5525847,3 24.0003,3.44771525 24.0003,4 C24.0003,4.51283584 23.6142598,4.93550716 23.1169211,4.99327227 L23.0003,5 L23.0003,21 C23.0003,22.6232583 21.6346449,23.9086195 19.9589743,23.9953349 L19.7783,24 L4.2223,24 C2.5258319,24 1.10167794,22.7706133 1.00547763,21.1725884 L1.0003,21 L1.0003,5 C0.44801525,5 0.0003,4.55228475 0.0003,4 C0.0003,3.48716416 0.38634019,3.06449284 0.883678875,3.00672773 L1.0003,3 L9,3 C9,1.34314575 10.3431458,0 12,0 Z M21.0003,9 L3.0003,9 L3.0003,21 C3.0003,21.4919149 3.45795666,21.9366998 4.08536259,21.9938181 L4.2223,22 L19.7783,22 C20.4284869,22 20.9294894,21.5880094 20.9934,21.1045648 L21.0003,21 L21.0003,9 Z M21.0003,5 L3.0003,5 L3.0003,7 L21.0003,7 L21.0003,5 Z M12,2 C11.4477153,2 11,2.44771525 11,3 L11,3 L13,3 C13,2.48716416 12.6139598,2.06449284 12.1166211,2.00672773 L12.1166211,2.00672773 Z"></path></g></g></svg>