<svg xmlns="http://www.w3.org/2000/svg" width="16" height="16" viewBox="0 0 16 16"><g class="nc-icon-wrapper" stroke-width="1" fill="#111111" stroke="#111111"><path d="M10.233,1.1a3.667,3.667,0,0,1,2.6-.7,3.884,3.884,0,0,1-1.2,2.5,3.745,3.745,0,0,1-2.6.7A3.884,3.884,0,0,1,10.233,1.1Z" fill="#111111" data-cap="butt" data-stroke="none" stroke="none"/> <path d="M3.447,12.5a10.708,10.708,0,0,0,2.4,2.643,1,1,0,0,0,.7.262,3.113,3.113,0,0,0,1.668-.747L8.5,14.5l.29.158a3.126,3.126,0,0,0,1.667.747,1.022,1.022,0,0,0,.713-.274c2.8-2.289,3.356-4.4,3.328-5.765a4.239,4.239,0,0,0-1.471-3.224,3.5,3.5,0,0,0-2.21-.737,6.953,6.953,0,0,0-2.182.415L8.5,5.867l-.139-.049A6.56,6.56,0,0,0,6.22,5.405a3.617,3.617,0,0,0-2.251.738A4.028,4.028,0,0,0,2.606,8.5" fill="none" stroke="#111111" stroke-linecap="round" stroke-linejoin="round"/> <rect x="0.5" y="8.5" width="10" height="4" fill="none" stroke-linecap="round" stroke-linejoin="round" data-color="color-2"/> <line x1="2.5" y1="8.5" x2="2.5" y2="10.5" fill="none" stroke-linecap="round" stroke-linejoin="round" data-color="color-2"/> <line x1="5.5" y1="8.5" x2="5.5" y2="10.5" fill="none" stroke-linecap="round" stroke-linejoin="round" data-color="color-2"/> <line x1="8.5" y1="8.5" x2="8.5" y2="10.5" fill="none" stroke-linecap="round" stroke-linejoin="round" data-color="color-2"/></g></svg>