<svg id="Layer_1" data-name="Layer 1" xmlns="http://www.w3.org/2000/svg" viewBox="0 0 329 64"><defs><style>.cls-1{fill:#eee;}.cls-2{fill:#d6d6d6;}.cls-3{fill:#00b050;}.cls-4{fill:#8cd4ad;}.cls-5{fill:#272727;}.cls-6{fill:#9e9e9e;}</style></defs><title>Chat with us bar</title><path class="cls-1" d="M323.06,0H5.94A5.94,5.94,0,0,0,0,5.94V64H329V5.94A5.94,5.94,0,0,0,323.06,0Z"/><path class="cls-2" d="M323.06,2A4,4,0,0,1,327,5.94V62H2V5.94A4,4,0,0,1,5.94,2H323.06m0-2H5.94A5.94,5.94,0,0,0,0,5.94V64H329V5.94A5.94,5.94,0,0,0,323.06,0Z"/><path class="cls-3" d="M51.28,15H23.72A4.72,4.72,0,0,0,19,19.72V34.28A4.72,4.72,0,0,0,23.72,39h.22L22.5,44.5,30.44,39H51.28A4.72,4.72,0,0,0,56,34.28V19.72A4.72,4.72,0,0,0,51.28,15ZM28.5,28.5a2,2,0,1,1,2-2A2,2,0,0,1,28.5,28.5Zm9,0a2,2,0,1,1,2-2A2,2,0,0,1,37.5,28.5Zm9,0a2,2,0,1,1,2-2A2,2,0,0,1,46.5,28.5Z"/><path class="cls-2" d="M323.06,2A4,4,0,0,1,327,5.94V62H2V5.94A4,4,0,0,1,5.94,2H323.06m0-2H5.94A5.94,5.94,0,0,0,0,5.94V64H329V5.94A5.94,5.94,0,0,0,323.06,0Z"/><path class="cls-4" d="M59.5,24.09V36.78a4.72,4.72,0,0,1-4.72,4.72H31.66a4,4,0,0,0,3.86,3H53.26L59.87,49,58.8,44.47H59a4,4,0,0,0,4-4V28.05A4,4,0,0,0,59.5,24.09Z"/><path class="cls-5" d="M94.84,32.71l-2.31-1.77a7.11,7.11,0,0,1-3.77,1c-4.92,0-7.21-3.93-7.21-7.77,0-4.59,2.66-7.77,7.21-7.77S96,19.57,96,24.16a8.27,8.27,0,0,1-2.16,5.77l2,1.59Zm-4.43-5.44,2,1.54A6.35,6.35,0,0,0,94,24.16c0-3.52-1.92-6-5.23-6s-5.23,2.51-5.23,6,1.71,6,5.23,6A5.53,5.53,0,0,0,91,29.76L89.4,28.51Z"/><path class="cls-5" d="M106.93,31.55h-1.75v-1.5h0a3.93,3.93,0,0,1-3.3,1.83c-1.67,0-3.77-.68-3.77-3.75V20.78h1.85v6.67c0,1.88.54,2.82,2.31,2.82,1,0,2.84-.66,2.84-3.58V20.78h1.85Z"/><path class="cls-5" d="M118.76,28.12a4.64,4.64,0,0,1-4.7,3.77c-2.88,0-5-1.87-5-5.79s2.78-5.64,4.86-5.64c2.95,0,5,1.77,5,5.44v.93H111c0,2.1,1.15,3.46,3,3.46A2.86,2.86,0,0,0,117,28.12ZM117,25.33c0-2.1-1.22-3.28-3-3.28a3.17,3.17,0,0,0-3,3.28Z"/><path class="cls-5" d="M122.14,28.16c.08,1.59,1.17,2.25,2.84,2.25s2.55-.76,2.55-1.77c0-2.39-6.78-.95-6.78-4.74,0-2.25,1.75-3.44,4-3.44,2.66,0,4.14,1.46,4.16,3.38H127.2c-.1-1.21-.91-1.9-2.53-1.9-1.4,0-2.18.64-2.18,1.61,0,2.49,6.78.89,6.78,4.7,0,2-1.4,3.65-4.31,3.65-2.68,0-4.47-1.11-4.55-3.73Z"/><path class="cls-5" d="M133.57,22.26v7c0,.84.7.84,1.07.84h.64v1.46a11,11,0,0,1-1.36.14c-1.81,0-2.2-1-2.2-2.31V22.26h-1.44V20.78h1.44v-3h1.85v3h1.71v1.48Z"/><path class="cls-5" d="M137.07,16.89h1.85V19h-1.85Zm0,3.89h1.85V31.55h-1.85Z"/><path class="cls-5" d="M146,31.88c-3.13,0-5-2.21-5-5.73s1.87-5.71,5-5.71,5,2.21,5,5.71S149.14,31.88,146,31.88Zm0-9.83c-2.06,0-3.15,1.71-3.15,4.1S144,30.28,146,30.28s3.15-1.71,3.15-4.12S148.07,22.06,146,22.06Z"/><path class="cls-5" d="M153,20.78h1.75v1.5h0a3.93,3.93,0,0,1,3.3-1.83c1.67,0,3.77.68,3.77,3.75v7.35H160V24.88c0-1.87-.54-2.82-2.31-2.82-1,0-2.84.66-2.84,3.58v5.91H153Z"/><path class="cls-5" d="M165.65,28.16c.08,1.59,1.17,2.25,2.84,2.25s2.55-.76,2.55-1.77c0-2.39-6.78-.95-6.78-4.74,0-2.25,1.75-3.44,4-3.44,2.66,0,4.14,1.46,4.16,3.38h-1.73c-.1-1.21-.91-1.9-2.53-1.9-1.4,0-2.18.64-2.18,1.61,0,2.49,6.78.89,6.78,4.7,0,2-1.4,3.65-4.31,3.65-2.68,0-4.47-1.11-4.55-3.73Z"/><path class="cls-5" d="M175,21.4v-.56a4.34,4.34,0,0,1,4.61-4.28c2.66,0,4.47,1.59,4.47,4.06,0,3.11-3.79,3.54-3.79,6.63v.54h-1.85v-.58c0-3.5,3.67-4.1,3.67-6.57a2.32,2.32,0,0,0-2.53-2.47c-1.5,0-2.68.84-2.72,3.23Zm3.32,7.93h2.1v2.22h-2.1Z"/><path class="cls-5" d="M198.32,30.2a4.41,4.41,0,0,0,4.3-3.93h1.92a6.2,6.2,0,0,1-6.22,5.67c-2.7,0-6.84-1.48-6.84-7.58s3.67-8,6.9-8c4,0,5.89,2.68,6.06,4.76H202.5a4,4,0,0,0-4.06-3c-3,0-5,2.35-5,6S195.42,30.2,198.32,30.2Z"/><path class="cls-5" d="M206.85,16.76h1.85V22.2h0a3.82,3.82,0,0,1,3.19-1.75c1.67,0,3.77.68,3.77,3.75v7.35h-1.85V24.47c0-1.46-.41-2.41-2.14-2.41-1.48,0-3,.87-3,3.58v5.91h-1.85Z"/><path class="cls-5" d="M218.34,24c.08-2.64,1.9-3.56,4.43-3.56,2.08,0,4.1.82,4.1,3V29.7a.57.57,0,0,0,.6.64,3.14,3.14,0,0,0,.6-.08v1.28a3.39,3.39,0,0,1-1,.17c-1.28,0-1.85-.41-2-1.57a4.87,4.87,0,0,1-4,1.75,3.11,3.11,0,0,1-3.3-3.11,3.31,3.31,0,0,1,3.23-3.38l3-.37c.58-.06.93-.41.93-1.26,0-1.3-.89-1.83-2.47-1.83s-2.41.7-2.51,2.08ZM225,26.08a7.79,7.79,0,0,1-3,.68c-1.34.19-2.31.68-2.31,1.75a1.78,1.78,0,0,0,2,1.9c1.09,0,3.34-.74,3.34-2.6Z"/><path class="cls-5" d="M232,22.26v7c0,.84.7.84,1.07.84h.64v1.46a11,11,0,0,1-1.36.14c-1.81,0-2.2-1-2.2-2.31V22.26h-1.44V20.78h1.44v-3H232v3h1.71v1.48Z"/><path class="cls-5" d="M245.19,31.55h-1.87L240.2,20.78h2l2.06,8.47h0l2.08-8.47h2l2.1,8.47h0l2.18-8.47h1.81l-3.13,10.77h-1.87l-2.18-8.34h0Z"/><path class="cls-5" d="M256.15,16.89H258V19h-1.85Zm0,3.89H258V31.55h-1.85Z"/><path class="cls-5" d="M262.94,22.26v7c0,.84.7.84,1.07.84h.64v1.46a11,11,0,0,1-1.36.14c-1.81,0-2.2-1-2.2-2.31V22.26h-1.44V20.78h1.44v-3h1.85v3h1.71v1.48Z"/><path class="cls-5" d="M266.38,16.76h1.85V22.2h0a3.82,3.82,0,0,1,3.19-1.75c1.67,0,3.77.68,3.77,3.75v7.35h-1.85V24.47c0-1.46-.41-2.41-2.14-2.41-1.48,0-3,.87-3,3.58v5.91h-1.85Z"/><path class="cls-5" d="M292.42,31.55h-1.75v-1.5h0a3.93,3.93,0,0,1-3.3,1.83c-1.67,0-3.77-.68-3.77-3.75V20.78h1.85v6.67c0,1.88.54,2.82,2.31,2.82,1,0,2.84-.66,2.84-3.58V20.78h1.85Z"/><path class="cls-5" d="M296.17,28.16c.08,1.59,1.17,2.25,2.84,2.25s2.55-.76,2.55-1.77c0-2.39-6.78-.95-6.78-4.74,0-2.25,1.75-3.44,4-3.44,2.66,0,4.14,1.46,4.16,3.38h-1.73c-.1-1.21-.91-1.9-2.53-1.9-1.4,0-2.18.64-2.18,1.61,0,2.49,6.78.89,6.78,4.7,0,2-1.4,3.65-4.31,3.65-2.68,0-4.47-1.11-4.55-3.73Z"/><path class="cls-5" d="M305.83,29.33h2.1v2.22h-2.1Zm.06-12.57h2v4.88L307.4,28h-1l-.47-6.39Z"/><path class="cls-6" d="M82.39,40.44h6v.86H85.86v6.46h-1V41.3H82.39Z"/><path class="cls-6" d="M89.12,40.44H90v2.69h0a1.89,1.89,0,0,1,1.58-.87,1.69,1.69,0,0,1,1.87,1.86v3.64h-.92V44.25c0-.72-.2-1.19-1.06-1.19S90,43.49,90,44.83v2.93h-.92Z"/><path class="cls-6" d="M94.82,40.5h.92v1h-.92Zm0,1.93h.92v5.33h-.92Z"/><path class="cls-6" d="M97.63,46.08c0,.78.58,1.11,1.41,1.11s1.26-.38,1.26-.88c0-1.18-3.35-.47-3.35-2.34,0-1.11.87-1.7,2-1.7,1.31,0,2,.72,2.06,1.67h-.86c-.05-.6-.45-.94-1.25-.94s-1.08.32-1.08.79c0,1.23,3.35.44,3.35,2.32,0,1-.69,1.8-2.13,1.8s-2.21-.55-2.25-1.84Z"/><path class="cls-6" d="M107,47.76H106l-1.54-5.33h1l1,4.19h0l1-4.19h1l1,4.19h0l1.08-4.19h.9L110,47.76h-.93L108,43.63h0Z"/><path class="cls-6" d="M112.38,40.5h.92v1h-.92Zm0,1.93h.92v5.33h-.92Z"/><path class="cls-6" d="M115.57,47.76h-.92V40.44h.92Z"/><path class="cls-6" d="M117.83,47.76h-.92V40.44h.92Z"/><path class="cls-6" d="M126.55,46.06a2.29,2.29,0,0,1-2.32,1.87c-1.43,0-2.49-.93-2.49-2.86a2.55,2.55,0,0,1,2.41-2.79c1.46,0,2.47.88,2.47,2.69v.46h-3.89c0,1,.57,1.71,1.5,1.71a1.42,1.42,0,0,0,1.45-1.07Zm-.86-1.38a1.45,1.45,0,0,0-1.48-1.62,1.57,1.57,0,0,0-1.5,1.62Z"/><path class="cls-6" d="M128.22,46.08c0,.78.58,1.11,1.41,1.11s1.26-.38,1.26-.88c0-1.18-3.35-.47-3.35-2.34,0-1.11.87-1.7,2-1.7,1.31,0,2,.72,2.06,1.67h-.86c-.05-.6-.45-.94-1.25-.94s-1.08.32-1.08.79c0,1.23,3.35.44,3.35,2.32,0,1-.69,1.8-2.13,1.8s-2.21-.55-2.25-1.84Z"/><path class="cls-6" d="M133.88,43.16v3.46c0,.42.35.42.53.42h.32v.72a5.37,5.37,0,0,1-.67.07c-.9,0-1.09-.5-1.09-1.14V43.16h-.71v-.73H133V40.94h.92v1.49h.85v.73Z"/><path class="cls-6" d="M135.5,44c0-1.3.94-1.76,2.19-1.76,1,0,2,.41,2,1.48v3.1a.28.28,0,0,0,.3.32,1.58,1.58,0,0,0,.3,0v.63a1.72,1.72,0,0,1-.49.08c-.63,0-.92-.2-1-.77a2.41,2.41,0,0,1-2,.87,1.54,1.54,0,0,1-1.63-1.54,1.64,1.64,0,0,1,1.6-1.67l1.5-.18c.29,0,.46-.2.46-.62,0-.64-.44-.91-1.22-.91s-1.19.35-1.24,1Zm3.3,1a3.85,3.85,0,0,1-1.48.34c-.66.09-1.14.34-1.14.87a.88.88,0,0,0,1,.94c.54,0,1.65-.37,1.65-1.28Z"/><path class="cls-6" d="M141.08,40.44H142v2.73a1.84,1.84,0,0,1,1.6-.91c1.42,0,2.22,1.17,2.22,2.66,0,1.28-.53,3-2.34,3A1.61,1.61,0,0,1,142,47h0v.72h-.86Zm.92,4.88c0,1.42.89,1.8,1.47,1.8,1,0,1.44-.9,1.44-2.07,0-.68-.07-2-1.46-2S142,44.46,142,45.32Z"/><path class="cls-6" d="M147.77,47.76h-.92V40.44h.92Z"/><path class="cls-6" d="M149.12,40.5H150v1h-.92Zm0,1.93H150v5.33h-.92Z"/><path class="cls-6" d="M151.92,46.08c0,.78.58,1.11,1.41,1.11s1.26-.38,1.26-.88c0-1.18-3.35-.47-3.35-2.34,0-1.11.87-1.7,2-1.7,1.31,0,2,.72,2.06,1.67h-.86c-.05-.6-.45-.94-1.25-.94s-1.08.32-1.08.79c0,1.23,3.35.44,3.35,2.32,0,1-.69,1.8-2.13,1.8s-2.21-.55-2.25-1.84Z"/><path class="cls-6" d="M156.45,40.44h.92v2.69h0a1.89,1.89,0,0,1,1.58-.87,1.69,1.69,0,0,1,1.87,1.86v3.64h-.92V44.25c0-.72-.2-1.19-1.06-1.19s-1.49.43-1.49,1.77v2.93h-.92Z"/><path class="cls-6" d="M165,44c0-1.3.94-1.76,2.19-1.76,1,0,2,.41,2,1.48v3.1a.28.28,0,0,0,.29.32,1.57,1.57,0,0,0,.3,0v.63a1.72,1.72,0,0,1-.49.08c-.63,0-.92-.2-1-.77a2.41,2.41,0,0,1-2,.87,1.54,1.54,0,0,1-1.63-1.54,1.64,1.64,0,0,1,1.6-1.67l1.5-.18c.29,0,.46-.2.46-.62,0-.64-.44-.91-1.22-.91s-1.19.35-1.24,1Zm3.3,1a3.85,3.85,0,0,1-1.48.34c-.66.09-1.14.34-1.14.87a.88.88,0,0,0,1,.94c.54,0,1.65-.37,1.65-1.28Z"/><path class="cls-6" d="M177.68,45.88a2.14,2.14,0,0,1-2.28,2c-.95,0-2.22-.65-2.22-2.8,0-1.76,1.08-2.85,2.31-2.85a2,2,0,0,1,2.19,2h-.86a1.17,1.17,0,0,0-1.23-1.16c-1,0-1.5.86-1.5,2.11,0,1.41.54,2,1.44,2a1.36,1.36,0,0,0,1.29-1.3Z"/><path class="cls-6" d="M180.75,47.92c-1.55,0-2.48-1.09-2.48-2.83s.93-2.82,2.48-2.82,2.48,1.09,2.48,2.82S182.3,47.92,180.75,47.92Zm0-4.86c-1,0-1.56.85-1.56,2s.54,2,1.56,2,1.56-.85,1.56-2S181.77,43.06,180.75,43.06Z"/><path class="cls-6" d="M184.23,42.43h.87v.74h0a1.94,1.94,0,0,1,1.63-.91,1.69,1.69,0,0,1,1.87,1.86v3.64h-.92v-3.3c0-.93-.26-1.4-1.14-1.4-.51,0-1.41.33-1.41,1.77v2.93h-.92Z"/><path class="cls-6" d="M189.9,42.43h.87v.74h0a1.94,1.94,0,0,1,1.63-.91,1.69,1.69,0,0,1,1.87,1.86v3.64h-.92v-3.3c0-.93-.26-1.4-1.14-1.4-.51,0-1.41.33-1.41,1.77v2.93h-.92Z"/><path class="cls-6" d="M200.14,46.06a2.29,2.29,0,0,1-2.32,1.87c-1.43,0-2.49-.93-2.49-2.86a2.55,2.55,0,0,1,2.41-2.79c1.46,0,2.47.88,2.47,2.69v.46H196.3c0,1,.57,1.71,1.5,1.71a1.41,1.41,0,0,0,1.45-1.07Zm-.86-1.38a1.45,1.45,0,0,0-1.48-1.62,1.57,1.57,0,0,0-1.5,1.62Z"/><path class="cls-6" d="M205.46,45.88a2.14,2.14,0,0,1-2.28,2c-.95,0-2.22-.65-2.22-2.8,0-1.76,1.08-2.85,2.31-2.85a2,2,0,0,1,2.19,2h-.86a1.17,1.17,0,0,0-1.23-1.16c-1,0-1.5.86-1.5,2.11,0,1.41.54,2,1.44,2a1.36,1.36,0,0,0,1.29-1.3Z"/><path class="cls-6" d="M207.47,43.16v3.46c0,.42.35.42.53.42h.32v.72a5.35,5.35,0,0,1-.67.07c-.9,0-1.09-.5-1.09-1.14V43.16h-.71v-.73h.71V40.94h.92v1.49h.85v.73Z"/><path class="cls-6" d="M209.21,40.5h.92v1h-.92Zm0,1.93h.92v5.33h-.92Z"/><path class="cls-6" d="M213.63,47.92c-1.55,0-2.48-1.09-2.48-2.83s.93-2.82,2.48-2.82,2.48,1.09,2.48,2.82S215.18,47.92,213.63,47.92Zm0-4.86c-1,0-1.56.85-1.56,2s.54,2,1.56,2,1.56-.85,1.56-2S214.65,43.06,213.63,43.06Z"/><path class="cls-6" d="M217.11,42.43H218v.74h0a1.94,1.94,0,0,1,1.63-.91,1.69,1.69,0,0,1,1.87,1.86v3.64h-.92v-3.3c0-.93-.26-1.4-1.14-1.4-.51,0-1.41.33-1.41,1.77v2.93h-.92Z"/><path class="cls-6" d="M226.75,43.16v3.46c0,.42.35.42.53.42h.32v.72a5.35,5.35,0,0,1-.67.07c-.9,0-1.09-.5-1.09-1.14V43.16h-.71v-.73h.71V40.94h.92v1.49h.85v.73Z"/><path class="cls-6" d="M230.44,47.92c-1.55,0-2.48-1.09-2.48-2.83s.93-2.82,2.48-2.82,2.48,1.09,2.48,2.82S232,47.92,230.44,47.92Zm0-4.86c-1,0-1.56.85-1.56,2s.54,2,1.56,2,1.56-.85,1.56-2S231.46,43.06,230.44,43.06Z"/><path class="cls-6" d="M237.88,43.16v3.46c0,.42.35.42.53.42h.32v.72a5.35,5.35,0,0,1-.67.07c-.9,0-1.09-.5-1.09-1.14V43.16h-.71v-.73H237V40.94h.92v1.49h.85v.73Z"/><path class="cls-6" d="M239.59,40.44h.92v2.69h0a1.89,1.89,0,0,1,1.58-.87A1.69,1.69,0,0,1,244,44.12v3.64h-.92V44.25c0-.72-.2-1.19-1.06-1.19s-1.49.43-1.49,1.77v2.93h-.92Z"/><path class="cls-6" d="M249.82,46.06a2.29,2.29,0,0,1-2.32,1.87c-1.43,0-2.49-.93-2.49-2.86a2.55,2.55,0,0,1,2.41-2.79c1.46,0,2.47.88,2.47,2.69v.46H246c0,1,.57,1.71,1.5,1.71a1.41,1.41,0,0,0,1.45-1.07ZM249,44.68a1.45,1.45,0,0,0-1.48-1.62,1.57,1.57,0,0,0-1.5,1.62Z"/><path class="cls-6" d="M258,45.88a2.14,2.14,0,0,1-2.28,2c-.95,0-2.22-.65-2.22-2.8,0-1.76,1.08-2.85,2.31-2.85a2,2,0,0,1,2.19,2h-.86a1.17,1.17,0,0,0-1.23-1.16c-1,0-1.5.86-1.5,2.11,0,1.41.54,2,1.44,2a1.36,1.36,0,0,0,1.29-1.3Z"/><path class="cls-6" d="M258.86,40.44h.92v2.69h0a1.89,1.89,0,0,1,1.58-.87,1.69,1.69,0,0,1,1.87,1.86v3.64h-.92V44.25c0-.72-.2-1.19-1.06-1.19s-1.49.43-1.49,1.77v2.93h-.92Z"/><path class="cls-6" d="M264.55,44c0-1.3.94-1.76,2.19-1.76,1,0,2,.41,2,1.48v3.1a.28.28,0,0,0,.29.32,1.57,1.57,0,0,0,.3,0v.63a1.72,1.72,0,0,1-.49.08c-.63,0-.92-.2-1-.77a2.41,2.41,0,0,1-2,.87,1.54,1.54,0,0,1-1.63-1.54,1.64,1.64,0,0,1,1.6-1.67l1.5-.18c.29,0,.46-.2.46-.62,0-.64-.44-.91-1.22-.91s-1.19.35-1.24,1Zm3.3,1a3.85,3.85,0,0,1-1.48.34c-.66.09-1.14.34-1.14.87a.88.88,0,0,0,1,.94c.54,0,1.65-.37,1.65-1.28Z"/><path class="cls-6" d="M271.33,43.16v3.46c0,.42.35.42.53.42h.32v.72a5.35,5.35,0,0,1-.67.07c-.9,0-1.09-.5-1.09-1.14V43.16h-.71v-.73h.71V40.94h.92v1.49h.85v.73Z"/><path class="cls-6" d="M276.44,46.08c0,.78.58,1.11,1.41,1.11s1.26-.38,1.26-.88c0-1.18-3.35-.47-3.35-2.34,0-1.11.87-1.7,2-1.7,1.31,0,2,.72,2.06,1.67h-.86c-.05-.6-.45-.94-1.25-.94s-1.08.32-1.08.79c0,1.23,3.35.44,3.35,2.32,0,1-.69,1.8-2.13,1.8s-2.21-.55-2.25-1.84Z"/><path class="cls-6" d="M285.54,46.06a2.29,2.29,0,0,1-2.32,1.87c-1.43,0-2.49-.93-2.49-2.86a2.55,2.55,0,0,1,2.41-2.79c1.46,0,2.47.88,2.47,2.69v.46H281.7c0,1,.57,1.71,1.5,1.71a1.42,1.42,0,0,0,1.45-1.07Zm-.86-1.38a1.45,1.45,0,0,0-1.48-1.62,1.57,1.57,0,0,0-1.5,1.62Z"/><path class="cls-6" d="M286.77,42.43h.86v.88h0a1.73,1.73,0,0,1,1.5-1,.75.75,0,0,1,.23,0v.92H289a1.36,1.36,0,0,0-1.36,1.44v3.11h-.92Z"/><path class="cls-6" d="M293.43,42.43h1l-2,5.33h-1l-1.95-5.33h1l1.39,4.34h0Z"/><path class="cls-6" d="M299.5,46.06a2.29,2.29,0,0,1-2.32,1.87c-1.43,0-2.49-.93-2.49-2.86a2.55,2.55,0,0,1,2.41-2.79c1.46,0,2.47.88,2.47,2.69v.46h-3.89c0,1,.57,1.71,1.5,1.71a1.42,1.42,0,0,0,1.45-1.07Zm-.86-1.38a1.45,1.45,0,0,0-1.48-1.62,1.57,1.57,0,0,0-1.5,1.62Z"/><path class="cls-6" d="M300.73,42.43h.86v.88h0a1.73,1.73,0,0,1,1.5-1,.75.75,0,0,1,.23,0v.92H303a1.36,1.36,0,0,0-1.36,1.44v3.11h-.92Z"/><path class="cls-6" d="M304.36,46.08c0,.78.58,1.11,1.41,1.11s1.26-.38,1.26-.88c0-1.18-3.35-.47-3.35-2.34,0-1.11.87-1.7,2-1.7,1.32,0,2,.72,2.06,1.67h-.86c-.05-.6-.45-.94-1.25-.94s-1.08.32-1.08.79c0,1.23,3.35.44,3.35,2.32,0,1-.69,1.8-2.13,1.8s-2.21-.55-2.25-1.84Z"/></svg>