<svg id="Layer_1" data-name="Layer 1" xmlns="http://www.w3.org/2000/svg" viewBox="0 0 92.55 23"><defs><style>.cls-1{fill:#ff9800;}.cls-2{fill:#fff;}</style></defs><title>Odnoklassniki - Subscribe</title><rect class="cls-1" width="92.55" height="23" rx="3.78" ry="3.78"/><path class="cls-2" d="M27,13.06l1.76-.17a2.14,2.14,0,0,0,.64,1.3,2,2,0,0,0,1.31.42A2,2,0,0,0,32,14.23a1.1,1.1,0,0,0,.44-.86.82.82,0,0,0-.19-.54,1.49,1.49,0,0,0-.65-.39q-.32-.11-1.44-.39a4.9,4.9,0,0,1-2-.88,2.35,2.35,0,0,1-.44-3.08,2.43,2.43,0,0,1,1.12-.91,4.47,4.47,0,0,1,1.76-.31,3.77,3.77,0,0,1,2.53.74,2.61,2.61,0,0,1,.89,2l-1.8.08a1.53,1.53,0,0,0-.5-1,1.82,1.82,0,0,0-1.14-.3,2.07,2.07,0,0,0-1.23.32.65.65,0,0,0-.29.55.69.69,0,0,0,.27.54,4.75,4.75,0,0,0,1.66.6,8.76,8.76,0,0,1,1.95.64,2.52,2.52,0,0,1,1,.91,2.81,2.81,0,0,1-.07,2.86,2.55,2.55,0,0,1-1.21,1,5.06,5.06,0,0,1-1.94.33,3.87,3.87,0,0,1-2.6-.78A3.41,3.41,0,0,1,27,13.06Z"/><path class="cls-2" d="M40,16V15a2.49,2.49,0,0,1-.93.82,2.6,2.6,0,0,1-1.22.3,2.38,2.38,0,0,1-1.17-.29,1.69,1.69,0,0,1-.75-.8,3.57,3.57,0,0,1-.23-1.43V9.49h1.71v3a8.27,8.27,0,0,0,.09,1.67.91.91,0,0,0,.34.49,1.06,1.06,0,0,0,.63.18,1.34,1.34,0,0,0,.79-.24,1.22,1.22,0,0,0,.48-.6,6.91,6.91,0,0,0,.13-1.75V9.49h1.71V16Z"/><path class="cls-2" d="M43.29,16V7H45v3.22a2.42,2.42,0,0,1,1.88-.9,2.52,2.52,0,0,1,2,.86,3.55,3.55,0,0,1,.77,2.46,3.74,3.74,0,0,1-.79,2.55,2.46,2.46,0,0,1-1.92.9,2.37,2.37,0,0,1-1.09-.28,2.61,2.61,0,0,1-.93-.82v1ZM45,12.59a2.75,2.75,0,0,0,.32,1.49,1.35,1.35,0,0,0,1.18.68,1.21,1.21,0,0,0,1-.48,2.39,2.39,0,0,0,.4-1.53,2.53,2.53,0,0,0-.4-1.6,1.27,1.27,0,0,0-1-.49,1.29,1.29,0,0,0-1,.48A2.2,2.2,0,0,0,45,12.59Z"/><path class="cls-2" d="M50.39,14.12l1.72-.26a1.26,1.26,0,0,0,.44.76,1.51,1.51,0,0,0,.94.26,1.7,1.7,0,0,0,1-.24.54.54,0,0,0,.23-.46.45.45,0,0,0-.12-.32,1.37,1.37,0,0,0-.57-.23,9.25,9.25,0,0,1-2.63-.83,1.67,1.67,0,0,1-.77-1.46,1.8,1.8,0,0,1,.66-1.41,3.1,3.1,0,0,1,2.06-.57,3.6,3.6,0,0,1,2,.43,2.22,2.22,0,0,1,.89,1.28l-1.62.3a1,1,0,0,0-.39-.58,1.44,1.44,0,0,0-.83-.2,1.87,1.87,0,0,0-1,.19.41.41,0,0,0-.2.35.38.38,0,0,0,.17.31,6.48,6.48,0,0,0,1.6.48,4.75,4.75,0,0,1,1.91.76,1.58,1.58,0,0,1,.54,1.27,2,2,0,0,1-.74,1.53,3.29,3.29,0,0,1-2.2.64,3.62,3.62,0,0,1-2.09-.54A2.48,2.48,0,0,1,50.39,14.12Z"/><path class="cls-2" d="M63.58,11.41l-1.69.3a1.23,1.23,0,0,0-.39-.76,1.17,1.17,0,0,0-.78-.26,1.28,1.28,0,0,0-1,.44,2.27,2.27,0,0,0-.38,1.48,2.61,2.61,0,0,0,.39,1.63,1.27,1.27,0,0,0,1,.48,1.15,1.15,0,0,0,.8-.28,1.67,1.67,0,0,0,.44-1l1.68.29a3,3,0,0,1-1,1.75,3.11,3.11,0,0,1-2,.59,3,3,0,0,1-2.26-.9,3.47,3.47,0,0,1-.84-2.48,3.49,3.49,0,0,1,.85-2.5,3,3,0,0,1,2.29-.89,3.13,3.13,0,0,1,1.88.51A2.83,2.83,0,0,1,63.58,11.41Z"/><path class="cls-2" d="M66.52,16H64.8V9.49H66.4v.92a2.76,2.76,0,0,1,.73-.86,1.35,1.35,0,0,1,.74-.21A2.17,2.17,0,0,1,69,9.67l-.53,1.49a1.51,1.51,0,0,0-.8-.28,1,1,0,0,0-.61.2,1.35,1.35,0,0,0-.39.72A10.16,10.16,0,0,0,66.52,14Z"/><path class="cls-2" d="M69.74,8.61V7h1.71V8.61Zm0,7.35V9.49h1.71V16Z"/><path class="cls-2" d="M73.13,16V7h1.71v3.22a2.42,2.42,0,0,1,1.88-.9,2.52,2.52,0,0,1,2,.86,3.54,3.54,0,0,1,.77,2.46,3.74,3.74,0,0,1-.79,2.55,2.46,2.46,0,0,1-1.92.9,2.37,2.37,0,0,1-1.09-.28,2.62,2.62,0,0,1-.93-.82v1Zm1.7-3.38a2.76,2.76,0,0,0,.32,1.49,1.36,1.36,0,0,0,1.18.68,1.21,1.21,0,0,0,1-.48,2.38,2.38,0,0,0,.4-1.53,2.53,2.53,0,0,0-.4-1.6,1.27,1.27,0,0,0-1-.49,1.29,1.29,0,0,0-1,.48A2.2,2.2,0,0,0,74.83,12.59Z"/><path class="cls-2" d="M84.58,13.9l1.71.29a2.8,2.8,0,0,1-1,1.43,3.05,3.05,0,0,1-1.78.49A2.9,2.9,0,0,1,81,15a3.71,3.71,0,0,1-.64-2.23,3.58,3.58,0,0,1,.84-2.52,2.77,2.77,0,0,1,2.13-.91,2.87,2.87,0,0,1,2.28,1,4.22,4.22,0,0,1,.8,2.92H82.09a1.73,1.73,0,0,0,.41,1.19,1.3,1.3,0,0,0,1,.42,1,1,0,0,0,.68-.22A1.35,1.35,0,0,0,84.58,13.9Zm.1-1.73A1.65,1.65,0,0,0,84.29,11a1.18,1.18,0,0,0-.89-.39,1.19,1.19,0,0,0-.93.41,1.59,1.59,0,0,0-.36,1.11Z"/><path class="cls-2" d="M13.11,12.07A3.78,3.78,0,1,0,9.33,8.3,3.78,3.78,0,0,0,13.11,12.07Zm0-5.81a2,2,0,1,1-2,2A2,2,0,0,1,13.11,6.26Z"/><path class="cls-2" d="M16.81,13.87a1.46,1.46,0,0,0,.66-1.22,1.05,1.05,0,0,0-.59-1,1.1,1.1,0,0,0-1.16.11,4.42,4.42,0,0,1-5.21,0,1.11,1.11,0,0,0-1.16-.11,1.06,1.06,0,0,0-.59,1,1.47,1.47,0,0,0,.66,1.22,6.71,6.71,0,0,0,1.7.81l.32.09L9.67,16.49a1.16,1.16,0,1,0,1.62,1.67l0,0,1.79-1.85,1.79,1.86a1.16,1.16,0,0,0,1.67-1.62l0,0-1.75-1.72.32-.09A6.69,6.69,0,0,0,16.81,13.87Z"/></svg>