<svg id="Layer_1" data-name="Layer 1" xmlns="http://www.w3.org/2000/svg" viewBox="0 0 103.72 23"><defs><style>.cls-1{fill:#61a8de;}.cls-2{fill:#fff;}</style></defs><title>Telegram - Message us</title><path class="cls-1" d="M100.34,0H3.78A3.78,3.78,0,0,0,0,3.78V19.22A3.78,3.78,0,0,0,3.78,23h96.56a3.17,3.17,0,0,0,3.31-3.78V3.78A3.17,3.17,0,0,0,100.34,0Z"/><path class="cls-2" d="M18.87,5.79,6.78,10.5a.44.44,0,0,0,0,.83l3.07.91L11,15.89a.53.53,0,0,0,.88.21l1.59-1.62,3.12,2.29a.65.65,0,0,0,1-.39L19.71,6.5A.62.62,0,0,0,18.87,5.79ZM17.36,8l-5.62,5a.3.3,0,0,0-.1.19l-.22,1.92a.06.06,0,0,1-.11,0l-.89-2.87a.3.3,0,0,1,.13-.35l6.63-4.11A.15.15,0,0,1,17.36,8Z"/><path class="cls-2" d="M26.93,15.94V6.84h2.75L31.33,13,33,6.84h2.76v9.1H34V8.77L32.2,15.94H30.43l-1.8-7.17v7.17Z"/><path class="cls-2" d="M41.35,13.84l1.74.29A2.85,2.85,0,0,1,42,15.59a3.11,3.11,0,0,1-1.81.5A3,3,0,0,1,37.67,15,3.78,3.78,0,0,1,37,12.69a3.64,3.64,0,0,1,.86-2.57A2.82,2.82,0,0,1,40,9.2a2.92,2.92,0,0,1,2.32,1,4.3,4.3,0,0,1,.81,3H38.81a1.77,1.77,0,0,0,.42,1.21,1.32,1.32,0,0,0,1,.43,1.07,1.07,0,0,0,.69-.22A1.38,1.38,0,0,0,41.35,13.84Zm.1-1.76a1.68,1.68,0,0,0-.39-1.15,1.2,1.2,0,0,0-.91-.39,1.21,1.21,0,0,0-.94.42,1.61,1.61,0,0,0-.37,1.13Z"/><path class="cls-2" d="M44,14.06l1.75-.27a1.28,1.28,0,0,0,.45.77,1.53,1.53,0,0,0,1,.26,1.73,1.73,0,0,0,1-.25.56.56,0,0,0,.23-.47.46.46,0,0,0-.12-.33,1.39,1.39,0,0,0-.58-.23A9.41,9.41,0,0,1,45,12.71a1.7,1.7,0,0,1-.78-1.48,1.83,1.83,0,0,1,.68-1.44A3.16,3.16,0,0,1,47,9.2a3.66,3.66,0,0,1,2,.44,2.25,2.25,0,0,1,.91,1.3l-1.65.3a1,1,0,0,0-.4-.59,1.46,1.46,0,0,0-.84-.21,1.9,1.9,0,0,0-1,.19.41.41,0,0,0-.2.35.38.38,0,0,0,.17.32,6.57,6.57,0,0,0,1.63.49,4.85,4.85,0,0,1,1.95.78,1.61,1.61,0,0,1,.55,1.3,2,2,0,0,1-.76,1.56,3.35,3.35,0,0,1-2.24.65A3.68,3.68,0,0,1,45,15.54,2.52,2.52,0,0,1,44,14.06Z"/><path class="cls-2" d="M51.06,14.06l1.75-.27a1.28,1.28,0,0,0,.45.77,1.53,1.53,0,0,0,1,.26,1.73,1.73,0,0,0,1-.25.56.56,0,0,0,.23-.47.46.46,0,0,0-.12-.33,1.39,1.39,0,0,0-.58-.23,9.41,9.41,0,0,1-2.68-.85,1.7,1.7,0,0,1-.78-1.48A1.83,1.83,0,0,1,52,9.78a3.16,3.16,0,0,1,2.1-.58,3.66,3.66,0,0,1,2,.44,2.25,2.25,0,0,1,.91,1.3l-1.65.3a1,1,0,0,0-.4-.59,1.46,1.46,0,0,0-.84-.21,1.9,1.9,0,0,0-1,.19.41.41,0,0,0-.2.35.38.38,0,0,0,.17.32,6.57,6.57,0,0,0,1.63.49,4.85,4.85,0,0,1,1.95.78,1.61,1.61,0,0,1,.55,1.3,2,2,0,0,1-.76,1.56,3.35,3.35,0,0,1-2.24.65,3.68,3.68,0,0,1-2.13-.55A2.52,2.52,0,0,1,51.06,14.06Z"/><path class="cls-2" d="M60,11.36l-1.58-.29a2.47,2.47,0,0,1,.92-1.42,3.37,3.37,0,0,1,1.94-.46,4.17,4.17,0,0,1,1.74.28,1.73,1.73,0,0,1,.8.7,3.6,3.6,0,0,1,.23,1.56l0,2a7.08,7.08,0,0,0,.08,1.28,3.72,3.72,0,0,0,.31.88H62.75q-.07-.17-.17-.52l-.06-.2a3.15,3.15,0,0,1-1,.65,2.74,2.74,0,0,1-1.09.22,2.25,2.25,0,0,1-1.6-.55,1.84,1.84,0,0,1-.59-1.4,1.87,1.87,0,0,1,.27-1,1.74,1.74,0,0,1,.75-.67,5.86,5.86,0,0,1,1.39-.41,9.48,9.48,0,0,0,1.69-.43v-.17a.9.9,0,0,0-.25-.72,1.49,1.49,0,0,0-.94-.21,1.25,1.25,0,0,0-.73.18A1.28,1.28,0,0,0,60,11.36Zm2.33,1.42q-.34.11-1.06.27a3.19,3.19,0,0,0-1,.3A.73.73,0,0,0,60,14a.85.85,0,0,0,.27.63,1,1,0,0,0,.7.27,1.51,1.51,0,0,0,.9-.31,1.09,1.09,0,0,0,.42-.58,3.45,3.45,0,0,0,.07-.85Z"/><path class="cls-2" d="M65.66,16.37l2,.24a.68.68,0,0,0,.23.48,1.3,1.3,0,0,0,.78.19,2,2,0,0,0,1-.21.84.84,0,0,0,.35-.44,2.65,2.65,0,0,0,.08-.8v-1a2.36,2.36,0,0,1-2,1.07A2.43,2.43,0,0,1,66,14.82a3.82,3.82,0,0,1-.61-2.21,3.64,3.64,0,0,1,.8-2.53,2.58,2.58,0,0,1,2-.88,2.41,2.41,0,0,1,2,1.07V9.35h1.63v5.92A5.9,5.9,0,0,1,71.67,17a2.16,2.16,0,0,1-.54.91,2.39,2.39,0,0,1-.93.51,4.86,4.86,0,0,1-1.47.19A3.8,3.8,0,0,1,66.35,18a1.8,1.8,0,0,1-.7-1.46C65.65,16.53,65.65,16.46,65.66,16.37Zm1.56-3.87A2.38,2.38,0,0,0,67.62,14a1.26,1.26,0,0,0,1,.49A1.39,1.39,0,0,0,69.7,14a2.18,2.18,0,0,0,.44-1.48A2.31,2.31,0,0,0,69.72,11a1.34,1.34,0,0,0-1.07-.5,1.29,1.29,0,0,0-1,.49A2.28,2.28,0,0,0,67.21,12.51Z"/><path class="cls-2" d="M77.4,13.84l1.74.29a2.85,2.85,0,0,1-1.06,1.46,3.11,3.11,0,0,1-1.81.5A3,3,0,0,1,73.73,15a3.78,3.78,0,0,1-.65-2.27,3.64,3.64,0,0,1,.86-2.57A2.82,2.82,0,0,1,76.1,9.2a2.92,2.92,0,0,1,2.32,1,4.3,4.3,0,0,1,.81,3H74.86a1.77,1.77,0,0,0,.42,1.21,1.32,1.32,0,0,0,1,.43,1.07,1.07,0,0,0,.69-.22A1.38,1.38,0,0,0,77.4,13.84Zm.1-1.76a1.68,1.68,0,0,0-.39-1.15,1.2,1.2,0,0,0-.91-.39,1.21,1.21,0,0,0-.94.42,1.61,1.61,0,0,0-.37,1.13Z"/><path class="cls-2" d="M88.53,15.94V15a2.55,2.55,0,0,1-.95.83,2.65,2.65,0,0,1-1.24.3,2.42,2.42,0,0,1-1.19-.29,1.72,1.72,0,0,1-.76-.82,3.66,3.66,0,0,1-.24-1.46V9.35h1.74v3a8.38,8.38,0,0,0,.1,1.7.93.93,0,0,0,.35.5,1.08,1.08,0,0,0,.65.18,1.38,1.38,0,0,0,.8-.25,1.25,1.25,0,0,0,.48-.61,7.07,7.07,0,0,0,.13-1.78V9.35h1.74v6.59Z"/><path class="cls-2" d="M91.34,14.06l1.75-.27a1.28,1.28,0,0,0,.45.77,1.53,1.53,0,0,0,1,.26,1.73,1.73,0,0,0,1-.25.56.56,0,0,0,.23-.47.46.46,0,0,0-.12-.33,1.39,1.39,0,0,0-.58-.23,9.41,9.41,0,0,1-2.68-.85,1.7,1.7,0,0,1-.78-1.48,1.83,1.83,0,0,1,.68-1.44,3.16,3.16,0,0,1,2.1-.58,3.66,3.66,0,0,1,2,.44,2.25,2.25,0,0,1,.91,1.3l-1.65.3a1,1,0,0,0-.4-.59,1.46,1.46,0,0,0-.84-.21,1.9,1.9,0,0,0-1,.19.41.41,0,0,0-.2.35.38.38,0,0,0,.17.32,6.57,6.57,0,0,0,1.63.49,4.85,4.85,0,0,1,1.95.78,1.61,1.61,0,0,1,.55,1.3,2,2,0,0,1-.76,1.56,3.35,3.35,0,0,1-2.24.65,3.68,3.68,0,0,1-2.13-.55A2.52,2.52,0,0,1,91.34,14.06Z"/></svg>