<svg id="Layer_1" data-name="Layer 1" xmlns="http://www.w3.org/2000/svg" viewBox="0 0 96.56 23"><defs><style>.cls-1{fill:#61a8de;}.cls-2{fill:#fff;}</style></defs><title>Telegram - Contact us</title><rect class="cls-1" y="-0.18" width="96.56" height="23" rx="3.78" ry="3.78"/><path class="cls-2" d="M33.13,12.5l1.75.56a3.92,3.92,0,0,1-1.34,2.17,4.21,4.21,0,0,1-5.3-.51A4.65,4.65,0,0,1,27.1,11.4a4.88,4.88,0,0,1,1.15-3.47,4,4,0,0,1,3-1.23,3.72,3.72,0,0,1,2.66,1,3.53,3.53,0,0,1,.91,1.65l-1.79.43a1.85,1.85,0,0,0-1.88-1.5A2,2,0,0,0,29.58,9,3.49,3.49,0,0,0,29,11.26a3.75,3.75,0,0,0,.61,2.41,2,2,0,0,0,1.58.72,1.81,1.81,0,0,0,1.24-.46A2.65,2.65,0,0,0,33.13,12.5Z"/><path class="cls-2" d="M36,12.46a3.5,3.5,0,0,1,.42-1.65,2.89,2.89,0,0,1,1.19-1.22,3.54,3.54,0,0,1,1.72-.42,3.23,3.23,0,0,1,2.41,1,3.3,3.3,0,0,1,.94,2.41A3.33,3.33,0,0,1,41.76,15a3.2,3.2,0,0,1-2.39,1,3.77,3.77,0,0,1-1.7-.4,2.76,2.76,0,0,1-1.23-1.18A3.93,3.93,0,0,1,36,12.46Zm1.76.09A2.14,2.14,0,0,0,38.24,14a1.49,1.49,0,0,0,2.25,0,2.17,2.17,0,0,0,.45-1.49,2.13,2.13,0,0,0-.45-1.46,1.49,1.49,0,0,0-2.25,0A2.14,2.14,0,0,0,37.78,12.55Z"/><path class="cls-2" d="M49.94,15.79H48.22v-3.3a5.1,5.1,0,0,0-.11-1.36,1,1,0,0,0-.36-.48,1,1,0,0,0-.59-.17,1.37,1.37,0,0,0-.8.24,1.23,1.23,0,0,0-.48.65,5.59,5.59,0,0,0-.13,1.49v2.93H44V9.31h1.59v1a2.65,2.65,0,0,1,3.17-.89,1.75,1.75,0,0,1,.71.52,1.89,1.89,0,0,1,.34.72,5.39,5.39,0,0,1,.09,1.15Z"/><path class="cls-2" d="M54.64,9.31v1.37H53.47v2.61a6.44,6.44,0,0,0,0,.92.37.37,0,0,0,.15.22.48.48,0,0,0,.29.08,2.22,2.22,0,0,0,.69-.16l.15,1.33a3.42,3.42,0,0,1-1.35.26,2.15,2.15,0,0,1-.84-.16,1.22,1.22,0,0,1-.55-.4,1.59,1.59,0,0,1-.24-.67,8.28,8.28,0,0,1-.06-1.21V10.68H51V9.31h.79V8l1.72-1V9.31Z"/><path class="cls-2" d="M57.11,11.29,55.56,11a2.42,2.42,0,0,1,.9-1.39,3.3,3.3,0,0,1,1.9-.45,4.1,4.1,0,0,1,1.71.27,1.71,1.71,0,0,1,.79.69,3.54,3.54,0,0,1,.23,1.53l0,2a6.9,6.9,0,0,0,.08,1.26,3.66,3.66,0,0,0,.31.87H59.76q-.07-.17-.17-.51l-.06-.2a3.09,3.09,0,0,1-.94.64,2.68,2.68,0,0,1-1.07.21A2.2,2.2,0,0,1,56,15.39,1.8,1.8,0,0,1,55.38,14a1.84,1.84,0,0,1,.26-1,1.71,1.71,0,0,1,.73-.66,5.71,5.71,0,0,1,1.36-.4,9.35,9.35,0,0,0,1.66-.42v-.17a.89.89,0,0,0-.24-.7,1.47,1.47,0,0,0-.92-.21,1.23,1.23,0,0,0-.71.18A1.25,1.25,0,0,0,57.11,11.29Zm2.29,1.39q-.33.11-1,.26a3.13,3.13,0,0,0-.93.3.71.71,0,0,0-.34.6.84.84,0,0,0,.27.62.94.94,0,0,0,.68.26,1.48,1.48,0,0,0,.88-.3,1.07,1.07,0,0,0,.41-.57A3.4,3.4,0,0,0,59.4,13Z"/><path class="cls-2" d="M68.42,11.23l-1.69.3a1.22,1.22,0,0,0-.39-.76,1.17,1.17,0,0,0-.78-.26,1.28,1.28,0,0,0-1,.44,2.27,2.27,0,0,0-.38,1.48,2.62,2.62,0,0,0,.39,1.63,1.27,1.27,0,0,0,1,.48,1.15,1.15,0,0,0,.8-.28,1.67,1.67,0,0,0,.44-1l1.68.29a3,3,0,0,1-1,1.75,3.11,3.11,0,0,1-2,.59,3,3,0,0,1-2.26-.9,3.47,3.47,0,0,1-.84-2.48,3.49,3.49,0,0,1,.85-2.5,3,3,0,0,1,2.29-.89,3.13,3.13,0,0,1,1.88.51A2.82,2.82,0,0,1,68.42,11.23Z"/><path class="cls-2" d="M72.69,9.31v1.37H71.51v2.61a6.44,6.44,0,0,0,0,.92.37.37,0,0,0,.15.22.48.48,0,0,0,.29.08,2.22,2.22,0,0,0,.69-.16l.15,1.33a3.42,3.42,0,0,1-1.35.26,2.15,2.15,0,0,1-.84-.16,1.22,1.22,0,0,1-.55-.4,1.59,1.59,0,0,1-.24-.67,8.28,8.28,0,0,1-.06-1.21V10.68H69V9.31h.79V8l1.72-1V9.31Z"/><path class="cls-2" d="M81.6,15.79v-1a2.5,2.5,0,0,1-.93.82,2.61,2.61,0,0,1-1.22.3,2.38,2.38,0,0,1-1.17-.29,1.69,1.69,0,0,1-.75-.8,3.58,3.58,0,0,1-.23-1.43V9.31H79v3A8.24,8.24,0,0,0,79.11,14a.91.91,0,0,0,.34.49,1.06,1.06,0,0,0,.63.18,1.34,1.34,0,0,0,.79-.24,1.23,1.23,0,0,0,.48-.6A6.94,6.94,0,0,0,81.48,12V9.31h1.71v6.47Z"/><path class="cls-2" d="M84.36,13.94l1.72-.26a1.26,1.26,0,0,0,.44.76,1.5,1.5,0,0,0,.94.26,1.7,1.7,0,0,0,1-.24.54.54,0,0,0,.23-.46.45.45,0,0,0-.12-.32,1.37,1.37,0,0,0-.57-.23,9.24,9.24,0,0,1-2.63-.83,1.67,1.67,0,0,1-.77-1.46,1.8,1.8,0,0,1,.66-1.41,3.1,3.1,0,0,1,2.06-.57,3.6,3.6,0,0,1,2,.43,2.22,2.22,0,0,1,.89,1.28l-1.62.3a1,1,0,0,0-.39-.58,1.44,1.44,0,0,0-.83-.2,1.87,1.87,0,0,0-1,.19.41.41,0,0,0-.19.35.38.38,0,0,0,.17.31,6.49,6.49,0,0,0,1.6.48,4.76,4.76,0,0,1,1.91.76,1.58,1.58,0,0,1,.54,1.27,2,2,0,0,1-.74,1.53,3.29,3.29,0,0,1-2.2.64,3.61,3.61,0,0,1-2.09-.54A2.48,2.48,0,0,1,84.36,13.94Z"/><path class="cls-2" d="M18.87,5.79,6.78,10.5a.44.44,0,0,0,0,.83l3.07.91L11,15.89a.53.53,0,0,0,.88.21l1.59-1.62,3.12,2.29a.65.65,0,0,0,1-.39L19.71,6.5A.62.62,0,0,0,18.87,5.79ZM17.36,8l-5.62,5a.3.3,0,0,0-.1.19l-.22,1.92a.06.06,0,0,1-.11,0l-.89-2.87a.3.3,0,0,1,.13-.35l6.63-4.11A.15.15,0,0,1,17.36,8Z"/></svg>