<svg id="Layer_1" data-name="Layer 1" xmlns="http://www.w3.org/2000/svg" viewBox="0 0 89.84 23"><defs><style>.cls-1{fill:#20c300;}.cls-2{fill:#fff;}</style></defs><title>Wechat - Follow us</title><rect class="cls-1" width="89.84" height="23" rx="3.78" ry="3.78"/><path class="cls-2" d="M27.6,15.91v-9h6.14V8.46H29.41v2.12h3.74V12.1H29.41v3.81Z"/><path class="cls-2" d="M34.83,12.57a3.51,3.51,0,0,1,.42-1.66,2.89,2.89,0,0,1,1.19-1.22,3.55,3.55,0,0,1,1.73-.42,3.24,3.24,0,0,1,2.41,1,3.3,3.3,0,0,1,.94,2.42,3.35,3.35,0,0,1-1,2.44,3.21,3.21,0,0,1-2.39,1,3.77,3.77,0,0,1-1.7-.4,2.76,2.76,0,0,1-1.23-1.18A3.94,3.94,0,0,1,34.83,12.57Zm1.76.09A2.15,2.15,0,0,0,37,14.14a1.5,1.5,0,0,0,2.26,0,2.18,2.18,0,0,0,.46-1.49,2.14,2.14,0,0,0-.46-1.47,1.5,1.5,0,0,0-2.26,0A2.15,2.15,0,0,0,36.59,12.66Z"/><path class="cls-2" d="M42.88,15.91v-9h1.72v9Z"/><path class="cls-2" d="M46.35,15.91v-9h1.72v9Z"/><path class="cls-2" d="M49.44,12.57a3.51,3.51,0,0,1,.42-1.66,2.89,2.89,0,0,1,1.19-1.22,3.55,3.55,0,0,1,1.73-.42,3.24,3.24,0,0,1,2.41,1,3.3,3.3,0,0,1,.94,2.42,3.35,3.35,0,0,1-1,2.44,3.21,3.21,0,0,1-2.39,1,3.77,3.77,0,0,1-1.7-.4,2.76,2.76,0,0,1-1.23-1.18A3.94,3.94,0,0,1,49.44,12.57Zm1.76.09a2.15,2.15,0,0,0,.46,1.48,1.5,1.5,0,0,0,2.26,0,2.18,2.18,0,0,0,.46-1.49,2.14,2.14,0,0,0-.46-1.47,1.5,1.5,0,0,0-2.26,0A2.15,2.15,0,0,0,51.2,12.66Z"/><path class="cls-2" d="M58.69,15.91,56.64,9.42h1.67l1.22,4.25,1.12-4.25H62.3l1.08,4.25,1.24-4.25h1.69l-2.08,6.49H62.58l-1.12-4.18-1.1,4.18Z"/><path class="cls-2" d="M75,15.91v-1a2.5,2.5,0,0,1-.93.82,2.61,2.61,0,0,1-1.22.3,2.39,2.39,0,0,1-1.17-.29,1.7,1.7,0,0,1-.75-.81,3.6,3.6,0,0,1-.23-1.44V9.42h1.72v3a8.23,8.23,0,0,0,.1,1.68.91.91,0,0,0,.35.49,1.06,1.06,0,0,0,.64.18,1.35,1.35,0,0,0,.79-.24,1.23,1.23,0,0,0,.48-.6,7,7,0,0,0,.13-1.75V9.42h1.72v6.49Z"/><path class="cls-2" d="M77.74,14.06l1.72-.26a1.26,1.26,0,0,0,.45.76,1.51,1.51,0,0,0,.94.26,1.7,1.7,0,0,0,1-.24.54.54,0,0,0,.23-.46.45.45,0,0,0-.12-.32,1.37,1.37,0,0,0-.57-.23,9.26,9.26,0,0,1-2.63-.84A1.67,1.67,0,0,1,78,11.26a1.8,1.8,0,0,1,.67-1.42,3.11,3.11,0,0,1,2.07-.57,3.61,3.61,0,0,1,2,.43A2.22,2.22,0,0,1,83.58,11l-1.62.3a1,1,0,0,0-.39-.58,1.44,1.44,0,0,0-.83-.2,1.87,1.87,0,0,0-1,.19.41.41,0,0,0-.2.35.38.38,0,0,0,.17.31,6.46,6.46,0,0,0,1.6.48,4.77,4.77,0,0,1,1.92.76,1.59,1.59,0,0,1,.54,1.28,2,2,0,0,1-.75,1.53,3.3,3.3,0,0,1-2.21.64,3.62,3.62,0,0,1-2.1-.54A2.48,2.48,0,0,1,77.74,14.06Z"/><path class="cls-2" d="M19.68,16.39a3.69,3.69,0,0,0,1.62-3c0-2.16-2.1-3.92-4.7-3.92s-4.7,1.75-4.7,3.92,2.1,3.92,4.7,3.92a5.55,5.55,0,0,0,1.53-.21l.14,0a.5.5,0,0,1,.25.07l1,.59.09,0a.16.16,0,0,0,.16-.16l0-.11-.21-.79,0-.1A.31.31,0,0,1,19.68,16.39ZM11.34,5.19c-3.11,0-5.64,2.1-5.64,4.7a4.42,4.42,0,0,0,1.95,3.55.37.37,0,0,1,.16.31l0,.12-.25.95,0,.14a.19.19,0,0,0,.19.19l.11,0L9,14.4a.59.59,0,0,1,.3-.09l.17,0a6.67,6.67,0,0,0,1.84.26h.31a3.63,3.63,0,0,1-.19-1.15c0-2.37,2.3-4.29,5.14-4.29h.31C16.49,6.91,14.16,5.19,11.34,5.19ZM15,12.81a.63.63,0,1,1,.63-.63A.63.63,0,0,1,15,12.81Zm3.13,0a.63.63,0,1,1,.63-.63A.63.63,0,0,1,18.17,12.81ZM9.46,9.14a.75.75,0,1,1,.75-.75A.75.75,0,0,1,9.46,9.14Zm3.76,0A.75.75,0,1,1,14,8.39.75.75,0,0,1,13.22,9.14Z"/></svg>