<svg id="Layer_1" data-name="Layer 1" xmlns="http://www.w3.org/2000/svg" viewBox="0 0 76.06 23"><defs><style>.cls-1{fill:#00605e;}.cls-2{fill:#fff;}</style></defs><title>Xing - Visit us</title><rect class="cls-1" width="76.06" height="23" rx="3.78" ry="3.78"/><path class="cls-2" d="M29.69,15.88,26.51,7h2l2.26,6.6L32.9,7h1.91l-3.19,8.91Z"/><path class="cls-2" d="M35.49,8.55V7H37.2V8.55Zm0,7.33V9.43H37.2v6.46Z"/><path class="cls-2" d="M38.35,14l1.71-.26a1.26,1.26,0,0,0,.44.76,1.5,1.5,0,0,0,.94.26,1.69,1.69,0,0,0,1-.24.54.54,0,0,0,.23-.46.45.45,0,0,0-.12-.32,1.36,1.36,0,0,0-.57-.23,9.21,9.21,0,0,1-2.62-.83,1.66,1.66,0,0,1-.77-1.45,1.79,1.79,0,0,1,.66-1.41,3.1,3.1,0,0,1,2.06-.57,3.59,3.59,0,0,1,2,.43A2.21,2.21,0,0,1,44.16,11l-1.61.3a1,1,0,0,0-.39-.58,1.43,1.43,0,0,0-.82-.2,1.86,1.86,0,0,0-1,.19.4.4,0,0,0-.19.35.38.38,0,0,0,.17.31,6.42,6.42,0,0,0,1.6.48,4.76,4.76,0,0,1,1.91.76,1.58,1.58,0,0,1,.54,1.27,2,2,0,0,1-.74,1.53,3.28,3.28,0,0,1-2.2.64,3.6,3.6,0,0,1-2.09-.54A2.46,2.46,0,0,1,38.35,14Z"/><path class="cls-2" d="M45.87,8.55V7h1.71V8.55Zm0,7.33V9.43h1.71v6.46Z"/><path class="cls-2" d="M52.3,9.43v1.36H51.13v2.6a6.42,6.42,0,0,0,0,.92.37.37,0,0,0,.15.22.48.48,0,0,0,.29.08,2.21,2.21,0,0,0,.69-.16l.15,1.33a3.39,3.39,0,0,1-1.35.26,2.14,2.14,0,0,1-.83-.16,1.21,1.21,0,0,1-.54-.4,1.58,1.58,0,0,1-.24-.67,8.24,8.24,0,0,1-.06-1.2V10.79h-.78V9.43h.78V8.14l1.71-1V9.43Z"/><path class="cls-2" d="M61.19,15.88v-1a2.49,2.49,0,0,1-.93.81,2.61,2.61,0,0,1-1.21.3,2.37,2.37,0,0,1-1.17-.29,1.69,1.69,0,0,1-.75-.8,3.58,3.58,0,0,1-.23-1.43V9.43h1.71v3a8.21,8.21,0,0,0,.09,1.67.91.91,0,0,0,.34.49,1.05,1.05,0,0,0,.63.18,1.34,1.34,0,0,0,.78-.24,1.22,1.22,0,0,0,.47-.6,6.9,6.9,0,0,0,.13-1.74V9.43h1.71v6.46Z"/><path class="cls-2" d="M63.95,14l1.71-.26a1.26,1.26,0,0,0,.44.76,1.5,1.5,0,0,0,.94.26,1.69,1.69,0,0,0,1-.24.54.54,0,0,0,.23-.46.45.45,0,0,0-.12-.32,1.36,1.36,0,0,0-.57-.23,9.21,9.21,0,0,1-2.62-.83,1.66,1.66,0,0,1-.77-1.45,1.79,1.79,0,0,1,.66-1.41,3.1,3.1,0,0,1,2.06-.57,3.59,3.59,0,0,1,2,.43A2.21,2.21,0,0,1,69.76,11l-1.61.3a1,1,0,0,0-.39-.58,1.43,1.43,0,0,0-.82-.2,1.86,1.86,0,0,0-1,.19.4.4,0,0,0-.19.35.38.38,0,0,0,.17.31,6.42,6.42,0,0,0,1.6.48,4.76,4.76,0,0,1,1.91.76A1.58,1.58,0,0,1,70,13.87a2,2,0,0,1-.74,1.53A3.28,3.28,0,0,1,67,16,3.6,3.6,0,0,1,65,15.49,2.46,2.46,0,0,1,63.95,14Z"/><polygon class="cls-2" points="10.37 7.2 7.35 7.2 9.04 10.35 6.75 14.14 9.76 14.14 12.06 10.35 10.37 7.2"/><polygon class="cls-2" points="16.3 4.79 19.47 4.79 14.8 13.01 17.86 18.21 14.69 18.21 11.62 13.01 16.3 4.79"/></svg>