<svg width="76" height="23" viewBox="0 0 76 23" fill="none" xmlns="http://www.w3.org/2000/svg">
<mask id="mask0" mask-type="alpha" maskUnits="userSpaceOnUse" x="0" y="0" width="76" height="23">
<path d="M71.3 0H3.79999C1.69999 0 0 1.69999 0 3.79999V19.2C0 21.3 1.69999 23 3.79999 23H71.3C73.4 23 75.1 21.3 75.1 19.2V3.79999C75.1 1.69999 73.4 0 71.3 0Z" fill="#4367AF"/>
</mask>
<g mask="url(#mask0)">
<rect width="75" height="23" fill="#0274B3"/>
<rect width="75" height="23" fill="#E36021"/>
<path d="M28.6 15.9L25.4 7H27.3L29.5 13.6L31.7 7H33.6L30.4 15.9H28.6Z" fill="white"/>
<path d="M34.3 8.59998V7H36V8.59998H34.3ZM34.3 15.9V9.5H36V15.9H34.3Z" fill="white"/>
<path d="M37.2 14.1L38.9 13.8C39 14.1 39.1 14.4 39.3 14.6C39.5 14.8 39.8 14.9 40.2 14.9C40.6 14.9 41 14.8 41.2 14.7C41.3 14.6 41.4 14.4 41.4 14.2C41.4 14.1 41.4 14 41.3 13.9C41.2 13.8 41 13.7 40.7 13.7C39.3 13.4 38.5 13.1 38.1 12.9C37.6 12.6 37.3 12.1 37.3 11.5C37.3 10.9 37.5 10.5 38 10.1C38.4 9.69998 39.1 9.5 40 9.5C40.9 9.5 41.5 9.59996 42 9.89996C42.4 10.2 42.7 10.6 42.9 11.2L41.3 11.5C41.2 11.2 41.1 11.1 40.9 10.9C40.7 10.8 40.4 10.7 40.1 10.7C39.7 10.7 39.3 10.8 39.1 10.9C39 11 38.9 11.1 38.9 11.2C38.9 11.3 39 11.4 39.1 11.5C39.3 11.6 39.8 11.8 40.7 12C41.6 12.2 42.2 12.5 42.6 12.8C43 13.1 43.1 13.5 43.1 14.1C43.1 14.7 42.9 15.2 42.4 15.6C41.9 16 41.2 16.2 40.2 16.2C39.3 16.2 38.6 16 38.1 15.7C37.7 15.2 37.3 14.7 37.2 14.1Z" fill="white"/>
<path d="M44.7 8.59998V7H46.4V8.59998H44.7ZM44.7 15.9V9.5H46.4V15.9H44.7Z" fill="white"/>
<path d="M51.1 9.5V10.9H49.9V13.5C49.9 14 49.9 14.3 49.9 14.4C49.9 14.5 50 14.6 50.1 14.6C50.2 14.7 50.3 14.7 50.4 14.7C50.6 14.7 50.8 14.6 51.1 14.5L51.2 15.8C50.8 16 50.4 16.1 49.9 16.1C49.6 16.1 49.3 16 49.1 15.9C48.9 15.8 48.7 15.7 48.6 15.5C48.5 15.3 48.4 15.1 48.4 14.8C48.4 14.6 48.3 14.2 48.3 13.6V10.8H47.5V9.39996H48.3V8.09998L50 7.09998V9.39996H51.1V9.5Z" fill="white"/>
<path d="M59.9 15.9V14.9C59.7 15.2 59.4 15.5 59 15.7C58.6 15.9 58.2 16 57.8 16C57.4 16 57 15.9 56.6 15.7C56.3 15.5 56 15.2 55.9 14.9C55.7 14.6 55.7 14.1 55.7 13.5V9.39996H57.4V12.4C57.4 13.3 57.4 13.9 57.5 14.1C57.6 14.3 57.7 14.5 57.8 14.6C58 14.7 58.2 14.8 58.4 14.8C58.7 14.8 59 14.7 59.2 14.6C59.4 14.4 59.6 14.2 59.7 14C59.8 13.8 59.8 13.2 59.8 12.3V9.59998H61.5V16H59.9V15.9Z" fill="white"/>
<path d="M62.7 14.1L64.4 13.8C64.5 14.1 64.6 14.4 64.8 14.6C65 14.8 65.3 14.9 65.7 14.9C66.1 14.9 66.5 14.8 66.7 14.7C66.9 14.6 66.9 14.4 66.9 14.2C66.9 14.1 66.9 14 66.8 13.9C66.7 13.8 66.5 13.7 66.2 13.7C64.8 13.4 64 13.1 63.6 12.9C63.1 12.6 62.8 12.1 62.8 11.5C62.8 10.9 63 10.5 63.5 10.1C63.9 9.69998 64.6 9.5 65.5 9.5C66.4 9.5 67 9.59996 67.5 9.89996C67.9 10.2 68.2 10.6 68.4 11.2L66.8 11.5C66.7 11.2 66.6 11.1 66.4 10.9C66.2 10.8 65.9 10.7 65.6 10.7C65.2 10.7 64.8 10.8 64.6 10.9C64.5 11 64.4 11.1 64.4 11.2C64.4 11.3 64.5 11.4 64.6 11.5C64.8 11.6 65.3 11.8 66.2 12C67.1 12.2 67.7 12.5 68.1 12.8C68.5 13.1 68.6 13.5 68.6 14.1C68.6 14.7 68.4 15.2 67.9 15.6C67.4 16 66.7 16.2 65.7 16.2C64.8 16.2 64.1 16 63.6 15.7C63.2 15.2 62.8 14.7 62.7 14.1Z" fill="white"/>
<path d="M9.73565 12.0816C9.47356 12.1893 9.22418 12.3101 8.96463 12.3916C8.49896 12.536 8.02058 12.6122 7.53964 12.4809C7.10706 12.3627 6.82715 11.9687 6.81188 11.5037C6.79916 11.1675 6.8984 10.8576 6.97728 10.5397C7.1783 9.74122 7.38442 8.94533 7.58544 8.14681C7.60835 8.05225 7.62361 7.94718 7.61344 7.84999C7.59308 7.69764 7.49129 7.6346 7.34625 7.66875C7.11469 7.72391 6.91621 7.84474 6.74572 8.0181C6.63376 8.13105 6.58032 8.13105 6.46836 8.02335C6.31059 7.871 6.1859 7.69764 6.12483 7.48225C6.07394 7.30889 6.09684 7.15391 6.23425 7.02783C6.55487 6.73101 6.93911 6.5524 7.35897 6.46309C7.59308 6.41318 7.82718 6.40005 8.06383 6.45521C8.53459 6.5629 8.80686 6.907 8.8374 7.4087C8.86285 7.84211 8.74834 8.24925 8.64655 8.65902C8.49133 9.27104 8.33611 9.88306 8.18343 10.4977C8.15544 10.6107 8.14526 10.7315 8.14272 10.8471C8.13763 11.0808 8.23178 11.1833 8.46334 11.1885C8.85776 11.199 9.21655 11.0572 9.58043 10.9206C9.87815 10.8077 10.0079 10.6238 10.0588 10.2902C10.209 9.2868 10.4023 8.28865 10.5703 7.28525C10.5957 7.13027 10.5703 6.96479 10.5576 6.80456C10.5499 6.70212 10.5448 6.61018 10.6517 6.5629C10.9113 6.44733 11.181 6.4053 11.4558 6.48936C11.6721 6.55502 11.7815 6.69424 11.7612 6.92539C11.7306 7.27737 11.6797 7.62672 11.6238 7.97345C11.4711 8.91118 11.3082 9.84891 11.1505 10.7866C11.0461 11.4013 10.9393 12.0159 10.8349 12.6306C10.8248 12.6858 10.8197 12.7409 10.8095 12.8145C10.9749 12.8329 11.1352 12.846 11.293 12.8696C12.0665 12.9878 12.8401 13.106 13.6137 13.2269C14.5323 13.3713 15.4509 13.5368 16.372 13.6576C16.8708 13.7233 17.3772 13.7417 17.881 13.7312C18.8047 13.7128 19.6979 13.5368 20.5121 13.0482C20.6088 12.9905 20.6826 13.0036 20.7615 13.0824C20.9498 13.2715 21.0719 13.4974 21.0974 13.7706C21.1152 13.9886 21.0414 14.1725 20.8582 14.3038C20.4002 14.6295 19.8887 14.816 19.3441 14.9106C18.624 15.0393 17.9039 15.0183 17.1812 14.9447C15.8758 14.8134 14.6086 14.4877 13.3261 14.2224C12.5856 14.07 11.8375 13.9466 11.0919 13.8126C11.0334 13.8021 10.9723 13.81 10.9138 13.8021C10.6085 13.7601 10.6619 13.7522 10.5983 14.049C10.4583 14.7057 10.2319 15.3203 9.78654 15.8299C9.27507 16.4157 8.34629 16.6521 7.69486 16.3579C7.16813 16.1189 6.87804 15.5699 6.95692 14.9999C7.09433 14.0122 7.66942 13.4134 8.54222 13.0876C8.85776 12.9694 9.19619 12.9117 9.5219 12.8197C9.56516 12.8066 9.62114 12.7619 9.62878 12.7225C9.66949 12.5071 9.70003 12.2918 9.73565 12.0816ZM9.42775 13.894C9.39467 13.8888 9.37686 13.8809 9.36414 13.8862C9.07659 13.9518 8.80177 14.0516 8.57276 14.246C8.39209 14.401 8.26995 14.5954 8.23687 14.8423C8.1987 15.1339 8.38955 15.302 8.66436 15.2205C8.83485 15.168 8.95954 15.055 9.05369 14.9027C9.23691 14.5954 9.34123 14.2565 9.42775 13.894Z" fill="#E36021"/>
<path d="M9.73565 12.0816C9.47356 12.1893 9.22418 12.3101 8.96463 12.3916C8.49896 12.536 8.02058 12.6122 7.53964 12.4809C7.10706 12.3627 6.82715 11.9687 6.81188 11.5037C6.79916 11.1675 6.8984 10.8576 6.97728 10.5397C7.1783 9.74122 7.38442 8.94533 7.58544 8.14681C7.60835 8.05225 7.62361 7.94718 7.61344 7.84999C7.59308 7.69764 7.49129 7.6346 7.34625 7.66875C7.11469 7.72391 6.91621 7.84474 6.74572 8.0181C6.63376 8.13105 6.58032 8.13105 6.46836 8.02335C6.31059 7.871 6.1859 7.69764 6.12483 7.48225C6.07394 7.30889 6.09684 7.15391 6.23425 7.02783C6.55487 6.73101 6.93911 6.5524 7.35897 6.46309C7.59308 6.41318 7.82718 6.40005 8.06383 6.45521C8.53459 6.5629 8.80686 6.907 8.8374 7.4087C8.86285 7.84211 8.74834 8.24925 8.64655 8.65902C8.49133 9.27104 8.33611 9.88306 8.18343 10.4977C8.15544 10.6107 8.14526 10.7315 8.14272 10.8471C8.13763 11.0808 8.23178 11.1833 8.46334 11.1885C8.85776 11.199 9.21655 11.0572 9.58043 10.9206C9.87815 10.8077 10.0079 10.6238 10.0588 10.2902C10.209 9.2868 10.4023 8.28865 10.5703 7.28525C10.5957 7.13027 10.5703 6.96479 10.5576 6.80456C10.5499 6.70212 10.5448 6.61018 10.6517 6.5629C10.9113 6.44733 11.181 6.4053 11.4558 6.48936C11.6721 6.55502 11.7815 6.69424 11.7612 6.92539C11.7306 7.27737 11.6797 7.62672 11.6238 7.97345C11.4711 8.91118 11.3082 9.84891 11.1505 10.7866C11.0461 11.4013 10.9393 12.0159 10.8349 12.6306C10.8248 12.6858 10.8197 12.7409 10.8095 12.8145C10.9749 12.8329 11.1352 12.846 11.293 12.8696C12.0665 12.9878 12.8401 13.106 13.6137 13.2269C14.5323 13.3713 15.4509 13.5368 16.372 13.6576C16.8708 13.7233 17.3772 13.7417 17.881 13.7312C18.8047 13.7128 19.6979 13.5368 20.5121 13.0482C20.6088 12.9905 20.6826 13.0036 20.7615 13.0824C20.9498 13.2715 21.0719 13.4974 21.0974 13.7706C21.1152 13.9886 21.0414 14.1725 20.8582 14.3038C20.4002 14.6295 19.8887 14.816 19.3441 14.9106C18.624 15.0393 17.9039 15.0183 17.1812 14.9447C15.8758 14.8134 14.6086 14.4877 13.3261 14.2224C12.5856 14.07 11.8375 13.9466 11.0919 13.8126C11.0334 13.8021 10.9723 13.81 10.9138 13.8021C10.6085 13.7601 10.6619 13.7522 10.5983 14.049C10.4583 14.7057 10.2319 15.3203 9.78654 15.8299C9.27507 16.4157 8.34629 16.6521 7.69486 16.3579C7.16813 16.1189 6.87804 15.5699 6.95692 14.9999C7.09433 14.0122 7.66942 13.4134 8.54222 13.0876C8.85776 12.9694 9.19619 12.9117 9.5219 12.8197C9.56516 12.8066 9.62114 12.7619 9.62878 12.7225C9.66949 12.5071 9.70003 12.2918 9.73565 12.0816ZM9.42775 13.894C9.39467 13.8888 9.37686 13.8809 9.36414 13.8862C9.07659 13.9518 8.80177 14.0516 8.57276 14.246C8.39209 14.401 8.26995 14.5954 8.23687 14.8423C8.1987 15.1339 8.38955 15.302 8.66436 15.2205C8.83485 15.168 8.95954 15.055 9.05369 14.9027C9.23691 14.5954 9.34123 14.2565 9.42775 13.894Z" fill="white"/>
<path d="M17.0642 8.55658C17.367 8.45414 17.6469 8.34119 17.937 8.26502C18.166 8.2046 18.4052 8.23087 18.6164 8.3517C18.7334 8.41999 18.8276 8.53032 18.9497 8.63801C19.077 8.57497 19.2296 8.48041 19.3976 8.42525C19.6241 8.34907 19.8607 8.26502 20.0948 8.25451C20.6674 8.22562 20.9829 8.54345 20.9676 9.13709C20.96 9.47593 20.8938 9.81215 20.8404 10.1484C20.7488 10.7157 20.6419 11.2831 20.5554 11.8505C20.5325 11.9976 20.5503 12.1552 20.5681 12.3049C20.5834 12.4336 20.5554 12.515 20.4358 12.5623C20.1966 12.6569 19.9498 12.6831 19.7004 12.6227C19.4765 12.5702 19.3467 12.4152 19.3645 12.1814C19.3849 11.8899 19.4307 11.6009 19.4765 11.3146C19.5554 10.8024 19.6495 10.2928 19.7182 9.778C19.7589 9.4733 19.5961 9.3551 19.3136 9.45754C19.2653 9.47593 19.2195 9.49695 19.1711 9.51533C19.0363 9.57312 18.9548 9.65192 18.9268 9.82528C18.8174 10.5529 18.6851 11.2779 18.568 12.0055C18.5528 12.0948 18.5782 12.1946 18.5986 12.2891C18.6317 12.4467 18.6062 12.5098 18.4637 12.5676C18.2194 12.6648 17.9675 12.6858 17.7156 12.6201C17.5146 12.5676 17.3848 12.4126 17.4026 12.1998C17.4306 11.8478 17.4866 11.4985 17.54 11.1518C17.6062 10.7289 17.68 10.3086 17.7512 9.88832C17.7588 9.84892 17.7512 9.80952 17.7563 9.77012C17.7919 9.45754 17.5782 9.36298 17.3364 9.4628C17.2474 9.49957 17.1558 9.5416 17.0743 9.59413C17.0336 9.6204 16.9955 9.67556 16.9853 9.72547C16.8555 10.4636 16.7283 11.2043 16.6087 11.945C16.5909 12.0606 16.6163 12.1867 16.6341 12.3075C16.657 12.452 16.6341 12.5072 16.5069 12.5649C16.2906 12.6595 16.0616 12.6779 15.8326 12.6437C15.5399 12.5991 15.3873 12.3863 15.4305 12.0816C15.489 11.6666 15.5578 11.2542 15.6239 10.8418C15.7257 10.2219 15.8377 9.60464 15.9344 8.98474C15.9496 8.8823 15.9216 8.76935 15.9038 8.66165C15.8784 8.51718 15.8987 8.44889 16.0336 8.40686C16.1914 8.35958 16.3542 8.31493 16.5145 8.30705C16.7385 8.29391 16.9471 8.34907 17.0642 8.55658Z" fill="#E36021"/>
<path d="M17.0642 8.55658C17.367 8.45414 17.6469 8.34119 17.937 8.26502C18.166 8.2046 18.4052 8.23087 18.6164 8.3517C18.7334 8.41999 18.8276 8.53032 18.9497 8.63801C19.077 8.57497 19.2296 8.48041 19.3976 8.42525C19.6241 8.34907 19.8607 8.26502 20.0948 8.25451C20.6674 8.22562 20.9829 8.54345 20.9676 9.13709C20.96 9.47593 20.8938 9.81215 20.8404 10.1484C20.7488 10.7157 20.6419 11.2831 20.5554 11.8505C20.5325 11.9976 20.5503 12.1552 20.5681 12.3049C20.5834 12.4336 20.5554 12.515 20.4358 12.5623C20.1966 12.6569 19.9498 12.6831 19.7004 12.6227C19.4765 12.5702 19.3467 12.4152 19.3645 12.1814C19.3849 11.8899 19.4307 11.6009 19.4765 11.3146C19.5554 10.8024 19.6495 10.2928 19.7182 9.778C19.7589 9.4733 19.5961 9.3551 19.3136 9.45754C19.2653 9.47593 19.2195 9.49695 19.1711 9.51533C19.0363 9.57312 18.9548 9.65192 18.9268 9.82528C18.8174 10.5529 18.6851 11.2779 18.568 12.0055C18.5528 12.0948 18.5782 12.1946 18.5986 12.2891C18.6317 12.4467 18.6062 12.5098 18.4637 12.5676C18.2194 12.6648 17.9675 12.6858 17.7156 12.6201C17.5146 12.5676 17.3848 12.4126 17.4026 12.1998C17.4306 11.8478 17.4866 11.4985 17.54 11.1518C17.6062 10.7289 17.68 10.3086 17.7512 9.88832C17.7588 9.84892 17.7512 9.80952 17.7563 9.77012C17.7919 9.45754 17.5782 9.36298 17.3364 9.4628C17.2474 9.49957 17.1558 9.5416 17.0743 9.59413C17.0336 9.6204 16.9955 9.67556 16.9853 9.72547C16.8555 10.4636 16.7283 11.2043 16.6087 11.945C16.5909 12.0606 16.6163 12.1867 16.6341 12.3075C16.657 12.452 16.6341 12.5072 16.5069 12.5649C16.2906 12.6595 16.0616 12.6779 15.8326 12.6437C15.5399 12.5991 15.3873 12.3863 15.4305 12.0816C15.489 11.6666 15.5578 11.2542 15.6239 10.8418C15.7257 10.2219 15.8377 9.60464 15.9344 8.98474C15.9496 8.8823 15.9216 8.76935 15.9038 8.66165C15.8784 8.51718 15.8987 8.44889 16.0336 8.40686C16.1914 8.35958 16.3542 8.31493 16.5145 8.30705C16.7385 8.29391 16.9471 8.34907 17.0642 8.55658Z" fill="white"/>
<path d="M13.6391 12.297C13.4457 12.3679 13.2625 12.4546 13.0717 12.4993C12.863 12.5492 12.6467 12.5965 12.4355 12.5833C11.9876 12.5544 11.695 12.1946 11.6721 11.7218C11.6492 11.2621 11.7713 10.8208 11.8401 10.3716C11.9113 9.9067 11.9927 9.44178 12.0614 8.97685C12.0767 8.87178 12.0538 8.76146 12.0385 8.65376C12.0156 8.5093 12.0385 8.45413 12.1709 8.39897C12.3948 8.30441 12.6263 8.27026 12.8681 8.32017C13.1022 8.36745 13.2574 8.53294 13.2396 8.77722C13.2116 9.11869 13.1556 9.46016 13.1047 9.80164C13.0411 10.2114 12.9673 10.6185 12.9012 11.0283C12.8604 11.2936 13.0131 11.4617 13.2701 11.4171C13.4177 11.3908 13.5602 11.3251 13.7002 11.2647C13.7409 11.2463 13.7765 11.1833 13.7841 11.1334C13.9063 10.4504 14.0284 9.76749 14.1378 9.08454C14.1607 8.93745 14.1353 8.77985 14.1149 8.63012C14.0997 8.53031 14.1226 8.46464 14.2066 8.42524C14.4788 8.29916 14.7587 8.2545 15.0463 8.35432C15.2498 8.42524 15.344 8.5986 15.3287 8.80611C15.3033 9.11869 15.2498 9.42864 15.1964 9.73859C15.0768 10.4426 14.947 11.1465 14.8351 11.8531C14.8096 12.0081 14.8376 12.1736 14.8605 12.3338C14.8758 12.4389 14.8529 12.5045 14.7613 12.5465C14.5221 12.6569 14.2702 12.6805 14.0157 12.6385C13.8223 12.6043 13.6951 12.4914 13.6391 12.297Z" fill="#E36021"/>
<path d="M13.6391 12.297C13.4457 12.3679 13.2625 12.4546 13.0717 12.4993C12.863 12.5492 12.6467 12.5965 12.4355 12.5833C11.9876 12.5544 11.695 12.1946 11.6721 11.7218C11.6492 11.2621 11.7713 10.8208 11.8401 10.3716C11.9113 9.9067 11.9927 9.44178 12.0614 8.97685C12.0767 8.87178 12.0538 8.76146 12.0385 8.65376C12.0156 8.5093 12.0385 8.45413 12.1709 8.39897C12.3948 8.30441 12.6263 8.27026 12.8681 8.32017C13.1022 8.36745 13.2574 8.53294 13.2396 8.77722C13.2116 9.11869 13.1556 9.46016 13.1047 9.80164C13.0411 10.2114 12.9673 10.6185 12.9012 11.0283C12.8604 11.2936 13.0131 11.4617 13.2701 11.4171C13.4177 11.3908 13.5602 11.3251 13.7002 11.2647C13.7409 11.2463 13.7765 11.1833 13.7841 11.1334C13.9063 10.4504 14.0284 9.76749 14.1378 9.08454C14.1607 8.93745 14.1353 8.77985 14.1149 8.63012C14.0997 8.53031 14.1226 8.46464 14.2066 8.42524C14.4788 8.29916 14.7587 8.2545 15.0463 8.35432C15.2498 8.42524 15.344 8.5986 15.3287 8.80611C15.3033 9.11869 15.2498 9.42864 15.1964 9.73859C15.0768 10.4426 14.947 11.1465 14.8351 11.8531C14.8096 12.0081 14.8376 12.1736 14.8605 12.3338C14.8758 12.4389 14.8529 12.5045 14.7613 12.5465C14.5221 12.6569 14.2702 12.6805 14.0157 12.6385C13.8223 12.6043 13.6951 12.4914 13.6391 12.297Z" fill="white"/>
</g>
</svg>
